<svg width="140" height="40" viewBox="0 0 140 40" fill="none" xmlns="http://www.w3.org/2000/svg">
<rect x="0.5" y="0.5" width="139" height="39" rx="3.5" fill="white"/>
<rect x="7.15299" y="7.15299" width="25.694" height="25.694" rx="3.87826" fill="white" stroke="#FF7A00" stroke-width="2.30599"/>
<path d="M15.5448 27.8719C15.5986 27.8742 15.6522 27.8654 15.7025 27.8462C15.7527 27.8269 15.7985 27.7975 15.837 27.7599C15.8748 27.7215 15.9043 27.6757 15.9239 27.6255C15.9435 27.5753 15.9526 27.5216 15.9507 27.4677V16.0845C15.9438 16.0357 15.9482 15.9859 15.9638 15.9391C15.9793 15.8924 16.0055 15.8498 16.0402 15.8149C16.075 15.7799 16.1174 15.7535 16.1641 15.7378C16.2108 15.722 16.2606 15.7173 16.3094 15.724H23.6894C23.7376 15.7188 23.7863 15.7246 23.8319 15.741C23.8775 15.7574 23.9187 15.784 23.9524 15.8188C23.9862 15.8535 24.0115 15.8955 24.0266 15.9416C24.0417 15.9876 24.046 16.0365 24.0394 16.0845V19.638C24.0464 19.6861 24.0423 19.7351 24.0273 19.7813C24.0124 19.8275 23.987 19.8696 23.9532 19.9045C23.9194 19.9393 23.878 19.9659 23.8323 19.9822C23.7865 19.9985 23.7377 20.004 23.6894 19.9984H20.3651C20.3157 19.9905 20.2652 19.9943 20.2176 20.0095C20.1699 20.0247 20.1266 20.0509 20.091 20.086C20.0554 20.1211 20.0285 20.1641 20.0126 20.2115C19.9967 20.2589 19.9922 20.3094 19.9994 20.3589V21.9336C19.993 22.292 20.0271 22.65 20.1009 23.0008C20.1778 23.3183 20.3111 23.6194 20.4946 23.8897L22.7884 27.4887C22.8678 27.6171 22.9814 27.7209 23.1164 27.7886C23.2514 27.8562 23.4025 27.8851 23.553 27.8719H26.5449C26.6953 27.8719 26.7933 27.8316 26.8388 27.7477C26.8596 27.6978 26.8663 27.6433 26.8583 27.59C26.8503 27.5366 26.8278 27.4865 26.7933 27.445L24.5188 23.7707C24.4138 23.6202 24.4523 23.5012 24.6325 23.4103L26.2282 22.6912C26.7419 22.4837 27.1784 22.1217 27.4774 21.6554C27.7541 21.1645 27.8909 20.6071 27.8728 20.0439V14.8247C27.8728 13.9394 27.6442 13.2681 27.187 12.8109C26.7297 12.3536 26.0585 12.125 25.1731 12.125H14.8257C13.959 12.125 13.2924 12.3536 12.8258 12.8109C12.3593 13.2681 12.126 13.9394 12.126 14.8247V27.4677C12.1238 27.5215 12.1326 27.5751 12.1518 27.6254C12.1711 27.6756 12.2004 27.7214 12.2379 27.7599C12.2765 27.7975 12.3223 27.8268 12.3725 27.846C12.4227 27.8653 12.4764 27.8741 12.5301 27.8719H15.5448Z" fill="#0684BC"/>
<path d="M42.76 13.096C43.544 13.096 44.08 12.712 44.344 12.2H44.376L44.456 13H44.968V10.184H43.096V10.744H44.36V10.936C44.36 11.904 43.808 12.488 42.856 12.488C41.856 12.488 41.168 11.792 41.168 10.464V9.936C41.168 8.616 41.888 7.912 42.872 7.912C43.712 7.912 44.136 8.352 44.344 8.936L44.976 8.76C44.736 7.904 44.096 7.304 42.872 7.304C41.456 7.304 40.48 8.264 40.48 10.2C40.48 12.136 41.384 13.096 42.76 13.096ZM47.8204 13.096C48.6684 13.096 49.1964 12.72 49.4444 12.128L48.9324 11.92C48.7724 12.232 48.4284 12.536 47.8204 12.536C47.0684 12.536 46.5564 12.04 46.5564 11.112L46.5884 11.096C46.7244 11.12 46.9084 11.136 47.1164 11.136H49.5484V10.872C49.5484 9.576 48.7724 8.904 47.7884 8.904C46.7084 8.904 45.9324 9.68 45.9324 11C45.9324 12.32 46.6604 13.096 47.8204 13.096ZM46.5564 10.632C46.6124 9.912 47.0844 9.448 47.7884 9.448C48.4524 9.448 48.8924 9.92 48.9244 10.624L48.8924 10.64C48.7484 10.624 48.5324 10.616 48.3644 10.616H47.1164C46.9084 10.616 46.7244 10.632 46.5884 10.648L46.5564 10.632ZM51.9624 13.096C52.2104 13.096 52.4664 13.056 52.6344 13V12.456C52.4664 12.512 52.2504 12.544 52.0184 12.544C51.6344 12.544 51.3864 12.368 51.3864 11.816V9.544H52.6344V9H51.3384L51.3224 8.976C51.3704 8.848 51.3864 8.664 51.3864 8.408V7.984H50.7464V9H49.9944V9.544H50.7464V11.848C50.7464 12.696 51.1784 13.096 51.9624 13.096ZM56.3958 8.08V7.296H55.5958V8.08H56.3958ZM56.4118 13V9H54.9398V9.544H55.8198L55.8358 9.568C55.7878 9.696 55.7718 9.88 55.7718 10.136V13H56.4118ZM59.2281 13.096C59.4761 13.096 59.7321 13.056 59.9001 13V12.456C59.7321 12.512 59.5161 12.544 59.2841 12.544C58.9001 12.544 58.6521 12.368 58.6521 11.816V9.544H59.9001V9H58.6041L58.5881 8.976C58.6361 8.848 58.6521 8.664 58.6521 8.408V7.984H58.0121V9H57.2601V9.544H58.0121V11.848C58.0121 12.696 58.4441 13.096 59.2281 13.096ZM64.4294 13.096C65.5094 13.096 66.3014 12.32 66.3014 11C66.3014 9.68 65.5094 8.904 64.4294 8.904C63.3494 8.904 62.5574 9.68 62.5574 11C62.5574 12.32 63.3494 13.096 64.4294 13.096ZM64.4294 12.536C63.6934 12.536 63.1974 12.04 63.1974 11.2V10.8C63.1974 9.96 63.6934 9.464 64.4294 9.464C65.1654 9.464 65.6614 9.96 65.6614 10.8V11.2C65.6614 12.04 65.1654 12.536 64.4294 12.536ZM68.142 13V10.408C68.142 9.816 68.542 9.448 69.166 9.448C69.75 9.448 70.094 9.768 70.094 10.384V13H70.734V10.36C70.734 9.48 70.27 8.904 69.326 8.904C68.79 8.904 68.406 9.136 68.142 9.48H68.11L68.038 9H67.502V13H68.142ZM75.5015 13.096C75.7495 13.096 76.0055 13.056 76.1735 13V12.456C76.0055 12.512 75.7895 12.544 75.5575 12.544C75.1735 12.544 74.9255 12.368 74.9255 11.816V9.544H76.1735V9H74.8775L74.8615 8.976C74.9095 8.848 74.9255 8.664 74.9255 8.408V7.984H74.2855V9H73.5335V9.544H74.2855V11.848C74.2855 12.696 74.7175 13.096 75.5015 13.096ZM77.7904 13V10.408C77.7904 9.816 78.1904 9.448 78.8144 9.448C79.3984 9.448 79.7424 9.768 79.7424 10.384V13H80.3824V10.36C80.3824 9.48 79.9184 8.904 78.9744 8.904C78.4864 8.904 78.0624 9.072 77.7664 9.488L77.7344 9.472C77.7744 9.28 77.7904 9.136 77.7904 8.912V7.08H77.1504V13H77.7904ZM83.4376 13.096C84.2856 13.096 84.8136 12.72 85.0616 12.128L84.5496 11.92C84.3896 12.232 84.0456 12.536 83.4376 12.536C82.6856 12.536 82.1736 12.04 82.1736 11.112L82.2056 11.096C82.3416 11.12 82.5256 11.136 82.7336 11.136H85.1656V10.872C85.1656 9.576 84.3896 8.904 83.4056 8.904C82.3256 8.904 81.5496 9.68 81.5496 11C81.5496 12.32 82.2776 13.096 83.4376 13.096ZM82.1736 10.632C82.2296 9.912 82.7016 9.448 83.4056 9.448C84.0696 9.448 84.5096 9.92 84.5416 10.624L84.5096 10.64C84.3656 10.624 84.1496 10.616 83.9816 10.616H82.7336C82.5256 10.616 82.3416 10.632 82.2056 10.648L82.1736 10.632Z" fill="black"/>
<path d="M51.2276 30.6689L46.8326 18.2135H44.395L40 30.6689H41.9395L42.9537 27.6796H48.2739L49.2881 30.6689H51.2276ZM45.1779 21.0605C45.3558 20.5444 45.4626 20.0818 45.5159 19.6904H45.7295C45.765 20.0818 45.8718 20.5444 46.0497 21.0605L47.7579 26.1316H43.4697L45.1779 21.0605Z" fill="black"/>
<path d="M54.6463 33.6226V30.7578C54.6463 30.0995 54.5039 29.5301 54.3082 28.9963L54.5217 28.9251C55.0733 30.2596 56.1765 30.8824 57.4043 30.8824C59.6818 30.8824 61.301 29.1742 61.301 26.007C61.301 22.8398 59.8064 21.1316 57.5288 21.1316C56.2477 21.1316 55.1267 21.8078 54.5751 23.0533H54.4328L54.1837 21.3451H52.8314V33.6226H54.6463ZM57.0484 29.3877C55.5182 29.3877 54.6463 28.3735 54.6463 26.6654V25.3487C54.6463 23.6405 55.5182 22.6263 57.0484 22.6263C58.6142 22.6263 59.4505 23.6227 59.4505 25.491V26.523C59.4505 28.3913 58.6142 29.3877 57.0484 29.3877Z" fill="black"/>
<path d="M65.2285 33.6226V30.7578C65.2285 30.0995 65.0861 29.5301 64.8904 28.9963L65.1039 28.9251C65.6555 30.2596 66.7587 30.8824 67.9864 30.8824C70.264 30.8824 71.8832 29.1742 71.8832 26.007C71.8832 22.8398 70.3885 21.1316 68.111 21.1316C66.8299 21.1316 65.7089 21.8078 65.1573 23.0533H65.0149L64.7658 21.3451H63.4135V33.6226H65.2285ZM67.6306 29.3877C66.1003 29.3877 65.2285 28.3735 65.2285 26.6654V25.3487C65.2285 23.6405 66.1003 22.6263 67.6306 22.6263C69.1964 22.6263 70.0327 23.6227 70.0327 25.491V26.523C70.0327 28.3913 69.1964 29.3877 67.6306 29.3877Z" fill="black"/>
<path d="M81.9028 30.8824C83.5398 30.8824 84.6963 30.0461 85.2479 28.7472H85.3903L85.6216 30.6689H87.0628V24.2811H82.8102V25.7757H85.3369V26.1494C85.3369 28.0532 84.2337 29.2454 82.312 29.2454C80.2302 29.2454 78.8779 27.8397 78.8779 25.1173V23.765C78.8779 21.0605 80.3014 19.637 82.3476 19.637C84.038 19.637 84.9988 20.5622 85.2835 21.9323H87.1162C86.7426 19.3167 85.1056 18 82.3476 18C79.127 18 76.9384 20.1708 76.9384 24.4412C76.9384 28.765 78.8957 30.8824 81.9028 30.8824Z" fill="black"/>
<path d="M91.9687 30.8824C93.4099 30.8824 94.4241 30.1351 94.9224 28.8717H95.0647L95.1003 29.1208C95.2248 30.1529 95.7586 30.6867 96.9864 30.6867H97.7337V29.3344H97.2889C96.8796 29.3344 96.7017 29.1564 96.7017 28.765V24.4946C96.7017 22.3416 95.5095 21.1316 93.0007 21.1316C90.8833 21.1316 89.4954 22.1814 89.2107 24.1743H90.9188C91.168 23.0711 91.8263 22.5373 92.9829 22.5373C94.2818 22.5373 94.9224 23.1067 94.9224 24.4234V25.4554L94.78 25.5266C94.4775 25.3309 94.0327 25.2063 93.3387 25.2063H92.3423C90.2427 25.2063 88.9082 26.2383 88.9082 28.071C88.9082 29.8682 90.047 30.8824 91.9687 30.8824ZM92.4847 29.5123C91.3281 29.5123 90.7409 29.0141 90.7409 28.1066V27.8753C90.7409 27.0568 91.3815 26.434 92.538 26.4163L93.4633 26.3985C94.0861 26.3985 94.4775 26.2917 94.78 26.096L94.9224 26.1671V26.7009C94.9224 28.5692 93.7124 29.5123 92.4847 29.5123Z" fill="black"/>
<path d="M102.994 30.6689V29.1742H101.98C101.411 29.1742 101.144 28.9073 101.144 28.3379V18.2135H99.3287V28.2134C99.3287 29.9393 100.058 30.6689 101.944 30.6689H102.994Z" fill="black"/>
<path d="M108.12 30.6689V29.1742H107.106C106.537 29.1742 106.27 28.9073 106.27 28.3379V18.2135H104.455V28.2134C104.455 29.9393 105.184 30.6689 107.07 30.6689H108.12Z" fill="black"/>
<path d="M113.495 30.8824C115.541 30.8824 117.001 29.797 117.428 27.9287H115.719C115.488 28.7472 114.865 29.3877 113.513 29.3877C111.823 29.3877 110.897 28.1422 110.773 26.096L110.88 26.007C111.378 26.2027 111.823 26.2917 112.339 26.2917H117.552V25.8113C117.552 22.6263 115.702 21.1316 113.424 21.1316C110.969 21.1316 109.065 22.8576 109.065 26.007C109.065 29.1564 110.951 30.8824 113.495 30.8824ZM110.826 25.2063C111.129 23.3558 112.072 22.5729 113.424 22.5729C114.687 22.5729 115.63 23.3202 115.844 24.9928L115.737 25.0818C115.346 25.0284 114.954 25.0106 114.403 25.0106H112.374C111.876 25.0106 111.396 25.0818 110.933 25.2953L110.826 25.2063Z" fill="black"/>
<path d="M121.354 30.6689V25.1529C121.354 23.7295 122.155 22.8754 123.738 22.8754H124.539V21.3096H124.005C122.599 21.3096 121.799 22.0035 121.301 23.1779H121.158L120.909 21.3451H119.539V30.6689H121.354Z" fill="black"/>
<path d="M126.972 33.6226C128.573 33.6226 129.569 32.8396 130.139 31.3628L134 21.3451H132.132L129.997 27.3771C129.854 27.8575 129.765 28.3201 129.73 28.6582H129.534C129.498 28.3201 129.427 27.8575 129.249 27.3771L127.043 21.3451H125.175L128.698 30.5265L128.395 31.2027C128.093 31.8076 127.666 32.1457 126.9 32.1457H125.779V33.6226H126.972Z" fill="black"/>
<rect x="0.5" y="0.5" width="139" height="39" rx="3.5" stroke="#D8D8D8"/>
</svg>
