<svg width="24" height="24" viewBox="0 0 24 24" fill="none" xmlns="http://www.w3.org/2000/svg">
<rect x="0.988281" y="0.988281" width="22.0234" height="22.0234" rx="3.32422" fill="white" stroke="#FF7A00" stroke-width="1.97656"/>
<path d="M8.18125 18.7473C8.22734 18.7493 8.27334 18.7418 8.31642 18.7253C8.3595 18.7088 8.39873 18.6836 8.4317 18.6513C8.46409 18.6184 8.48944 18.5792 8.5062 18.5361C8.52296 18.4931 8.53078 18.4471 8.52918 18.4009V8.64383C8.52322 8.602 8.52704 8.55936 8.54036 8.51926C8.55367 8.47916 8.57612 8.4427 8.60592 8.41275C8.63573 8.3828 8.67207 8.36018 8.71211 8.34667C8.75214 8.33316 8.79476 8.32913 8.83662 8.33489H15.1624C15.2036 8.33039 15.2454 8.33536 15.2845 8.34943C15.3235 8.3635 15.3589 8.3863 15.3878 8.4161C15.4167 8.44589 15.4385 8.48188 15.4514 8.52135C15.4643 8.56081 15.468 8.6027 15.4623 8.64383V11.6897C15.4683 11.7309 15.4648 11.7729 15.452 11.8125C15.4392 11.8521 15.4175 11.8883 15.3885 11.9181C15.3595 11.948 15.324 11.9708 15.2848 11.9847C15.2456 11.9987 15.2037 12.0035 15.1624 11.9987H12.3129C12.2706 11.9919 12.2273 11.9951 12.1865 12.0081C12.1457 12.0212 12.1085 12.0437 12.078 12.0737C12.0475 12.1038 12.0244 12.1407 12.0108 12.1813C11.9972 12.2219 11.9933 12.2652 11.9995 12.3076V13.6573C11.994 13.9646 12.0232 14.2715 12.0865 14.5722C12.1524 14.8443 12.2667 15.1023 12.4239 15.334L14.39 18.4189C14.4581 18.529 14.5555 18.6179 14.6712 18.6759C14.7869 18.7339 14.9164 18.7586 15.0454 18.7473H17.6099C17.7389 18.7473 17.8228 18.7128 17.8618 18.6408C17.8796 18.5982 17.8854 18.5514 17.8785 18.5057C17.8716 18.4599 17.8524 18.417 17.8228 18.3814L15.8732 15.232C15.7832 15.103 15.8162 15.0011 15.9707 14.9231L17.3384 14.3067C17.7787 14.1289 18.1529 13.8186 18.4092 13.4189C18.6464 12.9981 18.7636 12.5204 18.7482 12.0377V7.56404C18.7482 6.80519 18.5522 6.22981 18.1603 5.83788C17.7683 5.44596 17.193 5.25 16.4341 5.25H7.56487C6.82202 5.25 6.25063 5.44596 5.85071 5.83788C5.45079 6.22981 5.25083 6.80519 5.25083 7.56404V18.4009C5.24895 18.447 5.25649 18.493 5.27299 18.536C5.2895 18.5791 5.31462 18.6183 5.34681 18.6513C5.37983 18.6835 5.41908 18.7087 5.46214 18.7252C5.5052 18.7417 5.55118 18.7492 5.59726 18.7473H8.18125Z" fill="#0684BC"/>
</svg>
