<?xml version="1.0" encoding="UTF-8" standalone="no"?>
<!DOCTYPE svg PUBLIC "-//W3C//DTD SVG 1.1//EN"
 "http://www.w3.org/Graphics/SVG/1.1/DTD/svg11.dtd">
<!-- Generated by graphviz version 7.0.0 (20221023.0053)
 -->
<!-- Title: com.ringcentral.video.RcvVideoCanvas.initCanvas Pages: 1 -->
<svg width="567pt" height="101pt"
 viewBox="0.00 0.00 567.00 101.00" xmlns="http://www.w3.org/2000/svg" xmlns:xlink="http://www.w3.org/1999/xlink">
<g id="graph0" class="graph" transform="scale(1 1) rotate(0) translate(4 97)">
<title>com.ringcentral.video.RcvVideoCanvas.initCanvas</title>
<!-- Node1 -->
<g id="node1" class="node">
<title>Node1</title>
<g id="a_node1"><a xlink:title=" ">
<polygon fill="#999999" stroke="#666666" points="239,-56 0,-56 0,-37 239,-37 239,-56"/>
<text text-anchor="middle" x="119.5" y="-44" font-family="Helvetica,sans-Serif" font-size="10.00">com.ringcentral.video.RcvVideoCanvas.initCanvas</text>
</a>
</g>
</g>
<!-- Node2 -->
<g id="node2" class="node">
<title>Node2</title>
<g id="a_node2"><a xlink:href="classcom_1_1ringcentral_1_1video_1_1_rcv_video_canvas.html#a9edf6c42cd96e303e616dc1a1c266893" target="_top" xlink:title=" ">
<polygon fill="white" stroke="#666666" points="537.5,-93 296.5,-93 296.5,-74 537.5,-74 537.5,-93"/>
<text text-anchor="middle" x="417" y="-81" font-family="Helvetica,sans-Serif" font-size="10.00">com.ringcentral.video.RcvVideoCanvas.attachView</text>
</a>
</g>
</g>
<!-- Node1&#45;&gt;Node2 -->
<g id="edge1" class="edge">
<title>Node1&#45;&gt;Node2</title>
<path fill="none" stroke="#63b8ff" d="M200.08,-56.46C238.59,-61.29 285.02,-67.1 324.93,-72.1"/>
<polygon fill="#63b8ff" stroke="#63b8ff" points="324.42,-75.56 334.78,-73.33 325.29,-68.61 324.42,-75.56"/>
</g>
<!-- Node3 -->
<g id="node3" class="node">
<title>Node3</title>
<g id="a_node3"><a xlink:href="classcom_1_1ringcentral_1_1video_1_1_rcv_video_canvas.html#a163ac586e73c0805a5a890ea02fbcc0b" target="_top" xlink:title=" ">
<polygon fill="white" stroke="#666666" points="559,-56 275,-56 275,-37 559,-37 559,-56"/>
<text text-anchor="middle" x="417" y="-44" font-family="Helvetica,sans-Serif" font-size="10.00">com.ringcentral.video.RcvVideoCanvas.createVideoTypeMap</text>
</a>
</g>
</g>
<!-- Node1&#45;&gt;Node3 -->
<g id="edge2" class="edge">
<title>Node1&#45;&gt;Node3</title>
<path fill="none" stroke="#63b8ff" d="M239.41,-46.5C247.37,-46.5 255.44,-46.5 263.54,-46.5"/>
<polygon fill="#63b8ff" stroke="#63b8ff" points="263.47,-50 273.47,-46.5 263.47,-43 263.47,-50"/>
</g>
<!-- Node4 -->
<g id="node4" class="node">
<title>Node4</title>
<g id="a_node4"><a xlink:href="classcom_1_1ringcentral_1_1video_1_1_rcv_video_canvas.html#a9426cd527bb2a6b7260e40341d59f1bd" target="_top" xlink:title=" ">
<polygon fill="white" stroke="#666666" points="541,-19 293,-19 293,0 541,0 541,-19"/>
<text text-anchor="middle" x="417" y="-7" font-family="Helvetica,sans-Serif" font-size="10.00">com.ringcentral.video.RcvVideoCanvas.isMirrorMode</text>
</a>
</g>
</g>
<!-- Node1&#45;&gt;Node4 -->
<g id="edge3" class="edge">
<title>Node1&#45;&gt;Node4</title>
<path fill="none" stroke="#63b8ff" d="M200.08,-36.54C238.59,-31.71 285.02,-25.9 324.93,-20.9"/>
<polygon fill="#63b8ff" stroke="#63b8ff" points="325.29,-24.39 334.78,-19.67 324.42,-17.44 325.29,-24.39"/>
</g>
</g>
</svg>
