<?xml version="1.0" encoding="UTF-8" standalone="no"?>
<!DOCTYPE svg PUBLIC "-//W3C//DTD SVG 1.1//EN"
 "http://www.w3.org/Graphics/SVG/1.1/DTD/svg11.dtd">
<!-- Generated by graphviz version 7.0.2 (20221119.0110)
 -->
<!-- Title: com.ringcentral.video.RcvTextureViewRenderer Pages: 1 -->
<svg width="410pt" height="390pt"
 viewBox="0.00 0.00 410.00 390.00" xmlns="http://www.w3.org/2000/svg" xmlns:xlink="http://www.w3.org/1999/xlink">
<g id="graph0" class="graph" transform="scale(1 1) rotate(0) translate(4 386)">
<title>com.ringcentral.video.RcvTextureViewRenderer</title>
<!-- Node1 -->
<g id="node1" class="node">
<title>Node1</title>
<g id="a_node1"><a xlink:title=" ">
<polygon fill="#999999" stroke="#666666" points="292.5,-316 65.5,-316 65.5,0 292.5,0 292.5,-316"/>
<text text-anchor="middle" x="179" y="-304" font-family="Helvetica,sans-Serif" font-size="10.00">{com.ringcentral.video.RcvTextureViewRenderer</text>
<text text-anchor="start" x="73.5" y="-293" font-family="Helvetica,sans-Serif" font-size="10.00">||+ RcvTextureViewRenderer()</text>
<text text-anchor="start" x="73.5" y="-282" font-family="Helvetica,sans-Serif" font-size="10.00">+ RcvTextureViewRenderer()</text>
<text text-anchor="start" x="73.5" y="-271" font-family="Helvetica,sans-Serif" font-size="10.00">+ init()</text>
<text text-anchor="start" x="73.5" y="-260" font-family="Helvetica,sans-Serif" font-size="10.00">+ init()</text>
<text text-anchor="start" x="73.5" y="-249" font-family="Helvetica,sans-Serif" font-size="10.00">+ release()</text>
<text text-anchor="start" x="73.5" y="-238" font-family="Helvetica,sans-Serif" font-size="10.00">+ addFrameListener()</text>
<text text-anchor="start" x="73.5" y="-227" font-family="Helvetica,sans-Serif" font-size="10.00">+ addFrameListener()</text>
<text text-anchor="start" x="73.5" y="-216" font-family="Helvetica,sans-Serif" font-size="10.00">+ removeFrameListener()</text>
<text text-anchor="start" x="73.5" y="-205" font-family="Helvetica,sans-Serif" font-size="10.00">+ clearRendererEvents()</text>
<text text-anchor="start" x="73.5" y="-194" font-family="Helvetica,sans-Serif" font-size="10.00">+ setRendererEvents()</text>
<text text-anchor="start" x="73.5" y="-183" font-family="Helvetica,sans-Serif" font-size="10.00">+ setMirror()</text>
<text text-anchor="start" x="73.5" y="-172" font-family="Helvetica,sans-Serif" font-size="10.00">+ setRenderMode()</text>
<text text-anchor="start" x="73.5" y="-161" font-family="Helvetica,sans-Serif" font-size="10.00">+ setFpsReduction()</text>
<text text-anchor="start" x="73.5" y="-150" font-family="Helvetica,sans-Serif" font-size="10.00">+ disableFpsReduction()</text>
<text text-anchor="start" x="73.5" y="-139" font-family="Helvetica,sans-Serif" font-size="10.00">+ pauseVideo()</text>
<text text-anchor="start" x="73.5" y="-128" font-family="Helvetica,sans-Serif" font-size="10.00">+ onFrame()</text>
<text text-anchor="start" x="73.5" y="-117" font-family="Helvetica,sans-Serif" font-size="10.00">+ onSurfaceTextureAvailable()</text>
<text text-anchor="start" x="73.5" y="-106" font-family="Helvetica,sans-Serif" font-size="10.00">+ onSurfaceTextureSizeChanged()</text>
<text text-anchor="start" x="73.5" y="-95" font-family="Helvetica,sans-Serif" font-size="10.00">+ onSurfaceTextureDestroyed()</text>
<text text-anchor="start" x="73.5" y="-84" font-family="Helvetica,sans-Serif" font-size="10.00">+ onSurfaceTextureUpdated()</text>
<text text-anchor="start" x="73.5" y="-73" font-family="Helvetica,sans-Serif" font-size="10.00">+ clearImage()</text>
<text text-anchor="start" x="73.5" y="-62" font-family="Helvetica,sans-Serif" font-size="10.00">+ onFirstFrameRendered()</text>
<text text-anchor="start" x="73.5" y="-51" font-family="Helvetica,sans-Serif" font-size="10.00">+ onFrameResolutionChanged()</text>
<text text-anchor="start" x="73.5" y="-40" font-family="Helvetica,sans-Serif" font-size="10.00">+ postOrRun()</text>
<text text-anchor="start" x="73.5" y="-29" font-family="Helvetica,sans-Serif" font-size="10.00"># onMeasure()</text>
<text text-anchor="start" x="73.5" y="-18" font-family="Helvetica,sans-Serif" font-size="10.00"># onLayout()</text>
<text text-anchor="middle" x="179" y="-7" font-family="Helvetica,sans-Serif" font-size="10.00">}</text>
</a>
</g>
</g>
<!-- Node2 -->
<g id="node2" class="node">
<title>Node2</title>
<g id="a_node2"><a xlink:title=" ">
<polygon fill="white" stroke="#666666" points="74,-382 0,-382 0,-352 74,-352 74,-382"/>
<text text-anchor="middle" x="37" y="-370" font-family="Helvetica,sans-Serif" font-size="10.00">{TextureView</text>
<text text-anchor="middle" x="37" y="-359" font-family="Helvetica,sans-Serif" font-size="10.00">||}</text>
</a>
</g>
</g>
<!-- Node2&#45;&gt;Node1 -->
<g id="edge1" class="edge">
<title>Node2&#45;&gt;Node1</title>
<path fill="none" stroke="#63b8ff" d="M53.14,-342.47C58.29,-334.96 64.43,-326.02 71.18,-316.17"/>
<polygon fill="none" stroke="#63b8ff" points="50.39,-340.3 47.62,-350.52 56.16,-344.26 50.39,-340.3"/>
</g>
<!-- Node3 -->
<g id="node3" class="node">
<title>Node3</title>
<g id="a_node3"><a xlink:title=" ">
<polygon fill="white" stroke="#666666" points="156,-382 92,-382 92,-352 156,-352 156,-382"/>
<text text-anchor="middle" x="124" y="-370" font-family="Helvetica,sans-Serif" font-size="10.00">{VideoSink</text>
<text text-anchor="middle" x="124" y="-359" font-family="Helvetica,sans-Serif" font-size="10.00">||}</text>
</a>
</g>
</g>
<!-- Node3&#45;&gt;Node1 -->
<g id="edge2" class="edge">
<title>Node3&#45;&gt;Node1</title>
<path fill="none" stroke="#63b8ff" d="M130.73,-340.65C132.63,-333.53 134.83,-325.23 137.24,-316.17"/>
<polygon fill="none" stroke="#63b8ff" points="127.35,-339.75 128.17,-350.31 134.12,-341.54 127.35,-339.75"/>
</g>
<!-- Node4 -->
<g id="node4" class="node">
<title>Node4</title>
<g id="a_node4"><a xlink:title=" ">
<polygon fill="white" stroke="#666666" points="294,-382 174,-382 174,-352 294,-352 294,-382"/>
<text text-anchor="middle" x="234" y="-370" font-family="Helvetica,sans-Serif" font-size="10.00">{SurfaceTextureListener</text>
<text text-anchor="middle" x="234" y="-359" font-family="Helvetica,sans-Serif" font-size="10.00">||}</text>
</a>
</g>
</g>
<!-- Node4&#45;&gt;Node1 -->
<g id="edge3" class="edge">
<title>Node4&#45;&gt;Node1</title>
<path fill="none" stroke="#63b8ff" d="M227.27,-340.65C225.37,-333.53 223.17,-325.23 220.76,-316.17"/>
<polygon fill="none" stroke="#63b8ff" points="223.88,-341.54 229.83,-350.31 230.65,-339.75 223.88,-341.54"/>
</g>
<!-- Node5 -->
<g id="node5" class="node">
<title>Node5</title>
<g id="a_node5"><a xlink:title=" ">
<polygon fill="white" stroke="#666666" points="402,-382 312,-382 312,-352 402,-352 402,-382"/>
<text text-anchor="middle" x="357" y="-370" font-family="Helvetica,sans-Serif" font-size="10.00">{RendererEvents</text>
<text text-anchor="middle" x="357" y="-359" font-family="Helvetica,sans-Serif" font-size="10.00">||}</text>
</a>
</g>
</g>
<!-- Node5&#45;&gt;Node1 -->
<g id="edge4" class="edge">
<title>Node5&#45;&gt;Node1</title>
<path fill="none" stroke="#63b8ff" d="M337.4,-343.21C325.75,-329.66 309.92,-311.24 292.75,-291.28"/>
<polygon fill="none" stroke="#63b8ff" points="334.6,-345.32 343.78,-350.62 339.91,-340.76 334.6,-345.32"/>
</g>
</g>
</svg>
