<?xml version="1.0" encoding="UTF-8" standalone="no"?>
<!DOCTYPE svg PUBLIC "-//W3C//DTD SVG 1.1//EN"
 "http://www.w3.org/Graphics/SVG/1.1/DTD/svg11.dtd">
<!-- Generated by graphviz version 6.0.1 (20220911.1526)
 -->
<!-- Title: com.ringcentral.video.RcvVideoCanvas.isMirrorMode Pages: 1 -->
<svg width="866pt" height="101pt"
 viewBox="0.00 0.00 866.00 101.00" xmlns="http://www.w3.org/2000/svg" xmlns:xlink="http://www.w3.org/1999/xlink">
<g id="graph0" class="graph" transform="scale(1 1) rotate(0) translate(4 97)">
<title>com.ringcentral.video.RcvVideoCanvas.isMirrorMode</title>
<!-- Node1 -->
<g id="node1" class="node">
<title>Node1</title>
<g id="a_node1"><a xlink:title=" ">
<polygon fill="#999999" stroke="#666666" points="858,-56 610,-56 610,-37 858,-37 858,-56"/>
<text text-anchor="middle" x="734" y="-44" font-family="Helvetica,sans-Serif" font-size="10.00">com.ringcentral.video.RcvVideoCanvas.isMirrorMode</text>
</a>
</g>
</g>
<!-- Node2 -->
<g id="node2" class="node">
<title>Node2</title>
<g id="a_node2"><a xlink:href="classcom_1_1ringcentral_1_1video_1_1_rcv_video_canvas.html#a3c108ba922edeae8005aa41b12f6146e" target="_top" xlink:title=" ">
<polygon fill="white" stroke="#666666" points="559,-93 320,-93 320,-74 559,-74 559,-93"/>
<text text-anchor="middle" x="439.5" y="-81" font-family="Helvetica,sans-Serif" font-size="10.00">com.ringcentral.video.RcvVideoCanvas.initCanvas</text>
</a>
</g>
</g>
<!-- Node1&#45;&gt;Node2 -->
<g id="edge1" class="edge">
<title>Node1&#45;&gt;Node2</title>
<path fill="none" stroke="#63b8ff" d="M647.53,-57.31C605.82,-62.59 556.09,-68.88 515.82,-73.97"/>
<polygon fill="#63b8ff" stroke="#63b8ff" points="648.19,-60.76 657.67,-56.03 647.31,-53.81 648.19,-60.76"/>
</g>
<!-- Node4 -->
<g id="node4" class="node">
<title>Node4</title>
<g id="a_node4"><a xlink:href="classcom_1_1ringcentral_1_1video_1_1_rcv_video_canvas.html#a0c47adaa346e7de8be291acec40e1735" target="_top" xlink:title=" ">
<polygon fill="white" stroke="#666666" points="574,-56 305,-56 305,-37 574,-37 574,-56"/>
<text text-anchor="middle" x="439.5" y="-44" font-family="Helvetica,sans-Serif" font-size="10.00">com.ringcentral.video.RcvVideoCanvas.RcvVideoCanvas</text>
</a>
</g>
</g>
<!-- Node1&#45;&gt;Node4 -->
<g id="edge3" class="edge">
<title>Node1&#45;&gt;Node4</title>
<path fill="none" stroke="#63b8ff" d="M599.6,-46.5C591.21,-46.5 582.77,-46.5 574.38,-46.5"/>
<polygon fill="#63b8ff" stroke="#63b8ff" points="599.8,-50 609.8,-46.5 599.8,-43 599.8,-50"/>
</g>
<!-- Node5 -->
<g id="node5" class="node">
<title>Node5</title>
<g id="a_node5"><a xlink:href="classcom_1_1ringcentral_1_1video_1_1_rcv_video_canvas.html#a93f4b536b7aec7aac1510d7b0dd9d29c" target="_top" xlink:title=" ">
<polygon fill="white" stroke="#666666" points="566.5,-19 312.5,-19 312.5,0 566.5,0 566.5,-19"/>
<text text-anchor="middle" x="439.5" y="-7" font-family="Helvetica,sans-Serif" font-size="10.00">com.ringcentral.video.RcvVideoCanvas.setMirrorMode</text>
</a>
</g>
</g>
<!-- Node1&#45;&gt;Node5 -->
<g id="edge4" class="edge">
<title>Node1&#45;&gt;Node5</title>
<path fill="none" stroke="#63b8ff" d="M647.53,-35.69C605.82,-30.41 556.09,-24.12 515.82,-19.03"/>
<polygon fill="#63b8ff" stroke="#63b8ff" points="647.31,-39.19 657.67,-36.97 648.19,-32.24 647.31,-39.19"/>
</g>
<!-- Node3 -->
<g id="node3" class="node">
<title>Node3</title>
<g id="a_node3"><a xlink:href="classcom_1_1ringcentral_1_1video_1_1_rcv_video_canvas.html#ac412fe1e0293b09bdeaa43fb9e9e3c11" target="_top" xlink:title=" ">
<polygon fill="white" stroke="#666666" points="269,-93 0,-93 0,-74 269,-74 269,-93"/>
<text text-anchor="middle" x="134.5" y="-81" font-family="Helvetica,sans-Serif" font-size="10.00">com.ringcentral.video.RcvVideoCanvas.RcvVideoCanvas</text>
</a>
</g>
</g>
<!-- Node2&#45;&gt;Node3 -->
<g id="edge2" class="edge">
<title>Node2&#45;&gt;Node3</title>
<path fill="none" stroke="#63b8ff" d="M309.45,-83.5C296.09,-83.5 282.49,-83.5 269.08,-83.5"/>
<polygon fill="#63b8ff" stroke="#63b8ff" points="309.62,-87 319.62,-83.5 309.62,-80 309.62,-87"/>
</g>
</g>
</svg>
