<?xml version="1.0" encoding="UTF-8" standalone="no"?>
<!DOCTYPE svg PUBLIC "-//W3C//DTD SVG 1.1//EN"
 "http://www.w3.org/Graphics/SVG/1.1/DTD/svg11.dtd">
<!-- Generated by graphviz version 7.0.0 (20221023.0053)
 -->
<!-- Title: com.ringcentral.video.RcvVideoCanvas.RcvVideoCanvas Pages: 1 -->
<svg width="872pt" height="101pt"
 viewBox="0.00 0.00 872.00 101.00" xmlns="http://www.w3.org/2000/svg" xmlns:xlink="http://www.w3.org/1999/xlink">
<g id="graph0" class="graph" transform="scale(1 1) rotate(0) translate(4 97)">
<title>com.ringcentral.video.RcvVideoCanvas.RcvVideoCanvas</title>
<!-- Node1 -->
<g id="node1" class="node">
<title>Node1</title>
<g id="a_node1"><a xlink:title=" ">
<polygon fill="#999999" stroke="#666666" points="269,-56 0,-56 0,-37 269,-37 269,-56"/>
<text text-anchor="middle" x="134.5" y="-44" font-family="Helvetica,sans-Serif" font-size="10.00">com.ringcentral.video.RcvVideoCanvas.RcvVideoCanvas</text>
</a>
</g>
</g>
<!-- Node2 -->
<g id="node2" class="node">
<title>Node2</title>
<g id="a_node2"><a xlink:href="classcom_1_1ringcentral_1_1video_1_1_rcv_video_canvas.html#a3c108ba922edeae8005aa41b12f6146e" target="_top" xlink:title=" ">
<polygon fill="white" stroke="#666666" points="544,-56 305,-56 305,-37 544,-37 544,-56"/>
<text text-anchor="middle" x="424.5" y="-44" font-family="Helvetica,sans-Serif" font-size="10.00">com.ringcentral.video.RcvVideoCanvas.initCanvas</text>
</a>
</g>
</g>
<!-- Node1&#45;&gt;Node2 -->
<g id="edge1" class="edge">
<title>Node1&#45;&gt;Node2</title>
<path fill="none" stroke="#63b8ff" d="M269.38,-46.5C277.28,-46.5 285.21,-46.5 293.1,-46.5"/>
<polygon fill="#63b8ff" stroke="#63b8ff" points="293.08,-50 303.08,-46.5 293.08,-43 293.08,-50"/>
</g>
<!-- Node3 -->
<g id="node3" class="node">
<title>Node3</title>
<g id="a_node3"><a xlink:href="classcom_1_1ringcentral_1_1video_1_1_rcv_video_canvas.html#a9edf6c42cd96e303e616dc1a1c266893" target="_top" xlink:title=" ">
<polygon fill="white" stroke="#666666" points="842.5,-93 601.5,-93 601.5,-74 842.5,-74 842.5,-93"/>
<text text-anchor="middle" x="722" y="-81" font-family="Helvetica,sans-Serif" font-size="10.00">com.ringcentral.video.RcvVideoCanvas.attachView</text>
</a>
</g>
</g>
<!-- Node2&#45;&gt;Node3 -->
<g id="edge2" class="edge">
<title>Node2&#45;&gt;Node3</title>
<path fill="none" stroke="#63b8ff" d="M505.08,-56.46C543.59,-61.29 590.02,-67.1 629.93,-72.1"/>
<polygon fill="#63b8ff" stroke="#63b8ff" points="629.42,-75.56 639.78,-73.33 630.29,-68.61 629.42,-75.56"/>
</g>
<!-- Node4 -->
<g id="node4" class="node">
<title>Node4</title>
<g id="a_node4"><a xlink:href="classcom_1_1ringcentral_1_1video_1_1_rcv_video_canvas.html#a163ac586e73c0805a5a890ea02fbcc0b" target="_top" xlink:title=" ">
<polygon fill="white" stroke="#666666" points="864,-56 580,-56 580,-37 864,-37 864,-56"/>
<text text-anchor="middle" x="722" y="-44" font-family="Helvetica,sans-Serif" font-size="10.00">com.ringcentral.video.RcvVideoCanvas.createVideoTypeMap</text>
</a>
</g>
</g>
<!-- Node2&#45;&gt;Node4 -->
<g id="edge3" class="edge">
<title>Node2&#45;&gt;Node4</title>
<path fill="none" stroke="#63b8ff" d="M544.41,-46.5C552.37,-46.5 560.44,-46.5 568.54,-46.5"/>
<polygon fill="#63b8ff" stroke="#63b8ff" points="568.47,-50 578.47,-46.5 568.47,-43 568.47,-50"/>
</g>
<!-- Node5 -->
<g id="node5" class="node">
<title>Node5</title>
<g id="a_node5"><a xlink:href="classcom_1_1ringcentral_1_1video_1_1_rcv_video_canvas.html#a9426cd527bb2a6b7260e40341d59f1bd" target="_top" xlink:title=" ">
<polygon fill="white" stroke="#666666" points="846,-19 598,-19 598,0 846,0 846,-19"/>
<text text-anchor="middle" x="722" y="-7" font-family="Helvetica,sans-Serif" font-size="10.00">com.ringcentral.video.RcvVideoCanvas.isMirrorMode</text>
</a>
</g>
</g>
<!-- Node2&#45;&gt;Node5 -->
<g id="edge4" class="edge">
<title>Node2&#45;&gt;Node5</title>
<path fill="none" stroke="#63b8ff" d="M505.08,-36.54C543.59,-31.71 590.02,-25.9 629.93,-20.9"/>
<polygon fill="#63b8ff" stroke="#63b8ff" points="630.29,-24.39 639.78,-19.67 629.42,-17.44 630.29,-24.39"/>
</g>
</g>
</svg>
