<?xml version="1.0" encoding="UTF-8" standalone="no"?>
<!DOCTYPE svg PUBLIC "-//W3C//DTD SVG 1.1//EN"
 "http://www.w3.org/Graphics/SVG/1.1/DTD/svg11.dtd">
<!-- Generated by graphviz version 6.0.1 (20220911.1526)
 -->
<!-- Title: com.ringcentral.video.RcvVideoCanvas.setMirrorMode Pages: 1 -->
<svg width="847pt" height="64pt"
 viewBox="0.00 0.00 847.00 64.00" xmlns="http://www.w3.org/2000/svg" xmlns:xlink="http://www.w3.org/1999/xlink">
<g id="graph0" class="graph" transform="scale(1 1) rotate(0) translate(4 60)">
<title>com.ringcentral.video.RcvVideoCanvas.setMirrorMode</title>
<!-- Node1 -->
<g id="node1" class="node">
<title>Node1</title>
<g id="a_node1"><a xlink:title=" ">
<polygon fill="#999999" stroke="#666666" points="254,-37 0,-37 0,-18 254,-18 254,-37"/>
<text text-anchor="middle" x="127" y="-25" font-family="Helvetica,sans-Serif" font-size="10.00">com.ringcentral.video.RcvVideoCanvas.setMirrorMode</text>
</a>
</g>
</g>
<!-- Node2 -->
<g id="node2" class="node">
<title>Node2</title>
<g id="a_node2"><a xlink:href="classcom_1_1ringcentral_1_1video_1_1_rcv_video_canvas.html#a9426cd527bb2a6b7260e40341d59f1bd" target="_top" xlink:title=" ">
<polygon fill="white" stroke="#666666" points="538,-56 290,-56 290,-37 538,-37 538,-56"/>
<text text-anchor="middle" x="414" y="-44" font-family="Helvetica,sans-Serif" font-size="10.00">com.ringcentral.video.RcvVideoCanvas.isMirrorMode</text>
</a>
</g>
</g>
<!-- Node1&#45;&gt;Node2 -->
<g id="edge1" class="edge">
<title>Node1&#45;&gt;Node2</title>
<path fill="none" stroke="#63b8ff" d="M254.25,-35.92C262.61,-36.47 271.05,-37.04 279.45,-37.6"/>
<polygon fill="#63b8ff" stroke="#63b8ff" points="279.45,-41.1 289.66,-38.28 279.91,-34.12 279.45,-41.1"/>
</g>
<!-- Node3 -->
<g id="node3" class="node">
<title>Node3</title>
<g id="a_node3"><a xlink:href="classcom_1_1ringcentral_1_1video_1_1_rcv_video_view.html#a5f90f0eb80b3dcb541e5dc13c6a0641d" target="_top" xlink:title=" ">
<polygon fill="white" stroke="#666666" points="522.5,-19 305.5,-19 305.5,0 522.5,0 522.5,-19"/>
<text text-anchor="middle" x="414" y="-7" font-family="Helvetica,sans-Serif" font-size="10.00">com.ringcentral.video.RcvVideoView.setMirror</text>
</a>
</g>
</g>
<!-- Node1&#45;&gt;Node3 -->
<g id="edge2" class="edge">
<title>Node1&#45;&gt;Node3</title>
<path fill="none" stroke="#63b8ff" d="M254.25,-19.53C267.78,-18.67 281.5,-17.81 294.92,-16.96"/>
<polygon fill="#63b8ff" stroke="#63b8ff" points="295.37,-20.44 305.13,-16.31 294.92,-13.45 295.37,-20.44"/>
</g>
<!-- Node4 -->
<g id="node4" class="node">
<title>Node4</title>
<g id="a_node4"><a xlink:href="classcom_1_1ringcentral_1_1video_1_1_rcv_texture_view_renderer.html#a8d641dfe47f7aa74c78912dd06e6133c" target="_top" xlink:title=" ">
<polygon fill="white" stroke="#666666" points="839,-19 574,-19 574,0 839,0 839,-19"/>
<text text-anchor="middle" x="706.5" y="-7" font-family="Helvetica,sans-Serif" font-size="10.00">com.ringcentral.video.RcvTextureViewRenderer.setMirror</text>
</a>
</g>
</g>
<!-- Node3&#45;&gt;Node4 -->
<g id="edge3" class="edge">
<title>Node3&#45;&gt;Node4</title>
<path fill="none" stroke="#63b8ff" d="M522.76,-9.5C536.14,-9.5 549.98,-9.5 563.78,-9.5"/>
<polygon fill="#63b8ff" stroke="#63b8ff" points="563.81,-13 573.81,-9.5 563.81,-6 563.81,-13"/>
</g>
</g>
</svg>
