<?xml version="1.0" encoding="UTF-8" standalone="no"?>
<!DOCTYPE svg PUBLIC "-//W3C//DTD SVG 1.1//EN"
 "http://www.w3.org/Graphics/SVG/1.1/DTD/svg11.dtd">
<!-- Generated by graphviz version 6.0.1 (20220911.1526)
 -->
<!-- Title: com.ringcentral.video.RcvVideoCanvas.RcvVideoCanvas Pages: 1 -->
<!--zoomable 101 -->
<svg id="main" version="1.1" xmlns="http://www.w3.org/2000/svg" xmlns:xlink="http://www.w3.org/1999/xlink" xml:space="preserve" onload="init(evt)">
<style type="text/css"><![CDATA[
.edge:hover path { stroke: red; }
.edge:hover polygon { stroke: red; fill: red; }
]]></style>
<script type="text/javascript"><![CDATA[
var edges = document.getElementsByTagName('g');
if (edges && edges.length) {
  for (var i=0;i<edges.length;i++) {
    if (edges[i].id.substr(0,4)=='edge') {
      edges[i].setAttribute('class','edge');
    }
  }
}
]]></script>
        <defs>
                <circle id="rim" cx="0" cy="0" r="7"/>
                <circle id="rim2" cx="0" cy="0" r="3.5"/>
                <g id="zoomPlus">
                        <use xlink:href="#rim" fill="#404040">
                                <set attributeName="fill" to="#808080" begin="zoomplus.mouseover" end="zoomplus.mouseout"/>
                        </use>
                        <path d="M-4,0h8M0,-4v8" fill="none" stroke="white" stroke-width="1.5" pointer-events="none"/>
                </g>
                <g id="zoomMin">
                        <use xlink:href="#rim" fill="#404040">
                                <set attributeName="fill" to="#808080" begin="zoomminus.mouseover" end="zoomminus.mouseout"/>
                        </use>
                        <path d="M-4,0h8" fill="none" stroke="white" stroke-width="1.5" pointer-events="none"/>
                </g>
                <g id="dirArrow">
                        <path fill="none" stroke="white" stroke-width="1.5" d="M0,-3.0v7 M-2.5,-0.5L0,-3.0L2.5,-0.5"/>
                </g>
               <g id="resetDef">
                       <use xlink:href="#rim2" fill="#404040">
                               <set attributeName="fill" to="#808080" begin="reset.mouseover" end="reset.mouseout"/>
                       </use>
               </g>
        </defs>

<script type="text/javascript">
var viewWidth = 872;
var viewHeight = 101;
var sectionId = 'dynsection-5';
</script>
<script xlink:href="svgpan.js"/>
<svg id="graph" class="graph">
<g id="viewport">
<title>com.ringcentral.video.RcvVideoCanvas.RcvVideoCanvas</title>
<!-- Node1 -->
<g id="node1" class="node">
<title>Node1</title>
<g id="a_node1"><a xlink:title=" ">
<polygon fill="#999999" stroke="#666666" points="269,-38 0,-38 0,-19 269,-19 269,-38"/>
<text text-anchor="middle" x="134.5" y="-26" font-family="Helvetica,sans-Serif" font-size="10.00">com.ringcentral.video.RcvVideoCanvas.RcvVideoCanvas</text>
</a>
</g>
</g>
<!-- Node2 -->
<g id="node2" class="node">
<title>Node2</title>
<g id="a_node2"><a xlink:href="classcom_1_1ringcentral_1_1video_1_1_rcv_video_canvas.html#a3c108ba922edeae8005aa41b12f6146e" target="_top" xlink:title=" ">
<polygon fill="white" stroke="#666666" points="544,-57 305,-57 305,-38 544,-38 544,-57"/>
<text text-anchor="middle" x="424.5" y="-45" font-family="Helvetica,sans-Serif" font-size="10.00">com.ringcentral.video.RcvVideoCanvas.initCanvas</text>
</a>
</g>
</g>
<!-- Node1&#45;&gt;Node2 -->
<g id="edge1" class="edge">
<title>Node1&#45;&gt;Node2</title>
<path fill="none" stroke="#63b8ff" d="M269.38,-37.33C277.74,-37.88 286.14,-38.44 294.47,-38.99"/>
<polygon fill="#63b8ff" stroke="#63b8ff" points="294.38,-42.49 304.59,-39.66 294.84,-35.5 294.38,-42.49"/>
</g>
<!-- Node5 -->
<g id="node5" class="node">
<title>Node5</title>
<g id="a_node5"><a xlink:href="classcom_1_1ringcentral_1_1video_1_1_rcv_video_canvas.html#a9426cd527bb2a6b7260e40341d59f1bd" target="_top" xlink:title=" ">
<polygon fill="white" stroke="#666666" points="846,-19 598,-19 598,0 846,0 846,-19"/>
<text text-anchor="middle" x="722" y="-7" font-family="Helvetica,sans-Serif" font-size="10.00">com.ringcentral.video.RcvVideoCanvas.isMirrorMode</text>
</a>
</g>
</g>
<!-- Node1&#45;&gt;Node5 -->
<g id="edge5" class="edge">
<title>Node1&#45;&gt;Node5</title>
<path fill="none" stroke="#63b8ff" d="M269.09,-24.16C364.6,-21.07 492.58,-16.91 587.97,-13.82"/>
<polygon fill="#63b8ff" stroke="#63b8ff" points="588.09,-17.32 597.97,-13.49 587.86,-10.32 588.09,-17.32"/>
</g>
<!-- Node3 -->
<g id="node3" class="node">
<title>Node3</title>
<g id="a_node3"><a xlink:href="classcom_1_1ringcentral_1_1video_1_1_rcv_video_canvas.html#a9edf6c42cd96e303e616dc1a1c266893" target="_top" xlink:title=" ">
<polygon fill="white" stroke="#666666" points="842.5,-93 601.5,-93 601.5,-74 842.5,-74 842.5,-93"/>
<text text-anchor="middle" x="722" y="-81" font-family="Helvetica,sans-Serif" font-size="10.00">com.ringcentral.video.RcvVideoCanvas.attachView</text>
</a>
</g>
</g>
<!-- Node2&#45;&gt;Node3 -->
<g id="edge2" class="edge">
<title>Node2&#45;&gt;Node3</title>
<path fill="none" stroke="#63b8ff" d="M503.53,-57.01C543.25,-61.85 591.71,-67.75 632.79,-72.75"/>
<polygon fill="#63b8ff" stroke="#63b8ff" points="632.44,-76.24 642.79,-73.97 633.29,-69.29 632.44,-76.24"/>
</g>
<!-- Node4 -->
<g id="node4" class="node">
<title>Node4</title>
<g id="a_node4"><a xlink:href="classcom_1_1ringcentral_1_1video_1_1_rcv_video_canvas.html#a163ac586e73c0805a5a890ea02fbcc0b" target="_top" xlink:title=" ">
<polygon fill="white" stroke="#666666" points="864,-56 580,-56 580,-37 864,-37 864,-56"/>
<text text-anchor="middle" x="722" y="-44" font-family="Helvetica,sans-Serif" font-size="10.00">com.ringcentral.video.RcvVideoCanvas.createVideoTypeMap</text>
</a>
</g>
</g>
<!-- Node2&#45;&gt;Node4 -->
<g id="edge3" class="edge">
<title>Node2&#45;&gt;Node4</title>
<path fill="none" stroke="#63b8ff" d="M544.41,-47.1C552.83,-47.07 561.37,-47.04 569.93,-47.01"/>
<polygon fill="#63b8ff" stroke="#63b8ff" points="569.99,-50.51 579.98,-46.98 569.97,-43.51 569.99,-50.51"/>
</g>
<!-- Node2&#45;&gt;Node5 -->
<g id="edge4" class="edge">
<title>Node2&#45;&gt;Node5</title>
<path fill="none" stroke="#63b8ff" d="M498.98,-37.96C524.61,-34.64 553.58,-30.9 580,-27.5 598.17,-25.16 617.67,-22.67 636.18,-20.3"/>
<polygon fill="#63b8ff" stroke="#63b8ff" points="636.88,-23.74 646.36,-19 635.99,-16.8 636.88,-23.74"/>
</g>
</g>
</svg>
        <g id="navigator" transform="translate(0 0)" fill="#404254">
                <rect fill="#f2f5e9" fill-opacity="0.5" stroke="#606060" stroke-width=".5" x="0" y="0" width="60" height="60"/>
                <use id="zoomplus" xlink:href="#zoomPlus" x="17" y="9" onmousedown="handleZoom(evt,'in')"/>
                <use id="zoomminus" xlink:href="#zoomMin" x="42" y="9" onmousedown="handleZoom(evt,'out')"/>
                <use id="reset" xlink:href="#resetDef" x="30" y="36" onmousedown="handleReset()"/>
                <g id="arrowUp" xlink:href="#dirArrow" transform="translate(30 24)" onmousedown="handlePan(0,-1)">
                  <use xlink:href="#rim" fill="#404040">
                        <set attributeName="fill" to="#808080" begin="arrowUp.mouseover" end="arrowUp.mouseout"/>
                  </use>
                  <path fill="none" stroke="white" stroke-width="1.5" d="M0,-3.0v7 M-2.5,-0.5L0,-3.0L2.5,-0.5"/>
                </g>
                <g id="arrowRight" xlink:href="#dirArrow" transform="rotate(90) translate(36 -43)" onmousedown="handlePan(1,0)">
                  <use xlink:href="#rim" fill="#404040">
                        <set attributeName="fill" to="#808080" begin="arrowRight.mouseover" end="arrowRight.mouseout"/>
                  </use>
                  <path fill="none" stroke="white" stroke-width="1.5" d="M0,-3.0v7 M-2.5,-0.5L0,-3.0L2.5,-0.5"/>
                </g>
                <g id="arrowDown" xlink:href="#dirArrow" transform="rotate(180) translate(-30 -48)" onmousedown="handlePan(0,1)">
                  <use xlink:href="#rim" fill="#404040">
                        <set attributeName="fill" to="#808080" begin="arrowDown.mouseover" end="arrowDown.mouseout"/>
                  </use>
                  <path fill="none" stroke="white" stroke-width="1.5" d="M0,-3.0v7 M-2.5,-0.5L0,-3.0L2.5,-0.5"/>
                </g>
                <g id="arrowLeft" xlink:href="#dirArrow" transform="rotate(270) translate(-36 17)" onmousedown="handlePan(-1,0)">
                  <use xlink:href="#rim" fill="#404040">
                        <set attributeName="fill" to="#808080" begin="arrowLeft.mouseover" end="arrowLeft.mouseout"/>
                  </use>
                  <path fill="none" stroke="white" stroke-width="1.5" d="M0,-3.0v7 M-2.5,-0.5L0,-3.0L2.5,-0.5"/>
                </g>
        </g>
        <svg viewBox="0 0 15 15" width="100%" height="30px" preserveAspectRatio="xMaxYMin meet">
         <g id="arrow_out" transform="scale(0.3 0.3)">
          <a xlink:href="classcom_1_1ringcentral_1_1video_1_1_rcv_video_canvas_a0c47adaa346e7de8be291acec40e1735_cgraph_org.svg" target="_base">
           <rect id="button" ry="5" rx="5" y="6" x="6" height="38" width="38"
                fill="#f2f5e9" fill-opacity="0.5" stroke="#606060" stroke-width="1.0"/>
           <path id="arrow"
             d="M 11.500037,31.436501 C 11.940474,20.09759 22.043105,11.32322 32.158766,21.979434 L 37.068811,17.246167 C 37.068811,17.246167 37.088388,32 37.088388,32 L 22.160133,31.978069 C 22.160133,31.978069 26.997745,27.140456 26.997745,27.140456 C 18.528582,18.264221 13.291696,25.230495 11.500037,31.436501 z"
             style="fill:#404040;"/>
          </a>
         </g>
        </svg>
</svg>
