<?xml version="1.0" encoding="UTF-8" standalone="no"?>
<!DOCTYPE svg PUBLIC "-//W3C//DTD SVG 1.1//EN"
 "http://www.w3.org/Graphics/SVG/1.1/DTD/svg11.dtd">
<!-- Generated by graphviz version 7.0.0 (20221023.0053)
 -->
<!-- Title: com.ringcentral.video.RcvVideoCanvas.attachTrack Pages: 1 -->
<svg width="766pt" height="64pt"
 viewBox="0.00 0.00 766.00 64.00" xmlns="http://www.w3.org/2000/svg" xmlns:xlink="http://www.w3.org/1999/xlink">
<g id="graph0" class="graph" transform="scale(1 1) rotate(0) translate(4 60)">
<title>com.ringcentral.video.RcvVideoCanvas.attachTrack</title>
<!-- Node1 -->
<g id="node1" class="node">
<title>Node1</title>
<g id="a_node1"><a xlink:title=" ">
<polygon fill="#999999" stroke="#666666" points="244,-37 0,-37 0,-18 244,-18 244,-37"/>
<text text-anchor="middle" x="122" y="-25" font-family="Helvetica,sans-Serif" font-size="10.00">com.ringcentral.video.RcvVideoCanvas.attachTrack</text>
</a>
</g>
</g>
<!-- Node2 -->
<g id="node2" class="node">
<title>Node2</title>
<g id="a_node2"><a xlink:href="classcom_1_1ringcentral_1_1video_1_1_rcv_video_canvas.html#a49573662306cdc544ebf2c0e86433ff2" target="_top" xlink:title=" ">
<polygon fill="white" stroke="#666666" points="500,-56 281,-56 281,-37 500,-37 500,-56"/>
<text text-anchor="middle" x="390.5" y="-44" font-family="Helvetica,sans-Serif" font-size="10.00">com.ringcentral.video.RcvVideoCanvas.attach</text>
</a>
</g>
</g>
<!-- Node1&#45;&gt;Node2 -->
<g id="edge1" class="edge">
<title>Node1&#45;&gt;Node2</title>
<path fill="none" stroke="#63b8ff" d="M244.16,-36.14C252.58,-36.74 261.05,-37.34 269.46,-37.94"/>
<polygon fill="#63b8ff" stroke="#63b8ff" points="269.14,-41.43 279.36,-38.65 269.63,-34.45 269.14,-41.43"/>
</g>
<!-- Node4 -->
<g id="node4" class="node">
<title>Node4</title>
<g id="a_node4"><a xlink:href="classcom_1_1ringcentral_1_1video_1_1_rcv_video_canvas.html#a209622b391ba41702a3a2c77468b7a76" target="_top" xlink:title=" ">
<polygon fill="white" stroke="#666666" points="501,-19 280,-19 280,0 501,0 501,-19"/>
<text text-anchor="middle" x="390.5" y="-7" font-family="Helvetica,sans-Serif" font-size="10.00">com.ringcentral.video.RcvVideoCanvas.detach</text>
</a>
</g>
</g>
<!-- Node1&#45;&gt;Node4 -->
<g id="edge3" class="edge">
<title>Node1&#45;&gt;Node4</title>
<path fill="none" stroke="#63b8ff" d="M244.16,-19.32C252.2,-18.77 260.3,-18.23 268.33,-17.68"/>
<polygon fill="#63b8ff" stroke="#63b8ff" points="268.39,-21.19 278.14,-17.02 267.92,-14.2 268.39,-21.19"/>
</g>
<!-- Node3 -->
<g id="node3" class="node">
<title>Node3</title>
<g id="a_node3"><a xlink:href="classcom_1_1ringcentral_1_1video_1_1_rcv_video_canvas.html#af1fbc9d003b29a66429cb77c0949d13f" target="_top" xlink:title=" ">
<polygon fill="white" stroke="#666666" points="758,-56 537,-56 537,-37 758,-37 758,-56"/>
<text text-anchor="middle" x="647.5" y="-44" font-family="Helvetica,sans-Serif" font-size="10.00">com.ringcentral.video.RcvVideoCanvas.getUid</text>
</a>
</g>
</g>
<!-- Node2&#45;&gt;Node3 -->
<g id="edge2" class="edge">
<title>Node2&#45;&gt;Node3</title>
<path fill="none" stroke="#63b8ff" d="M500.38,-46.5C508.67,-46.5 517.06,-46.5 525.41,-46.5"/>
<polygon fill="#63b8ff" stroke="#63b8ff" points="525.25,-50 535.25,-46.5 525.25,-43 525.25,-50"/>
</g>
</g>
</svg>
