<?xml version="1.0" encoding="UTF-8" standalone="no"?>
<!DOCTYPE svg PUBLIC "-//W3C//DTD SVG 1.1//EN"
 "http://www.w3.org/Graphics/SVG/1.1/DTD/svg11.dtd">
<!-- Generated by graphviz version 7.0.0 (20221023.0053)
 -->
<!-- Title: com.ringcentral.video.RcvTextureViewRenderer.postOrRun Pages: 1 -->
<svg width="668pt" height="64pt"
 viewBox="0.00 0.00 668.00 64.00" xmlns="http://www.w3.org/2000/svg" xmlns:xlink="http://www.w3.org/1999/xlink">
<g id="graph0" class="graph" transform="scale(1 1) rotate(0) translate(4 60)">
<title>com.ringcentral.video.RcvTextureViewRenderer.postOrRun</title>
<!-- Node1 -->
<g id="node1" class="node">
<title>Node1</title>
<g id="a_node1"><a xlink:title=" ">
<polygon fill="#999999" stroke="#666666" points="660,-37 386,-37 386,-18 660,-18 660,-37"/>
<text text-anchor="middle" x="523" y="-25" font-family="Helvetica,sans-Serif" font-size="10.00">com.ringcentral.video.RcvTextureViewRenderer.postOrRun</text>
</a>
</g>
</g>
<!-- Node2 -->
<g id="node2" class="node">
<title>Node2</title>
<g id="a_node2"><a xlink:href="classcom_1_1ringcentral_1_1video_1_1_rcv_texture_view_renderer.html#a5f0eed4f413fea2dfb5da1ba6ba8df0c" target="_top" xlink:title=" ">
<polygon fill="white" stroke="#666666" points="350,-56 0,-56 0,-37 350,-37 350,-56"/>
<text text-anchor="middle" x="175" y="-44" font-family="Helvetica,sans-Serif" font-size="10.00">com.ringcentral.video.RcvTextureViewRenderer.onFrameResolutionChanged</text>
</a>
</g>
</g>
<!-- Node1&#45;&gt;Node2 -->
<g id="edge1" class="edge">
<title>Node1&#45;&gt;Node2</title>
<path fill="none" stroke="#63b8ff" d="M374.51,-35.6C366.52,-36.04 358.45,-36.48 350.38,-36.92"/>
<polygon fill="#63b8ff" stroke="#63b8ff" points="374.44,-39.11 384.24,-35.07 374.06,-32.12 374.44,-39.11"/>
</g>
<!-- Node3 -->
<g id="node3" class="node">
<title>Node3</title>
<g id="a_node3"><a xlink:href="classcom_1_1ringcentral_1_1video_1_1_rcv_video_view.html#a8feba7fff1f1deee6b0e65f463f71ae7" target="_top" xlink:title=" ">
<polygon fill="white" stroke="#666666" points="305.5,-19 44.5,-19 44.5,0 305.5,0 305.5,-19"/>
<text text-anchor="middle" x="175" y="-7" font-family="Helvetica,sans-Serif" font-size="10.00">com.ringcentral.video.RcvVideoView.setRendererLayout</text>
</a>
</g>
</g>
<!-- Node1&#45;&gt;Node3 -->
<g id="edge2" class="edge">
<title>Node1&#45;&gt;Node3</title>
<path fill="none" stroke="#63b8ff" d="M374.28,-19.82C351.55,-18.63 328.22,-17.42 305.91,-16.26"/>
<polygon fill="#63b8ff" stroke="#63b8ff" points="374.07,-23.31 384.24,-20.33 374.43,-16.32 374.07,-23.31"/>
</g>
</g>
</svg>
