<?xml version="1.0" encoding="UTF-8" standalone="no"?>
<!DOCTYPE svg PUBLIC "-//W3C//DTD SVG 1.1//EN"
 "http://www.w3.org/Graphics/SVG/1.1/DTD/svg11.dtd">
<!-- Generated by graphviz version 7.0.0 (20221023.0053)
 -->
<!-- Title: com.ringcentral.video.RcvVideoCanvas.RcvVideoCanvas Pages: 1 -->
<svg width="872pt" height="101pt"
 viewBox="0.00 0.00 872.00 101.00" xmlns="http://www.w3.org/2000/svg" xmlns:xlink="http://www.w3.org/1999/xlink">
<g id="graph0" class="graph" transform="scale(1 1) rotate(0) translate(4 97)">
<title>com.ringcentral.video.RcvVideoCanvas.RcvVideoCanvas</title>
<!-- Node1 -->
<g id="node1" class="node">
<title>Node1</title>
<g id="a_node1"><a xlink:title=" ">
<polygon fill="#999999" stroke="#666666" points="269,-38 0,-38 0,-19 269,-19 269,-38"/>
<text text-anchor="middle" x="134.5" y="-26" font-family="Helvetica,sans-Serif" font-size="10.00">com.ringcentral.video.RcvVideoCanvas.RcvVideoCanvas</text>
</a>
</g>
</g>
<!-- Node2 -->
<g id="node2" class="node">
<title>Node2</title>
<g id="a_node2"><a xlink:href="classcom_1_1ringcentral_1_1video_1_1_rcv_video_canvas.html#a3c108ba922edeae8005aa41b12f6146e" target="_top" xlink:title=" ">
<polygon fill="white" stroke="#666666" points="544,-57 305,-57 305,-38 544,-38 544,-57"/>
<text text-anchor="middle" x="424.5" y="-45" font-family="Helvetica,sans-Serif" font-size="10.00">com.ringcentral.video.RcvVideoCanvas.initCanvas</text>
</a>
</g>
</g>
<!-- Node1&#45;&gt;Node2 -->
<g id="edge1" class="edge">
<title>Node1&#45;&gt;Node2</title>
<path fill="none" stroke="#63b8ff" d="M269.38,-37.33C277.37,-37.86 285.4,-38.39 293.37,-38.92"/>
<polygon fill="#63b8ff" stroke="#63b8ff" points="292.87,-42.39 303.08,-39.56 293.33,-35.4 292.87,-42.39"/>
</g>
<!-- Node5 -->
<g id="node5" class="node">
<title>Node5</title>
<g id="a_node5"><a xlink:href="classcom_1_1ringcentral_1_1video_1_1_rcv_video_canvas.html#a9426cd527bb2a6b7260e40341d59f1bd" target="_top" xlink:title=" ">
<polygon fill="white" stroke="#666666" points="846,-19 598,-19 598,0 846,0 846,-19"/>
<text text-anchor="middle" x="722" y="-7" font-family="Helvetica,sans-Serif" font-size="10.00">com.ringcentral.video.RcvVideoCanvas.isMirrorMode</text>
</a>
</g>
</g>
<!-- Node1&#45;&gt;Node5 -->
<g id="edge5" class="edge">
<title>Node1&#45;&gt;Node5</title>
<path fill="none" stroke="#63b8ff" d="M269.46,-24.15C364.34,-21.07 491.13,-16.96 586.2,-13.87"/>
<polygon fill="#63b8ff" stroke="#63b8ff" points="586.23,-17.38 596.12,-13.55 586.01,-10.38 586.23,-17.38"/>
</g>
<!-- Node3 -->
<g id="node3" class="node">
<title>Node3</title>
<g id="a_node3"><a xlink:href="classcom_1_1ringcentral_1_1video_1_1_rcv_video_canvas.html#a9edf6c42cd96e303e616dc1a1c266893" target="_top" xlink:title=" ">
<polygon fill="white" stroke="#666666" points="842.5,-93 601.5,-93 601.5,-74 842.5,-74 842.5,-93"/>
<text text-anchor="middle" x="722" y="-81" font-family="Helvetica,sans-Serif" font-size="10.00">com.ringcentral.video.RcvVideoCanvas.attachView</text>
</a>
</g>
</g>
<!-- Node2&#45;&gt;Node3 -->
<g id="edge2" class="edge">
<title>Node2&#45;&gt;Node3</title>
<path fill="none" stroke="#63b8ff" d="M507.42,-57.48C544.73,-62.03 589.08,-67.43 627.67,-72.13"/>
<polygon fill="#63b8ff" stroke="#63b8ff" points="627.07,-75.58 637.42,-73.32 627.91,-68.63 627.07,-75.58"/>
</g>
<!-- Node4 -->
<g id="node4" class="node">
<title>Node4</title>
<g id="a_node4"><a xlink:href="classcom_1_1ringcentral_1_1video_1_1_rcv_video_canvas.html#a163ac586e73c0805a5a890ea02fbcc0b" target="_top" xlink:title=" ">
<polygon fill="white" stroke="#666666" points="864,-56 580,-56 580,-37 864,-37 864,-56"/>
<text text-anchor="middle" x="722" y="-44" font-family="Helvetica,sans-Serif" font-size="10.00">com.ringcentral.video.RcvVideoCanvas.createVideoTypeMap</text>
</a>
</g>
</g>
<!-- Node2&#45;&gt;Node4 -->
<g id="edge3" class="edge">
<title>Node2&#45;&gt;Node4</title>
<path fill="none" stroke="#63b8ff" d="M544.41,-47.1C552.37,-47.07 560.44,-47.04 568.54,-47.02"/>
<polygon fill="#63b8ff" stroke="#63b8ff" points="568.48,-50.52 578.47,-46.98 568.45,-43.52 568.48,-50.52"/>
</g>
<!-- Node2&#45;&gt;Node5 -->
<g id="edge4" class="edge">
<title>Node2&#45;&gt;Node5</title>
<path fill="none" stroke="#63b8ff" d="M502.51,-37.5C527.25,-34.3 554.78,-30.74 580,-27.5 596.66,-25.36 614.44,-23.08 631.55,-20.89"/>
<polygon fill="#63b8ff" stroke="#63b8ff" points="631.71,-24.4 641.19,-19.66 630.82,-17.46 631.71,-24.4"/>
</g>
</g>
</svg>
