<?xml version="1.0" encoding="UTF-8" standalone="no"?>
<!DOCTYPE svg PUBLIC "-//W3C//DTD SVG 1.1//EN"
 "http://www.w3.org/Graphics/SVG/1.1/DTD/svg11.dtd">
<!-- Generated by graphviz version 6.0.1 (20220911.1526)
 -->
<!-- Title: com.ringcentral.video.RcvVideoCanvas.getUid Pages: 1 -->
<svg width="764pt" height="27pt"
 viewBox="0.00 0.00 764.00 27.00" xmlns="http://www.w3.org/2000/svg" xmlns:xlink="http://www.w3.org/1999/xlink">
<g id="graph0" class="graph" transform="scale(1 1) rotate(0) translate(4 23)">
<title>com.ringcentral.video.RcvVideoCanvas.getUid</title>
<!-- Node1 -->
<g id="node1" class="node">
<title>Node1</title>
<g id="a_node1"><a xlink:title=" ">
<polygon fill="#999999" stroke="#666666" points="756,-19 535,-19 535,0 756,0 756,-19"/>
<text text-anchor="middle" x="645.5" y="-7" font-family="Helvetica,sans-Serif" font-size="10.00">com.ringcentral.video.RcvVideoCanvas.getUid</text>
</a>
</g>
</g>
<!-- Node2 -->
<g id="node2" class="node">
<title>Node2</title>
<g id="a_node2"><a xlink:href="classcom_1_1ringcentral_1_1video_1_1_rcv_video_canvas.html#a49573662306cdc544ebf2c0e86433ff2" target="_top" xlink:title=" ">
<polygon fill="white" stroke="#666666" points="499,-19 280,-19 280,0 499,0 499,-19"/>
<text text-anchor="middle" x="389.5" y="-7" font-family="Helvetica,sans-Serif" font-size="10.00">com.ringcentral.video.RcvVideoCanvas.attach</text>
</a>
</g>
</g>
<!-- Node1&#45;&gt;Node2 -->
<g id="edge1" class="edge">
<title>Node1&#45;&gt;Node2</title>
<path fill="none" stroke="#63b8ff" d="M524.93,-9.5C516.38,-9.5 507.78,-9.5 499.3,-9.5"/>
<polygon fill="#63b8ff" stroke="#63b8ff" points="524.94,-13 534.94,-9.5 524.94,-6 524.94,-13"/>
</g>
<!-- Node3 -->
<g id="node3" class="node">
<title>Node3</title>
<g id="a_node3"><a xlink:href="classcom_1_1ringcentral_1_1video_1_1_rcv_video_canvas.html#ae12f5ccac8eb8d67db7d983152d59185" target="_top" xlink:title=" ">
<polygon fill="white" stroke="#666666" points="244,-19 0,-19 0,0 244,0 244,-19"/>
<text text-anchor="middle" x="122" y="-7" font-family="Helvetica,sans-Serif" font-size="10.00">com.ringcentral.video.RcvVideoCanvas.attachTrack</text>
</a>
</g>
</g>
<!-- Node2&#45;&gt;Node3 -->
<g id="edge2" class="edge">
<title>Node2&#45;&gt;Node3</title>
<path fill="none" stroke="#63b8ff" d="M269.51,-9.5C261.07,-9.5 252.57,-9.5 244.12,-9.5"/>
<polygon fill="#63b8ff" stroke="#63b8ff" points="269.74,-13 279.74,-9.5 269.74,-6 269.74,-13"/>
</g>
</g>
</svg>
