<?xml version="1.0" encoding="UTF-8" standalone="no"?>
<!DOCTYPE svg PUBLIC "-//W3C//DTD SVG 1.1//EN"
 "http://www.w3.org/Graphics/SVG/1.1/DTD/svg11.dtd">
<!-- Generated by graphviz version 7.0.0 (20221023.0053)
 -->
<!-- Title: com.ringcentral.video.RcvVideoCanvas.getUid Pages: 1 -->
<svg width="766pt" height="64pt"
 viewBox="0.00 0.00 766.00 64.00" xmlns="http://www.w3.org/2000/svg" xmlns:xlink="http://www.w3.org/1999/xlink">
<g id="graph0" class="graph" transform="scale(1 1) rotate(0) translate(4 60)">
<title>com.ringcentral.video.RcvVideoCanvas.getUid</title>
<!-- Node1 -->
<g id="node1" class="node">
<title>Node1</title>
<g id="a_node1"><a xlink:title=" ">
<polygon fill="#999999" stroke="#666666" points="758,-37 537,-37 537,-18 758,-18 758,-37"/>
<text text-anchor="middle" x="647.5" y="-25" font-family="Helvetica,sans-Serif" font-size="10.00">com.ringcentral.video.RcvVideoCanvas.getUid</text>
</a>
</g>
</g>
<!-- Node2 -->
<g id="node2" class="node">
<title>Node2</title>
<g id="a_node2"><a xlink:href="classcom_1_1ringcentral_1_1video_1_1_rcv_video_canvas.html#a49573662306cdc544ebf2c0e86433ff2" target="_top" xlink:title=" ">
<polygon fill="white" stroke="#666666" points="500,-56 281,-56 281,-37 500,-37 500,-56"/>
<text text-anchor="middle" x="390.5" y="-44" font-family="Helvetica,sans-Serif" font-size="10.00">com.ringcentral.video.RcvVideoCanvas.attach</text>
</a>
</g>
</g>
<!-- Node1&#45;&gt;Node2 -->
<g id="edge1" class="edge">
<title>Node1&#45;&gt;Node2</title>
<path fill="none" stroke="#63b8ff" d="M525.21,-36.54C516.9,-37.16 508.56,-37.78 500.32,-38.39"/>
<polygon fill="#63b8ff" stroke="#63b8ff" points="525.29,-40.04 535,-35.81 524.77,-33.06 525.29,-40.04"/>
</g>
<!-- Node4 -->
<g id="node4" class="node">
<title>Node4</title>
<g id="a_node4"><a xlink:href="classcom_1_1ringcentral_1_1video_1_1_rcv_video_canvas.html#a040ad62641c6783e3bdae3821b0abfe5" target="_top" xlink:title=" ">
<polygon fill="white" stroke="#666666" points="501,-19 280,-19 280,0 501,0 501,-19"/>
<text text-anchor="middle" x="390.5" y="-7" font-family="Helvetica,sans-Serif" font-size="10.00">com.ringcentral.video.RcvVideoCanvas.setUid</text>
</a>
</g>
</g>
<!-- Node1&#45;&gt;Node4 -->
<g id="edge3" class="edge">
<title>Node1&#45;&gt;Node4</title>
<path fill="none" stroke="#63b8ff" d="M525.19,-18.94C517.16,-18.37 509.1,-17.8 501.13,-17.24"/>
<polygon fill="#63b8ff" stroke="#63b8ff" points="524.78,-22.42 535,-19.63 525.27,-15.43 524.78,-22.42"/>
</g>
<!-- Node3 -->
<g id="node3" class="node">
<title>Node3</title>
<g id="a_node3"><a xlink:href="classcom_1_1ringcentral_1_1video_1_1_rcv_video_canvas.html#ae12f5ccac8eb8d67db7d983152d59185" target="_top" xlink:title=" ">
<polygon fill="white" stroke="#666666" points="244,-56 0,-56 0,-37 244,-37 244,-56"/>
<text text-anchor="middle" x="122" y="-44" font-family="Helvetica,sans-Serif" font-size="10.00">com.ringcentral.video.RcvVideoCanvas.attachTrack</text>
</a>
</g>
</g>
<!-- Node2&#45;&gt;Node3 -->
<g id="edge2" class="edge">
<title>Node2&#45;&gt;Node3</title>
<path fill="none" stroke="#63b8ff" d="M269.45,-46.5C261.15,-46.5 252.78,-46.5 244.47,-46.5"/>
<polygon fill="#63b8ff" stroke="#63b8ff" points="269.21,-50 279.21,-46.5 269.21,-43 269.21,-50"/>
</g>
</g>
</svg>
