<?xml version="1.0" encoding="UTF-8" standalone="no"?>
<!DOCTYPE svg PUBLIC "-//W3C//DTD SVG 1.1//EN"
 "http://www.w3.org/Graphics/SVG/1.1/DTD/svg11.dtd">
<!-- Generated by graphviz version 7.0.0 (20221023.0053)
 -->
<!-- Title: com.ringcentral.video.RcvVideoCanvas.detach Pages: 1 -->
<svg width="511pt" height="64pt"
 viewBox="0.00 0.00 511.00 64.00" xmlns="http://www.w3.org/2000/svg" xmlns:xlink="http://www.w3.org/1999/xlink">
<g id="graph0" class="graph" transform="scale(1 1) rotate(0) translate(4 60)">
<title>com.ringcentral.video.RcvVideoCanvas.detach</title>
<!-- Node1 -->
<g id="node1" class="node">
<title>Node1</title>
<g id="a_node1"><a xlink:title=" ">
<polygon fill="#999999" stroke="#666666" points="503,-37 282,-37 282,-18 503,-18 503,-37"/>
<text text-anchor="middle" x="392.5" y="-25" font-family="Helvetica,sans-Serif" font-size="10.00">com.ringcentral.video.RcvVideoCanvas.detach</text>
</a>
</g>
</g>
<!-- Node2 -->
<g id="node2" class="node">
<title>Node2</title>
<g id="a_node2"><a xlink:href="classcom_1_1ringcentral_1_1video_1_1_rcv_video_canvas.html#ae12f5ccac8eb8d67db7d983152d59185" target="_top" xlink:title=" ">
<polygon fill="white" stroke="#666666" points="245,-56 1,-56 1,-37 245,-37 245,-56"/>
<text text-anchor="middle" x="123" y="-44" font-family="Helvetica,sans-Serif" font-size="10.00">com.ringcentral.video.RcvVideoCanvas.attachTrack</text>
</a>
</g>
</g>
<!-- Node1&#45;&gt;Node2 -->
<g id="edge1" class="edge">
<title>Node1&#45;&gt;Node2</title>
<path fill="none" stroke="#63b8ff" d="M270.26,-36.11C261.95,-36.7 253.58,-37.3 245.27,-37.89"/>
<polygon fill="#63b8ff" stroke="#63b8ff" points="270.3,-39.62 280.03,-35.42 269.81,-32.63 270.3,-39.62"/>
</g>
<!-- Node3 -->
<g id="node3" class="node">
<title>Node3</title>
<g id="a_node3"><a xlink:href="classcom_1_1ringcentral_1_1video_1_1_rcv_video_canvas.html#a04dc60608990b63123ec2481dd108442" target="_top" xlink:title=" ">
<polygon fill="white" stroke="#666666" points="246,-19 0,-19 0,0 246,0 246,-19"/>
<text text-anchor="middle" x="123" y="-7" font-family="Helvetica,sans-Serif" font-size="10.00">com.ringcentral.video.RcvVideoCanvas.detachTrack</text>
</a>
</g>
</g>
<!-- Node1&#45;&gt;Node3 -->
<g id="edge2" class="edge">
<title>Node1&#45;&gt;Node3</title>
<path fill="none" stroke="#63b8ff" d="M270.26,-19.34C262.24,-18.8 254.17,-18.26 246.14,-17.72"/>
<polygon fill="#63b8ff" stroke="#63b8ff" points="269.82,-22.82 280.03,-20 270.29,-15.84 269.82,-22.82"/>
</g>
</g>
</svg>
