<?xml version="1.0" encoding="UTF-8" standalone="no"?>
<!DOCTYPE svg PUBLIC "-//W3C//DTD SVG 1.1//EN"
 "http://www.w3.org/Graphics/SVG/1.1/DTD/svg11.dtd">
<!-- Generated by graphviz version 7.0.0 (20221023.0053)
 -->
<!-- Title: com.ringcentral.video.RcvTextureViewRenderer.setMirror Pages: 1 -->
<svg width="816pt" height="27pt"
 viewBox="0.00 0.00 816.00 27.00" xmlns="http://www.w3.org/2000/svg" xmlns:xlink="http://www.w3.org/1999/xlink">
<g id="graph0" class="graph" transform="scale(1 1) rotate(0) translate(4 23)">
<title>com.ringcentral.video.RcvTextureViewRenderer.setMirror</title>
<!-- Node1 -->
<g id="node1" class="node">
<title>Node1</title>
<g id="a_node1"><a xlink:title=" ">
<polygon fill="#999999" stroke="#666666" points="808,-19 543,-19 543,0 808,0 808,-19"/>
<text text-anchor="middle" x="675.5" y="-7" font-family="Helvetica,sans-Serif" font-size="10.00">com.ringcentral.video.RcvTextureViewRenderer.setMirror</text>
</a>
</g>
</g>
<!-- Node2 -->
<g id="node2" class="node">
<title>Node2</title>
<g id="a_node2"><a xlink:href="classcom_1_1ringcentral_1_1video_1_1_rcv_video_view.html#a5f90f0eb80b3dcb541e5dc13c6a0641d" target="_top" xlink:title=" ">
<polygon fill="white" stroke="#666666" points="507,-19 290,-19 290,0 507,0 507,-19"/>
<text text-anchor="middle" x="398.5" y="-7" font-family="Helvetica,sans-Serif" font-size="10.00">com.ringcentral.video.RcvVideoView.setMirror</text>
</a>
</g>
</g>
<!-- Node1&#45;&gt;Node2 -->
<g id="edge1" class="edge">
<title>Node1&#45;&gt;Node2</title>
<path fill="none" stroke="#63b8ff" d="M531.24,-9.5C523.18,-9.5 515.15,-9.5 507.26,-9.5"/>
<polygon fill="#63b8ff" stroke="#63b8ff" points="531.12,-13 541.12,-9.5 531.12,-6 531.12,-13"/>
</g>
<!-- Node3 -->
<g id="node3" class="node">
<title>Node3</title>
<g id="a_node3"><a xlink:href="classcom_1_1ringcentral_1_1video_1_1_rcv_video_canvas.html#a93f4b536b7aec7aac1510d7b0dd9d29c" target="_top" xlink:title=" ">
<polygon fill="white" stroke="#666666" points="254,-19 0,-19 0,0 254,0 254,-19"/>
<text text-anchor="middle" x="127" y="-7" font-family="Helvetica,sans-Serif" font-size="10.00">com.ringcentral.video.RcvVideoCanvas.setMirrorMode</text>
</a>
</g>
</g>
<!-- Node2&#45;&gt;Node3 -->
<g id="edge2" class="edge">
<title>Node2&#45;&gt;Node3</title>
<path fill="none" stroke="#63b8ff" d="M278.48,-9.5C270.41,-9.5 262.26,-9.5 254.16,-9.5"/>
<polygon fill="#63b8ff" stroke="#63b8ff" points="278.31,-13 288.31,-9.5 278.31,-6 278.31,-13"/>
</g>
</g>
</svg>
