<?xml version="1.0" encoding="UTF-8" standalone="no"?>
<!DOCTYPE svg PUBLIC "-//W3C//DTD SVG 1.1//EN"
 "http://www.w3.org/Graphics/SVG/1.1/DTD/svg11.dtd">
<!-- Generated by graphviz version 6.0.1 (20220911.1526)
 -->
<!-- Title: com.ringcentral.video.RcvVideoCanvas.RcvVideoCanvas Pages: 1 -->
<svg width="872pt" height="101pt"
 viewBox="0.00 0.00 872.00 101.00" xmlns="http://www.w3.org/2000/svg" xmlns:xlink="http://www.w3.org/1999/xlink">
<g id="graph0" class="graph" transform="scale(1 1) rotate(0) translate(4 97)">
<title>com.ringcentral.video.RcvVideoCanvas.RcvVideoCanvas</title>
<!-- Node1 -->
<g id="node1" class="node">
<title>Node1</title>
<g id="a_node1"><a xlink:title=" ">
<polygon fill="#999999" stroke="#666666" points="269,-56 0,-56 0,-37 269,-37 269,-56"/>
<text text-anchor="middle" x="134.5" y="-44" font-family="Helvetica,sans-Serif" font-size="10.00">com.ringcentral.video.RcvVideoCanvas.RcvVideoCanvas</text>
</a>
</g>
</g>
<!-- Node2 -->
<g id="node2" class="node">
<title>Node2</title>
<g id="a_node2"><a xlink:href="classcom_1_1ringcentral_1_1video_1_1_rcv_video_canvas.html#a3c108ba922edeae8005aa41b12f6146e" target="_top" xlink:title=" ">
<polygon fill="white" stroke="#666666" points="544,-56 305,-56 305,-37 544,-37 544,-56"/>
<text text-anchor="middle" x="424.5" y="-44" font-family="Helvetica,sans-Serif" font-size="10.00">com.ringcentral.video.RcvVideoCanvas.initCanvas</text>
</a>
</g>
</g>
<!-- Node1&#45;&gt;Node2 -->
<g id="edge1" class="edge">
<title>Node1&#45;&gt;Node2</title>
<path fill="none" stroke="#63b8ff" d="M269.38,-46.5C277.74,-46.5 286.14,-46.5 294.47,-46.5"/>
<polygon fill="#63b8ff" stroke="#63b8ff" points="294.59,-50 304.59,-46.5 294.59,-43 294.59,-50"/>
</g>
<!-- Node3 -->
<g id="node3" class="node">
<title>Node3</title>
<g id="a_node3"><a xlink:href="classcom_1_1ringcentral_1_1video_1_1_rcv_video_canvas.html#a9edf6c42cd96e303e616dc1a1c266893" target="_top" xlink:title=" ">
<polygon fill="white" stroke="#666666" points="842.5,-93 601.5,-93 601.5,-74 842.5,-74 842.5,-93"/>
<text text-anchor="middle" x="722" y="-81" font-family="Helvetica,sans-Serif" font-size="10.00">com.ringcentral.video.RcvVideoCanvas.attachView</text>
</a>
</g>
</g>
<!-- Node2&#45;&gt;Node3 -->
<g id="edge2" class="edge">
<title>Node2&#45;&gt;Node3</title>
<path fill="none" stroke="#63b8ff" d="M501.6,-56.03C542.36,-61.13 592.73,-67.44 634.92,-72.72"/>
<polygon fill="#63b8ff" stroke="#63b8ff" points="634.55,-76.2 644.9,-73.97 635.42,-69.26 634.55,-76.2"/>
</g>
<!-- Node4 -->
<g id="node4" class="node">
<title>Node4</title>
<g id="a_node4"><a xlink:href="classcom_1_1ringcentral_1_1video_1_1_rcv_video_canvas.html#a163ac586e73c0805a5a890ea02fbcc0b" target="_top" xlink:title=" ">
<polygon fill="white" stroke="#666666" points="864,-56 580,-56 580,-37 864,-37 864,-56"/>
<text text-anchor="middle" x="722" y="-44" font-family="Helvetica,sans-Serif" font-size="10.00">com.ringcentral.video.RcvVideoCanvas.createVideoTypeMap</text>
</a>
</g>
</g>
<!-- Node2&#45;&gt;Node4 -->
<g id="edge3" class="edge">
<title>Node2&#45;&gt;Node4</title>
<path fill="none" stroke="#63b8ff" d="M544.41,-46.5C552.83,-46.5 561.37,-46.5 569.93,-46.5"/>
<polygon fill="#63b8ff" stroke="#63b8ff" points="569.98,-50 579.98,-46.5 569.98,-43 569.98,-50"/>
</g>
<!-- Node5 -->
<g id="node5" class="node">
<title>Node5</title>
<g id="a_node5"><a xlink:href="classcom_1_1ringcentral_1_1video_1_1_rcv_video_canvas.html#a9426cd527bb2a6b7260e40341d59f1bd" target="_top" xlink:title=" ">
<polygon fill="white" stroke="#666666" points="846,-19 598,-19 598,0 846,0 846,-19"/>
<text text-anchor="middle" x="722" y="-7" font-family="Helvetica,sans-Serif" font-size="10.00">com.ringcentral.video.RcvVideoCanvas.isMirrorMode</text>
</a>
</g>
</g>
<!-- Node2&#45;&gt;Node5 -->
<g id="edge4" class="edge">
<title>Node2&#45;&gt;Node5</title>
<path fill="none" stroke="#63b8ff" d="M501.6,-36.97C542.36,-31.87 592.73,-25.56 634.92,-20.28"/>
<polygon fill="#63b8ff" stroke="#63b8ff" points="635.42,-23.74 644.9,-19.03 634.55,-16.8 635.42,-23.74"/>
</g>
</g>
</svg>
