<?xml version="1.0" encoding="UTF-8" standalone="no"?>
<!DOCTYPE svg PUBLIC "-//W3C//DTD SVG 1.1//EN"
 "http://www.w3.org/Graphics/SVG/1.1/DTD/svg11.dtd">
<!-- Generated by graphviz version 6.0.1 (20220911.1526)
 -->
<!-- Title: com.ringcentral.video.RcvTextureViewRenderer.release Pages: 1 -->
<svg width="527pt" height="64pt"
 viewBox="0.00 0.00 527.00 64.00" xmlns="http://www.w3.org/2000/svg" xmlns:xlink="http://www.w3.org/1999/xlink">
<g id="graph0" class="graph" transform="scale(1 1) rotate(0) translate(4 60)">
<title>com.ringcentral.video.RcvTextureViewRenderer.release</title>
<!-- Node1 -->
<g id="node1" class="node">
<title>Node1</title>
<g id="a_node1"><a xlink:title=" ">
<polygon fill="#999999" stroke="#666666" points="519,-37 261,-37 261,-18 519,-18 519,-37"/>
<text text-anchor="middle" x="390" y="-25" font-family="Helvetica,sans-Serif" font-size="10.00">com.ringcentral.video.RcvTextureViewRenderer.release</text>
</a>
</g>
</g>
<!-- Node2 -->
<g id="node2" class="node">
<title>Node2</title>
<g id="a_node2"><a xlink:href="classcom_1_1ringcentral_1_1video_1_1_rcv_video_view.html#a309d6cb5bccd704c276ea786822ce92e" target="_top" xlink:title=" ">
<polygon fill="white" stroke="#666666" points="225,-56 0,-56 0,-37 225,-37 225,-56"/>
<text text-anchor="middle" x="112.5" y="-44" font-family="Helvetica,sans-Serif" font-size="10.00">com.ringcentral.video.RcvVideoView.onRelease</text>
</a>
</g>
</g>
<!-- Node1&#45;&gt;Node2 -->
<g id="edge1" class="edge">
<title>Node1&#45;&gt;Node2</title>
<path fill="none" stroke="#63b8ff" d="M250.84,-37.03C242.23,-37.62 233.63,-38.22 225.17,-38.8"/>
<polygon fill="#63b8ff" stroke="#63b8ff" points="251.19,-40.51 260.93,-36.33 250.71,-33.53 251.19,-40.51"/>
</g>
<!-- Node3 -->
<g id="node3" class="node">
<title>Node3</title>
<g id="a_node3"><a xlink:href="classcom_1_1ringcentral_1_1video_1_1_rcv_video_view.html#a9191811770d2136ded15a120126ef70d" target="_top" xlink:title=" ">
<polygon fill="white" stroke="#666666" points="217.5,-19 7.5,-19 7.5,0 217.5,0 217.5,-19"/>
<text text-anchor="middle" x="112.5" y="-7" font-family="Helvetica,sans-Serif" font-size="10.00">com.ringcentral.video.RcvVideoView.release</text>
</a>
</g>
</g>
<!-- Node1&#45;&gt;Node3 -->
<g id="edge2" class="edge">
<title>Node1&#45;&gt;Node3</title>
<path fill="none" stroke="#63b8ff" d="M250.74,-18.47C239.63,-17.74 228.53,-17.02 217.72,-16.31"/>
<polygon fill="#63b8ff" stroke="#63b8ff" points="250.72,-21.97 260.93,-19.13 251.18,-14.99 250.72,-21.97"/>
</g>
</g>
</svg>
