<?xml version="1.0" encoding="UTF-8" standalone="no"?>
<!DOCTYPE svg PUBLIC "-//W3C//DTD SVG 1.1//EN"
 "http://www.w3.org/Graphics/SVG/1.1/DTD/svg11.dtd">
<!-- Generated by graphviz version 7.0.0 (20221023.0053)
 -->
<!-- Title: com.ringcentral.video.RcvTextureViewRenderer.release Pages: 1 -->
<svg width="527pt" height="64pt"
 viewBox="0.00 0.00 527.00 64.00" xmlns="http://www.w3.org/2000/svg" xmlns:xlink="http://www.w3.org/1999/xlink">
<g id="graph0" class="graph" transform="scale(1 1) rotate(0) translate(4 60)">
<title>com.ringcentral.video.RcvTextureViewRenderer.release</title>
<!-- Node1 -->
<g id="node1" class="node">
<title>Node1</title>
<g id="a_node1"><a xlink:title=" ">
<polygon fill="#999999" stroke="#666666" points="519,-37 261,-37 261,-18 519,-18 519,-37"/>
<text text-anchor="middle" x="390" y="-25" font-family="Helvetica,sans-Serif" font-size="10.00">com.ringcentral.video.RcvTextureViewRenderer.release</text>
</a>
</g>
</g>
<!-- Node2 -->
<g id="node2" class="node">
<title>Node2</title>
<g id="a_node2"><a xlink:href="classcom_1_1ringcentral_1_1video_1_1_rcv_video_view.html#a309d6cb5bccd704c276ea786822ce92e" target="_top" xlink:title=" ">
<polygon fill="white" stroke="#666666" points="225,-56 0,-56 0,-37 225,-37 225,-56"/>
<text text-anchor="middle" x="112.5" y="-44" font-family="Helvetica,sans-Serif" font-size="10.00">com.ringcentral.video.RcvVideoView.onRelease</text>
</a>
</g>
</g>
<!-- Node1&#45;&gt;Node2 -->
<g id="edge1" class="edge">
<title>Node1&#45;&gt;Node2</title>
<path fill="none" stroke="#63b8ff" d="M249.19,-37.14C241.16,-37.7 233.15,-38.25 225.25,-38.79"/>
<polygon fill="#63b8ff" stroke="#63b8ff" points="249.28,-40.64 259.02,-36.46 248.8,-33.66 249.28,-40.64"/>
</g>
<!-- Node3 -->
<g id="node3" class="node">
<title>Node3</title>
<g id="a_node3"><a xlink:href="classcom_1_1ringcentral_1_1video_1_1_rcv_video_view.html#a9191811770d2136ded15a120126ef70d" target="_top" xlink:title=" ">
<polygon fill="white" stroke="#666666" points="217.5,-19 7.5,-19 7.5,0 217.5,0 217.5,-19"/>
<text text-anchor="middle" x="112.5" y="-7" font-family="Helvetica,sans-Serif" font-size="10.00">com.ringcentral.video.RcvVideoView.release</text>
</a>
</g>
</g>
<!-- Node1&#45;&gt;Node3 -->
<g id="edge2" class="edge">
<title>Node1&#45;&gt;Node3</title>
<path fill="none" stroke="#63b8ff" d="M249.11,-18.36C238.58,-17.67 228.07,-16.99 217.82,-16.32"/>
<polygon fill="#63b8ff" stroke="#63b8ff" points="248.81,-21.85 259.02,-19.01 249.26,-14.86 248.81,-21.85"/>
</g>
</g>
</svg>
