<?xml version="1.0" encoding="UTF-8" standalone="no"?>
<!DOCTYPE svg PUBLIC "-//W3C//DTD SVG 1.1//EN"
 "http://www.w3.org/Graphics/SVG/1.1/DTD/svg11.dtd">
<!-- Generated by graphviz version 6.0.1 (20220911.1526)
 -->
<!-- Title: com.ringcentral.video.RcvVideoCanvas.onFrame Pages: 1 -->
<svg width="539pt" height="64pt"
 viewBox="0.00 0.00 539.00 64.00" xmlns="http://www.w3.org/2000/svg" xmlns:xlink="http://www.w3.org/1999/xlink">
<g id="graph0" class="graph" transform="scale(1 1) rotate(0) translate(4 60)">
<title>com.ringcentral.video.RcvVideoCanvas.onFrame</title>
<!-- Node1 -->
<g id="node1" class="node">
<title>Node1</title>
<g id="a_node1"><a xlink:title=" ">
<polygon fill="#999999" stroke="#666666" points="230,-37 0,-37 0,-18 230,-18 230,-37"/>
<text text-anchor="middle" x="115" y="-25" font-family="Helvetica,sans-Serif" font-size="10.00">com.ringcentral.video.RcvVideoCanvas.onFrame</text>
</a>
</g>
</g>
<!-- Node2 -->
<g id="node2" class="node">
<title>Node2</title>
<g id="a_node2"><a xlink:href="classcom_1_1ringcentral_1_1video_1_1_rcv_video_view.html#a386b78a6d3b5aae9b06f5f660224984f" target="_top" xlink:title=" ">
<polygon fill="white" stroke="#666666" points="514.5,-56 282.5,-56 282.5,-37 514.5,-37 514.5,-56"/>
<text text-anchor="middle" x="398.5" y="-44" font-family="Helvetica,sans-Serif" font-size="10.00">com.ringcentral.video.RcvVideoView.getRenderer</text>
</a>
</g>
</g>
<!-- Node1&#45;&gt;Node2 -->
<g id="edge1" class="edge">
<title>Node1&#45;&gt;Node2</title>
<path fill="none" stroke="#63b8ff" d="M230.09,-35.2C243.95,-36.14 258.17,-37.1 272.17,-38.04"/>
<polygon fill="#63b8ff" stroke="#63b8ff" points="272.12,-41.55 282.33,-38.73 272.59,-34.56 272.12,-41.55"/>
</g>
<!-- Node3 -->
<g id="node3" class="node">
<title>Node3</title>
<g id="a_node3"><a xlink:href="classcom_1_1ringcentral_1_1video_1_1_rcv_texture_view_renderer.html#a2225dbb93b2919fcbefe3919327698f1" target="_top" xlink:title=" ">
<polygon fill="white" stroke="#666666" points="531,-19 266,-19 266,0 531,0 531,-19"/>
<text text-anchor="middle" x="398.5" y="-7" font-family="Helvetica,sans-Serif" font-size="10.00">com.ringcentral.video.RcvTextureViewRenderer.onFrame</text>
</a>
</g>
</g>
<!-- Node1&#45;&gt;Node3 -->
<g id="edge2" class="edge">
<title>Node1&#45;&gt;Node3</title>
<path fill="none" stroke="#63b8ff" d="M230.09,-20.2C238.53,-19.67 247.09,-19.12 255.67,-18.57"/>
<polygon fill="#63b8ff" stroke="#63b8ff" points="255.97,-22.06 265.72,-17.93 255.52,-15.07 255.97,-22.06"/>
</g>
</g>
</svg>
