<?xml version="1.0" encoding="UTF-8" standalone="no"?>
<!DOCTYPE svg PUBLIC "-//W3C//DTD SVG 1.1//EN"
 "http://www.w3.org/Graphics/SVG/1.1/DTD/svg11.dtd">
<!-- Generated by graphviz version 6.0.1 (20220911.1526)
 -->
<!-- Title: Graphical Class Hierarchy Pages: 1 -->
<svg width="439pt" height="175pt"
 viewBox="0.00 0.00 439.00 175.00" xmlns="http://www.w3.org/2000/svg" xmlns:xlink="http://www.w3.org/1999/xlink">
<g id="graph0" class="graph" transform="scale(1 1) rotate(0) translate(4 171)">
<title>Graphical Class Hierarchy</title>
<!-- Node0 -->
<g id="node1" class="node">
<title>Node0</title>
<g id="a_node1"><a xlink:href="classcom_1_1ringcentral_1_1video_1_1_video_canvas.html" target="_top" xlink:title=" ">
<polygon fill="white" stroke="#666666" points="171,-167 0,-167 0,-148 171,-148 171,-167"/>
<text text-anchor="middle" x="85.5" y="-155" font-family="Helvetica,sans-Serif" font-size="10.00">com.ringcentral.video.VideoCanvas</text>
</a>
</g>
</g>
<!-- Node1 -->
<g id="node2" class="node">
<title>Node1</title>
<g id="a_node2"><a xlink:href="classcom_1_1ringcentral_1_1video_1_1_rcv_video_canvas.html" target="_top" xlink:title=" ">
<polygon fill="white" stroke="#666666" points="413.5,-130 224.5,-130 224.5,-111 413.5,-111 413.5,-130"/>
<text text-anchor="middle" x="319" y="-118" font-family="Helvetica,sans-Serif" font-size="10.00">com.ringcentral.video.RcvVideoCanvas</text>
</a>
</g>
</g>
<!-- Node0&#45;&gt;Node1 -->
<g id="edge1" class="edge">
<title>Node0&#45;&gt;Node1</title>
<path fill="none" stroke="#63b8ff" d="M156.02,-146.39C188.57,-141.19 226.95,-135.05 258.18,-130.06"/>
<polygon fill="#63b8ff" stroke="#63b8ff" points="155.44,-142.94 146.12,-147.97 156.54,-149.85 155.44,-142.94"/>
</g>
<!-- Node2 -->
<g id="node3" class="node">
<title>Node2</title>
<g id="a_node3"><a xlink:title=" ">
<polygon fill="#e0e0e0" stroke="#999999" points="129,-93 42,-93 42,-74 129,-74 129,-93"/>
<text text-anchor="middle" x="85.5" y="-81" font-family="Helvetica,sans-Serif" font-size="10.00">RendererEvents</text>
</a>
</g>
</g>
<!-- Node2&#45;&gt;Node1 -->
<g id="edge3" class="edge">
<title>Node2&#45;&gt;Node1</title>
<path fill="none" stroke="#63b8ff" d="M139.39,-91.95C174.89,-97.63 221.71,-105.11 258.51,-110.99"/>
<polygon fill="#63b8ff" stroke="#63b8ff" points="139.66,-88.45 129.23,-90.33 138.55,-95.36 139.66,-88.45"/>
</g>
<!-- Node3 -->
<g id="node4" class="node">
<title>Node3</title>
<g id="a_node4"><a xlink:href="classcom_1_1ringcentral_1_1video_1_1_rcv_texture_view_renderer.html" target="_top" xlink:title=" ">
<polygon fill="white" stroke="#666666" points="431,-75 207,-75 207,-56 431,-56 431,-75"/>
<text text-anchor="middle" x="319" y="-63" font-family="Helvetica,sans-Serif" font-size="10.00">com.ringcentral.video.RcvTextureViewRenderer</text>
</a>
</g>
</g>
<!-- Node2&#45;&gt;Node3 -->
<g id="edge2" class="edge">
<title>Node2&#45;&gt;Node3</title>
<path fill="none" stroke="#63b8ff" d="M139.38,-79.39C159.45,-77.83 183.14,-75.99 206.59,-74.16"/>
<polygon fill="#63b8ff" stroke="#63b8ff" points="138.93,-75.91 129.23,-80.18 139.47,-82.89 138.93,-75.91"/>
</g>
<!-- Node4 -->
<g id="node5" class="node">
<title>Node4</title>
<g id="a_node5"><a xlink:title=" ">
<polygon fill="#e0e0e0" stroke="#999999" points="144,-19 27,-19 27,0 144,0 144,-19"/>
<text text-anchor="middle" x="85.5" y="-7" font-family="Helvetica,sans-Serif" font-size="10.00">SurfaceTextureListener</text>
</a>
</g>
</g>
<!-- Node4&#45;&gt;Node3 -->
<g id="edge4" class="edge">
<title>Node4&#45;&gt;Node3</title>
<path fill="none" stroke="#63b8ff" d="M143.08,-21.2C152.42,-23.23 161.99,-25.38 171,-27.5 209.36,-36.54 253.05,-47.98 282.76,-55.94"/>
<polygon fill="#63b8ff" stroke="#63b8ff" points="143.58,-17.73 133.07,-19.04 142.11,-24.57 143.58,-17.73"/>
</g>
<!-- Node5 -->
<g id="node6" class="node">
<title>Node5</title>
<g id="a_node6"><a xlink:title=" ">
<polygon fill="#e0e0e0" stroke="#999999" points="121,-56 50,-56 50,-37 121,-37 121,-56"/>
<text text-anchor="middle" x="85.5" y="-44" font-family="Helvetica,sans-Serif" font-size="10.00">TextureView</text>
</a>
</g>
</g>
<!-- Node5&#45;&gt;Node3 -->
<g id="edge5" class="edge">
<title>Node5&#45;&gt;Node3</title>
<path fill="none" stroke="#63b8ff" d="M131.35,-50.18C153.06,-51.96 180.18,-54.19 206.96,-56.39"/>
<polygon fill="#63b8ff" stroke="#63b8ff" points="131.41,-46.67 121.16,-49.34 130.84,-53.65 131.41,-46.67"/>
</g>
<!-- Node6 -->
<g id="node7" class="node">
<title>Node6</title>
<g id="a_node7"><a xlink:title=" ">
<polygon fill="#e0e0e0" stroke="#999999" points="116,-130 55,-130 55,-111 116,-111 116,-130"/>
<text text-anchor="middle" x="85.5" y="-118" font-family="Helvetica,sans-Serif" font-size="10.00">VideoSink</text>
</a>
</g>
</g>
<!-- Node6&#45;&gt;Node1 -->
<g id="edge7" class="edge">
<title>Node6&#45;&gt;Node1</title>
<path fill="none" stroke="#63b8ff" d="M126.48,-120.5C153.45,-120.5 190.2,-120.5 224.3,-120.5"/>
<polygon fill="#63b8ff" stroke="#63b8ff" points="126.29,-117 116.29,-120.5 126.29,-124 126.29,-117"/>
</g>
<!-- Node6&#45;&gt;Node3 -->
<g id="edge6" class="edge">
<title>Node6&#45;&gt;Node3</title>
<path fill="none" stroke="#63b8ff" d="M126.21,-112.35C140.37,-109.37 156.42,-105.89 171,-102.5 208.81,-93.72 251.85,-82.77 281.54,-75.07"/>
<polygon fill="#63b8ff" stroke="#63b8ff" points="125.35,-108.96 116.28,-114.43 126.78,-115.81 125.35,-108.96"/>
</g>
</g>
</svg>
