<?xml version="1.0" encoding="UTF-8" standalone="no"?>
<!DOCTYPE svg PUBLIC "-//W3C//DTD SVG 1.1//EN"
 "http://www.w3.org/Graphics/SVG/1.1/DTD/svg11.dtd">
<!-- Generated by graphviz version 7.0.2 (20221119.0110)
 -->
<!-- Title: Graphical Class Hierarchy Pages: 1 -->
<svg width="439pt" height="175pt"
 viewBox="0.00 0.00 439.00 175.00" xmlns="http://www.w3.org/2000/svg" xmlns:xlink="http://www.w3.org/1999/xlink">
<g id="graph0" class="graph" transform="scale(1 1) rotate(0) translate(4 171)">
<title>Graphical Class Hierarchy</title>
<!-- Node0 -->
<g id="node1" class="node">
<title>Node0</title>
<g id="a_node1"><a xlink:href="classcom_1_1ringcentral_1_1video_1_1_video_canvas.html" target="_top" xlink:title=" ">
<polygon fill="white" stroke="#666666" points="171,-167 0,-167 0,-148 171,-148 171,-167"/>
<text text-anchor="middle" x="85.5" y="-155" font-family="Helvetica,sans-Serif" font-size="10.00">com.ringcentral.video.VideoCanvas</text>
</a>
</g>
</g>
<!-- Node1 -->
<g id="node2" class="node">
<title>Node1</title>
<g id="a_node2"><a xlink:href="classcom_1_1ringcentral_1_1video_1_1_rcv_video_canvas.html" target="_top" xlink:title=" ">
<polygon fill="white" stroke="#666666" points="413.5,-130 224.5,-130 224.5,-111 413.5,-111 413.5,-130"/>
<text text-anchor="middle" x="319" y="-118" font-family="Helvetica,sans-Serif" font-size="10.00">com.ringcentral.video.RcvVideoCanvas</text>
</a>
</g>
</g>
<!-- Node0&#45;&gt;Node1 -->
<g id="edge1" class="edge">
<title>Node0&#45;&gt;Node1</title>
<path fill="none" stroke="#63b8ff" d="M159.94,-145.76C190.7,-140.85 226.07,-135.19 255.55,-130.48"/>
<polygon fill="#63b8ff" stroke="#63b8ff" points="159.66,-142.26 150.34,-147.3 160.76,-149.17 159.66,-142.26"/>
</g>
<!-- Node2 -->
<g id="node3" class="node">
<title>Node2</title>
<g id="a_node3"><a xlink:title=" ">
<polygon fill="#e0e0e0" stroke="#999999" points="129,-93 42,-93 42,-74 129,-74 129,-93"/>
<text text-anchor="middle" x="85.5" y="-81" font-family="Helvetica,sans-Serif" font-size="10.00">RendererEvents</text>
</a>
</g>
</g>
<!-- Node2&#45;&gt;Node1 -->
<g id="edge3" class="edge">
<title>Node2&#45;&gt;Node1</title>
<path fill="none" stroke="#63b8ff" d="M140.47,-92.13C174.84,-97.62 219.51,-104.76 255.43,-110.5"/>
<polygon fill="#63b8ff" stroke="#63b8ff" points="141.15,-88.69 130.73,-90.57 140.05,-95.6 141.15,-88.69"/>
</g>
<!-- Node3 -->
<g id="node4" class="node">
<title>Node3</title>
<g id="a_node4"><a xlink:href="classcom_1_1ringcentral_1_1video_1_1_rcv_texture_view_renderer.html" target="_top" xlink:title=" ">
<polygon fill="white" stroke="#666666" points="431,-75 207,-75 207,-56 431,-56 431,-75"/>
<text text-anchor="middle" x="319" y="-63" font-family="Helvetica,sans-Serif" font-size="10.00">com.ringcentral.video.RcvTextureViewRenderer</text>
</a>
</g>
</g>
<!-- Node2&#45;&gt;Node3 -->
<g id="edge2" class="edge">
<title>Node2&#45;&gt;Node3</title>
<path fill="none" stroke="#63b8ff" d="M140.48,-79.3C160.31,-77.76 183.57,-75.95 206.59,-74.16"/>
<polygon fill="#63b8ff" stroke="#63b8ff" points="140.44,-75.8 130.74,-80.06 140.98,-82.77 140.44,-75.8"/>
</g>
<!-- Node4 -->
<g id="node5" class="node">
<title>Node4</title>
<g id="a_node5"><a xlink:title=" ">
<polygon fill="#e0e0e0" stroke="#999999" points="144,-19 27,-19 27,0 144,0 144,-19"/>
<text text-anchor="middle" x="85.5" y="-7" font-family="Helvetica,sans-Serif" font-size="10.00">SurfaceTextureListener</text>
</a>
</g>
</g>
<!-- Node4&#45;&gt;Node3 -->
<g id="edge4" class="edge">
<title>Node4&#45;&gt;Node3</title>
<path fill="none" stroke="#63b8ff" d="M145.84,-21.8C154.3,-23.65 162.88,-25.59 171,-27.5 208.72,-36.39 251.59,-47.6 281.26,-55.53"/>
<polygon fill="#63b8ff" stroke="#63b8ff" points="146.83,-18.44 136.32,-19.74 145.35,-25.28 146.83,-18.44"/>
</g>
<!-- Node5 -->
<g id="node6" class="node">
<title>Node5</title>
<g id="a_node6"><a xlink:title=" ">
<polygon fill="#e0e0e0" stroke="#999999" points="121,-56 50,-56 50,-37 121,-37 121,-56"/>
<text text-anchor="middle" x="85.5" y="-44" font-family="Helvetica,sans-Serif" font-size="10.00">TextureView</text>
</a>
</g>
</g>
<!-- Node5&#45;&gt;Node3 -->
<g id="edge5" class="edge">
<title>Node5&#45;&gt;Node3</title>
<path fill="none" stroke="#63b8ff" d="M132.74,-50.3C154.13,-52.05 180.55,-54.22 206.67,-56.36"/>
<polygon fill="#63b8ff" stroke="#63b8ff" points="133.17,-46.82 122.92,-49.49 132.6,-53.8 133.17,-46.82"/>
</g>
<!-- Node6 -->
<g id="node7" class="node">
<title>Node6</title>
<g id="a_node7"><a xlink:title=" ">
<polygon fill="#e0e0e0" stroke="#999999" points="116,-130 55,-130 55,-111 116,-111 116,-130"/>
<text text-anchor="middle" x="85.5" y="-118" font-family="Helvetica,sans-Serif" font-size="10.00">VideoSink</text>
</a>
</g>
</g>
<!-- Node6&#45;&gt;Node1 -->
<g id="edge7" class="edge">
<title>Node6&#45;&gt;Node1</title>
<path fill="none" stroke="#63b8ff" d="M127.54,-120.5C154.33,-120.5 190.46,-120.5 224.04,-120.5"/>
<polygon fill="#63b8ff" stroke="#63b8ff" points="127.8,-117 117.8,-120.5 127.8,-124 127.8,-117"/>
</g>
<!-- Node6&#45;&gt;Node3 -->
<g id="edge6" class="edge">
<title>Node6&#45;&gt;Node3</title>
<path fill="none" stroke="#63b8ff" d="M127.45,-112.09C141.3,-109.16 156.85,-105.79 171,-102.5 208.17,-93.87 250.39,-83.14 280.02,-75.47"/>
<polygon fill="#63b8ff" stroke="#63b8ff" points="126.83,-108.65 117.76,-114.12 128.27,-115.5 126.83,-108.65"/>
</g>
</g>
</svg>
