<?xml version="1.0" encoding="UTF-8" standalone="no"?>
<!DOCTYPE svg PUBLIC "-//W3C//DTD SVG 1.1//EN"
 "http://www.w3.org/Graphics/SVG/1.1/DTD/svg11.dtd">
<!-- Generated by graphviz version 6.0.1 (20220911.1526)
 -->
<!-- Title: Graphical Class Hierarchy Pages: 1 -->
<svg width="308pt" height="64pt"
 viewBox="0.00 0.00 308.00 64.00" xmlns="http://www.w3.org/2000/svg" xmlns:xlink="http://www.w3.org/1999/xlink">
<g id="graph0" class="graph" transform="scale(1 1) rotate(0) translate(4 60)">
<title>Graphical Class Hierarchy</title>
<!-- Node0 -->
<g id="node1" class="node">
<title>Node0</title>
<g id="a_node1"><a xlink:title=" ">
<polygon fill="#e0e0e0" stroke="#999999" points="87,-56 0,-56 0,-37 87,-37 87,-56"/>
<text text-anchor="middle" x="43.5" y="-44" font-family="Helvetica,sans-Serif" font-size="10.00">ReleasableView</text>
</a>
</g>
</g>
<!-- Node1 -->
<g id="node2" class="node">
<title>Node1</title>
<g id="a_node2"><a xlink:href="classcom_1_1ringcentral_1_1video_1_1_rcv_video_view.html" target="_top" xlink:title=" ">
<polygon fill="white" stroke="#666666" points="300,-37 123,-37 123,-18 300,-18 300,-37"/>
<text text-anchor="middle" x="211.5" y="-25" font-family="Helvetica,sans-Serif" font-size="10.00">com.ringcentral.video.RcvVideoView</text>
</a>
</g>
</g>
<!-- Node0&#45;&gt;Node1 -->
<g id="edge1" class="edge">
<title>Node0&#45;&gt;Node1</title>
<path fill="none" stroke="#63b8ff" d="M97.35,-40.45C106.9,-39.36 117.08,-38.19 127.26,-37.03"/>
<polygon fill="#63b8ff" stroke="#63b8ff" points="96.79,-36.99 87.25,-41.61 97.58,-43.95 96.79,-36.99"/>
</g>
<!-- Node2 -->
<g id="node3" class="node">
<title>Node2</title>
<g id="a_node3"><a xlink:title=" ">
<polygon fill="#e0e0e0" stroke="#999999" points="80.5,-19 6.5,-19 6.5,0 80.5,0 80.5,-19"/>
<text text-anchor="middle" x="43.5" y="-7" font-family="Helvetica,sans-Serif" font-size="10.00">FrameLayout</text>
</a>
</g>
</g>
<!-- Node2&#45;&gt;Node1 -->
<g id="edge2" class="edge">
<title>Node2&#45;&gt;Node1</title>
<path fill="none" stroke="#63b8ff" d="M90.65,-14.5C100.72,-15.6 111.69,-16.79 122.78,-17.99"/>
<polygon fill="#63b8ff" stroke="#63b8ff" points="90.84,-11 80.52,-13.41 90.08,-17.96 90.84,-11"/>
</g>
</g>
</svg>
