<?xml version="1.0" encoding="UTF-8" standalone="no"?>
<!DOCTYPE svg PUBLIC "-//W3C//DTD SVG 1.1//EN"
 "http://www.w3.org/Graphics/SVG/1.1/DTD/svg11.dtd">
<!-- Generated by graphviz version 6.0.1 (20220911.1526)
 -->
<!-- Title: rcvsdk/ios/rcvsdk/RCVideoCanvas.h Pages: 1 -->
<svg width="313pt" height="192pt"
 viewBox="0.00 0.00 313.00 192.00" xmlns="http://www.w3.org/2000/svg" xmlns:xlink="http://www.w3.org/1999/xlink">
<g id="graph0" class="graph" transform="scale(1 1) rotate(0) translate(4 188)">
<title>rcvsdk/ios/rcvsdk/RCVideoCanvas.h</title>
<!-- Node1 -->
<g id="node1" class="node">
<title>Node1</title>
<g id="a_node1"><a xlink:title=" ">
<polygon fill="#999999" stroke="#666666" points="305,-184 126,-184 126,-165 305,-165 305,-184"/>
<text text-anchor="middle" x="215.5" y="-172" font-family="Helvetica,sans-Serif" font-size="10.00">rcvsdk/ios/rcvsdk/RCVideoCanvas.h</text>
</a>
</g>
</g>
<!-- Node2 -->
<g id="node2" class="node">
<title>Node2</title>
<g id="a_node2"><a xlink:title=" ">
<polygon fill="#e0e0e0" stroke="#999999" points="197.5,-19 73.5,-19 73.5,0 197.5,0 197.5,-19"/>
<text text-anchor="middle" x="135.5" y="-7" font-family="Helvetica,sans-Serif" font-size="10.00">Foundation/Foundation.h</text>
</a>
</g>
</g>
<!-- Node1&#45;&gt;Node2 -->
<g id="edge1" class="edge">
<title>Node1&#45;&gt;Node2</title>
<path fill="none" stroke="#63b8ff" d="M227.78,-164.77C254.69,-144.59 314.23,-93.49 285.5,-55 267.4,-30.76 236.67,-19.19 207.71,-13.85"/>
<polygon fill="#63b8ff" stroke="#63b8ff" points="207.99,-10.35 197.56,-12.21 206.88,-17.26 207.99,-10.35"/>
</g>
<!-- Node3 -->
<g id="node3" class="node">
<title>Node3</title>
<g id="a_node3"><a xlink:title=" ">
<polygon fill="#e0e0e0" stroke="#999999" points="276,-74 203,-74 203,-55 276,-55 276,-74"/>
<text text-anchor="middle" x="239.5" y="-62" font-family="Helvetica,sans-Serif" font-size="10.00">UIKit/UIKit.h</text>
</a>
</g>
</g>
<!-- Node1&#45;&gt;Node3 -->
<g id="edge2" class="edge">
<title>Node1&#45;&gt;Node3</title>
<path fill="none" stroke="#63b8ff" d="M221.56,-164.79C227.17,-156.15 235.15,-142.33 238.5,-129 242.16,-114.43 242.21,-97.38 241.45,-84.61"/>
<polygon fill="#63b8ff" stroke="#63b8ff" points="244.91,-83.97 240.61,-74.29 237.94,-84.54 244.91,-83.97"/>
</g>
<!-- Node4 -->
<g id="node4" class="node">
<title>Node4</title>
<g id="a_node4"><a xlink:href="_rcv_video_canvas_8h.html" target="_top" xlink:title=" ">
<polygon fill="white" stroke="#666666" points="101,-129 0,-129 0,-110 101,-110 101,-129"/>
<text text-anchor="middle" x="50.5" y="-117" font-family="Helvetica,sans-Serif" font-size="10.00">RcvVideoCanvas.h</text>
</a>
</g>
</g>
<!-- Node1&#45;&gt;Node4 -->
<g id="edge3" class="edge">
<title>Node1&#45;&gt;Node4</title>
<path fill="none" stroke="#63b8ff" d="M188.99,-164.98C161.29,-156.09 117.64,-142.07 86.76,-132.15"/>
<polygon fill="#63b8ff" stroke="#63b8ff" points="87.81,-128.81 77.22,-129.08 85.67,-135.47 87.81,-128.81"/>
</g>
<!-- Node6 -->
<g id="node6" class="node">
<title>Node6</title>
<g id="a_node6"><a xlink:href="_rcv_base_video_view_8h.html" target="_top" xlink:title=" ">
<polygon fill="white" stroke="#666666" points="229.5,-129 119.5,-129 119.5,-110 229.5,-110 229.5,-129"/>
<text text-anchor="middle" x="174.5" y="-117" font-family="Helvetica,sans-Serif" font-size="10.00">RcvBaseVideoView.h</text>
</a>
</g>
</g>
<!-- Node1&#45;&gt;Node6 -->
<g id="edge7" class="edge">
<title>Node1&#45;&gt;Node6</title>
<path fill="none" stroke="#63b8ff" d="M208.73,-164.75C202.94,-157.26 194.44,-146.28 187.36,-137.13"/>
<polygon fill="#63b8ff" stroke="#63b8ff" points="190.03,-134.86 181.14,-129.09 184.49,-139.14 190.03,-134.86"/>
</g>
<!-- Node4&#45;&gt;Node2 -->
<g id="edge6" class="edge">
<title>Node4&#45;&gt;Node2</title>
<path fill="none" stroke="#63b8ff" d="M45.53,-109.95C38.72,-97.02 28.54,-72.16 39.5,-55 49.42,-39.47 66.3,-29.28 83.17,-22.62"/>
<polygon fill="#63b8ff" stroke="#63b8ff" points="84.81,-25.76 93.05,-19.1 82.46,-19.16 84.81,-25.76"/>
</g>
<!-- Node5 -->
<g id="node5" class="node">
<title>Node5</title>
<g id="a_node5"><a xlink:href="_rcv_render_mode_8h.html" target="_top" xlink:title=" ">
<polygon fill="white" stroke="#666666" points="146.5,-74 48.5,-74 48.5,-55 146.5,-55 146.5,-74"/>
<text text-anchor="middle" x="97.5" y="-62" font-family="Helvetica,sans-Serif" font-size="10.00">RcvRenderMode.h</text>
</a>
</g>
</g>
<!-- Node4&#45;&gt;Node5 -->
<g id="edge4" class="edge">
<title>Node4&#45;&gt;Node5</title>
<path fill="none" stroke="#63b8ff" d="M58.26,-109.75C64.97,-102.18 74.84,-91.05 83.01,-81.84"/>
<polygon fill="#63b8ff" stroke="#63b8ff" points="85.87,-83.89 89.88,-74.09 80.63,-79.25 85.87,-83.89"/>
</g>
<!-- Node5&#45;&gt;Node2 -->
<g id="edge5" class="edge">
<title>Node5&#45;&gt;Node2</title>
<path fill="none" stroke="#63b8ff" d="M103.77,-54.75C109.09,-47.34 116.86,-36.5 123.38,-27.41"/>
<polygon fill="#63b8ff" stroke="#63b8ff" points="126.36,-29.26 129.34,-19.09 120.67,-25.18 126.36,-29.26"/>
</g>
<!-- Node6&#45;&gt;Node2 -->
<g id="edge8" class="edge">
<title>Node6&#45;&gt;Node2</title>
<path fill="none" stroke="#63b8ff" d="M172.27,-109.75C169.04,-97.4 162.65,-74.19 155.5,-55 152.17,-46.07 147.91,-36.4 144.17,-28.35"/>
<polygon fill="#63b8ff" stroke="#63b8ff" points="147.29,-26.75 139.83,-19.22 140.96,-29.76 147.29,-26.75"/>
</g>
<!-- Node6&#45;&gt;Node3 -->
<g id="edge9" class="edge">
<title>Node6&#45;&gt;Node3</title>
<path fill="none" stroke="#63b8ff" d="M184.94,-109.98C194.65,-102.07 209.32,-90.11 221,-80.58"/>
<polygon fill="#63b8ff" stroke="#63b8ff" points="223.33,-83.2 228.87,-74.17 218.9,-77.78 223.33,-83.2"/>
</g>
<!-- Node6&#45;&gt;Node5 -->
<g id="edge10" class="edge">
<title>Node6&#45;&gt;Node5</title>
<path fill="none" stroke="#63b8ff" d="M162.13,-109.98C150.41,-101.92 132.58,-89.65 118.61,-80.03"/>
<polygon fill="#63b8ff" stroke="#63b8ff" points="120.32,-76.96 110.1,-74.17 116.35,-82.72 120.32,-76.96"/>
</g>
</g>
</svg>
