<?xml version="1.0" encoding="UTF-8" standalone="no"?>
<!DOCTYPE svg PUBLIC "-//W3C//DTD SVG 1.1//EN"
 "http://www.w3.org/Graphics/SVG/1.1/DTD/svg11.dtd">
<!-- Generated by graphviz version 7.0.0 (20221023.0053)
 -->
<!-- Title: rcvsdk/ios/rcvsdk/RCVideoView.h Pages: 1 -->
<svg width="686pt" height="192pt"
 viewBox="0.00 0.00 686.00 192.00" xmlns="http://www.w3.org/2000/svg" xmlns:xlink="http://www.w3.org/1999/xlink">
<g id="graph0" class="graph" transform="scale(1 1) rotate(0) translate(4 188)">
<title>rcvsdk/ios/rcvsdk/RCVideoView.h</title>
<!-- Node1 -->
<g id="node1" class="node">
<title>Node1</title>
<g id="a_node1"><a xlink:title=" ">
<polygon fill="#999999" stroke="#666666" points="165,-184 0,-184 0,-165 165,-165 165,-184"/>
<text text-anchor="middle" x="82.5" y="-172" font-family="Helvetica,sans-Serif" font-size="10.00">rcvsdk/ios/rcvsdk/RCVideoView.h</text>
</a>
</g>
</g>
<!-- Node2 -->
<g id="node2" class="node">
<title>Node2</title>
<g id="a_node2"><a xlink:title=" ">
<polygon fill="#e0e0e0" stroke="#999999" points="284.5,-19 160.5,-19 160.5,0 284.5,0 284.5,-19"/>
<text text-anchor="middle" x="222.5" y="-7" font-family="Helvetica,sans-Serif" font-size="10.00">Foundation/Foundation.h</text>
</a>
</g>
</g>
<!-- Node1&#45;&gt;Node2 -->
<g id="edge1" class="edge">
<title>Node1&#45;&gt;Node2</title>
<path fill="none" stroke="#63b8ff" d="M70.09,-164.67C59.6,-156.56 44.97,-143.61 36.5,-129 19.71,-100.05 1.56,-81.11 22.5,-55 38.38,-35.2 98.7,-23.65 148.99,-17.3"/>
<polygon fill="#63b8ff" stroke="#63b8ff" points="149.19,-20.8 158.7,-16.13 148.35,-13.85 149.19,-20.8"/>
</g>
<!-- Node3 -->
<g id="node3" class="node">
<title>Node3</title>
<g id="a_node3"><a xlink:title=" ">
<polygon fill="#e0e0e0" stroke="#999999" points="119,-129 46,-129 46,-110 119,-110 119,-129"/>
<text text-anchor="middle" x="82.5" y="-117" font-family="Helvetica,sans-Serif" font-size="10.00">UIKit/UIKit.h</text>
</a>
</g>
</g>
<!-- Node1&#45;&gt;Node3 -->
<g id="edge2" class="edge">
<title>Node1&#45;&gt;Node3</title>
<path fill="none" stroke="#63b8ff" d="M82.5,-164.75C82.5,-158.27 82.5,-149.16 82.5,-140.9"/>
<polygon fill="#63b8ff" stroke="#63b8ff" points="86,-140.96 82.5,-130.96 79,-140.96 86,-140.96"/>
</g>
<!-- Node4 -->
<g id="node4" class="node">
<title>Node4</title>
<g id="a_node4"><a xlink:href="_rcv_i_participant_8h.html" target="_top" xlink:title=" ">
<polygon fill="white" stroke="#666666" points="268.5,-129 176.5,-129 176.5,-110 268.5,-110 268.5,-129"/>
<text text-anchor="middle" x="222.5" y="-117" font-family="Helvetica,sans-Serif" font-size="10.00">RcvIParticipant.h</text>
</a>
</g>
</g>
<!-- Node1&#45;&gt;Node4 -->
<g id="edge3" class="edge">
<title>Node1&#45;&gt;Node4</title>
<path fill="none" stroke="#63b8ff" d="M106.25,-164.51C128.81,-155.97 162.97,-143.03 188.44,-133.4"/>
<polygon fill="#63b8ff" stroke="#63b8ff" points="189.57,-136.71 197.69,-129.89 187.09,-130.16 189.57,-136.71"/>
</g>
<!-- Node4&#45;&gt;Node2 -->
<g id="edge14" class="edge">
<title>Node4&#45;&gt;Node2</title>
<path fill="none" stroke="#63b8ff" d="M176.43,-114.07C126.58,-108.21 51.87,-95.97 34.5,-74 0.26,-30.71 82.53,-16.73 148.88,-12.33"/>
<polygon fill="#63b8ff" stroke="#63b8ff" points="148.92,-15.84 158.69,-11.75 148.51,-8.85 148.92,-15.84"/>
</g>
<!-- Node5 -->
<g id="node5" class="node">
<title>Node5</title>
<g id="a_node5"><a xlink:href="_rcv_e_echo_leak_type_8h.html" target="_top" xlink:title=" ">
<polygon fill="white" stroke="#666666" points="157.5,-74 43.5,-74 43.5,-55 157.5,-55 157.5,-74"/>
<text text-anchor="middle" x="100.5" y="-62" font-family="Helvetica,sans-Serif" font-size="10.00">RcvEEchoLeakType.h</text>
</a>
</g>
</g>
<!-- Node4&#45;&gt;Node5 -->
<g id="edge4" class="edge">
<title>Node4&#45;&gt;Node5</title>
<path fill="none" stroke="#63b8ff" d="M201.8,-109.51C182.5,-101.12 153.44,-88.5 131.39,-78.92"/>
<polygon fill="#63b8ff" stroke="#63b8ff" points="132.84,-75.74 122.28,-74.96 130.06,-82.16 132.84,-75.74"/>
</g>
<!-- Node6 -->
<g id="node6" class="node">
<title>Node6</title>
<g id="a_node6"><a xlink:href="_rcv_e_nqi_status_8h.html" target="_top" xlink:title=" ">
<polygon fill="white" stroke="#666666" points="269,-74 176,-74 176,-55 269,-55 269,-74"/>
<text text-anchor="middle" x="222.5" y="-62" font-family="Helvetica,sans-Serif" font-size="10.00">RcvENqiStatus.h</text>
</a>
</g>
</g>
<!-- Node4&#45;&gt;Node6 -->
<g id="edge6" class="edge">
<title>Node4&#45;&gt;Node6</title>
<path fill="none" stroke="#63b8ff" d="M222.5,-109.75C222.5,-103.27 222.5,-94.16 222.5,-85.9"/>
<polygon fill="#63b8ff" stroke="#63b8ff" points="226,-85.96 222.5,-75.96 219,-85.96 226,-85.96"/>
</g>
<!-- Node7 -->
<g id="node7" class="node">
<title>Node7</title>
<g id="a_node7"><a xlink:href="_rcv_e_participant_status_8h.html" target="_top" xlink:title=" ">
<polygon fill="white" stroke="#666666" points="412,-74 287,-74 287,-55 412,-55 412,-74"/>
<text text-anchor="middle" x="349.5" y="-62" font-family="Helvetica,sans-Serif" font-size="10.00">RcvEParticipantStatus.h</text>
</a>
</g>
</g>
<!-- Node4&#45;&gt;Node7 -->
<g id="edge8" class="edge">
<title>Node4&#45;&gt;Node7</title>
<path fill="none" stroke="#63b8ff" d="M244.04,-109.51C264.24,-101.08 294.67,-88.38 317.66,-78.79"/>
<polygon fill="#63b8ff" stroke="#63b8ff" points="319,-82.02 326.88,-74.94 316.3,-75.56 319,-82.02"/>
</g>
<!-- Node8 -->
<g id="node8" class="node">
<title>Node8</title>
<g id="a_node8"><a xlink:href="_rcv_e_reaction_action_8h.html" target="_top" xlink:title=" ">
<polygon fill="white" stroke="#666666" points="546.5,-74 430.5,-74 430.5,-55 546.5,-55 546.5,-74"/>
<text text-anchor="middle" x="488.5" y="-62" font-family="Helvetica,sans-Serif" font-size="10.00">RcvEReactionAction.h</text>
</a>
</g>
</g>
<!-- Node4&#45;&gt;Node8 -->
<g id="edge10" class="edge">
<title>Node4&#45;&gt;Node8</title>
<path fill="none" stroke="#63b8ff" d="M267.62,-109.51C313.14,-100.44 383.51,-86.42 432.55,-76.65"/>
<polygon fill="#63b8ff" stroke="#63b8ff" points="432.99,-80.13 442.12,-74.74 431.62,-73.26 432.99,-80.13"/>
</g>
<!-- Node9 -->
<g id="node9" class="node">
<title>Node9</title>
<g id="a_node9"><a xlink:href="_rcv_e_stream_activity_8h.html" target="_top" xlink:title=" ">
<polygon fill="white" stroke="#666666" points="678,-74 565,-74 565,-55 678,-55 678,-74"/>
<text text-anchor="middle" x="621.5" y="-62" font-family="Helvetica,sans-Serif" font-size="10.00">RcvEStreamActivity.h</text>
</a>
</g>
</g>
<!-- Node4&#45;&gt;Node9 -->
<g id="edge12" class="edge">
<title>Node4&#45;&gt;Node9</title>
<path fill="none" stroke="#63b8ff" d="M268.66,-112.37C338.7,-103.06 472.24,-85.33 553.44,-74.54"/>
<polygon fill="#63b8ff" stroke="#63b8ff" points="553.58,-78.05 563.04,-73.27 552.66,-71.11 553.58,-78.05"/>
</g>
<!-- Node5&#45;&gt;Node2 -->
<g id="edge5" class="edge">
<title>Node5&#45;&gt;Node2</title>
<path fill="none" stroke="#63b8ff" d="M121.2,-54.51C140.5,-46.12 169.56,-33.5 191.61,-23.92"/>
<polygon fill="#63b8ff" stroke="#63b8ff" points="192.94,-27.16 200.72,-19.96 190.16,-20.74 192.94,-27.16"/>
</g>
<!-- Node6&#45;&gt;Node2 -->
<g id="edge7" class="edge">
<title>Node6&#45;&gt;Node2</title>
<path fill="none" stroke="#63b8ff" d="M222.5,-54.75C222.5,-48.27 222.5,-39.16 222.5,-30.9"/>
<polygon fill="#63b8ff" stroke="#63b8ff" points="226,-30.96 222.5,-20.96 219,-30.96 226,-30.96"/>
</g>
<!-- Node7&#45;&gt;Node2 -->
<g id="edge9" class="edge">
<title>Node7&#45;&gt;Node2</title>
<path fill="none" stroke="#63b8ff" d="M327.96,-54.51C307.76,-46.08 277.33,-33.38 254.34,-23.79"/>
<polygon fill="#63b8ff" stroke="#63b8ff" points="255.7,-20.56 245.12,-19.94 253,-27.02 255.7,-20.56"/>
</g>
<!-- Node8&#45;&gt;Node2 -->
<g id="edge11" class="edge">
<title>Node8&#45;&gt;Node2</title>
<path fill="none" stroke="#63b8ff" d="M443.38,-54.51C397.86,-45.44 327.49,-31.42 278.45,-21.65"/>
<polygon fill="#63b8ff" stroke="#63b8ff" points="279.38,-18.26 268.88,-19.74 278.01,-25.13 279.38,-18.26"/>
</g>
<!-- Node9&#45;&gt;Node2 -->
<g id="edge13" class="edge">
<title>Node9&#45;&gt;Node2</title>
<path fill="none" stroke="#63b8ff" d="M564.76,-55.96C494.21,-46.59 373.66,-30.58 296.08,-20.27"/>
<polygon fill="#63b8ff" stroke="#63b8ff" points="296.83,-16.84 286.46,-19 295.91,-23.78 296.83,-16.84"/>
</g>
</g>
</svg>
