<?xml version="1.0" encoding="UTF-8" standalone="no"?>
<!DOCTYPE svg PUBLIC "-//W3C//DTD SVG 1.1//EN"
 "http://www.w3.org/Graphics/SVG/1.1/DTD/svg11.dtd">
<!-- Generated by graphviz version 6.0.1 (20220911.1526)
 -->
<!-- Title: rcvsdk/ios/rcvsdk/RCVideoView.h Pages: 1 -->
<svg width="557pt" height="192pt"
 viewBox="0.00 0.00 557.00 192.00" xmlns="http://www.w3.org/2000/svg" xmlns:xlink="http://www.w3.org/1999/xlink">
<g id="graph0" class="graph" transform="scale(1 1) rotate(0) translate(4 188)">
<title>rcvsdk/ios/rcvsdk/RCVideoView.h</title>
<!-- Node1 -->
<g id="node1" class="node">
<title>Node1</title>
<g id="a_node1"><a xlink:title=" ">
<polygon fill="#999999" stroke="#666666" points="165,-184 0,-184 0,-165 165,-165 165,-184"/>
<text text-anchor="middle" x="82.5" y="-172" font-family="Helvetica,sans-Serif" font-size="10.00">rcvsdk/ios/rcvsdk/RCVideoView.h</text>
</a>
</g>
</g>
<!-- Node2 -->
<g id="node2" class="node">
<title>Node2</title>
<g id="a_node2"><a xlink:title=" ">
<polygon fill="#e0e0e0" stroke="#999999" points="218.5,-19 94.5,-19 94.5,0 218.5,0 218.5,-19"/>
<text text-anchor="middle" x="156.5" y="-7" font-family="Helvetica,sans-Serif" font-size="10.00">Foundation/Foundation.h</text>
</a>
</g>
</g>
<!-- Node1&#45;&gt;Node2 -->
<g id="edge1" class="edge">
<title>Node1&#45;&gt;Node2</title>
<path fill="none" stroke="#63b8ff" d="M69.7,-164.88C58.97,-156.9 44.2,-144.03 36.5,-129 21.42,-99.55 9.33,-81.96 28.5,-55 41.62,-36.54 62.97,-25.68 84.51,-19.3"/>
<polygon fill="#63b8ff" stroke="#63b8ff" points="85.62,-22.62 94.39,-16.67 83.83,-15.86 85.62,-22.62"/>
</g>
<!-- Node3 -->
<g id="node3" class="node">
<title>Node3</title>
<g id="a_node3"><a xlink:title=" ">
<polygon fill="#e0e0e0" stroke="#999999" points="119,-129 46,-129 46,-110 119,-110 119,-129"/>
<text text-anchor="middle" x="82.5" y="-117" font-family="Helvetica,sans-Serif" font-size="10.00">UIKit/UIKit.h</text>
</a>
</g>
</g>
<!-- Node1&#45;&gt;Node3 -->
<g id="edge2" class="edge">
<title>Node1&#45;&gt;Node3</title>
<path fill="none" stroke="#63b8ff" d="M82.5,-164.75C82.5,-157.8 82.5,-147.85 82.5,-139.13"/>
<polygon fill="#63b8ff" stroke="#63b8ff" points="86,-139.09 82.5,-129.09 79,-139.09 86,-139.09"/>
</g>
<!-- Node4 -->
<g id="node4" class="node">
<title>Node4</title>
<g id="a_node4"><a xlink:href="_rcv_i_participant_8h.html" target="_top" xlink:title=" ">
<polygon fill="white" stroke="#666666" points="247.5,-129 155.5,-129 155.5,-110 247.5,-110 247.5,-129"/>
<text text-anchor="middle" x="201.5" y="-117" font-family="Helvetica,sans-Serif" font-size="10.00">RcvIParticipant.h</text>
</a>
</g>
</g>
<!-- Node1&#45;&gt;Node4 -->
<g id="edge3" class="edge">
<title>Node1&#45;&gt;Node4</title>
<path fill="none" stroke="#63b8ff" d="M101.62,-164.98C120.85,-156.42 150.73,-143.11 172.81,-133.28"/>
<polygon fill="#63b8ff" stroke="#63b8ff" points="174.32,-136.44 182.03,-129.17 171.47,-130.04 174.32,-136.44"/>
</g>
<!-- Node4&#45;&gt;Node2 -->
<g id="edge12" class="edge">
<title>Node4&#45;&gt;Node2</title>
<path fill="none" stroke="#63b8ff" d="M155.25,-112.26C111.94,-105.36 51.79,-92.69 37.5,-74 17.3,-47.59 56.11,-30.95 94.68,-21.35"/>
<polygon fill="#63b8ff" stroke="#63b8ff" points="95.51,-24.76 104.45,-19.07 93.91,-17.94 95.51,-24.76"/>
</g>
<!-- Node5 -->
<g id="node5" class="node">
<title>Node5</title>
<g id="a_node5"><a xlink:href="_rcv_e_nqi_status_8h.html" target="_top" xlink:title=" ">
<polygon fill="white" stroke="#666666" points="140,-74 47,-74 47,-55 140,-55 140,-74"/>
<text text-anchor="middle" x="93.5" y="-62" font-family="Helvetica,sans-Serif" font-size="10.00">RcvENqiStatus.h</text>
</a>
</g>
</g>
<!-- Node4&#45;&gt;Node5 -->
<g id="edge4" class="edge">
<title>Node4&#45;&gt;Node5</title>
<path fill="none" stroke="#63b8ff" d="M184.15,-109.98C166.93,-101.54 140.3,-88.47 120.35,-78.68"/>
<polygon fill="#63b8ff" stroke="#63b8ff" points="121.69,-75.43 111.17,-74.17 118.6,-81.72 121.69,-75.43"/>
</g>
<!-- Node6 -->
<g id="node6" class="node">
<title>Node6</title>
<g id="a_node6"><a xlink:href="_rcv_e_participant_status_8h.html" target="_top" xlink:title=" ">
<polygon fill="white" stroke="#666666" points="283,-74 158,-74 158,-55 283,-55 283,-74"/>
<text text-anchor="middle" x="220.5" y="-62" font-family="Helvetica,sans-Serif" font-size="10.00">RcvEParticipantStatus.h</text>
</a>
</g>
</g>
<!-- Node4&#45;&gt;Node6 -->
<g id="edge6" class="edge">
<title>Node4&#45;&gt;Node6</title>
<path fill="none" stroke="#63b8ff" d="M204.64,-109.75C207.18,-102.65 210.86,-92.4 214.03,-83.56"/>
<polygon fill="#63b8ff" stroke="#63b8ff" points="217.34,-84.68 217.42,-74.09 210.75,-82.32 217.34,-84.68"/>
</g>
<!-- Node7 -->
<g id="node7" class="node">
<title>Node7</title>
<g id="a_node7"><a xlink:href="_rcv_e_reaction_action_8h.html" target="_top" xlink:title=" ">
<polygon fill="white" stroke="#666666" points="417.5,-74 301.5,-74 301.5,-55 417.5,-55 417.5,-74"/>
<text text-anchor="middle" x="359.5" y="-62" font-family="Helvetica,sans-Serif" font-size="10.00">RcvEReactionAction.h</text>
</a>
</g>
</g>
<!-- Node4&#45;&gt;Node7 -->
<g id="edge8" class="edge">
<title>Node4&#45;&gt;Node7</title>
<path fill="none" stroke="#63b8ff" d="M226.89,-109.98C253.3,-101.13 294.85,-87.19 324.39,-77.28"/>
<polygon fill="#63b8ff" stroke="#63b8ff" points="325.55,-80.58 333.92,-74.08 323.32,-73.94 325.55,-80.58"/>
</g>
<!-- Node8 -->
<g id="node8" class="node">
<title>Node8</title>
<g id="a_node8"><a xlink:href="_rcv_e_stream_activity_8h.html" target="_top" xlink:title=" ">
<polygon fill="white" stroke="#666666" points="549,-74 436,-74 436,-55 549,-55 549,-74"/>
<text text-anchor="middle" x="492.5" y="-62" font-family="Helvetica,sans-Serif" font-size="10.00">RcvEStreamActivity.h</text>
</a>
</g>
</g>
<!-- Node4&#45;&gt;Node8 -->
<g id="edge10" class="edge">
<title>Node4&#45;&gt;Node8</title>
<path fill="none" stroke="#63b8ff" d="M247.61,-110.1C298.6,-100.81 380.8,-85.84 435.72,-75.84"/>
<polygon fill="#63b8ff" stroke="#63b8ff" points="436.43,-79.27 445.64,-74.03 435.18,-72.38 436.43,-79.27"/>
</g>
<!-- Node5&#45;&gt;Node2 -->
<g id="edge5" class="edge">
<title>Node5&#45;&gt;Node2</title>
<path fill="none" stroke="#63b8ff" d="M103.62,-54.98C112.94,-47.15 126.97,-35.34 138.24,-25.86"/>
<polygon fill="#63b8ff" stroke="#63b8ff" points="140.79,-28.29 146.19,-19.17 136.29,-22.93 140.79,-28.29"/>
</g>
<!-- Node6&#45;&gt;Node2 -->
<g id="edge7" class="edge">
<title>Node6&#45;&gt;Node2</title>
<path fill="none" stroke="#63b8ff" d="M210.22,-54.98C200.66,-47.07 186.22,-35.11 174.72,-25.58"/>
<polygon fill="#63b8ff" stroke="#63b8ff" points="176.9,-22.85 166.97,-19.17 172.44,-28.24 176.9,-22.85"/>
</g>
<!-- Node7&#45;&gt;Node2 -->
<g id="edge9" class="edge">
<title>Node7&#45;&gt;Node2</title>
<path fill="none" stroke="#63b8ff" d="M326.88,-54.98C292.21,-45.93 237.24,-31.58 199.15,-21.64"/>
<polygon fill="#63b8ff" stroke="#63b8ff" points="199.93,-18.22 189.37,-19.08 198.16,-24.99 199.93,-18.22"/>
</g>
<!-- Node8&#45;&gt;Node2 -->
<g id="edge11" class="edge">
<title>Node8&#45;&gt;Node2</title>
<path fill="none" stroke="#63b8ff" d="M438.52,-54.98C379.21,-45.63 284.01,-30.61 220.86,-20.65"/>
<polygon fill="#63b8ff" stroke="#63b8ff" points="221.05,-17.14 210.63,-19.04 219.96,-24.05 221.05,-17.14"/>
</g>
</g>
</svg>
