<?xml version="1.0" encoding="UTF-8" standalone="no"?>
<!DOCTYPE svg PUBLIC "-//W3C//DTD SVG 1.1//EN"
 "http://www.w3.org/Graphics/SVG/1.1/DTD/svg11.dtd">
<!-- Generated by graphviz version 7.0.0 (20221023.0053)
 -->
<!-- Title: rcvsdk/ios/rcvsdk/RCVideoCanvas.h Pages: 1 -->
<svg width="314pt" height="192pt"
 viewBox="0.00 0.00 314.00 192.00" xmlns="http://www.w3.org/2000/svg" xmlns:xlink="http://www.w3.org/1999/xlink">
<g id="graph0" class="graph" transform="scale(1 1) rotate(0) translate(4 188)">
<title>rcvsdk/ios/rcvsdk/RCVideoCanvas.h</title>
<!-- Node1 -->
<g id="node1" class="node">
<title>Node1</title>
<g id="a_node1"><a xlink:title=" ">
<polygon fill="#999999" stroke="#666666" points="179,-184 0,-184 0,-165 179,-165 179,-184"/>
<text text-anchor="middle" x="89.5" y="-172" font-family="Helvetica,sans-Serif" font-size="10.00">rcvsdk/ios/rcvsdk/RCVideoCanvas.h</text>
</a>
</g>
</g>
<!-- Node2 -->
<g id="node2" class="node">
<title>Node2</title>
<g id="a_node2"><a xlink:title=" ">
<polygon fill="#e0e0e0" stroke="#999999" points="231.5,-19 107.5,-19 107.5,0 231.5,0 231.5,-19"/>
<text text-anchor="middle" x="169.5" y="-7" font-family="Helvetica,sans-Serif" font-size="10.00">Foundation/Foundation.h</text>
</a>
</g>
</g>
<!-- Node1&#45;&gt;Node2 -->
<g id="edge1" class="edge">
<title>Node1&#45;&gt;Node2</title>
<path fill="none" stroke="#63b8ff" d="M77.36,-164.75C50.75,-144.54 -8.09,-93.37 20.5,-55 38.08,-31.4 67.72,-19.83 95.95,-14.32"/>
<polygon fill="#63b8ff" stroke="#63b8ff" points="96.31,-17.81 105.59,-12.69 95.14,-10.91 96.31,-17.81"/>
</g>
<!-- Node3 -->
<g id="node3" class="node">
<title>Node3</title>
<g id="a_node3"><a xlink:title=" ">
<polygon fill="#e0e0e0" stroke="#999999" points="103,-74 30,-74 30,-55 103,-55 103,-74"/>
<text text-anchor="middle" x="66.5" y="-62" font-family="Helvetica,sans-Serif" font-size="10.00">UIKit/UIKit.h</text>
</a>
</g>
</g>
<!-- Node1&#45;&gt;Node3 -->
<g id="edge2" class="edge">
<title>Node1&#45;&gt;Node3</title>
<path fill="none" stroke="#63b8ff" d="M83.7,-164.75C78.33,-156.08 70.7,-142.23 67.5,-129 64.04,-114.69 63.91,-98.04 64.59,-85.38"/>
<polygon fill="#63b8ff" stroke="#63b8ff" points="68.05,-86.03 65.32,-75.79 61.07,-85.49 68.05,-86.03"/>
</g>
<!-- Node4 -->
<g id="node4" class="node">
<title>Node4</title>
<g id="a_node4"><a xlink:href="_rcv_base_video_view_8h.html" target="_top" xlink:title=" ">
<polygon fill="white" stroke="#666666" points="186.5,-129 76.5,-129 76.5,-110 186.5,-110 186.5,-129"/>
<text text-anchor="middle" x="131.5" y="-117" font-family="Helvetica,sans-Serif" font-size="10.00">RcvBaseVideoView.h</text>
</a>
</g>
</g>
<!-- Node1&#45;&gt;Node4 -->
<g id="edge3" class="edge">
<title>Node1&#45;&gt;Node4</title>
<path fill="none" stroke="#63b8ff" d="M96.44,-164.75C102.12,-157.58 110.34,-147.2 117.39,-138.3"/>
<polygon fill="#63b8ff" stroke="#63b8ff" points="120.01,-140.64 123.47,-130.63 114.52,-136.29 120.01,-140.64"/>
</g>
<!-- Node6 -->
<g id="node6" class="node">
<title>Node6</title>
<g id="a_node6"><a xlink:href="_rcv_video_canvas_8h.html" target="_top" xlink:title=" ">
<polygon fill="white" stroke="#666666" points="306,-129 205,-129 205,-110 306,-110 306,-129"/>
<text text-anchor="middle" x="255.5" y="-117" font-family="Helvetica,sans-Serif" font-size="10.00">RcvVideoCanvas.h</text>
</a>
</g>
</g>
<!-- Node1&#45;&gt;Node6 -->
<g id="edge8" class="edge">
<title>Node1&#45;&gt;Node6</title>
<path fill="none" stroke="#63b8ff" d="M117.66,-164.51C144.93,-155.8 186.49,-142.53 216.85,-132.84"/>
<polygon fill="#63b8ff" stroke="#63b8ff" points="217.58,-136.28 226.04,-129.91 215.45,-129.61 217.58,-136.28"/>
</g>
<!-- Node4&#45;&gt;Node2 -->
<g id="edge4" class="edge">
<title>Node4&#45;&gt;Node2</title>
<path fill="none" stroke="#63b8ff" d="M133.78,-109.77C137.07,-97.44 143.53,-74.26 150.5,-55 153.54,-46.61 157.33,-37.52 160.72,-29.75"/>
<polygon fill="#63b8ff" stroke="#63b8ff" points="163.91,-31.19 164.8,-20.63 157.52,-28.33 163.91,-31.19"/>
</g>
<!-- Node4&#45;&gt;Node3 -->
<g id="edge5" class="edge">
<title>Node4&#45;&gt;Node3</title>
<path fill="none" stroke="#63b8ff" d="M120.47,-109.51C111.08,-101.85 97.35,-90.66 86.09,-81.47"/>
<polygon fill="#63b8ff" stroke="#63b8ff" points="88.5,-78.92 78.54,-75.31 84.07,-84.35 88.5,-78.92"/>
</g>
<!-- Node5 -->
<g id="node5" class="node">
<title>Node5</title>
<g id="a_node5"><a xlink:href="_rcv_render_mode_8h.html" target="_top" xlink:title=" ">
<polygon fill="white" stroke="#666666" points="257.5,-74 159.5,-74 159.5,-55 257.5,-55 257.5,-74"/>
<text text-anchor="middle" x="208.5" y="-62" font-family="Helvetica,sans-Serif" font-size="10.00">RcvRenderMode.h</text>
</a>
</g>
</g>
<!-- Node4&#45;&gt;Node5 -->
<g id="edge6" class="edge">
<title>Node4&#45;&gt;Node5</title>
<path fill="none" stroke="#63b8ff" d="M144.56,-109.51C156.02,-101.62 172.93,-89.98 186.48,-80.65"/>
<polygon fill="#63b8ff" stroke="#63b8ff" points="188.13,-83.77 194.38,-75.22 184.16,-78 188.13,-83.77"/>
</g>
<!-- Node5&#45;&gt;Node2 -->
<g id="edge7" class="edge">
<title>Node5&#45;&gt;Node2</title>
<path fill="none" stroke="#63b8ff" d="M202.06,-54.75C196.84,-47.66 189.31,-37.42 182.81,-28.59"/>
<polygon fill="#63b8ff" stroke="#63b8ff" points="185.72,-26.64 176.98,-20.66 180.08,-30.79 185.72,-26.64"/>
</g>
<!-- Node6&#45;&gt;Node2 -->
<g id="edge10" class="edge">
<title>Node6&#45;&gt;Node2</title>
<path fill="none" stroke="#63b8ff" d="M260.71,-109.52C267.52,-96.46 277.37,-71.95 266.5,-55 256.9,-40.03 240.86,-30.03 224.57,-23.38"/>
<polygon fill="#63b8ff" stroke="#63b8ff" points="225.9,-20.14 215.31,-19.99 223.5,-26.72 225.9,-20.14"/>
</g>
<!-- Node6&#45;&gt;Node5 -->
<g id="edge9" class="edge">
<title>Node6&#45;&gt;Node5</title>
<path fill="none" stroke="#63b8ff" d="M247.74,-109.75C241.31,-102.5 231.99,-91.98 224.04,-83.02"/>
<polygon fill="#63b8ff" stroke="#63b8ff" points="226.69,-80.73 217.43,-75.57 221.45,-85.38 226.69,-80.73"/>
</g>
</g>
</svg>
