<?xml version="1.0" encoding="UTF-8" standalone="no"?>
<!DOCTYPE svg PUBLIC "-//W3C//DTD SVG 1.1//EN"
 "http://www.w3.org/Graphics/SVG/1.1/DTD/svg11.dtd">
<!-- Generated by graphviz version 7.0.0 (20221023.0053)
 -->
<!-- Title: rcvsdk/ios/rcvsdk/RcvMeetingBridgeInfo.h Pages: 1 -->
<svg width="695pt" height="137pt"
 viewBox="0.00 0.00 694.50 137.00" xmlns="http://www.w3.org/2000/svg" xmlns:xlink="http://www.w3.org/1999/xlink">
<g id="graph0" class="graph" transform="scale(1 1) rotate(0) translate(4 133)">
<title>rcvsdk/ios/rcvsdk/RcvMeetingBridgeInfo.h</title>
<!-- Node1 -->
<g id="node1" class="node">
<title>Node1</title>
<g id="a_node1"><a xlink:title=" ">
<polygon fill="#999999" stroke="#666666" points="377,-129 175,-129 175,-110 377,-110 377,-129"/>
<text text-anchor="middle" x="276" y="-117" font-family="Helvetica,sans-Serif" font-size="10.00">rcvsdk/ios/rcvsdk/RcvMeetingBridgeInfo.h</text>
</a>
</g>
</g>
<!-- Node2 -->
<g id="node2" class="node">
<title>Node2</title>
<g id="a_node2"><a xlink:href="_rcv_meeting_type_8h.html" target="_top" xlink:title=" ">
<polygon fill="white" stroke="#666666" points="98,-74 0,-74 0,-55 98,-55 98,-74"/>
<text text-anchor="middle" x="49" y="-62" font-family="Helvetica,sans-Serif" font-size="10.00">RcvMeetingType.h</text>
</a>
</g>
</g>
<!-- Node1&#45;&gt;Node2 -->
<g id="edge1" class="edge">
<title>Node1&#45;&gt;Node2</title>
<path fill="none" stroke="#63b8ff" d="M237.49,-109.51C199.14,-100.55 140.11,-86.77 98.34,-77.02"/>
<polygon fill="#63b8ff" stroke="#63b8ff" points="99.32,-73.66 88.79,-74.79 97.73,-80.47 99.32,-73.66"/>
</g>
<!-- Node3 -->
<g id="node3" class="node">
<title>Node3</title>
<g id="a_node3"><a xlink:title=" ">
<polygon fill="#e0e0e0" stroke="#999999" points="338,-19 214,-19 214,0 338,0 338,-19"/>
<text text-anchor="middle" x="276" y="-7" font-family="Helvetica,sans-Serif" font-size="10.00">Foundation/Foundation.h</text>
</a>
</g>
</g>
<!-- Node1&#45;&gt;Node3 -->
<g id="edge11" class="edge">
<title>Node1&#45;&gt;Node3</title>
<path fill="none" stroke="#63b8ff" d="M200.47,-109.54C179.08,-103.11 158.08,-92.26 145,-74 125.15,-46.3 162.55,-30.16 202.39,-21.09"/>
<polygon fill="#63b8ff" stroke="#63b8ff" points="203.11,-24.52 212.17,-19.03 201.66,-17.67 203.11,-24.52"/>
</g>
<!-- Node4 -->
<g id="node4" class="node">
<title>Node4</title>
<g id="a_node4"><a xlink:href="_rcv_play_tones_mode_8h.html" target="_top" xlink:title=" ">
<polygon fill="white" stroke="#666666" points="267.5,-74 154.5,-74 154.5,-55 267.5,-55 267.5,-74"/>
<text text-anchor="middle" x="211" y="-62" font-family="Helvetica,sans-Serif" font-size="10.00">RcvPlayTonesMode.h</text>
</a>
</g>
</g>
<!-- Node1&#45;&gt;Node4 -->
<g id="edge3" class="edge">
<title>Node1&#45;&gt;Node4</title>
<path fill="none" stroke="#63b8ff" d="M264.97,-109.51C255.58,-101.85 241.85,-90.66 230.59,-81.47"/>
<polygon fill="#63b8ff" stroke="#63b8ff" points="233,-78.92 223.04,-75.31 228.57,-84.35 233,-78.92"/>
</g>
<!-- Node5 -->
<g id="node5" class="node">
<title>Node5</title>
<g id="a_node5"><a xlink:href="_rcv_recording_mode_8h.html" target="_top" xlink:title=" ">
<polygon fill="white" stroke="#666666" points="396.5,-74 285.5,-74 285.5,-55 396.5,-55 396.5,-74"/>
<text text-anchor="middle" x="341" y="-62" font-family="Helvetica,sans-Serif" font-size="10.00">RcvRecordingMode.h</text>
</a>
</g>
</g>
<!-- Node1&#45;&gt;Node5 -->
<g id="edge5" class="edge">
<title>Node1&#45;&gt;Node5</title>
<path fill="none" stroke="#63b8ff" d="M287.03,-109.51C296.42,-101.85 310.15,-90.66 321.41,-81.47"/>
<polygon fill="#63b8ff" stroke="#63b8ff" points="323.43,-84.35 328.96,-75.31 319,-78.92 323.43,-84.35"/>
</g>
<!-- Node6 -->
<g id="node6" class="node">
<title>Node6</title>
<g id="a_node6"><a xlink:href="_rcv_transcriptions_mode_8h.html" target="_top" xlink:title=" ">
<polygon fill="white" stroke="#666666" points="543,-74 415,-74 415,-55 543,-55 543,-74"/>
<text text-anchor="middle" x="479" y="-62" font-family="Helvetica,sans-Serif" font-size="10.00">RcvTranscriptionsMode.h</text>
</a>
</g>
</g>
<!-- Node1&#45;&gt;Node6 -->
<g id="edge7" class="edge">
<title>Node1&#45;&gt;Node6</title>
<path fill="none" stroke="#63b8ff" d="M310.44,-109.51C344.37,-100.65 396.4,-87.07 433.68,-77.33"/>
<polygon fill="#63b8ff" stroke="#63b8ff" points="434.48,-80.74 443.27,-74.83 432.71,-73.97 434.48,-80.74"/>
</g>
<!-- Node7 -->
<g id="node7" class="node">
<title>Node7</title>
<g id="a_node7"><a xlink:href="_rcv_waiting_room_mode_8h.html" target="_top" xlink:title=" ">
<polygon fill="white" stroke="#666666" points="686.5,-74 561.5,-74 561.5,-55 686.5,-55 686.5,-74"/>
<text text-anchor="middle" x="624" y="-62" font-family="Helvetica,sans-Serif" font-size="10.00">RcvWaitingRoomMode.h</text>
</a>
</g>
</g>
<!-- Node1&#45;&gt;Node7 -->
<g id="edge9" class="edge">
<title>Node1&#45;&gt;Node7</title>
<path fill="none" stroke="#63b8ff" d="M335.03,-109.51C395.49,-100.3 489.47,-85.99 553.73,-76.2"/>
<polygon fill="#63b8ff" stroke="#63b8ff" points="554.11,-79.68 563.47,-74.72 553.06,-72.76 554.11,-79.68"/>
</g>
<!-- Node2&#45;&gt;Node3 -->
<g id="edge2" class="edge">
<title>Node2&#45;&gt;Node3</title>
<path fill="none" stroke="#63b8ff" d="M87.51,-54.51C125.86,-45.55 184.89,-31.77 226.66,-22.02"/>
<polygon fill="#63b8ff" stroke="#63b8ff" points="227.27,-25.47 236.21,-19.79 225.68,-18.66 227.27,-25.47"/>
</g>
<!-- Node4&#45;&gt;Node3 -->
<g id="edge4" class="edge">
<title>Node4&#45;&gt;Node3</title>
<path fill="none" stroke="#63b8ff" d="M222.03,-54.51C231.42,-46.85 245.15,-35.66 256.41,-26.47"/>
<polygon fill="#63b8ff" stroke="#63b8ff" points="258.43,-29.35 263.96,-20.31 254,-23.92 258.43,-29.35"/>
</g>
<!-- Node5&#45;&gt;Node3 -->
<g id="edge6" class="edge">
<title>Node5&#45;&gt;Node3</title>
<path fill="none" stroke="#63b8ff" d="M329.97,-54.51C320.58,-46.85 306.85,-35.66 295.59,-26.47"/>
<polygon fill="#63b8ff" stroke="#63b8ff" points="298,-23.92 288.04,-20.31 293.57,-29.35 298,-23.92"/>
</g>
<!-- Node6&#45;&gt;Node3 -->
<g id="edge8" class="edge">
<title>Node6&#45;&gt;Node3</title>
<path fill="none" stroke="#63b8ff" d="M444.56,-54.51C410.63,-45.65 358.6,-32.07 321.32,-22.33"/>
<polygon fill="#63b8ff" stroke="#63b8ff" points="322.29,-18.97 311.73,-19.83 320.52,-25.74 322.29,-18.97"/>
</g>
<!-- Node7&#45;&gt;Node3 -->
<g id="edge10" class="edge">
<title>Node7&#45;&gt;Node3</title>
<path fill="none" stroke="#63b8ff" d="M564.97,-54.51C504.51,-45.3 410.53,-30.99 346.27,-21.2"/>
<polygon fill="#63b8ff" stroke="#63b8ff" points="346.94,-17.76 336.53,-19.72 345.89,-24.68 346.94,-17.76"/>
</g>
</g>
</svg>
