<?xml version="1.0" encoding="UTF-8" standalone="no"?>
<!DOCTYPE svg PUBLIC "-//W3C//DTD SVG 1.1//EN"
 "http://www.w3.org/Graphics/SVG/1.1/DTD/svg11.dtd">
<!-- Generated by graphviz version 7.0.0 (20221023.0053)
 -->
<!-- Title: rcvsdk/ios/rcvsdk/RcvMeetingChatController.h Pages: 1 -->
<svg width="228pt" height="137pt"
 viewBox="0.00 0.00 228.00 137.00" xmlns="http://www.w3.org/2000/svg" xmlns:xlink="http://www.w3.org/1999/xlink">
<g id="graph0" class="graph" transform="scale(1 1) rotate(0) translate(4 133)">
<title>rcvsdk/ios/rcvsdk/RcvMeetingChatController.h</title>
<!-- Node1 -->
<g id="node1" class="node">
<title>Node1</title>
<g id="a_node1"><a xlink:title=" ">
<polygon fill="#999999" stroke="#666666" points="220,-129 0,-129 0,-110 220,-110 220,-129"/>
<text text-anchor="middle" x="110" y="-117" font-family="Helvetica,sans-Serif" font-size="10.00">rcvsdk/ios/rcvsdk/RcvMeetingChatController.h</text>
</a>
</g>
</g>
<!-- Node2 -->
<g id="node2" class="node">
<title>Node2</title>
<g id="a_node2"><a xlink:href="_rcv_chat_privilege_8h.html" target="_top" xlink:title=" ">
<polygon fill="white" stroke="#666666" points="121.5,-74 20.5,-74 20.5,-55 121.5,-55 121.5,-74"/>
<text text-anchor="middle" x="71" y="-62" font-family="Helvetica,sans-Serif" font-size="10.00">RcvChatPrivilege.h</text>
</a>
</g>
</g>
<!-- Node1&#45;&gt;Node2 -->
<g id="edge1" class="edge">
<title>Node1&#45;&gt;Node2</title>
<path fill="none" stroke="#63b8ff" d="M103.56,-109.75C98.34,-102.66 90.81,-92.42 84.31,-83.59"/>
<polygon fill="#63b8ff" stroke="#63b8ff" points="87.22,-81.64 78.48,-75.66 81.58,-85.79 87.22,-81.64"/>
</g>
<!-- Node3 -->
<g id="node3" class="node">
<title>Node3</title>
<g id="a_node3"><a xlink:title=" ">
<polygon fill="#e0e0e0" stroke="#999999" points="172,-19 48,-19 48,0 172,0 172,-19"/>
<text text-anchor="middle" x="110" y="-7" font-family="Helvetica,sans-Serif" font-size="10.00">Foundation/Foundation.h</text>
</a>
</g>
</g>
<!-- Node1&#45;&gt;Node3 -->
<g id="edge3" class="edge">
<title>Node1&#45;&gt;Node3</title>
<path fill="none" stroke="#63b8ff" d="M116.18,-109.61C123.87,-97.48 135.47,-74.94 131,-55 129.02,-46.15 125.07,-36.99 121.12,-29.29"/>
<polygon fill="#63b8ff" stroke="#63b8ff" points="124.22,-27.66 116.31,-20.6 118.09,-31.05 124.22,-27.66"/>
</g>
<!-- Node2&#45;&gt;Node3 -->
<g id="edge2" class="edge">
<title>Node2&#45;&gt;Node3</title>
<path fill="none" stroke="#63b8ff" d="M77.44,-54.75C82.66,-47.66 90.19,-37.42 96.69,-28.59"/>
<polygon fill="#63b8ff" stroke="#63b8ff" points="99.42,-30.79 102.52,-20.66 93.78,-26.64 99.42,-30.79"/>
</g>
</g>
</svg>
