<?xml version="1.0" encoding="UTF-8" standalone="no"?>
<!DOCTYPE svg PUBLIC "-//W3C//DTD SVG 1.1//EN"
 "http://www.w3.org/Graphics/SVG/1.1/DTD/svg11.dtd">
<!-- Generated by graphviz version 7.0.0 (20221023.0053)
 -->
<!-- Title: rcvsdk/ios/rcvsdk/RcvSampleBufferVideoView.h Pages: 1 -->
<svg width="285pt" height="192pt"
 viewBox="0.00 0.00 284.50 192.00" xmlns="http://www.w3.org/2000/svg" xmlns:xlink="http://www.w3.org/1999/xlink">
<g id="graph0" class="graph" transform="scale(1 1) rotate(0) translate(4 188)">
<title>rcvsdk/ios/rcvsdk/RcvSampleBufferVideoView.h</title>
<!-- Node1 -->
<g id="node1" class="node">
<title>Node1</title>
<g id="a_node1"><a xlink:title=" ">
<polygon fill="#999999" stroke="#666666" points="227,-184 0,-184 0,-165 227,-165 227,-184"/>
<text text-anchor="middle" x="113.5" y="-172" font-family="Helvetica,sans-Serif" font-size="10.00">rcvsdk/ios/rcvsdk/RcvSampleBufferVideoView.h</text>
</a>
</g>
</g>
<!-- Node2 -->
<g id="node2" class="node">
<title>Node2</title>
<g id="a_node2"><a xlink:title=" ">
<polygon fill="#e0e0e0" stroke="#999999" points="118,-74 45,-74 45,-55 118,-55 118,-74"/>
<text text-anchor="middle" x="81.5" y="-62" font-family="Helvetica,sans-Serif" font-size="10.00">UIKit/UIKit.h</text>
</a>
</g>
</g>
<!-- Node1&#45;&gt;Node2 -->
<g id="edge1" class="edge">
<title>Node1&#45;&gt;Node2</title>
<path fill="none" stroke="#63b8ff" d="M108.11,-164.63C103.04,-155.89 95.62,-141.98 91.5,-129 86.99,-114.8 84.46,-98.14 83.08,-85.45"/>
<polygon fill="#63b8ff" stroke="#63b8ff" points="86.59,-85.46 82.18,-75.83 79.62,-86.11 86.59,-85.46"/>
</g>
<!-- Node3 -->
<g id="node3" class="node">
<title>Node3</title>
<g id="a_node3"><a xlink:href="_rcv_base_video_view_8h.html" target="_top" xlink:title=" ">
<polygon fill="white" stroke="#666666" points="210.5,-129 100.5,-129 100.5,-110 210.5,-110 210.5,-129"/>
<text text-anchor="middle" x="155.5" y="-117" font-family="Helvetica,sans-Serif" font-size="10.00">RcvBaseVideoView.h</text>
</a>
</g>
</g>
<!-- Node1&#45;&gt;Node3 -->
<g id="edge2" class="edge">
<title>Node1&#45;&gt;Node3</title>
<path fill="none" stroke="#63b8ff" d="M120.44,-164.75C126.12,-157.58 134.34,-147.2 141.39,-138.3"/>
<polygon fill="#63b8ff" stroke="#63b8ff" points="144.01,-140.64 147.47,-130.63 138.52,-136.29 144.01,-140.64"/>
</g>
<!-- Node3&#45;&gt;Node2 -->
<g id="edge4" class="edge">
<title>Node3&#45;&gt;Node2</title>
<path fill="none" stroke="#63b8ff" d="M142.95,-109.51C132.04,-101.7 116,-90.21 103.04,-80.93"/>
<polygon fill="#63b8ff" stroke="#63b8ff" points="105.27,-78.22 95.1,-75.24 101.19,-83.91 105.27,-78.22"/>
</g>
<!-- Node4 -->
<g id="node4" class="node">
<title>Node4</title>
<g id="a_node4"><a xlink:title=" ">
<polygon fill="#e0e0e0" stroke="#999999" points="250.5,-19 126.5,-19 126.5,0 250.5,0 250.5,-19"/>
<text text-anchor="middle" x="188.5" y="-7" font-family="Helvetica,sans-Serif" font-size="10.00">Foundation/Foundation.h</text>
</a>
</g>
</g>
<!-- Node3&#45;&gt;Node4 -->
<g id="edge3" class="edge">
<title>Node3&#45;&gt;Node4</title>
<path fill="none" stroke="#63b8ff" d="M156.9,-109.74C158.99,-97.36 163.36,-74.14 169.5,-55 172.26,-46.4 176.05,-37.18 179.52,-29.37"/>
<polygon fill="#63b8ff" stroke="#63b8ff" points="182.58,-31.1 183.59,-20.55 176.22,-28.17 182.58,-31.1"/>
</g>
<!-- Node5 -->
<g id="node5" class="node">
<title>Node5</title>
<g id="a_node5"><a xlink:href="_rcv_render_mode_8h.html" target="_top" xlink:title=" ">
<polygon fill="white" stroke="#666666" points="276.5,-74 178.5,-74 178.5,-55 276.5,-55 276.5,-74"/>
<text text-anchor="middle" x="227.5" y="-62" font-family="Helvetica,sans-Serif" font-size="10.00">RcvRenderMode.h</text>
</a>
</g>
</g>
<!-- Node3&#45;&gt;Node5 -->
<g id="edge5" class="edge">
<title>Node3&#45;&gt;Node5</title>
<path fill="none" stroke="#63b8ff" d="M167.71,-109.51C178.33,-101.7 193.94,-90.21 206.54,-80.93"/>
<polygon fill="#63b8ff" stroke="#63b8ff" points="208.27,-84 214.25,-75.26 204.12,-78.36 208.27,-84"/>
</g>
<!-- Node5&#45;&gt;Node4 -->
<g id="edge6" class="edge">
<title>Node5&#45;&gt;Node4</title>
<path fill="none" stroke="#63b8ff" d="M221.06,-54.75C215.84,-47.66 208.31,-37.42 201.81,-28.59"/>
<polygon fill="#63b8ff" stroke="#63b8ff" points="204.72,-26.64 195.98,-20.66 199.08,-30.79 204.72,-26.64"/>
</g>
</g>
</svg>
