<?xml version="1.0" encoding="UTF-8" standalone="no"?>
<!DOCTYPE svg PUBLIC "-//W3C//DTD SVG 1.1//EN"
 "http://www.w3.org/Graphics/SVG/1.1/DTD/svg11.dtd">
<!-- Generated by graphviz version 6.0.1 (20220911.1526)
 -->
<!-- Title: rcvsdk/ios/rcvsdk/RcvEngine.h Pages: 1 -->
<!--zoomable 192 -->
<svg id="main" version="1.1" xmlns="http://www.w3.org/2000/svg" xmlns:xlink="http://www.w3.org/1999/xlink" xml:space="preserve" onload="init(evt)">
<style type="text/css"><![CDATA[
.edge:hover path { stroke: red; }
.edge:hover polygon { stroke: red; fill: red; }
]]></style>
<script type="text/javascript"><![CDATA[
var edges = document.getElementsByTagName('g');
if (edges && edges.length) {
  for (var i=0;i<edges.length;i++) {
    if (edges[i].id.substr(0,4)=='edge') {
      edges[i].setAttribute('class','edge');
    }
  }
}
]]></script>
        <defs>
                <circle id="rim" cx="0" cy="0" r="7"/>
                <circle id="rim2" cx="0" cy="0" r="3.5"/>
                <g id="zoomPlus">
                        <use xlink:href="#rim" fill="#404040">
                                <set attributeName="fill" to="#808080" begin="zoomplus.mouseover" end="zoomplus.mouseout"/>
                        </use>
                        <path d="M-4,0h8M0,-4v8" fill="none" stroke="white" stroke-width="1.5" pointer-events="none"/>
                </g>
                <g id="zoomMin">
                        <use xlink:href="#rim" fill="#404040">
                                <set attributeName="fill" to="#808080" begin="zoomminus.mouseover" end="zoomminus.mouseout"/>
                        </use>
                        <path d="M-4,0h8" fill="none" stroke="white" stroke-width="1.5" pointer-events="none"/>
                </g>
                <g id="dirArrow">
                        <path fill="none" stroke="white" stroke-width="1.5" d="M0,-3.0v7 M-2.5,-0.5L0,-3.0L2.5,-0.5"/>
                </g>
               <g id="resetDef">
                       <use xlink:href="#rim2" fill="#404040">
                               <set attributeName="fill" to="#808080" begin="reset.mouseover" end="reset.mouseout"/>
                       </use>
               </g>
        </defs>

<script type="text/javascript">
var viewWidth = 618;
var viewHeight = 192;
var sectionId = 'dynsection-0';
</script>
<script xlink:href="svgpan.js"/>
<svg id="graph" class="graph">
<g id="viewport">
<title>rcvsdk/ios/rcvsdk/RcvEngine.h</title>
<!-- Node1 -->
<g id="node1" class="node">
<title>Node1</title>
<g id="a_node1"><a xlink:title=" ">
<polygon fill="#999999" stroke="#666666" points="340.96,-184 187.96,-184 187.96,-165 340.96,-165 340.96,-184"/>
<text text-anchor="middle" x="264.46" y="-172" font-family="Helvetica,sans-Serif" font-size="10.00">rcvsdk/ios/rcvsdk/RcvEngine.h</text>
</a>
</g>
</g>
<!-- Node2 -->
<g id="node2" class="node">
<title>Node2</title>
<g id="a_node2"><a xlink:title=" ">
<polygon fill="#e0e0e0" stroke="#999999" points="386.46,-19 262.46,-19 262.46,0 386.46,0 386.46,-19"/>
<text text-anchor="middle" x="324.46" y="-7" font-family="Helvetica,sans-Serif" font-size="10.00">Foundation/Foundation.h</text>
</a>
</g>
</g>
<!-- Node1&#45;&gt;Node2 -->
<g id="edge1" class="edge">
<title>Node1&#45;&gt;Node2</title>
<path fill="none" stroke="#63b8ff" d="M187.8,-167.38C128.5,-161.14 52.7,-149.42 29.46,-129 4.03,-106.66 -10.72,-80.56 11.46,-55 41.98,-19.83 169.54,-11.73 252.1,-10.27"/>
<polygon fill="#63b8ff" stroke="#63b8ff" points="252.24,-13.77 262.19,-10.12 252.14,-6.77 252.24,-13.77"/>
</g>
<!-- Node3 -->
<g id="node3" class="node">
<title>Node3</title>
<g id="a_node3"><a xlink:href="_rcv_engine_event_handler_8h.html" target="_top" xlink:title=" ">
<polygon fill="white" stroke="#666666" points="169.96,-129 38.96,-129 38.96,-110 169.96,-110 169.96,-129"/>
<text text-anchor="middle" x="104.46" y="-117" font-family="Helvetica,sans-Serif" font-size="10.00">RcvEngineEventHandler.h</text>
</a>
</g>
</g>
<!-- Node1&#45;&gt;Node3 -->
<g id="edge2" class="edge">
<title>Node1&#45;&gt;Node3</title>
<path fill="none" stroke="#63b8ff" d="M238.76,-164.98C212.01,-156.13 169.93,-142.19 140.01,-132.28"/>
<polygon fill="#63b8ff" stroke="#63b8ff" points="140.96,-128.9 130.37,-129.08 138.76,-135.55 140.96,-128.9"/>
</g>
<!-- Node6 -->
<g id="node6" class="node">
<title>Node6</title>
<g id="a_node6"><a xlink:href="_rcv_error_code_type_8h.html" target="_top" xlink:title=" ">
<polygon fill="white" stroke="#666666" points="378.46,-74 270.46,-74 270.46,-55 378.46,-55 378.46,-74"/>
<text text-anchor="middle" x="324.46" y="-62" font-family="Helvetica,sans-Serif" font-size="10.00">RcvErrorCodeType.h</text>
</a>
</g>
</g>
<!-- Node1&#45;&gt;Node6 -->
<g id="edge8" class="edge">
<title>Node1&#45;&gt;Node6</title>
<path fill="none" stroke="#63b8ff" d="M256.72,-164.82C246.4,-152.15 230.62,-128.11 241.46,-110 250.43,-95.01 266.37,-84.78 281.9,-77.95"/>
<polygon fill="#63b8ff" stroke="#63b8ff" points="283.47,-81.1 291.45,-74.13 280.86,-74.6 283.47,-81.1"/>
</g>
<!-- Node7 -->
<g id="node7" class="node">
<title>Node7</title>
<g id="a_node7"><a xlink:href="_rcv_video_processor_8h.html" target="_top" xlink:title=" ">
<polygon fill="white" stroke="#666666" points="361.96,-129 250.96,-129 250.96,-110 361.96,-110 361.96,-129"/>
<text text-anchor="middle" x="306.46" y="-117" font-family="Helvetica,sans-Serif" font-size="10.00">RcvVideoProcessor.h</text>
</a>
</g>
</g>
<!-- Node1&#45;&gt;Node7 -->
<g id="edge10" class="edge">
<title>Node1&#45;&gt;Node7</title>
<path fill="none" stroke="#63b8ff" d="M271.4,-164.75C277.33,-157.26 286.03,-146.28 293.29,-137.13"/>
<polygon fill="#63b8ff" stroke="#63b8ff" points="296.19,-139.1 299.66,-129.09 290.7,-134.75 296.19,-139.1"/>
</g>
<!-- Node8 -->
<g id="node8" class="node">
<title>Node8</title>
<g id="a_node8"><a xlink:href="_rcv_audio_processor_8h.html" target="_top" xlink:title=" ">
<polygon fill="white" stroke="#666666" points="490.96,-129 379.96,-129 379.96,-110 490.96,-110 490.96,-129"/>
<text text-anchor="middle" x="435.46" y="-117" font-family="Helvetica,sans-Serif" font-size="10.00">RcvAudioProcessor.h</text>
</a>
</g>
</g>
<!-- Node1&#45;&gt;Node8 -->
<g id="edge12" class="edge">
<title>Node1&#45;&gt;Node8</title>
<path fill="none" stroke="#63b8ff" d="M291.94,-164.98C320.65,-156.09 365.88,-142.07 397.88,-132.15"/>
<polygon fill="#63b8ff" stroke="#63b8ff" points="399.26,-135.39 407.77,-129.08 397.18,-128.7 399.26,-135.39"/>
</g>
<!-- Node9 -->
<g id="node9" class="node">
<title>Node9</title>
<g id="a_node9"><a xlink:href="_rcv_video_canvas_8h.html" target="_top" xlink:title=" ">
<polygon fill="white" stroke="#666666" points="609.96,-129 508.96,-129 508.96,-110 609.96,-110 609.96,-129"/>
<text text-anchor="middle" x="559.46" y="-117" font-family="Helvetica,sans-Serif" font-size="10.00">RcvVideoCanvas.h</text>
</a>
</g>
</g>
<!-- Node1&#45;&gt;Node9 -->
<g id="edge14" class="edge">
<title>Node1&#45;&gt;Node9</title>
<path fill="none" stroke="#63b8ff" d="M311.86,-164.98C363.53,-155.7 446.23,-140.84 501.67,-130.88"/>
<polygon fill="#63b8ff" stroke="#63b8ff" points="502.47,-134.3 511.69,-129.08 501.23,-127.41 502.47,-134.3"/>
</g>
<!-- Node3&#45;&gt;Node2 -->
<g id="edge7" class="edge">
<title>Node3&#45;&gt;Node2</title>
<path fill="none" stroke="#63b8ff" d="M76.07,-109.97C44.37,-99.04 0.02,-78.65 20.46,-55 49.81,-21.04 171.96,-12.5 252.21,-10.63"/>
<polygon fill="#63b8ff" stroke="#63b8ff" points="252.34,-14.13 262.27,-10.43 252.2,-7.13 252.34,-14.13"/>
</g>
<!-- Node4 -->
<g id="node4" class="node">
<title>Node4</title>
<g id="a_node4"><a xlink:href="_rcv_leave_reason_8h.html" target="_top" xlink:title=" ">
<polygon fill="white" stroke="#666666" points="132.96,-74 29.96,-74 29.96,-55 132.96,-55 132.96,-74"/>
<text text-anchor="middle" x="81.46" y="-62" font-family="Helvetica,sans-Serif" font-size="10.00">RcvLeaveReason.h</text>
</a>
</g>
</g>
<!-- Node3&#45;&gt;Node4 -->
<g id="edge3" class="edge">
<title>Node3&#45;&gt;Node4</title>
<path fill="none" stroke="#63b8ff" d="M100.66,-109.75C97.55,-102.57 93.04,-92.18 89.17,-83.27"/>
<polygon fill="#63b8ff" stroke="#63b8ff" points="92.38,-81.87 85.19,-74.09 85.96,-84.66 92.38,-81.87"/>
</g>
<!-- Node5 -->
<g id="node5" class="node">
<title>Node5</title>
<g id="a_node5"><a xlink:href="_rcv_meeting_state_8h.html" target="_top" xlink:title=" ">
<polygon fill="white" stroke="#666666" points="251.96,-74 150.96,-74 150.96,-55 251.96,-55 251.96,-74"/>
<text text-anchor="middle" x="201.46" y="-62" font-family="Helvetica,sans-Serif" font-size="10.00">RcvMeetingState.h</text>
</a>
</g>
</g>
<!-- Node3&#45;&gt;Node5 -->
<g id="edge5" class="edge">
<title>Node3&#45;&gt;Node5</title>
<path fill="none" stroke="#63b8ff" d="M120.05,-109.98C135.23,-101.69 158.56,-88.94 176.36,-79.22"/>
<polygon fill="#63b8ff" stroke="#63b8ff" points="178.5,-82.04 185.59,-74.17 175.14,-75.89 178.5,-82.04"/>
</g>
<!-- Node4&#45;&gt;Node2 -->
<g id="edge4" class="edge">
<title>Node4&#45;&gt;Node2</title>
<path fill="none" stroke="#63b8ff" d="M120.5,-54.98C162.54,-45.82 229.5,-31.21 275.14,-21.26"/>
<polygon fill="#63b8ff" stroke="#63b8ff" points="276.09,-24.63 285.11,-19.08 274.6,-17.79 276.09,-24.63"/>
</g>
<!-- Node5&#45;&gt;Node2 -->
<g id="edge6" class="edge">
<title>Node5&#45;&gt;Node2</title>
<path fill="none" stroke="#63b8ff" d="M221.22,-54.98C241.19,-46.38 272.27,-32.99 295.11,-23.15"/>
<polygon fill="#63b8ff" stroke="#63b8ff" points="296.54,-26.34 304.34,-19.17 293.77,-19.91 296.54,-26.34"/>
</g>
<!-- Node6&#45;&gt;Node2 -->
<g id="edge9" class="edge">
<title>Node6&#45;&gt;Node2</title>
<path fill="none" stroke="#63b8ff" d="M324.46,-54.75C324.46,-47.8 324.46,-37.85 324.46,-29.13"/>
<polygon fill="#63b8ff" stroke="#63b8ff" points="327.96,-29.09 324.46,-19.09 320.96,-29.09 327.96,-29.09"/>
</g>
<!-- Node7&#45;&gt;Node2 -->
<g id="edge11" class="edge">
<title>Node7&#45;&gt;Node2</title>
<path fill="none" stroke="#63b8ff" d="M337.88,-109.97C355.8,-103.32 376.76,-92.09 387.46,-74 399.36,-53.88 375.5,-35.47 353.81,-23.72"/>
<polygon fill="#63b8ff" stroke="#63b8ff" points="355.25,-20.52 344.75,-19.1 352.07,-26.76 355.25,-20.52"/>
</g>
<!-- Node8&#45;&gt;Node2 -->
<g id="edge13" class="edge">
<title>Node8&#45;&gt;Node2</title>
<path fill="none" stroke="#63b8ff" d="M432.88,-109.72C428.61,-96.49 418.98,-71.25 403.46,-55 390.41,-41.33 372.22,-30.69 356.58,-23.25"/>
<polygon fill="#63b8ff" stroke="#63b8ff" points="357.8,-19.96 347.25,-19.03 354.92,-26.34 357.8,-19.96"/>
</g>
<!-- Node9&#45;&gt;Node2 -->
<g id="edge17" class="edge">
<title>Node9&#45;&gt;Node2</title>
<path fill="none" stroke="#63b8ff" d="M541.61,-109.96C515.83,-97.65 466.62,-74.29 424.46,-55 400.55,-44.06 373.28,-31.95 353.26,-23.12"/>
<polygon fill="#63b8ff" stroke="#63b8ff" points="354.62,-19.9 344.06,-19.08 351.81,-26.31 354.62,-19.9"/>
</g>
<!-- Node10 -->
<g id="node10" class="node">
<title>Node10</title>
<g id="a_node10"><a xlink:href="_rcv_render_mode_8h.html" target="_top" xlink:title=" ">
<polygon fill="white" stroke="#666666" points="608.46,-74 510.46,-74 510.46,-55 608.46,-55 608.46,-74"/>
<text text-anchor="middle" x="559.46" y="-62" font-family="Helvetica,sans-Serif" font-size="10.00">RcvRenderMode.h</text>
</a>
</g>
</g>
<!-- Node9&#45;&gt;Node10 -->
<g id="edge15" class="edge">
<title>Node9&#45;&gt;Node10</title>
<path fill="none" stroke="#63b8ff" d="M559.46,-109.75C559.46,-102.8 559.46,-92.85 559.46,-84.13"/>
<polygon fill="#63b8ff" stroke="#63b8ff" points="562.96,-84.09 559.46,-74.09 555.96,-84.09 562.96,-84.09"/>
</g>
<!-- Node10&#45;&gt;Node2 -->
<g id="edge16" class="edge">
<title>Node10&#45;&gt;Node2</title>
<path fill="none" stroke="#63b8ff" d="M521.71,-54.98C481.14,-45.84 416.57,-31.27 372.44,-21.32"/>
<polygon fill="#63b8ff" stroke="#63b8ff" points="373.04,-17.87 362.51,-19.08 371.5,-24.7 373.04,-17.87"/>
</g>
</g>
</svg>
        <g id="navigator" transform="translate(0 0)" fill="#404254">
                <rect fill="#f2f5e9" fill-opacity="0.5" stroke="#606060" stroke-width=".5" x="0" y="0" width="60" height="60"/>
                <use id="zoomplus" xlink:href="#zoomPlus" x="17" y="9" onmousedown="handleZoom(evt,'in')"/>
                <use id="zoomminus" xlink:href="#zoomMin" x="42" y="9" onmousedown="handleZoom(evt,'out')"/>
                <use id="reset" xlink:href="#resetDef" x="30" y="36" onmousedown="handleReset()"/>
                <g id="arrowUp" xlink:href="#dirArrow" transform="translate(30 24)" onmousedown="handlePan(0,-1)">
                  <use xlink:href="#rim" fill="#404040">
                        <set attributeName="fill" to="#808080" begin="arrowUp.mouseover" end="arrowUp.mouseout"/>
                  </use>
                  <path fill="none" stroke="white" stroke-width="1.5" d="M0,-3.0v7 M-2.5,-0.5L0,-3.0L2.5,-0.5"/>
                </g>
                <g id="arrowRight" xlink:href="#dirArrow" transform="rotate(90) translate(36 -43)" onmousedown="handlePan(1,0)">
                  <use xlink:href="#rim" fill="#404040">
                        <set attributeName="fill" to="#808080" begin="arrowRight.mouseover" end="arrowRight.mouseout"/>
                  </use>
                  <path fill="none" stroke="white" stroke-width="1.5" d="M0,-3.0v7 M-2.5,-0.5L0,-3.0L2.5,-0.5"/>
                </g>
                <g id="arrowDown" xlink:href="#dirArrow" transform="rotate(180) translate(-30 -48)" onmousedown="handlePan(0,1)">
                  <use xlink:href="#rim" fill="#404040">
                        <set attributeName="fill" to="#808080" begin="arrowDown.mouseover" end="arrowDown.mouseout"/>
                  </use>
                  <path fill="none" stroke="white" stroke-width="1.5" d="M0,-3.0v7 M-2.5,-0.5L0,-3.0L2.5,-0.5"/>
                </g>
                <g id="arrowLeft" xlink:href="#dirArrow" transform="rotate(270) translate(-36 17)" onmousedown="handlePan(-1,0)">
                  <use xlink:href="#rim" fill="#404040">
                        <set attributeName="fill" to="#808080" begin="arrowLeft.mouseover" end="arrowLeft.mouseout"/>
                  </use>
                  <path fill="none" stroke="white" stroke-width="1.5" d="M0,-3.0v7 M-2.5,-0.5L0,-3.0L2.5,-0.5"/>
                </g>
        </g>
        <svg viewBox="0 0 15 15" width="100%" height="30px" preserveAspectRatio="xMaxYMin meet">
         <g id="arrow_out" transform="scale(0.3 0.3)">
          <a xlink:href="_rcv_engine_8h__incl_org.svg" target="_base">
           <rect id="button" ry="5" rx="5" y="6" x="6" height="38" width="38"
                fill="#f2f5e9" fill-opacity="0.5" stroke="#606060" stroke-width="1.0"/>
           <path id="arrow"
             d="M 11.500037,31.436501 C 11.940474,20.09759 22.043105,11.32322 32.158766,21.979434 L 37.068811,17.246167 C 37.068811,17.246167 37.088388,32 37.088388,32 L 22.160133,31.978069 C 22.160133,31.978069 26.997745,27.140456 26.997745,27.140456 C 18.528582,18.264221 13.291696,25.230495 11.500037,31.436501 z"
             style="fill:#404040;"/>
          </a>
         </g>
        </svg>
</svg>
