<?xml version="1.0" encoding="UTF-8" standalone="no"?>
<!DOCTYPE svg PUBLIC "-//W3C//DTD SVG 1.1//EN"
 "http://www.w3.org/Graphics/SVG/1.1/DTD/svg11.dtd">
<!-- Generated by graphviz version 7.0.0 (20221023.0053)
 -->
<!-- Title: rcvsdk/ios/RcvReplayKitExtension/RcvRPScreenShareService.h Pages: 1 -->
<svg width="310pt" height="82pt"
 viewBox="0.00 0.00 310.00 82.00" xmlns="http://www.w3.org/2000/svg" xmlns:xlink="http://www.w3.org/1999/xlink">
<g id="graph0" class="graph" transform="scale(1 1) rotate(0) translate(4 78)">
<title>rcvsdk/ios/RcvReplayKitExtension/RcvRPScreenShareService.h</title>
<!-- Node1 -->
<g id="node1" class="node">
<title>Node1</title>
<g id="a_node1"><a xlink:title=" ">
<polygon fill="#999999" stroke="#666666" points="302,-74 0,-74 0,-55 302,-55 302,-74"/>
<text text-anchor="middle" x="151" y="-62" font-family="Helvetica,sans-Serif" font-size="10.00">rcvsdk/ios/RcvReplayKitExtension/RcvRPScreenShareService.h</text>
</a>
</g>
</g>
<!-- Node2 -->
<g id="node2" class="node">
<title>Node2</title>
<g id="a_node2"><a xlink:title=" ">
<polygon fill="#e0e0e0" stroke="#999999" points="145,-19 21,-19 21,0 145,0 145,-19"/>
<text text-anchor="middle" x="83" y="-7" font-family="Helvetica,sans-Serif" font-size="10.00">Foundation/Foundation.h</text>
</a>
</g>
</g>
<!-- Node1&#45;&gt;Node2 -->
<g id="edge1" class="edge">
<title>Node1&#45;&gt;Node2</title>
<path fill="none" stroke="#63b8ff" d="M139.46,-54.51C129.54,-46.77 114.99,-35.43 103.14,-26.2"/>
<polygon fill="#63b8ff" stroke="#63b8ff" points="105.6,-23.68 95.56,-20.29 101.29,-29.2 105.6,-23.68"/>
</g>
<!-- Node3 -->
<g id="node3" class="node">
<title>Node3</title>
<g id="a_node3"><a xlink:title=" ">
<polygon fill="#e0e0e0" stroke="#999999" points="276.5,-19 163.5,-19 163.5,0 276.5,0 276.5,-19"/>
<text text-anchor="middle" x="220" y="-7" font-family="Helvetica,sans-Serif" font-size="10.00">ReplayKit/ReplayKit.h</text>
</a>
</g>
</g>
<!-- Node1&#45;&gt;Node3 -->
<g id="edge2" class="edge">
<title>Node1&#45;&gt;Node3</title>
<path fill="none" stroke="#63b8ff" d="M162.7,-54.51C172.78,-46.77 187.54,-35.43 199.56,-26.2"/>
<polygon fill="#63b8ff" stroke="#63b8ff" points="201.47,-29.15 207.27,-20.28 197.21,-23.6 201.47,-29.15"/>
</g>
</g>
</svg>
