<?xml version="1.0" encoding="UTF-8" standalone="no"?>
<!DOCTYPE svg PUBLIC "-//W3C//DTD SVG 1.1//EN"
 "http://www.w3.org/Graphics/SVG/1.1/DTD/svg11.dtd">
<!-- Generated by graphviz version 6.0.1 (20220911.1526)
 -->
<!-- Title: rcvsdk/ios/rcvsdk/RcvBaseVideoView.h Pages: 1 -->
<svg width="257pt" height="137pt"
 viewBox="0.00 0.00 256.50 137.00" xmlns="http://www.w3.org/2000/svg" xmlns:xlink="http://www.w3.org/1999/xlink">
<g id="graph0" class="graph" transform="scale(1 1) rotate(0) translate(4 133)">
<title>rcvsdk/ios/rcvsdk/RcvBaseVideoView.h</title>
<!-- Node1 -->
<g id="node1" class="node">
<title>Node1</title>
<g id="a_node1"><a xlink:title=" ">
<polygon fill="#999999" stroke="#666666" points="191,-129 0,-129 0,-110 191,-110 191,-129"/>
<text text-anchor="middle" x="95.5" y="-117" font-family="Helvetica,sans-Serif" font-size="10.00">rcvsdk/ios/rcvsdk/RcvBaseVideoView.h</text>
</a>
</g>
</g>
<!-- Node2 -->
<g id="node2" class="node">
<title>Node2</title>
<g id="a_node2"><a xlink:title=" ">
<polygon fill="#e0e0e0" stroke="#999999" points="176.5,-19 52.5,-19 52.5,0 176.5,0 176.5,-19"/>
<text text-anchor="middle" x="114.5" y="-7" font-family="Helvetica,sans-Serif" font-size="10.00">Foundation/Foundation.h</text>
</a>
</g>
</g>
<!-- Node1&#45;&gt;Node2 -->
<g id="edge1" class="edge">
<title>Node1&#45;&gt;Node2</title>
<path fill="none" stroke="#63b8ff" d="M81.56,-109.98C64.26,-98.26 38.33,-76.19 49.5,-55 56.74,-41.27 70.33,-30.97 83.22,-23.76"/>
<polygon fill="#63b8ff" stroke="#63b8ff" points="85.09,-26.73 92.38,-19.05 81.89,-20.51 85.09,-26.73"/>
</g>
<!-- Node3 -->
<g id="node3" class="node">
<title>Node3</title>
<g id="a_node3"><a xlink:title=" ">
<polygon fill="#e0e0e0" stroke="#999999" points="132,-74 59,-74 59,-55 132,-55 132,-74"/>
<text text-anchor="middle" x="95.5" y="-62" font-family="Helvetica,sans-Serif" font-size="10.00">UIKit/UIKit.h</text>
</a>
</g>
</g>
<!-- Node1&#45;&gt;Node3 -->
<g id="edge2" class="edge">
<title>Node1&#45;&gt;Node3</title>
<path fill="none" stroke="#63b8ff" d="M95.5,-109.75C95.5,-102.8 95.5,-92.85 95.5,-84.13"/>
<polygon fill="#63b8ff" stroke="#63b8ff" points="99,-84.09 95.5,-74.09 92,-84.09 99,-84.09"/>
</g>
<!-- Node4 -->
<g id="node4" class="node">
<title>Node4</title>
<g id="a_node4"><a xlink:href="_rcv_render_mode_8h.html" target="_top" xlink:title=" ">
<polygon fill="white" stroke="#666666" points="248.5,-74 150.5,-74 150.5,-55 248.5,-55 248.5,-74"/>
<text text-anchor="middle" x="199.5" y="-62" font-family="Helvetica,sans-Serif" font-size="10.00">RcvRenderMode.h</text>
</a>
</g>
</g>
<!-- Node1&#45;&gt;Node4 -->
<g id="edge3" class="edge">
<title>Node1&#45;&gt;Node4</title>
<path fill="none" stroke="#63b8ff" d="M112.21,-109.98C128.71,-101.57 154.2,-88.59 173.38,-78.81"/>
<polygon fill="#63b8ff" stroke="#63b8ff" points="175.17,-81.83 182.49,-74.17 171.99,-75.59 175.17,-81.83"/>
</g>
<!-- Node4&#45;&gt;Node2 -->
<g id="edge4" class="edge">
<title>Node4&#45;&gt;Node2</title>
<path fill="none" stroke="#63b8ff" d="M185.84,-54.98C172.66,-46.77 152.47,-34.18 136.93,-24.49"/>
<polygon fill="#63b8ff" stroke="#63b8ff" points="138.74,-21.49 128.41,-19.17 135.04,-27.43 138.74,-21.49"/>
</g>
</g>
</svg>
