<?xml version="1.0" encoding="UTF-8" standalone="no"?>
<!DOCTYPE svg PUBLIC "-//W3C//DTD SVG 1.1//EN"
 "http://www.w3.org/Graphics/SVG/1.1/DTD/svg11.dtd">
<!-- Generated by graphviz version 7.0.0 (20221023.0053)
 -->
<!-- Title: rcvsdk/ios/RcvReplayKitExtension/RcvReplayKitExtension.h Pages: 1 -->
<svg width="292pt" height="137pt"
 viewBox="0.00 0.00 292.00 137.00" xmlns="http://www.w3.org/2000/svg" xmlns:xlink="http://www.w3.org/1999/xlink">
<g id="graph0" class="graph" transform="scale(1 1) rotate(0) translate(4 133)">
<title>rcvsdk/ios/RcvReplayKitExtension/RcvReplayKitExtension.h</title>
<!-- Node1 -->
<g id="node1" class="node">
<title>Node1</title>
<g id="a_node1"><a xlink:title=" ">
<polygon fill="#999999" stroke="#666666" points="284,-129 0,-129 0,-110 284,-110 284,-129"/>
<text text-anchor="middle" x="142" y="-117" font-family="Helvetica,sans-Serif" font-size="10.00">rcvsdk/ios/RcvReplayKitExtension/RcvReplayKitExtension.h</text>
</a>
</g>
</g>
<!-- Node2 -->
<g id="node2" class="node">
<title>Node2</title>
<g id="a_node2"><a xlink:href="_rcv_r_p_screen_share_service_8h.html" target="_top" xlink:title=" ">
<polygon fill="white" stroke="#666666" points="215,-74 69,-74 69,-55 215,-55 215,-74"/>
<text text-anchor="middle" x="142" y="-62" font-family="Helvetica,sans-Serif" font-size="10.00">RcvRPScreenShareService.h</text>
</a>
</g>
</g>
<!-- Node1&#45;&gt;Node2 -->
<g id="edge1" class="edge">
<title>Node1&#45;&gt;Node2</title>
<path fill="none" stroke="#63b8ff" d="M142,-109.75C142,-103.27 142,-94.16 142,-85.9"/>
<polygon fill="#63b8ff" stroke="#63b8ff" points="145.5,-85.96 142,-75.96 138.5,-85.96 145.5,-85.96"/>
</g>
<!-- Node3 -->
<g id="node3" class="node">
<title>Node3</title>
<g id="a_node3"><a xlink:title=" ">
<polygon fill="#e0e0e0" stroke="#999999" points="136,-19 12,-19 12,0 136,0 136,-19"/>
<text text-anchor="middle" x="74" y="-7" font-family="Helvetica,sans-Serif" font-size="10.00">Foundation/Foundation.h</text>
</a>
</g>
</g>
<!-- Node2&#45;&gt;Node3 -->
<g id="edge2" class="edge">
<title>Node2&#45;&gt;Node3</title>
<path fill="none" stroke="#63b8ff" d="M130.46,-54.51C120.54,-46.77 105.99,-35.43 94.14,-26.2"/>
<polygon fill="#63b8ff" stroke="#63b8ff" points="96.6,-23.68 86.56,-20.29 92.29,-29.2 96.6,-23.68"/>
</g>
<!-- Node4 -->
<g id="node4" class="node">
<title>Node4</title>
<g id="a_node4"><a xlink:title=" ">
<polygon fill="#e0e0e0" stroke="#999999" points="267.5,-19 154.5,-19 154.5,0 267.5,0 267.5,-19"/>
<text text-anchor="middle" x="211" y="-7" font-family="Helvetica,sans-Serif" font-size="10.00">ReplayKit/ReplayKit.h</text>
</a>
</g>
</g>
<!-- Node2&#45;&gt;Node4 -->
<g id="edge3" class="edge">
<title>Node2&#45;&gt;Node4</title>
<path fill="none" stroke="#63b8ff" d="M153.7,-54.51C163.78,-46.77 178.54,-35.43 190.56,-26.2"/>
<polygon fill="#63b8ff" stroke="#63b8ff" points="192.47,-29.15 198.27,-20.28 188.21,-23.6 192.47,-29.15"/>
</g>
</g>
</svg>
