<?xml version="1.0" encoding="UTF-8" standalone="no"?>
<!DOCTYPE svg PUBLIC "-//W3C//DTD SVG 1.1//EN"
 "http://www.w3.org/Graphics/SVG/1.1/DTD/svg11.dtd">
<!-- Generated by graphviz version 6.0.1 (20220911.1526)
 -->
<!-- Title: rcvsdk/ios/rcvsdk/RcvVideoCanvas.h Pages: 1 -->
<svg width="358pt" height="137pt"
 viewBox="0.00 0.00 358.00 137.00" xmlns="http://www.w3.org/2000/svg" xmlns:xlink="http://www.w3.org/1999/xlink">
<g id="graph0" class="graph" transform="scale(1 1) rotate(0) translate(4 133)">
<title>rcvsdk/ios/rcvsdk/RcvVideoCanvas.h</title>
<!-- Node1 -->
<g id="node1" class="node">
<title>Node1</title>
<g id="a_node1"><a xlink:title=" ">
<polygon fill="#999999" stroke="#666666" points="272.5,-129 90.5,-129 90.5,-110 272.5,-110 272.5,-129"/>
<text text-anchor="middle" x="181.5" y="-117" font-family="Helvetica,sans-Serif" font-size="10.00">rcvsdk/ios/rcvsdk/RcvVideoCanvas.h</text>
</a>
</g>
</g>
<!-- Node2 -->
<g id="node2" class="node">
<title>Node2</title>
<g id="a_node2"><a xlink:href="_r_c_video_canvas_8h.html" target="_top" xlink:title=" ">
<polygon fill="white" stroke="#666666" points="179,-74 0,-74 0,-55 179,-55 179,-74"/>
<text text-anchor="middle" x="89.5" y="-62" font-family="Helvetica,sans-Serif" font-size="10.00">rcvsdk/ios/rcvsdk/RCVideoCanvas.h</text>
</a>
</g>
</g>
<!-- Node1&#45;&gt;Node2 -->
<g id="edge1" class="edge">
<title>Node1&#45;&gt;Node2</title>
<path fill="none" stroke="#63b8ff" d="M158.01,-104.97C141.19,-95.28 119.05,-82.52 104.55,-74.17"/>
<polygon fill="#63b8ff" stroke="#63b8ff" points="156.31,-108.03 166.72,-109.98 159.8,-101.96 156.31,-108.03"/>
</g>
<!-- Node4 -->
<g id="node4" class="node">
<title>Node4</title>
<g id="a_node4"><a xlink:href="_rcv_engine_8h.html" target="_top" xlink:title=" ">
<polygon fill="white" stroke="#666666" points="350,-74 197,-74 197,-55 350,-55 350,-74"/>
<text text-anchor="middle" x="273.5" y="-62" font-family="Helvetica,sans-Serif" font-size="10.00">rcvsdk/ios/rcvsdk/RcvEngine.h</text>
</a>
</g>
</g>
<!-- Node1&#45;&gt;Node4 -->
<g id="edge3" class="edge">
<title>Node1&#45;&gt;Node4</title>
<path fill="none" stroke="#63b8ff" d="M204.99,-104.97C221.81,-95.28 243.95,-82.52 258.45,-74.17"/>
<polygon fill="#63b8ff" stroke="#63b8ff" points="203.2,-101.96 196.28,-109.98 206.69,-108.03 203.2,-101.96"/>
</g>
<!-- Node3 -->
<g id="node3" class="node">
<title>Node3</title>
<g id="a_node3"><a xlink:href="_rcv_s_d_k_8h.html" target="_top" xlink:title=" ">
<polygon fill="white" stroke="#666666" points="253.5,-19 109.5,-19 109.5,0 253.5,0 253.5,-19"/>
<text text-anchor="middle" x="181.5" y="-7" font-family="Helvetica,sans-Serif" font-size="10.00">rcvsdk/ios/rcvsdk/RcvSDK.h</text>
</a>
</g>
</g>
<!-- Node2&#45;&gt;Node3 -->
<g id="edge2" class="edge">
<title>Node2&#45;&gt;Node3</title>
<path fill="none" stroke="#63b8ff" d="M112.99,-49.97C129.81,-40.28 151.95,-27.52 166.45,-19.17"/>
<polygon fill="#63b8ff" stroke="#63b8ff" points="111.2,-46.96 104.28,-54.98 114.69,-53.03 111.2,-46.96"/>
</g>
<!-- Node4&#45;&gt;Node3 -->
<g id="edge4" class="edge">
<title>Node4&#45;&gt;Node3</title>
<path fill="none" stroke="#63b8ff" d="M250.01,-49.97C233.19,-40.28 211.05,-27.52 196.55,-19.17"/>
<polygon fill="#63b8ff" stroke="#63b8ff" points="248.31,-53.03 258.72,-54.98 251.8,-46.96 248.31,-53.03"/>
</g>
</g>
</svg>
