<?xml version="1.0" encoding="UTF-8" standalone="no"?>
<!DOCTYPE svg PUBLIC "-//W3C//DTD SVG 1.1//EN"
 "http://www.w3.org/Graphics/SVG/1.1/DTD/svg11.dtd">
<!-- Generated by graphviz version 7.0.0 (20221023.0053)
 -->
<!-- Title: rcvsdk/ios/rcvsdk/RcvIParticipant.h Pages: 1 -->
<svg width="681pt" height="137pt"
 viewBox="0.00 0.00 680.50 137.00" xmlns="http://www.w3.org/2000/svg" xmlns:xlink="http://www.w3.org/1999/xlink">
<g id="graph0" class="graph" transform="scale(1 1) rotate(0) translate(4 133)">
<title>rcvsdk/ios/rcvsdk/RcvIParticipant.h</title>
<!-- Node1 -->
<g id="node1" class="node">
<title>Node1</title>
<g id="a_node1"><a xlink:title=" ">
<polygon fill="#999999" stroke="#666666" points="366.5,-129 193.5,-129 193.5,-110 366.5,-110 366.5,-129"/>
<text text-anchor="middle" x="280" y="-117" font-family="Helvetica,sans-Serif" font-size="10.00">rcvsdk/ios/rcvsdk/RcvIParticipant.h</text>
</a>
</g>
</g>
<!-- Node2 -->
<g id="node2" class="node">
<title>Node2</title>
<g id="a_node2"><a xlink:href="_rcv_e_echo_leak_type_8h.html" target="_top" xlink:title=" ">
<polygon fill="white" stroke="#666666" points="114,-74 0,-74 0,-55 114,-55 114,-74"/>
<text text-anchor="middle" x="57" y="-62" font-family="Helvetica,sans-Serif" font-size="10.00">RcvEEchoLeakType.h</text>
</a>
</g>
</g>
<!-- Node1&#45;&gt;Node2 -->
<g id="edge1" class="edge">
<title>Node1&#45;&gt;Node2</title>
<path fill="none" stroke="#63b8ff" d="M242.17,-109.51C204.57,-100.57 146.75,-86.83 105.73,-77.08"/>
<polygon fill="#63b8ff" stroke="#63b8ff" points="106.65,-73.7 96.11,-74.8 105.03,-80.51 106.65,-73.7"/>
</g>
<!-- Node3 -->
<g id="node3" class="node">
<title>Node3</title>
<g id="a_node3"><a xlink:title=" ">
<polygon fill="#e0e0e0" stroke="#999999" points="342,-19 218,-19 218,0 342,0 342,-19"/>
<text text-anchor="middle" x="280" y="-7" font-family="Helvetica,sans-Serif" font-size="10.00">Foundation/Foundation.h</text>
</a>
</g>
</g>
<!-- Node1&#45;&gt;Node3 -->
<g id="edge11" class="edge">
<title>Node1&#45;&gt;Node3</title>
<path fill="none" stroke="#63b8ff" d="M216.23,-109.54C195.11,-103.2 173.76,-92.4 161,-74 142.9,-47.91 177.37,-31.64 213.79,-22.11"/>
<polygon fill="#63b8ff" stroke="#63b8ff" points="214.23,-25.61 223.12,-19.84 212.57,-18.8 214.23,-25.61"/>
</g>
<!-- Node4 -->
<g id="node4" class="node">
<title>Node4</title>
<g id="a_node4"><a xlink:href="_rcv_e_nqi_status_8h.html" target="_top" xlink:title=" ">
<polygon fill="white" stroke="#666666" points="263.5,-74 170.5,-74 170.5,-55 263.5,-55 263.5,-74"/>
<text text-anchor="middle" x="217" y="-62" font-family="Helvetica,sans-Serif" font-size="10.00">RcvENqiStatus.h</text>
</a>
</g>
</g>
<!-- Node1&#45;&gt;Node4 -->
<g id="edge3" class="edge">
<title>Node1&#45;&gt;Node4</title>
<path fill="none" stroke="#63b8ff" d="M269.31,-109.51C260.3,-101.93 247.17,-90.88 236.32,-81.75"/>
<polygon fill="#63b8ff" stroke="#63b8ff" points="238.59,-79.09 228.69,-75.33 234.09,-84.45 238.59,-79.09"/>
</g>
<!-- Node5 -->
<g id="node5" class="node">
<title>Node5</title>
<g id="a_node5"><a xlink:href="_rcv_e_participant_status_8h.html" target="_top" xlink:title=" ">
<polygon fill="white" stroke="#666666" points="406.5,-74 281.5,-74 281.5,-55 406.5,-55 406.5,-74"/>
<text text-anchor="middle" x="344" y="-62" font-family="Helvetica,sans-Serif" font-size="10.00">RcvEParticipantStatus.h</text>
</a>
</g>
</g>
<!-- Node1&#45;&gt;Node5 -->
<g id="edge5" class="edge">
<title>Node1&#45;&gt;Node5</title>
<path fill="none" stroke="#63b8ff" d="M290.86,-109.51C300.11,-101.85 313.62,-90.66 324.71,-81.47"/>
<polygon fill="#63b8ff" stroke="#63b8ff" points="326.67,-84.4 332.14,-75.32 322.2,-79.01 326.67,-84.4"/>
</g>
<!-- Node6 -->
<g id="node6" class="node">
<title>Node6</title>
<g id="a_node6"><a xlink:href="_rcv_e_reaction_action_8h.html" target="_top" xlink:title=" ">
<polygon fill="white" stroke="#666666" points="541,-74 425,-74 425,-55 541,-55 541,-74"/>
<text text-anchor="middle" x="483" y="-62" font-family="Helvetica,sans-Serif" font-size="10.00">RcvEReactionAction.h</text>
</a>
</g>
</g>
<!-- Node1&#45;&gt;Node6 -->
<g id="edge7" class="edge">
<title>Node1&#45;&gt;Node6</title>
<path fill="none" stroke="#63b8ff" d="M314.44,-109.51C348.37,-100.65 400.4,-87.07 437.68,-77.33"/>
<polygon fill="#63b8ff" stroke="#63b8ff" points="438.48,-80.74 447.27,-74.83 436.71,-73.97 438.48,-80.74"/>
</g>
<!-- Node7 -->
<g id="node7" class="node">
<title>Node7</title>
<g id="a_node7"><a xlink:href="_rcv_e_stream_activity_8h.html" target="_top" xlink:title=" ">
<polygon fill="white" stroke="#666666" points="672.5,-74 559.5,-74 559.5,-55 672.5,-55 672.5,-74"/>
<text text-anchor="middle" x="616" y="-62" font-family="Helvetica,sans-Serif" font-size="10.00">RcvEStreamActivity.h</text>
</a>
</g>
</g>
<!-- Node1&#45;&gt;Node7 -->
<g id="edge9" class="edge">
<title>Node1&#45;&gt;Node7</title>
<path fill="none" stroke="#63b8ff" d="M337,-109.51C395.25,-100.32 485.74,-86.05 547.77,-76.26"/>
<polygon fill="#63b8ff" stroke="#63b8ff" points="548.18,-79.74 557.51,-74.73 547.09,-72.83 548.18,-79.74"/>
</g>
<!-- Node2&#45;&gt;Node3 -->
<g id="edge2" class="edge">
<title>Node2&#45;&gt;Node3</title>
<path fill="none" stroke="#63b8ff" d="M94.83,-54.51C132.43,-45.57 190.25,-31.83 231.27,-22.08"/>
<polygon fill="#63b8ff" stroke="#63b8ff" points="231.97,-25.51 240.89,-19.8 230.35,-18.7 231.97,-25.51"/>
</g>
<!-- Node4&#45;&gt;Node3 -->
<g id="edge4" class="edge">
<title>Node4&#45;&gt;Node3</title>
<path fill="none" stroke="#63b8ff" d="M227.69,-54.51C236.7,-46.93 249.83,-35.88 260.68,-26.75"/>
<polygon fill="#63b8ff" stroke="#63b8ff" points="262.91,-29.45 268.31,-20.33 258.41,-24.09 262.91,-29.45"/>
</g>
<!-- Node5&#45;&gt;Node3 -->
<g id="edge6" class="edge">
<title>Node5&#45;&gt;Node3</title>
<path fill="none" stroke="#63b8ff" d="M333.14,-54.51C323.89,-46.85 310.38,-35.66 299.29,-26.47"/>
<polygon fill="#63b8ff" stroke="#63b8ff" points="301.8,-24.01 291.86,-20.32 297.33,-29.4 301.8,-24.01"/>
</g>
<!-- Node6&#45;&gt;Node3 -->
<g id="edge8" class="edge">
<title>Node6&#45;&gt;Node3</title>
<path fill="none" stroke="#63b8ff" d="M448.56,-54.51C414.63,-45.65 362.6,-32.07 325.32,-22.33"/>
<polygon fill="#63b8ff" stroke="#63b8ff" points="326.29,-18.97 315.73,-19.83 324.52,-25.74 326.29,-18.97"/>
</g>
<!-- Node7&#45;&gt;Node3 -->
<g id="edge10" class="edge">
<title>Node7&#45;&gt;Node3</title>
<path fill="none" stroke="#63b8ff" d="M559,-54.51C500.75,-45.32 410.26,-31.05 348.23,-21.26"/>
<polygon fill="#63b8ff" stroke="#63b8ff" points="348.91,-17.83 338.49,-19.73 347.82,-24.74 348.91,-17.83"/>
</g>
</g>
</svg>
