<?xml version="1.0" encoding="UTF-8" standalone="no"?>
<!DOCTYPE svg PUBLIC "-//W3C//DTD SVG 1.1//EN"
 "http://www.w3.org/Graphics/SVG/1.1/DTD/svg11.dtd">
<!-- Generated by graphviz version 6.0.1 (20220911.1526)
 -->
<!-- Title: rcvsdk/ios/rcvsdk/RcvMeetingChatController.h Pages: 1 -->
<svg width="228pt" height="137pt"
 viewBox="0.00 0.00 228.00 137.00" xmlns="http://www.w3.org/2000/svg" xmlns:xlink="http://www.w3.org/1999/xlink">
<g id="graph0" class="graph" transform="scale(1 1) rotate(0) translate(4 133)">
<title>rcvsdk/ios/rcvsdk/RcvMeetingChatController.h</title>
<!-- Node1 -->
<g id="node1" class="node">
<title>Node1</title>
<g id="a_node1"><a xlink:title=" ">
<polygon fill="#999999" stroke="#666666" points="220,-129 0,-129 0,-110 220,-110 220,-129"/>
<text text-anchor="middle" x="110" y="-117" font-family="Helvetica,sans-Serif" font-size="10.00">rcvsdk/ios/rcvsdk/RcvMeetingChatController.h</text>
</a>
</g>
</g>
<!-- Node2 -->
<g id="node2" class="node">
<title>Node2</title>
<g id="a_node2"><a xlink:href="_rcv_chat_privilege_8h.html" target="_top" xlink:title=" ">
<polygon fill="white" stroke="#666666" points="121.5,-74 20.5,-74 20.5,-55 121.5,-55 121.5,-74"/>
<text text-anchor="middle" x="71" y="-62" font-family="Helvetica,sans-Serif" font-size="10.00">RcvChatPrivilege.h</text>
</a>
</g>
</g>
<!-- Node1&#45;&gt;Node2 -->
<g id="edge1" class="edge">
<title>Node1&#45;&gt;Node2</title>
<path fill="none" stroke="#63b8ff" d="M103.56,-109.75C98.11,-102.34 90.14,-91.5 83.44,-82.41"/>
<polygon fill="#63b8ff" stroke="#63b8ff" points="86.07,-80.07 77.32,-74.09 80.43,-84.22 86.07,-80.07"/>
</g>
<!-- Node3 -->
<g id="node3" class="node">
<title>Node3</title>
<g id="a_node3"><a xlink:title=" ">
<polygon fill="#e0e0e0" stroke="#999999" points="172,-19 48,-19 48,0 172,0 172,-19"/>
<text text-anchor="middle" x="110" y="-7" font-family="Helvetica,sans-Serif" font-size="10.00">Foundation/Foundation.h</text>
</a>
</g>
</g>
<!-- Node1&#45;&gt;Node3 -->
<g id="edge3" class="edge">
<title>Node1&#45;&gt;Node3</title>
<path fill="none" stroke="#63b8ff" d="M116.18,-109.61C123.87,-97.48 135.47,-74.94 131,-55 128.92,-45.74 124.7,-36.14 120.57,-28.23"/>
<polygon fill="#63b8ff" stroke="#63b8ff" points="123.51,-26.31 115.58,-19.28 117.4,-29.72 123.51,-26.31"/>
</g>
<!-- Node2&#45;&gt;Node3 -->
<g id="edge2" class="edge">
<title>Node2&#45;&gt;Node3</title>
<path fill="none" stroke="#63b8ff" d="M77.44,-54.75C82.89,-47.34 90.86,-36.5 97.56,-27.41"/>
<polygon fill="#63b8ff" stroke="#63b8ff" points="100.57,-29.22 103.68,-19.09 94.93,-25.07 100.57,-29.22"/>
</g>
</g>
</svg>
