<?xml version="1.0" encoding="UTF-8" standalone="no"?>
<!DOCTYPE svg PUBLIC "-//W3C//DTD SVG 1.1//EN"
 "http://www.w3.org/Graphics/SVG/1.1/DTD/svg11.dtd">
<!-- Generated by graphviz version 6.0.1 (20220911.1526)
 -->
<!-- Title: rcvsdk/ios/rcvsdk/RcvRenderMode.h Pages: 1 -->
<svg width="1050pt" height="192pt"
 viewBox="0.00 0.00 1049.82 192.00" xmlns="http://www.w3.org/2000/svg" xmlns:xlink="http://www.w3.org/1999/xlink">
<g id="graph0" class="graph" transform="scale(1 1) rotate(0) translate(4 188)">
<title>rcvsdk/ios/rcvsdk/RcvRenderMode.h</title>
<!-- Node1 -->
<g id="node1" class="node">
<title>Node1</title>
<g id="a_node1"><a xlink:title=" ">
<polygon fill="#999999" stroke="#666666" points="643.82,-184 464.82,-184 464.82,-165 643.82,-165 643.82,-184"/>
<text text-anchor="middle" x="554.32" y="-172" font-family="Helvetica,sans-Serif" font-size="10.00">rcvsdk/ios/rcvsdk/RcvRenderMode.h</text>
</a>
</g>
</g>
<!-- Node2 -->
<g id="node2" class="node">
<title>Node2</title>
<g id="a_node2"><a xlink:href="_rcv_base_video_view_8h.html" target="_top" xlink:title=" ">
<polygon fill="white" stroke="#666666" points="539.82,-129 348.82,-129 348.82,-110 539.82,-110 539.82,-129"/>
<text text-anchor="middle" x="444.32" y="-117" font-family="Helvetica,sans-Serif" font-size="10.00">rcvsdk/ios/rcvsdk/RcvBaseVideoView.h</text>
</a>
</g>
</g>
<!-- Node1&#45;&gt;Node2 -->
<g id="edge1" class="edge">
<title>Node1&#45;&gt;Node2</title>
<path fill="none" stroke="#63b8ff" d="M527.61,-160.63C507.35,-150.87 480.04,-137.71 462.31,-129.17"/>
<polygon fill="#63b8ff" stroke="#63b8ff" points="526.11,-163.8 536.64,-164.98 529.15,-157.49 526.11,-163.8"/>
</g>
<!-- Node8 -->
<g id="node8" class="node">
<title>Node8</title>
<g id="a_node8"><a xlink:href="_rcv_video_canvas_8h.html" target="_top" xlink:title=" ">
<polygon fill="white" stroke="#666666" points="872.32,-129 690.32,-129 690.32,-110 872.32,-110 872.32,-129"/>
<text text-anchor="middle" x="781.32" y="-117" font-family="Helvetica,sans-Serif" font-size="10.00">rcvsdk/ios/rcvsdk/RcvVideoCanvas.h</text>
</a>
</g>
</g>
<!-- Node1&#45;&gt;Node8 -->
<g id="edge11" class="edge">
<title>Node1&#45;&gt;Node8</title>
<path fill="none" stroke="#63b8ff" d="M600.61,-162.69C643.14,-152.76 705.35,-138.24 744.56,-129.08"/>
<polygon fill="#63b8ff" stroke="#63b8ff" points="599.73,-159.3 590.79,-164.98 601.32,-166.12 599.73,-159.3"/>
</g>
<!-- Node3 -->
<g id="node3" class="node">
<title>Node3</title>
<g id="a_node3"><a xlink:href="_r_c_video_canvas_8h.html" target="_top" xlink:title=" ">
<polygon fill="white" stroke="#666666" points="870.82,-74 691.82,-74 691.82,-55 870.82,-55 870.82,-74"/>
<text text-anchor="middle" x="781.32" y="-62" font-family="Helvetica,sans-Serif" font-size="10.00">rcvsdk/ios/rcvsdk/RCVideoCanvas.h</text>
</a>
</g>
</g>
<!-- Node2&#45;&gt;Node3 -->
<g id="edge2" class="edge">
<title>Node2&#45;&gt;Node3</title>
<path fill="none" stroke="#63b8ff" d="M508.72,-108.37C572,-98.42 667.48,-83.4 727.03,-74.04"/>
<polygon fill="#63b8ff" stroke="#63b8ff" points="507.79,-104.97 498.46,-109.98 508.88,-111.89 507.79,-104.97"/>
</g>
<!-- Node4 -->
<g id="node4" class="node">
<title>Node4</title>
<g id="a_node4"><a xlink:href="_rcv_s_d_k_8h.html" target="_top" xlink:title=" ">
<polygon fill="white" stroke="#666666" points="515.32,-19 371.32,-19 371.32,0 515.32,0 515.32,-19"/>
<text text-anchor="middle" x="443.32" y="-7" font-family="Helvetica,sans-Serif" font-size="10.00">rcvsdk/ios/rcvsdk/RcvSDK.h</text>
</a>
</g>
</g>
<!-- Node2&#45;&gt;Node4 -->
<g id="edge8" class="edge">
<title>Node2&#45;&gt;Node4</title>
<path fill="none" stroke="#63b8ff" d="M338.64,-115.05C216.17,-109.95 28.21,-98.24 6.32,-74 -43.67,-18.68 234.55,-10.77 371.12,-10.16"/>
<polygon fill="#63b8ff" stroke="#63b8ff" points="338.68,-118.56 348.81,-115.47 338.96,-111.56 338.68,-118.56"/>
</g>
<!-- Node5 -->
<g id="node5" class="node">
<title>Node5</title>
<g id="a_node5"><a xlink:href="_rcv_metal_video_view_8h.html" target="_top" xlink:title=" ">
<polygon fill="white" stroke="#666666" points="207.32,-74 15.32,-74 15.32,-55 207.32,-55 207.32,-74"/>
<text text-anchor="middle" x="111.32" y="-62" font-family="Helvetica,sans-Serif" font-size="10.00">rcvsdk/ios/rcvsdk/RcvMetalVideoView.h</text>
</a>
</g>
</g>
<!-- Node2&#45;&gt;Node5 -->
<g id="edge4" class="edge">
<title>Node2&#45;&gt;Node5</title>
<path fill="none" stroke="#63b8ff" d="M380.68,-108.37C318.15,-98.42 223.8,-83.4 164.96,-74.04"/>
<polygon fill="#63b8ff" stroke="#63b8ff" points="380.39,-111.87 390.81,-109.98 381.49,-104.96 380.39,-111.87"/>
</g>
<!-- Node6 -->
<g id="node6" class="node">
<title>Node6</title>
<g id="a_node6"><a xlink:href="_rcv_open_g_l_video_view_8h.html" target="_top" xlink:title=" ">
<polygon fill="white" stroke="#666666" points="428.82,-74 225.82,-74 225.82,-55 428.82,-55 428.82,-74"/>
<text text-anchor="middle" x="327.32" y="-62" font-family="Helvetica,sans-Serif" font-size="10.00">rcvsdk/ios/rcvsdk/RcvOpenGLVideoView.h</text>
</a>
</g>
</g>
<!-- Node2&#45;&gt;Node6 -->
<g id="edge6" class="edge">
<title>Node2&#45;&gt;Node6</title>
<path fill="none" stroke="#63b8ff" d="M416.2,-105.77C394.62,-95.99 365.4,-82.75 346.46,-74.17"/>
<polygon fill="#63b8ff" stroke="#63b8ff" points="414.96,-109.05 425.52,-109.98 417.85,-102.67 414.96,-109.05"/>
</g>
<!-- Node7 -->
<g id="node7" class="node">
<title>Node7</title>
<g id="a_node7"><a xlink:href="_rcv_sample_buffer_video_view_8h.html" target="_top" xlink:title=" ">
<polygon fill="white" stroke="#666666" points="673.82,-74 446.82,-74 446.82,-55 673.82,-55 673.82,-74"/>
<text text-anchor="middle" x="560.32" y="-62" font-family="Helvetica,sans-Serif" font-size="10.00">rcvsdk/ios/rcvsdk/RcvSampleBufferVideoView.h</text>
</a>
</g>
</g>
<!-- Node2&#45;&gt;Node7 -->
<g id="edge9" class="edge">
<title>Node2&#45;&gt;Node7</title>
<path fill="none" stroke="#63b8ff" d="M472.19,-105.77C493.58,-95.99 522.55,-82.75 541.34,-74.17"/>
<polygon fill="#63b8ff" stroke="#63b8ff" points="470.59,-102.65 462.95,-109.98 473.5,-109.01 470.59,-102.65"/>
</g>
<!-- Node3&#45;&gt;Node4 -->
<g id="edge3" class="edge">
<title>Node3&#45;&gt;Node4</title>
<path fill="none" stroke="#63b8ff" d="M717.11,-53.43C653.65,-43.48 557.61,-28.42 497.77,-19.04"/>
<polygon fill="#63b8ff" stroke="#63b8ff" points="716.59,-56.89 727.01,-54.98 717.67,-49.98 716.59,-56.89"/>
</g>
<!-- Node5&#45;&gt;Node4 -->
<g id="edge5" class="edge">
<title>Node5&#45;&gt;Node4</title>
<path fill="none" stroke="#63b8ff" d="M174.76,-53.37C237.1,-43.42 331.17,-28.4 389.83,-19.04"/>
<polygon fill="#63b8ff" stroke="#63b8ff" points="173.98,-49.95 164.66,-54.98 175.08,-56.86 173.98,-49.95"/>
</g>
<!-- Node6&#45;&gt;Node4 -->
<g id="edge7" class="edge">
<title>Node6&#45;&gt;Node4</title>
<path fill="none" stroke="#63b8ff" d="M355.19,-50.77C376.58,-40.99 405.55,-27.75 424.34,-19.17"/>
<polygon fill="#63b8ff" stroke="#63b8ff" points="353.59,-47.65 345.95,-54.98 356.5,-54.01 353.59,-47.65"/>
</g>
<!-- Node7&#45;&gt;Node4 -->
<g id="edge10" class="edge">
<title>Node7&#45;&gt;Node4</title>
<path fill="none" stroke="#63b8ff" d="M532.2,-50.77C510.62,-40.99 481.4,-27.75 462.46,-19.17"/>
<polygon fill="#63b8ff" stroke="#63b8ff" points="530.96,-54.05 541.52,-54.98 533.85,-47.67 530.96,-54.05"/>
</g>
<!-- Node8&#45;&gt;Node3 -->
<g id="edge12" class="edge">
<title>Node8&#45;&gt;Node3</title>
<path fill="none" stroke="#63b8ff" d="M781.32,-99.66C781.32,-90.93 781.32,-80.99 781.32,-74.09"/>
<polygon fill="#63b8ff" stroke="#63b8ff" points="777.82,-99.75 781.32,-109.75 784.82,-99.75 777.82,-99.75"/>
</g>
<!-- Node9 -->
<g id="node9" class="node">
<title>Node9</title>
<g id="a_node9"><a xlink:href="_rcv_engine_8h.html" target="_top" xlink:title=" ">
<polygon fill="white" stroke="#666666" points="1041.82,-74 888.82,-74 888.82,-55 1041.82,-55 1041.82,-74"/>
<text text-anchor="middle" x="965.32" y="-62" font-family="Helvetica,sans-Serif" font-size="10.00">rcvsdk/ios/rcvsdk/RcvEngine.h</text>
</a>
</g>
</g>
<!-- Node8&#45;&gt;Node9 -->
<g id="edge13" class="edge">
<title>Node8&#45;&gt;Node9</title>
<path fill="none" stroke="#63b8ff" d="M820.6,-107.18C855.01,-97.27 904.27,-83.08 935.52,-74.08"/>
<polygon fill="#63b8ff" stroke="#63b8ff" points="819.52,-103.85 810.88,-109.98 821.46,-110.58 819.52,-103.85"/>
</g>
<!-- Node9&#45;&gt;Node4 -->
<g id="edge14" class="edge">
<title>Node9&#45;&gt;Node4</title>
<path fill="none" stroke="#63b8ff" d="M878.34,-54.67C776.75,-44.35 610.55,-27.48 515.69,-17.85"/>
<polygon fill="#63b8ff" stroke="#63b8ff" points="878.27,-58.18 888.57,-55.71 878.98,-51.22 878.27,-58.18"/>
</g>
</g>
</svg>
