<?xml version="1.0" encoding="UTF-8" standalone="no"?>
<!DOCTYPE svg PUBLIC "-//W3C//DTD SVG 1.1//EN"
 "http://www.w3.org/Graphics/SVG/1.1/DTD/svg11.dtd">
<!-- Generated by graphviz version 6.0.1 (20220911.1526)
 -->
<!-- Title: rcvsdk/ios/rcvsdk/RcvMeetingState.h Pages: 1 -->
<svg width="282pt" height="192pt"
 viewBox="0.00 0.00 282.00 192.00" xmlns="http://www.w3.org/2000/svg" xmlns:xlink="http://www.w3.org/1999/xlink">
<g id="graph0" class="graph" transform="scale(1 1) rotate(0) translate(4 188)">
<title>rcvsdk/ios/rcvsdk/RcvMeetingState.h</title>
<!-- Node1 -->
<g id="node1" class="node">
<title>Node1</title>
<g id="a_node1"><a xlink:title=" ">
<polygon fill="#999999" stroke="#666666" points="263.5,-184 82.5,-184 82.5,-165 263.5,-165 263.5,-184"/>
<text text-anchor="middle" x="173" y="-172" font-family="Helvetica,sans-Serif" font-size="10.00">rcvsdk/ios/rcvsdk/RcvMeetingState.h</text>
</a>
</g>
</g>
<!-- Node2 -->
<g id="node2" class="node">
<title>Node2</title>
<g id="a_node2"><a xlink:href="_rcv_engine_event_handler_8h.html" target="_top" xlink:title=" ">
<polygon fill="white" stroke="#666666" points="212,-129 0,-129 0,-110 212,-110 212,-129"/>
<text text-anchor="middle" x="106" y="-117" font-family="Helvetica,sans-Serif" font-size="10.00">rcvsdk/ios/rcvsdk/RcvEngineEventHandler.h</text>
</a>
</g>
</g>
<!-- Node1&#45;&gt;Node2 -->
<g id="edge1" class="edge">
<title>Node1&#45;&gt;Node2</title>
<path fill="none" stroke="#63b8ff" d="M154.17,-158.6C142.16,-149.11 127.03,-137.13 116.96,-129.17"/>
<polygon fill="#63b8ff" stroke="#63b8ff" points="152.22,-161.53 162.24,-164.98 156.56,-156.04 152.22,-161.53"/>
</g>
<!-- Node4 -->
<g id="node4" class="node">
<title>Node4</title>
<g id="a_node4"><a xlink:href="_rcv_s_d_k_8h.html" target="_top" xlink:title=" ">
<polygon fill="white" stroke="#666666" points="274,-19 130,-19 130,0 274,0 274,-19"/>
<text text-anchor="middle" x="202" y="-7" font-family="Helvetica,sans-Serif" font-size="10.00">rcvsdk/ios/rcvsdk/RcvSDK.h</text>
</a>
</g>
</g>
<!-- Node1&#45;&gt;Node4 -->
<g id="edge5" class="edge">
<title>Node1&#45;&gt;Node4</title>
<path fill="none" stroke="#63b8ff" d="M195.63,-158.97C205.37,-151.35 215.73,-141.08 221,-129 237.76,-90.62 216.49,-39.46 206.57,-19.24"/>
<polygon fill="#63b8ff" stroke="#63b8ff" points="193.41,-156.26 187.37,-164.96 197.52,-161.93 193.41,-156.26"/>
</g>
<!-- Node3 -->
<g id="node3" class="node">
<title>Node3</title>
<g id="a_node3"><a xlink:href="_rcv_engine_8h.html" target="_top" xlink:title=" ">
<polygon fill="white" stroke="#666666" points="173.5,-74 20.5,-74 20.5,-55 173.5,-55 173.5,-74"/>
<text text-anchor="middle" x="97" y="-62" font-family="Helvetica,sans-Serif" font-size="10.00">rcvsdk/ios/rcvsdk/RcvEngine.h</text>
</a>
</g>
</g>
<!-- Node2&#45;&gt;Node3 -->
<g id="edge2" class="edge">
<title>Node2&#45;&gt;Node3</title>
<path fill="none" stroke="#63b8ff" d="M102.8,-99.66C101.32,-90.93 99.63,-80.99 98.46,-74.09"/>
<polygon fill="#63b8ff" stroke="#63b8ff" points="99.39,-100.48 104.51,-109.75 106.29,-99.3 99.39,-100.48"/>
</g>
<!-- Node2&#45;&gt;Node4 -->
<g id="edge4" class="edge">
<title>Node2&#45;&gt;Node4</title>
<path fill="none" stroke="#63b8ff" d="M139.22,-105.66C154.16,-98.39 170.9,-87.93 182,-74 195.11,-57.55 199.69,-32.4 201.24,-19.23"/>
<polygon fill="#63b8ff" stroke="#63b8ff" points="137.39,-102.65 129.74,-109.99 140.29,-109.02 137.39,-102.65"/>
</g>
<!-- Node3&#45;&gt;Node4 -->
<g id="edge3" class="edge">
<title>Node3&#45;&gt;Node4</title>
<path fill="none" stroke="#63b8ff" d="M123.02,-50.37C142.3,-40.63 168.05,-27.64 184.82,-19.17"/>
<polygon fill="#63b8ff" stroke="#63b8ff" points="121.22,-47.35 113.87,-54.98 124.37,-53.6 121.22,-47.35"/>
</g>
</g>
</svg>
