<?xml version="1.0" encoding="UTF-8" standalone="no"?>
<!DOCTYPE svg PUBLIC "-//W3C//DTD SVG 1.1//EN"
 "http://www.w3.org/Graphics/SVG/1.1/DTD/svg11.dtd">
<!-- Generated by graphviz version 7.0.0 (20221023.0053)
 -->
<!-- Title: rcvsdk/ios/rcvsdk/RcvEndToEndEncryptionState.h Pages: 1 -->
<svg width="480pt" height="137pt"
 viewBox="0.00 0.00 479.50 137.00" xmlns="http://www.w3.org/2000/svg" xmlns:xlink="http://www.w3.org/1999/xlink">
<g id="graph0" class="graph" transform="scale(1 1) rotate(0) translate(4 133)">
<title>rcvsdk/ios/rcvsdk/RcvEndToEndEncryptionState.h</title>
<!-- Node1 -->
<g id="node1" class="node">
<title>Node1</title>
<g id="a_node1"><a xlink:title=" ">
<polygon fill="#999999" stroke="#666666" points="346.5,-129 108.5,-129 108.5,-110 346.5,-110 346.5,-129"/>
<text text-anchor="middle" x="227.5" y="-117" font-family="Helvetica,sans-Serif" font-size="10.00">rcvsdk/ios/rcvsdk/RcvEndToEndEncryptionState.h</text>
</a>
</g>
</g>
<!-- Node2 -->
<g id="node2" class="node">
<title>Node2</title>
<g id="a_node2"><a xlink:href="_rcv_meeting_controller_8h.html" target="_top" xlink:title=" ">
<polygon fill="white" stroke="#666666" points="199,-74 0,-74 0,-55 199,-55 199,-74"/>
<text text-anchor="middle" x="99.5" y="-62" font-family="Helvetica,sans-Serif" font-size="10.00">rcvsdk/ios/rcvsdk/RcvMeetingController.h</text>
</a>
</g>
</g>
<!-- Node1&#45;&gt;Node2 -->
<g id="edge1" class="edge">
<title>Node1&#45;&gt;Node2</title>
<path fill="none" stroke="#63b8ff" d="M195.36,-105.19C172.07,-95.55 141.23,-82.78 120.89,-74.36"/>
<polygon fill="#63b8ff" stroke="#63b8ff" points="193.81,-108.34 204.39,-108.93 196.49,-101.87 193.81,-108.34"/>
</g>
<!-- Node3 -->
<g id="node3" class="node">
<title>Node3</title>
<g id="a_node3"><a xlink:href="_rcv_s_d_k_8h.html" target="_top" xlink:title=" ">
<polygon fill="white" stroke="#666666" points="299.5,-19 155.5,-19 155.5,0 299.5,0 299.5,-19"/>
<text text-anchor="middle" x="227.5" y="-7" font-family="Helvetica,sans-Serif" font-size="10.00">rcvsdk/ios/rcvsdk/RcvSDK.h</text>
</a>
</g>
</g>
<!-- Node1&#45;&gt;Node3 -->
<g id="edge5" class="edge">
<title>Node1&#45;&gt;Node3</title>
<path fill="none" stroke="#63b8ff" d="M227.5,-98.24C227.5,-74.63 227.5,-36.65 227.5,-19.46"/>
<polygon fill="#63b8ff" stroke="#63b8ff" points="224,-98.15 227.5,-108.15 231,-98.15 224,-98.15"/>
</g>
<!-- Node4 -->
<g id="node4" class="node">
<title>Node4</title>
<g id="a_node4"><a xlink:href="_rcv_meeting_event_handler_8h.html" target="_top" xlink:title=" ">
<polygon fill="white" stroke="#666666" points="471.5,-74 255.5,-74 255.5,-55 471.5,-55 471.5,-74"/>
<text text-anchor="middle" x="363.5" y="-62" font-family="Helvetica,sans-Serif" font-size="10.00">rcvsdk/ios/rcvsdk/RcvMeetingEventHandler.h</text>
</a>
</g>
</g>
<!-- Node1&#45;&gt;Node4 -->
<g id="edge3" class="edge">
<title>Node1&#45;&gt;Node4</title>
<path fill="none" stroke="#63b8ff" d="M260.98,-105.45C285.8,-95.78 318.97,-82.85 340.77,-74.36"/>
<polygon fill="#63b8ff" stroke="#63b8ff" points="260.03,-102.07 251.98,-108.96 262.57,-108.59 260.03,-102.07"/>
</g>
<!-- Node2&#45;&gt;Node3 -->
<g id="edge2" class="edge">
<title>Node2&#45;&gt;Node3</title>
<path fill="none" stroke="#63b8ff" d="M131.64,-50.19C154.93,-40.55 185.77,-27.78 206.11,-19.36"/>
<polygon fill="#63b8ff" stroke="#63b8ff" points="130.51,-46.87 122.61,-53.93 133.19,-53.34 130.51,-46.87"/>
</g>
<!-- Node4&#45;&gt;Node3 -->
<g id="edge4" class="edge">
<title>Node4&#45;&gt;Node3</title>
<path fill="none" stroke="#63b8ff" d="M330.02,-50.45C305.2,-40.78 272.03,-27.85 250.23,-19.36"/>
<polygon fill="#63b8ff" stroke="#63b8ff" points="328.43,-53.59 339.02,-53.96 330.97,-47.07 328.43,-53.59"/>
</g>
</g>
</svg>
