<?xml version="1.0" encoding="UTF-8" standalone="no"?>
<!DOCTYPE svg PUBLIC "-//W3C//DTD SVG 1.1//EN"
 "http://www.w3.org/Graphics/SVG/1.1/DTD/svg11.dtd">
<!-- Generated by graphviz version 7.0.0 (20221023.0053)
 -->
<!-- Title: rcvsdk/ios/rcvsdk/RcvRenderMode.h Pages: 1 -->
<svg width="1050pt" height="192pt"
 viewBox="0.00 0.00 1049.81 192.00" xmlns="http://www.w3.org/2000/svg" xmlns:xlink="http://www.w3.org/1999/xlink">
<g id="graph0" class="graph" transform="scale(1 1) rotate(0) translate(4 188)">
<title>rcvsdk/ios/rcvsdk/RcvRenderMode.h</title>
<!-- Node1 -->
<g id="node1" class="node">
<title>Node1</title>
<g id="a_node1"><a xlink:title=" ">
<polygon fill="#999999" stroke="#666666" points="643.81,-184 464.81,-184 464.81,-165 643.81,-165 643.81,-184"/>
<text text-anchor="middle" x="554.31" y="-172" font-family="Helvetica,sans-Serif" font-size="10.00">rcvsdk/ios/rcvsdk/RcvRenderMode.h</text>
</a>
</g>
</g>
<!-- Node2 -->
<g id="node2" class="node">
<title>Node2</title>
<g id="a_node2"><a xlink:href="_rcv_base_video_view_8h.html" target="_top" xlink:title=" ">
<polygon fill="white" stroke="#666666" points="539.81,-129 348.81,-129 348.81,-110 539.81,-110 539.81,-129"/>
<text text-anchor="middle" x="444.31" y="-117" font-family="Helvetica,sans-Serif" font-size="10.00">rcvsdk/ios/rcvsdk/RcvBaseVideoView.h</text>
</a>
</g>
</g>
<!-- Node1&#45;&gt;Node2 -->
<g id="edge1" class="edge">
<title>Node1&#45;&gt;Node2</title>
<path fill="none" stroke="#63b8ff" d="M525.33,-159.53C505.49,-149.97 479.78,-137.59 462.7,-129.36"/>
<polygon fill="#63b8ff" stroke="#63b8ff" points="523.76,-162.66 534.29,-163.85 526.8,-156.36 523.76,-162.66"/>
</g>
<!-- Node8 -->
<g id="node8" class="node">
<title>Node8</title>
<g id="a_node8"><a xlink:href="_rcv_video_canvas_8h.html" target="_top" xlink:title=" ">
<polygon fill="white" stroke="#666666" points="872.31,-129 690.31,-129 690.31,-110 872.31,-110 872.31,-129"/>
<text text-anchor="middle" x="781.31" y="-117" font-family="Helvetica,sans-Serif" font-size="10.00">rcvsdk/ios/rcvsdk/RcvVideoCanvas.h</text>
</a>
</g>
</g>
<!-- Node1&#45;&gt;Node8 -->
<g id="edge11" class="edge">
<title>Node1&#45;&gt;Node8</title>
<path fill="none" stroke="#63b8ff" d="M603.86,-161.93C645.69,-152.17 704.71,-138.38 743,-129.45"/>
<polygon fill="#63b8ff" stroke="#63b8ff" points="603.24,-158.48 594.3,-164.17 604.83,-165.3 603.24,-158.48"/>
</g>
<!-- Node3 -->
<g id="node3" class="node">
<title>Node3</title>
<g id="a_node3"><a xlink:href="_r_c_video_canvas_8h.html" target="_top" xlink:title=" ">
<polygon fill="white" stroke="#666666" points="870.81,-74 691.81,-74 691.81,-55 870.81,-55 870.81,-74"/>
<text text-anchor="middle" x="781.31" y="-62" font-family="Helvetica,sans-Serif" font-size="10.00">rcvsdk/ios/rcvsdk/RCVideoCanvas.h</text>
</a>
</g>
</g>
<!-- Node2&#45;&gt;Node3 -->
<g id="edge2" class="edge">
<title>Node2&#45;&gt;Node3</title>
<path fill="none" stroke="#63b8ff" d="M512.75,-107.74C574.97,-97.95 665.72,-83.68 724.15,-74.49"/>
<polygon fill="#63b8ff" stroke="#63b8ff" points="512.31,-104.26 502.98,-109.27 513.4,-111.18 512.31,-104.26"/>
</g>
<!-- Node4 -->
<g id="node4" class="node">
<title>Node4</title>
<g id="a_node4"><a xlink:href="_rcv_s_d_k_8h.html" target="_top" xlink:title=" ">
<polygon fill="white" stroke="#666666" points="515.31,-19 371.31,-19 371.31,0 515.31,0 515.31,-19"/>
<text text-anchor="middle" x="443.31" y="-7" font-family="Helvetica,sans-Serif" font-size="10.00">rcvsdk/ios/rcvsdk/RcvSDK.h</text>
</a>
</g>
</g>
<!-- Node2&#45;&gt;Node4 -->
<g id="edge8" class="edge">
<title>Node2&#45;&gt;Node4</title>
<path fill="none" stroke="#63b8ff" d="M337.27,-115C214.77,-109.86 28.13,-98.15 6.31,-74 -43.64,-18.72 234.2,-10.78 370.85,-10.16"/>
<polygon fill="#63b8ff" stroke="#63b8ff" points="336.91,-118.48 347.04,-115.4 337.19,-111.49 336.91,-118.48"/>
</g>
<!-- Node5 -->
<g id="node5" class="node">
<title>Node5</title>
<g id="a_node5"><a xlink:href="_rcv_metal_video_view_8h.html" target="_top" xlink:title=" ">
<polygon fill="white" stroke="#666666" points="207.31,-74 15.31,-74 15.31,-55 207.31,-55 207.31,-74"/>
<text text-anchor="middle" x="111.31" y="-62" font-family="Helvetica,sans-Serif" font-size="10.00">rcvsdk/ios/rcvsdk/RcvMetalVideoView.h</text>
</a>
</g>
</g>
<!-- Node2&#45;&gt;Node5 -->
<g id="edge4" class="edge">
<title>Node2&#45;&gt;Node5</title>
<path fill="none" stroke="#63b8ff" d="M376.69,-107.74C315.21,-97.95 225.54,-83.68 167.8,-74.49"/>
<polygon fill="#63b8ff" stroke="#63b8ff" points="375.91,-111.16 386.33,-109.27 377.01,-104.24 375.91,-111.16"/>
</g>
<!-- Node6 -->
<g id="node6" class="node">
<title>Node6</title>
<g id="a_node6"><a xlink:href="_rcv_open_g_l_video_view_8h.html" target="_top" xlink:title=" ">
<polygon fill="white" stroke="#666666" points="428.81,-74 225.81,-74 225.81,-55 428.81,-55 428.81,-74"/>
<text text-anchor="middle" x="327.31" y="-62" font-family="Helvetica,sans-Serif" font-size="10.00">rcvsdk/ios/rcvsdk/RcvOpenGLVideoView.h</text>
</a>
</g>
</g>
<!-- Node2&#45;&gt;Node6 -->
<g id="edge6" class="edge">
<title>Node2&#45;&gt;Node6</title>
<path fill="none" stroke="#63b8ff" d="M414.07,-104.8C392.89,-95.2 365.2,-82.66 346.87,-74.36"/>
<polygon fill="#63b8ff" stroke="#63b8ff" points="412.54,-107.95 423.09,-108.88 415.42,-101.57 412.54,-107.95"/>
</g>
<!-- Node7 -->
<g id="node7" class="node">
<title>Node7</title>
<g id="a_node7"><a xlink:href="_rcv_sample_buffer_video_view_8h.html" target="_top" xlink:title=" ">
<polygon fill="white" stroke="#666666" points="673.81,-74 446.81,-74 446.81,-55 673.81,-55 673.81,-74"/>
<text text-anchor="middle" x="560.31" y="-62" font-family="Helvetica,sans-Serif" font-size="10.00">rcvsdk/ios/rcvsdk/RcvSampleBufferVideoView.h</text>
</a>
</g>
</g>
<!-- Node2&#45;&gt;Node7 -->
<g id="edge9" class="edge">
<title>Node2&#45;&gt;Node7</title>
<path fill="none" stroke="#63b8ff" d="M474.3,-104.8C495.3,-95.2 522.75,-82.66 540.93,-74.36"/>
<polygon fill="#63b8ff" stroke="#63b8ff" points="473.01,-101.54 465.37,-108.88 475.92,-107.91 473.01,-101.54"/>
</g>
<!-- Node3&#45;&gt;Node4 -->
<g id="edge3" class="edge">
<title>Node3&#45;&gt;Node4</title>
<path fill="none" stroke="#63b8ff" d="M712.67,-52.74C650.27,-42.95 559.25,-28.68 500.65,-19.49"/>
<polygon fill="#63b8ff" stroke="#63b8ff" points="712.06,-56.18 722.48,-54.27 713.15,-49.27 712.06,-56.18"/>
</g>
<!-- Node5&#45;&gt;Node4 -->
<g id="edge5" class="edge">
<title>Node5&#45;&gt;Node4</title>
<path fill="none" stroke="#63b8ff" d="M178.74,-52.74C240.03,-42.95 329.44,-28.68 387,-19.49"/>
<polygon fill="#63b8ff" stroke="#63b8ff" points="178.45,-49.24 169.13,-54.27 179.56,-56.15 178.45,-49.24"/>
</g>
<!-- Node6&#45;&gt;Node4 -->
<g id="edge7" class="edge">
<title>Node6&#45;&gt;Node4</title>
<path fill="none" stroke="#63b8ff" d="M357.3,-49.8C378.3,-40.2 405.75,-27.66 423.93,-19.36"/>
<polygon fill="#63b8ff" stroke="#63b8ff" points="356.01,-46.54 348.37,-53.88 358.92,-52.91 356.01,-46.54"/>
</g>
<!-- Node7&#45;&gt;Node4 -->
<g id="edge10" class="edge">
<title>Node7&#45;&gt;Node4</title>
<path fill="none" stroke="#63b8ff" d="M530.07,-49.8C508.89,-40.2 481.2,-27.66 462.87,-19.36"/>
<polygon fill="#63b8ff" stroke="#63b8ff" points="528.54,-52.95 539.09,-53.88 531.42,-46.57 528.54,-52.95"/>
</g>
<!-- Node8&#45;&gt;Node3 -->
<g id="edge12" class="edge">
<title>Node8&#45;&gt;Node3</title>
<path fill="none" stroke="#63b8ff" d="M781.31,-98.35C781.31,-90.1 781.31,-80.97 781.31,-74.44"/>
<polygon fill="#63b8ff" stroke="#63b8ff" points="777.82,-98.23 781.31,-108.23 784.82,-98.23 777.82,-98.23"/>
</g>
<!-- Node9 -->
<g id="node9" class="node">
<title>Node9</title>
<g id="a_node9"><a xlink:href="_rcv_engine_8h.html" target="_top" xlink:title=" ">
<polygon fill="white" stroke="#666666" points="1041.81,-74 888.81,-74 888.81,-55 1041.81,-55 1041.81,-74"/>
<text text-anchor="middle" x="965.31" y="-62" font-family="Helvetica,sans-Serif" font-size="10.00">rcvsdk/ios/rcvsdk/RcvEngine.h</text>
</a>
</g>
</g>
<!-- Node8&#45;&gt;Node9 -->
<g id="edge13" class="edge">
<title>Node8&#45;&gt;Node9</title>
<path fill="none" stroke="#63b8ff" d="M823.44,-106.36C857.21,-96.64 903.82,-83.21 934.26,-74.45"/>
<polygon fill="#63b8ff" stroke="#63b8ff" points="822.62,-102.96 813.98,-109.09 824.56,-109.69 822.62,-102.96"/>
</g>
<!-- Node9&#45;&gt;Node4 -->
<g id="edge14" class="edge">
<title>Node9&#45;&gt;Node4</title>
<path fill="none" stroke="#63b8ff" d="M877.41,-54.58C775.74,-44.25 610.26,-27.45 515.69,-17.85"/>
<polygon fill="#63b8ff" stroke="#63b8ff" points="876.76,-58.03 887.07,-55.56 877.47,-51.06 876.76,-58.03"/>
</g>
</g>
</svg>
