<?xml version="1.0" encoding="UTF-8" standalone="no"?>
<!DOCTYPE svg PUBLIC "-//W3C//DTD SVG 1.1//EN"
 "http://www.w3.org/Graphics/SVG/1.1/DTD/svg11.dtd">
<!-- Generated by graphviz version 7.0.0 (20221023.0053)
 -->
<!-- Title: rcvsdk/ios/rcvsdk/RcvEngine.h Pages: 1 -->
<!--zoomable 192 -->
<svg id="main" version="1.1" xmlns="http://www.w3.org/2000/svg" xmlns:xlink="http://www.w3.org/1999/xlink" xml:space="preserve" onload="init(evt)">
<style type="text/css"><![CDATA[
.edge:hover path { stroke: red; }
.edge:hover polygon { stroke: red; fill: red; }
]]></style>
<script type="text/javascript"><![CDATA[
var edges = document.getElementsByTagName('g');
if (edges && edges.length) {
  for (var i=0;i<edges.length;i++) {
    if (edges[i].id.substr(0,4)=='edge') {
      edges[i].setAttribute('class','edge');
    }
  }
}
]]></script>
        <defs>
                <circle id="rim" cx="0" cy="0" r="7"/>
                <circle id="rim2" cx="0" cy="0" r="3.5"/>
                <g id="zoomPlus">
                        <use xlink:href="#rim" fill="#404040">
                                <set attributeName="fill" to="#808080" begin="zoomplus.mouseover" end="zoomplus.mouseout"/>
                        </use>
                        <path d="M-4,0h8M0,-4v8" fill="none" stroke="white" stroke-width="1.5" pointer-events="none"/>
                </g>
                <g id="zoomMin">
                        <use xlink:href="#rim" fill="#404040">
                                <set attributeName="fill" to="#808080" begin="zoomminus.mouseover" end="zoomminus.mouseout"/>
                        </use>
                        <path d="M-4,0h8" fill="none" stroke="white" stroke-width="1.5" pointer-events="none"/>
                </g>
                <g id="dirArrow">
                        <path fill="none" stroke="white" stroke-width="1.5" d="M0,-3.0v7 M-2.5,-0.5L0,-3.0L2.5,-0.5"/>
                </g>
               <g id="resetDef">
                       <use xlink:href="#rim2" fill="#404040">
                               <set attributeName="fill" to="#808080" begin="reset.mouseover" end="reset.mouseout"/>
                       </use>
               </g>
        </defs>

<script type="text/javascript">
var viewWidth = 622;
var viewHeight = 192;
var sectionId = 'dynsection-0';
</script>
<script xlink:href="svgpan.js"/>
<svg id="graph" class="graph">
<g id="viewport">
<title>rcvsdk/ios/rcvsdk/RcvEngine.h</title>
<!-- Node1 -->
<g id="node1" class="node">
<title>Node1</title>
<g id="a_node1"><a xlink:title=" ">
<polygon fill="#999999" stroke="#666666" points="319.4,-184 166.4,-184 166.4,-165 319.4,-165 319.4,-184"/>
<text text-anchor="middle" x="242.9" y="-172" font-family="Helvetica,sans-Serif" font-size="10.00">rcvsdk/ios/rcvsdk/RcvEngine.h</text>
</a>
</g>
</g>
<!-- Node2 -->
<g id="node2" class="node">
<title>Node2</title>
<g id="a_node2"><a xlink:title=" ">
<polygon fill="#e0e0e0" stroke="#999999" points="342.9,-19 218.9,-19 218.9,0 342.9,0 342.9,-19"/>
<text text-anchor="middle" x="280.9" y="-7" font-family="Helvetica,sans-Serif" font-size="10.00">Foundation/Foundation.h</text>
</a>
</g>
</g>
<!-- Node1&#45;&gt;Node2 -->
<g id="edge1" class="edge">
<title>Node1&#45;&gt;Node2</title>
<path fill="none" stroke="#63b8ff" d="M178.97,-164.55C93.82,-150.04 -40.36,-116.62 11.9,-55 36.53,-25.96 136.46,-15.84 207.3,-12.34"/>
<polygon fill="#63b8ff" stroke="#63b8ff" points="207.07,-15.85 216.9,-11.9 206.75,-8.86 207.07,-15.85"/>
</g>
<!-- Node3 -->
<g id="node3" class="node">
<title>Node3</title>
<g id="a_node3"><a xlink:href="_rcv_audio_processor_8h.html" target="_top" xlink:title=" ">
<polygon fill="white" stroke="#666666" points="132.4,-74 21.4,-74 21.4,-55 132.4,-55 132.4,-74"/>
<text text-anchor="middle" x="76.9" y="-62" font-family="Helvetica,sans-Serif" font-size="10.00">RcvAudioProcessor.h</text>
</a>
</g>
</g>
<!-- Node1&#45;&gt;Node3 -->
<g id="edge2" class="edge">
<title>Node1&#45;&gt;Node3</title>
<path fill="none" stroke="#63b8ff" d="M171.1,-164.54C145.94,-158.21 119.17,-147.41 99.9,-129 87.96,-117.59 82.19,-99.51 79.43,-85.55"/>
<polygon fill="#63b8ff" stroke="#63b8ff" points="82.89,-85.03 77.87,-75.7 75.97,-86.13 82.89,-85.03"/>
</g>
<!-- Node4 -->
<g id="node4" class="node">
<title>Node4</title>
<g id="a_node4"><a xlink:href="_rcv_engine_event_handler_8h.html" target="_top" xlink:title=" ">
<polygon fill="white" stroke="#666666" points="239.4,-129 108.4,-129 108.4,-110 239.4,-110 239.4,-129"/>
<text text-anchor="middle" x="173.9" y="-117" font-family="Helvetica,sans-Serif" font-size="10.00">RcvEngineEventHandler.h</text>
</a>
</g>
</g>
<!-- Node1&#45;&gt;Node4 -->
<g id="edge4" class="edge">
<title>Node1&#45;&gt;Node4</title>
<path fill="none" stroke="#63b8ff" d="M231.2,-164.51C221.12,-156.77 206.36,-145.43 194.34,-136.2"/>
<polygon fill="#63b8ff" stroke="#63b8ff" points="196.7,-133.6 186.63,-130.28 192.43,-139.15 196.7,-133.6"/>
</g>
<!-- Node6 -->
<g id="node6" class="node">
<title>Node6</title>
<g id="a_node6"><a xlink:href="_rcv_error_code_type_8h.html" target="_top" xlink:title=" ">
<polygon fill="white" stroke="#666666" points="365.9,-129 257.9,-129 257.9,-110 365.9,-110 365.9,-129"/>
<text text-anchor="middle" x="311.9" y="-117" font-family="Helvetica,sans-Serif" font-size="10.00">RcvErrorCodeType.h</text>
</a>
</g>
</g>
<!-- Node1&#45;&gt;Node6 -->
<g id="edge8" class="edge">
<title>Node1&#45;&gt;Node6</title>
<path fill="none" stroke="#63b8ff" d="M254.61,-164.51C264.68,-156.77 279.44,-145.43 291.46,-136.2"/>
<polygon fill="#63b8ff" stroke="#63b8ff" points="293.37,-139.15 299.17,-130.28 289.11,-133.6 293.37,-139.15"/>
</g>
<!-- Node7 -->
<g id="node7" class="node">
<title>Node7</title>
<g id="a_node7"><a xlink:href="_rcv_video_canvas_8h.html" target="_top" xlink:title=" ">
<polygon fill="white" stroke="#666666" points="485.4,-129 384.4,-129 384.4,-110 485.4,-110 485.4,-129"/>
<text text-anchor="middle" x="434.9" y="-117" font-family="Helvetica,sans-Serif" font-size="10.00">RcvVideoCanvas.h</text>
</a>
</g>
</g>
<!-- Node1&#45;&gt;Node7 -->
<g id="edge10" class="edge">
<title>Node1&#45;&gt;Node7</title>
<path fill="none" stroke="#63b8ff" d="M275.47,-164.51C307.43,-155.69 356.35,-142.18 391.58,-132.46"/>
<polygon fill="#63b8ff" stroke="#63b8ff" points="392.33,-135.88 401.03,-129.85 390.46,-129.14 392.33,-135.88"/>
</g>
<!-- Node9 -->
<g id="node9" class="node">
<title>Node9</title>
<g id="a_node9"><a xlink:href="_rcv_video_processor_8h.html" target="_top" xlink:title=" ">
<polygon fill="white" stroke="#666666" points="614.4,-74 503.4,-74 503.4,-55 614.4,-55 614.4,-74"/>
<text text-anchor="middle" x="558.9" y="-62" font-family="Helvetica,sans-Serif" font-size="10.00">RcvVideoProcessor.h</text>
</a>
</g>
</g>
<!-- Node1&#45;&gt;Node9 -->
<g id="edge14" class="edge">
<title>Node1&#45;&gt;Node9</title>
<path fill="none" stroke="#63b8ff" d="M319.75,-171.81C371.74,-167.9 440.57,-157.16 494.9,-129 515.9,-118.12 534.41,-97.95 546.05,-83.26"/>
<polygon fill="#63b8ff" stroke="#63b8ff" points="548.8,-85.43 552.05,-75.35 543.22,-81.21 548.8,-85.43"/>
</g>
<!-- Node3&#45;&gt;Node2 -->
<g id="edge3" class="edge">
<title>Node3&#45;&gt;Node2</title>
<path fill="none" stroke="#63b8ff" d="M111.51,-54.51C145.61,-45.65 197.89,-32.07 235.35,-22.33"/>
<polygon fill="#63b8ff" stroke="#63b8ff" points="236.2,-25.73 245,-19.83 234.44,-18.95 236.2,-25.73"/>
</g>
<!-- Node4&#45;&gt;Node2 -->
<g id="edge7" class="edge">
<title>Node4&#45;&gt;Node2</title>
<path fill="none" stroke="#63b8ff" d="M172.33,-109.74C170.48,-96.52 168.99,-71.3 180.9,-55 191.9,-39.94 209.16,-29.89 226.27,-23.22"/>
<polygon fill="#63b8ff" stroke="#63b8ff" points="227.15,-26.62 235.41,-19.99 224.82,-20.02 227.15,-26.62"/>
</g>
<!-- Node5 -->
<g id="node5" class="node">
<title>Node5</title>
<g id="a_node5"><a xlink:href="_rcv_leave_reason_8h.html" target="_top" xlink:title=" ">
<polygon fill="white" stroke="#666666" points="292.4,-74 189.4,-74 189.4,-55 292.4,-55 292.4,-74"/>
<text text-anchor="middle" x="240.9" y="-62" font-family="Helvetica,sans-Serif" font-size="10.00">RcvLeaveReason.h</text>
</a>
</g>
</g>
<!-- Node4&#45;&gt;Node5 -->
<g id="edge5" class="edge">
<title>Node4&#45;&gt;Node5</title>
<path fill="none" stroke="#63b8ff" d="M185.27,-109.51C194.95,-101.85 209.1,-90.66 220.71,-81.47"/>
<polygon fill="#63b8ff" stroke="#63b8ff" points="222.85,-84.25 228.52,-75.3 218.5,-78.76 222.85,-84.25"/>
</g>
<!-- Node5&#45;&gt;Node2 -->
<g id="edge6" class="edge">
<title>Node5&#45;&gt;Node2</title>
<path fill="none" stroke="#63b8ff" d="M247.51,-54.75C252.86,-47.66 260.58,-37.42 267.25,-28.59"/>
<polygon fill="#63b8ff" stroke="#63b8ff" points="270.01,-30.74 273.24,-20.65 264.42,-26.52 270.01,-30.74"/>
</g>
<!-- Node6&#45;&gt;Node2 -->
<g id="edge9" class="edge">
<title>Node6&#45;&gt;Node2</title>
<path fill="none" stroke="#63b8ff" d="M311.31,-109.7C310.3,-97.27 307.74,-73.99 301.9,-55 299.23,-46.33 295.17,-37.2 291.32,-29.48"/>
<polygon fill="#63b8ff" stroke="#63b8ff" points="294.48,-27.97 286.74,-20.74 288.28,-31.22 294.48,-27.97"/>
</g>
<!-- Node7&#45;&gt;Node2 -->
<g id="edge13" class="edge">
<title>Node7&#45;&gt;Node2</title>
<path fill="none" stroke="#63b8ff" d="M422.3,-109.66C396.13,-91.31 335.61,-48.87 302.88,-25.91"/>
<polygon fill="#63b8ff" stroke="#63b8ff" points="305.11,-23.21 294.92,-20.33 301.09,-28.94 305.11,-23.21"/>
</g>
<!-- Node8 -->
<g id="node8" class="node">
<title>Node8</title>
<g id="a_node8"><a xlink:href="_rcv_render_mode_8h.html" target="_top" xlink:title=" ">
<polygon fill="white" stroke="#666666" points="484.9,-74 386.9,-74 386.9,-55 484.9,-55 484.9,-74"/>
<text text-anchor="middle" x="435.9" y="-62" font-family="Helvetica,sans-Serif" font-size="10.00">RcvRenderMode.h</text>
</a>
</g>
</g>
<!-- Node7&#45;&gt;Node8 -->
<g id="edge11" class="edge">
<title>Node7&#45;&gt;Node8</title>
<path fill="none" stroke="#63b8ff" d="M435.07,-109.75C435.19,-103.27 435.36,-94.16 435.52,-85.9"/>
<polygon fill="#63b8ff" stroke="#63b8ff" points="439.01,-86.02 435.7,-75.96 432.02,-85.89 439.01,-86.02"/>
</g>
<!-- Node8&#45;&gt;Node2 -->
<g id="edge12" class="edge">
<title>Node8&#45;&gt;Node2</title>
<path fill="none" stroke="#63b8ff" d="M409.61,-54.51C384.37,-45.88 346.02,-32.76 317.74,-23.1"/>
<polygon fill="#63b8ff" stroke="#63b8ff" points="319.09,-19.86 308.5,-19.94 316.83,-26.48 319.09,-19.86"/>
</g>
<!-- Node9&#45;&gt;Node2 -->
<g id="edge15" class="edge">
<title>Node9&#45;&gt;Node2</title>
<path fill="none" stroke="#63b8ff" d="M511.74,-54.51C464.07,-45.42 390.32,-31.36 339.05,-21.59"/>
<polygon fill="#63b8ff" stroke="#63b8ff" points="339.79,-18.16 329.31,-19.73 338.48,-25.04 339.79,-18.16"/>
</g>
</g>
</svg>
        <g id="navigator" transform="translate(0 0)" fill="#404254">
                <rect fill="#f2f5e9" fill-opacity="0.5" stroke="#606060" stroke-width=".5" x="0" y="0" width="60" height="60"/>
                <use id="zoomplus" xlink:href="#zoomPlus" x="17" y="9" onmousedown="handleZoom(evt,'in')"/>
                <use id="zoomminus" xlink:href="#zoomMin" x="42" y="9" onmousedown="handleZoom(evt,'out')"/>
                <use id="reset" xlink:href="#resetDef" x="30" y="36" onmousedown="handleReset()"/>
                <g id="arrowUp" xlink:href="#dirArrow" transform="translate(30 24)" onmousedown="handlePan(0,-1)">
                  <use xlink:href="#rim" fill="#404040">
                        <set attributeName="fill" to="#808080" begin="arrowUp.mouseover" end="arrowUp.mouseout"/>
                  </use>
                  <path fill="none" stroke="white" stroke-width="1.5" d="M0,-3.0v7 M-2.5,-0.5L0,-3.0L2.5,-0.5"/>
                </g>
                <g id="arrowRight" xlink:href="#dirArrow" transform="rotate(90) translate(36 -43)" onmousedown="handlePan(1,0)">
                  <use xlink:href="#rim" fill="#404040">
                        <set attributeName="fill" to="#808080" begin="arrowRight.mouseover" end="arrowRight.mouseout"/>
                  </use>
                  <path fill="none" stroke="white" stroke-width="1.5" d="M0,-3.0v7 M-2.5,-0.5L0,-3.0L2.5,-0.5"/>
                </g>
                <g id="arrowDown" xlink:href="#dirArrow" transform="rotate(180) translate(-30 -48)" onmousedown="handlePan(0,1)">
                  <use xlink:href="#rim" fill="#404040">
                        <set attributeName="fill" to="#808080" begin="arrowDown.mouseover" end="arrowDown.mouseout"/>
                  </use>
                  <path fill="none" stroke="white" stroke-width="1.5" d="M0,-3.0v7 M-2.5,-0.5L0,-3.0L2.5,-0.5"/>
                </g>
                <g id="arrowLeft" xlink:href="#dirArrow" transform="rotate(270) translate(-36 17)" onmousedown="handlePan(-1,0)">
                  <use xlink:href="#rim" fill="#404040">
                        <set attributeName="fill" to="#808080" begin="arrowLeft.mouseover" end="arrowLeft.mouseout"/>
                  </use>
                  <path fill="none" stroke="white" stroke-width="1.5" d="M0,-3.0v7 M-2.5,-0.5L0,-3.0L2.5,-0.5"/>
                </g>
        </g>
        <svg viewBox="0 0 15 15" width="100%" height="30px" preserveAspectRatio="xMaxYMin meet">
         <g id="arrow_out" transform="scale(0.3 0.3)">
          <a xlink:href="_rcv_engine_8h__incl_org.svg" target="_base">
           <rect id="button" ry="5" rx="5" y="6" x="6" height="38" width="38"
                fill="#f2f5e9" fill-opacity="0.5" stroke="#606060" stroke-width="1.0"/>
           <path id="arrow"
             d="M 11.500037,31.436501 C 11.940474,20.09759 22.043105,11.32322 32.158766,21.979434 L 37.068811,17.246167 C 37.068811,17.246167 37.088388,32 37.088388,32 L 22.160133,31.978069 C 22.160133,31.978069 26.997745,27.140456 26.997745,27.140456 C 18.528582,18.264221 13.291696,25.230495 11.500037,31.436501 z"
             style="fill:#404040;"/>
          </a>
         </g>
        </svg>
</svg>
