<?xml version="1.0" encoding="UTF-8" standalone="no"?>
<!DOCTYPE svg PUBLIC "-//W3C//DTD SVG 1.1//EN"
 "http://www.w3.org/Graphics/SVG/1.1/DTD/svg11.dtd">
<!-- Generated by graphviz version 7.0.0 (20221023.0053)
 -->
<!-- Title: rcvsdk/ios/rcvsdk/RcvEngineEventHandler.h Pages: 1 -->
<svg width="243pt" height="137pt"
 viewBox="0.00 0.00 242.50 137.00" xmlns="http://www.w3.org/2000/svg" xmlns:xlink="http://www.w3.org/1999/xlink">
<g id="graph0" class="graph" transform="scale(1 1) rotate(0) translate(4 133)">
<title>rcvsdk/ios/rcvsdk/RcvEngineEventHandler.h</title>
<!-- Node1 -->
<g id="node1" class="node">
<title>Node1</title>
<g id="a_node1"><a xlink:title=" ">
<polygon fill="#999999" stroke="#666666" points="234.5,-129 22.5,-129 22.5,-110 234.5,-110 234.5,-129"/>
<text text-anchor="middle" x="128.5" y="-117" font-family="Helvetica,sans-Serif" font-size="10.00">rcvsdk/ios/rcvsdk/RcvEngineEventHandler.h</text>
</a>
</g>
</g>
<!-- Node2 -->
<g id="node2" class="node">
<title>Node2</title>
<g id="a_node2"><a xlink:href="_rcv_engine_8h.html" target="_top" xlink:title=" ">
<polygon fill="white" stroke="#666666" points="153,-74 0,-74 0,-55 153,-55 153,-74"/>
<text text-anchor="middle" x="76.5" y="-62" font-family="Helvetica,sans-Serif" font-size="10.00">rcvsdk/ios/rcvsdk/RcvEngine.h</text>
</a>
</g>
</g>
<!-- Node1&#45;&gt;Node2 -->
<g id="edge1" class="edge">
<title>Node1&#45;&gt;Node2</title>
<path fill="none" stroke="#63b8ff" d="M112.09,-101.78C103.21,-92.72 92.59,-81.9 85.27,-74.44"/>
<polygon fill="#63b8ff" stroke="#63b8ff" points="109.35,-103.98 118.85,-108.67 114.35,-99.08 109.35,-103.98"/>
</g>
<!-- Node3 -->
<g id="node3" class="node">
<title>Node3</title>
<g id="a_node3"><a xlink:href="_rcv_s_d_k_8h.html" target="_top" xlink:title=" ">
<polygon fill="white" stroke="#666666" points="200.5,-19 56.5,-19 56.5,0 200.5,0 200.5,-19"/>
<text text-anchor="middle" x="128.5" y="-7" font-family="Helvetica,sans-Serif" font-size="10.00">rcvsdk/ios/rcvsdk/RcvSDK.h</text>
</a>
</g>
</g>
<!-- Node1&#45;&gt;Node3 -->
<g id="edge3" class="edge">
<title>Node1&#45;&gt;Node3</title>
<path fill="none" stroke="#63b8ff" d="M145.81,-101.36C152.38,-93.68 159.09,-84.08 162.5,-74 169.55,-53.15 150.84,-30.96 138.45,-19.12"/>
<polygon fill="#63b8ff" stroke="#63b8ff" points="143.36,-98.86 139.13,-108.58 148.49,-103.62 143.36,-98.86"/>
</g>
<!-- Node2&#45;&gt;Node3 -->
<g id="edge2" class="edge">
<title>Node2&#45;&gt;Node3</title>
<path fill="none" stroke="#63b8ff" d="M92.91,-46.78C101.79,-37.72 112.41,-26.9 119.73,-19.44"/>
<polygon fill="#63b8ff" stroke="#63b8ff" points="90.65,-44.08 86.15,-53.67 95.65,-48.98 90.65,-44.08"/>
</g>
</g>
</svg>
