<?xml version="1.0" encoding="UTF-8" standalone="no"?>
<!DOCTYPE svg PUBLIC "-//W3C//DTD SVG 1.1//EN"
 "http://www.w3.org/Graphics/SVG/1.1/DTD/svg11.dtd">
<!-- Generated by graphviz version 7.0.0 (20221023.0053)
 -->
<!-- Title: rcvsdk/ios/rcvsdk/RcvMetalVideoView.h Pages: 1 -->
<svg width="313pt" height="192pt"
 viewBox="0.00 0.00 313.00 192.00" xmlns="http://www.w3.org/2000/svg" xmlns:xlink="http://www.w3.org/1999/xlink">
<g id="graph0" class="graph" transform="scale(1 1) rotate(0) translate(4 188)">
<title>rcvsdk/ios/rcvsdk/RcvMetalVideoView.h</title>
<!-- Node1 -->
<g id="node1" class="node">
<title>Node1</title>
<g id="a_node1"><a xlink:title=" ">
<polygon fill="#999999" stroke="#666666" points="192,-184 0,-184 0,-165 192,-165 192,-184"/>
<text text-anchor="middle" x="96" y="-172" font-family="Helvetica,sans-Serif" font-size="10.00">rcvsdk/ios/rcvsdk/RcvMetalVideoView.h</text>
</a>
</g>
</g>
<!-- Node2 -->
<g id="node2" class="node">
<title>Node2</title>
<g id="a_node2"><a xlink:title=" ">
<polygon fill="#e0e0e0" stroke="#999999" points="241,-19 117,-19 117,0 241,0 241,-19"/>
<text text-anchor="middle" x="179" y="-7" font-family="Helvetica,sans-Serif" font-size="10.00">Foundation/Foundation.h</text>
</a>
</g>
</g>
<!-- Node1&#45;&gt;Node2 -->
<g id="edge1" class="edge">
<title>Node1&#45;&gt;Node2</title>
<path fill="none" stroke="#63b8ff" d="M89.59,-164.63C75.34,-143.7 44.07,-90.37 68,-55 78.31,-39.76 94.78,-29.74 111.91,-23.15"/>
<polygon fill="#63b8ff" stroke="#63b8ff" points="112.86,-26.53 121.18,-19.97 110.59,-19.91 112.86,-26.53"/>
</g>
<!-- Node3 -->
<g id="node3" class="node">
<title>Node3</title>
<g id="a_node3"><a xlink:title=" ">
<polygon fill="#e0e0e0" stroke="#999999" points="150.5,-74 77.5,-74 77.5,-55 150.5,-55 150.5,-74"/>
<text text-anchor="middle" x="114" y="-62" font-family="Helvetica,sans-Serif" font-size="10.00">UIKit/UIKit.h</text>
</a>
</g>
</g>
<!-- Node1&#45;&gt;Node3 -->
<g id="edge2" class="edge">
<title>Node1&#45;&gt;Node3</title>
<path fill="none" stroke="#63b8ff" d="M97.47,-164.66C100.33,-147.5 106.71,-109.26 110.65,-85.6"/>
<polygon fill="#63b8ff" stroke="#63b8ff" points="114.07,-86.39 112.26,-75.95 107.16,-85.24 114.07,-86.39"/>
</g>
<!-- Node4 -->
<g id="node4" class="node">
<title>Node4</title>
<g id="a_node4"><a xlink:href="_rcv_base_video_view_8h.html" target="_top" xlink:title=" ">
<polygon fill="white" stroke="#666666" points="234,-129 124,-129 124,-110 234,-110 234,-129"/>
<text text-anchor="middle" x="179" y="-117" font-family="Helvetica,sans-Serif" font-size="10.00">RcvBaseVideoView.h</text>
</a>
</g>
</g>
<!-- Node1&#45;&gt;Node4 -->
<g id="edge3" class="edge">
<title>Node1&#45;&gt;Node4</title>
<path fill="none" stroke="#63b8ff" d="M110.08,-164.51C122.56,-156.54 141.02,-144.75 155.69,-135.38"/>
<polygon fill="#63b8ff" stroke="#63b8ff" points="157.31,-138.5 163.85,-130.17 153.54,-132.6 157.31,-138.5"/>
</g>
<!-- Node4&#45;&gt;Node2 -->
<g id="edge4" class="edge">
<title>Node4&#45;&gt;Node2</title>
<path fill="none" stroke="#63b8ff" d="M179,-109.66C179,-92.57 179,-54.61 179,-30.92"/>
<polygon fill="#63b8ff" stroke="#63b8ff" points="182.5,-30.97 179,-20.97 175.5,-30.97 182.5,-30.97"/>
</g>
<!-- Node4&#45;&gt;Node3 -->
<g id="edge5" class="edge">
<title>Node4&#45;&gt;Node3</title>
<path fill="none" stroke="#63b8ff" d="M167.97,-109.51C158.58,-101.85 144.85,-90.66 133.59,-81.47"/>
<polygon fill="#63b8ff" stroke="#63b8ff" points="136,-78.92 126.04,-75.31 131.57,-84.35 136,-78.92"/>
</g>
<!-- Node5 -->
<g id="node5" class="node">
<title>Node5</title>
<g id="a_node5"><a xlink:href="_rcv_render_mode_8h.html" target="_top" xlink:title=" ">
<polygon fill="white" stroke="#666666" points="305,-74 207,-74 207,-55 305,-55 305,-74"/>
<text text-anchor="middle" x="256" y="-62" font-family="Helvetica,sans-Serif" font-size="10.00">RcvRenderMode.h</text>
</a>
</g>
</g>
<!-- Node4&#45;&gt;Node5 -->
<g id="edge6" class="edge">
<title>Node4&#45;&gt;Node5</title>
<path fill="none" stroke="#63b8ff" d="M192.06,-109.51C203.52,-101.62 220.43,-89.98 233.98,-80.65"/>
<polygon fill="#63b8ff" stroke="#63b8ff" points="235.63,-83.77 241.88,-75.22 231.66,-78 235.63,-83.77"/>
</g>
<!-- Node5&#45;&gt;Node2 -->
<g id="edge7" class="edge">
<title>Node5&#45;&gt;Node2</title>
<path fill="none" stroke="#63b8ff" d="M242.94,-54.51C231.48,-46.62 214.57,-34.98 201.02,-25.65"/>
<polygon fill="#63b8ff" stroke="#63b8ff" points="203.34,-23 193.12,-20.22 199.37,-28.77 203.34,-23"/>
</g>
</g>
</svg>
