<?xml version="1.0" encoding="UTF-8" standalone="no"?>
<!DOCTYPE svg PUBLIC "-//W3C//DTD SVG 1.1//EN"
 "http://www.w3.org/Graphics/SVG/1.1/DTD/svg11.dtd">
<!-- Generated by graphviz version 6.0.1 (20220911.1526)
 -->
<!-- Title: rcvsdk/ios/rcvsdk/RcvAudioController.h Pages: 1 -->
<svg width="226pt" height="137pt"
 viewBox="0.00 0.00 225.50 137.00" xmlns="http://www.w3.org/2000/svg" xmlns:xlink="http://www.w3.org/1999/xlink">
<g id="graph0" class="graph" transform="scale(1 1) rotate(0) translate(4 133)">
<title>rcvsdk/ios/rcvsdk/RcvAudioController.h</title>
<!-- Node1 -->
<g id="node1" class="node">
<title>Node1</title>
<g id="a_node1"><a xlink:title=" ">
<polygon fill="#999999" stroke="#666666" points="217.5,-129 28.5,-129 28.5,-110 217.5,-110 217.5,-129"/>
<text text-anchor="middle" x="123" y="-117" font-family="Helvetica,sans-Serif" font-size="10.00">rcvsdk/ios/rcvsdk/RcvAudioController.h</text>
</a>
</g>
</g>
<!-- Node2 -->
<g id="node2" class="node">
<title>Node2</title>
<g id="a_node2"><a xlink:href="_rcv_local_audio_stream_state_8h.html" target="_top" xlink:title=" ">
<polygon fill="white" stroke="#666666" points="146,-74 0,-74 0,-55 146,-55 146,-74"/>
<text text-anchor="middle" x="73" y="-62" font-family="Helvetica,sans-Serif" font-size="10.00">RcvLocalAudioStreamState.h</text>
</a>
</g>
</g>
<!-- Node1&#45;&gt;Node2 -->
<g id="edge1" class="edge">
<title>Node1&#45;&gt;Node2</title>
<path fill="none" stroke="#63b8ff" d="M114.74,-109.75C107.54,-102.11 96.89,-90.82 88.15,-81.56"/>
<polygon fill="#63b8ff" stroke="#63b8ff" points="90.51,-78.96 81.1,-74.09 85.42,-83.76 90.51,-78.96"/>
</g>
<!-- Node3 -->
<g id="node3" class="node">
<title>Node3</title>
<g id="a_node3"><a xlink:title=" ">
<polygon fill="#e0e0e0" stroke="#999999" points="185,-19 61,-19 61,0 185,0 185,-19"/>
<text text-anchor="middle" x="123" y="-7" font-family="Helvetica,sans-Serif" font-size="10.00">Foundation/Foundation.h</text>
</a>
</g>
</g>
<!-- Node1&#45;&gt;Node3 -->
<g id="edge3" class="edge">
<title>Node1&#45;&gt;Node3</title>
<path fill="none" stroke="#63b8ff" d="M131.75,-109.9C139.56,-101.56 150.45,-88.13 155,-74 160.41,-57.2 149.79,-39.35 139.37,-26.87"/>
<polygon fill="#63b8ff" stroke="#63b8ff" points="141.69,-24.22 132.37,-19.17 136.5,-28.93 141.69,-24.22"/>
</g>
<!-- Node2&#45;&gt;Node3 -->
<g id="edge2" class="edge">
<title>Node2&#45;&gt;Node3</title>
<path fill="none" stroke="#63b8ff" d="M81.26,-54.75C88.46,-47.11 99.11,-35.82 107.85,-26.56"/>
<polygon fill="#63b8ff" stroke="#63b8ff" points="110.58,-28.76 114.9,-19.09 105.49,-23.96 110.58,-28.76"/>
</g>
</g>
</svg>
