<?xml version="1.0" encoding="UTF-8" standalone="no"?>
<!DOCTYPE svg PUBLIC "-//W3C//DTD SVG 1.1//EN"
 "http://www.w3.org/Graphics/SVG/1.1/DTD/svg11.dtd">
<!-- Generated by graphviz version 6.0.1 (20220911.1526)
 -->
<!-- Title: rcvsdk/ios/rcvsdk/RcvRecordingState.h Pages: 1 -->
<svg width="490pt" height="137pt"
 viewBox="0.00 0.00 489.50 137.00" xmlns="http://www.w3.org/2000/svg" xmlns:xlink="http://www.w3.org/1999/xlink">
<g id="graph0" class="graph" transform="scale(1 1) rotate(0) translate(4 133)">
<title>rcvsdk/ios/rcvsdk/RcvRecordingState.h</title>
<!-- Node1 -->
<g id="node1" class="node">
<title>Node1</title>
<g id="a_node1"><a xlink:title=" ">
<polygon fill="#999999" stroke="#666666" points="339.5,-129 148.5,-129 148.5,-110 339.5,-110 339.5,-129"/>
<text text-anchor="middle" x="244" y="-117" font-family="Helvetica,sans-Serif" font-size="10.00">rcvsdk/ios/rcvsdk/RcvRecordingState.h</text>
</a>
</g>
</g>
<!-- Node2 -->
<g id="node2" class="node">
<title>Node2</title>
<g id="a_node2"><a xlink:href="_rcv_meeting_event_handler_8h.html" target="_top" xlink:title=" ">
<polygon fill="white" stroke="#666666" points="216,-74 0,-74 0,-55 216,-55 216,-74"/>
<text text-anchor="middle" x="108" y="-62" font-family="Helvetica,sans-Serif" font-size="10.00">rcvsdk/ios/rcvsdk/RcvMeetingEventHandler.h</text>
</a>
</g>
</g>
<!-- Node1&#45;&gt;Node2 -->
<g id="edge1" class="edge">
<title>Node1&#45;&gt;Node2</title>
<path fill="none" stroke="#63b8ff" d="M212.67,-106.29C187.46,-96.47 152.67,-82.91 130.25,-74.17"/>
<polygon fill="#63b8ff" stroke="#63b8ff" points="211.56,-109.61 222.15,-109.98 214.1,-103.09 211.56,-109.61"/>
</g>
<!-- Node3 -->
<g id="node3" class="node">
<title>Node3</title>
<g id="a_node3"><a xlink:href="_rcv_s_d_k_8h.html" target="_top" xlink:title=" ">
<polygon fill="white" stroke="#666666" points="316,-19 172,-19 172,0 316,0 316,-19"/>
<text text-anchor="middle" x="244" y="-7" font-family="Helvetica,sans-Serif" font-size="10.00">rcvsdk/ios/rcvsdk/RcvSDK.h</text>
</a>
</g>
</g>
<!-- Node1&#45;&gt;Node3 -->
<g id="edge5" class="edge">
<title>Node1&#45;&gt;Node3</title>
<path fill="none" stroke="#63b8ff" d="M244,-99.48C244,-75.84 244,-36.5 244,-19.16"/>
<polygon fill="#63b8ff" stroke="#63b8ff" points="240.5,-99.66 244,-109.66 247.5,-99.66 240.5,-99.66"/>
</g>
<!-- Node4 -->
<g id="node4" class="node">
<title>Node4</title>
<g id="a_node4"><a xlink:href="_rcv_recording_controller_8h.html" target="_top" xlink:title=" ">
<polygon fill="white" stroke="#666666" points="481.5,-74 272.5,-74 272.5,-55 481.5,-55 481.5,-74"/>
<text text-anchor="middle" x="377" y="-62" font-family="Helvetica,sans-Serif" font-size="10.00">rcvsdk/ios/rcvsdk/RcvRecordingController.h</text>
</a>
</g>
</g>
<!-- Node1&#45;&gt;Node4 -->
<g id="edge3" class="edge">
<title>Node1&#45;&gt;Node4</title>
<path fill="none" stroke="#63b8ff" d="M274.97,-106.16C299.59,-96.35 333.41,-82.87 355.24,-74.17"/>
<polygon fill="#63b8ff" stroke="#63b8ff" points="273.36,-103.03 265.37,-109.98 275.95,-109.53 273.36,-103.03"/>
</g>
<!-- Node2&#45;&gt;Node3 -->
<g id="edge2" class="edge">
<title>Node2&#45;&gt;Node3</title>
<path fill="none" stroke="#63b8ff" d="M139.33,-51.29C164.54,-41.47 199.33,-27.91 221.75,-19.17"/>
<polygon fill="#63b8ff" stroke="#63b8ff" points="137.9,-48.09 129.85,-54.98 140.44,-54.61 137.9,-48.09"/>
</g>
<!-- Node4&#45;&gt;Node3 -->
<g id="edge4" class="edge">
<title>Node4&#45;&gt;Node3</title>
<path fill="none" stroke="#63b8ff" d="M346.03,-51.16C321.41,-41.35 287.59,-27.87 265.76,-19.17"/>
<polygon fill="#63b8ff" stroke="#63b8ff" points="345.05,-54.53 355.63,-54.98 347.64,-48.03 345.05,-54.53"/>
</g>
</g>
</svg>
