<?xml version="1.0" encoding="UTF-8" standalone="no"?>
<!DOCTYPE svg PUBLIC "-//W3C//DTD SVG 1.1//EN"
 "http://www.w3.org/Graphics/SVG/1.1/DTD/svg11.dtd">
<!-- Generated by graphviz version 7.0.0 (20221023.0053)
 -->
<!-- Title: rcvsdk/ios/rcvsdk/RcvLeaveReason.h Pages: 1 -->
<svg width="282pt" height="192pt"
 viewBox="0.00 0.00 282.00 192.00" xmlns="http://www.w3.org/2000/svg" xmlns:xlink="http://www.w3.org/1999/xlink">
<g id="graph0" class="graph" transform="scale(1 1) rotate(0) translate(4 188)">
<title>rcvsdk/ios/rcvsdk/RcvLeaveReason.h</title>
<!-- Node1 -->
<g id="node1" class="node">
<title>Node1</title>
<g id="a_node1"><a xlink:title=" ">
<polygon fill="#999999" stroke="#666666" points="264.5,-184 81.5,-184 81.5,-165 264.5,-165 264.5,-184"/>
<text text-anchor="middle" x="173" y="-172" font-family="Helvetica,sans-Serif" font-size="10.00">rcvsdk/ios/rcvsdk/RcvLeaveReason.h</text>
</a>
</g>
</g>
<!-- Node2 -->
<g id="node2" class="node">
<title>Node2</title>
<g id="a_node2"><a xlink:href="_rcv_engine_event_handler_8h.html" target="_top" xlink:title=" ">
<polygon fill="white" stroke="#666666" points="212,-129 0,-129 0,-110 212,-110 212,-129"/>
<text text-anchor="middle" x="106" y="-117" font-family="Helvetica,sans-Serif" font-size="10.00">rcvsdk/ios/rcvsdk/RcvEngineEventHandler.h</text>
</a>
</g>
</g>
<!-- Node1&#45;&gt;Node2 -->
<g id="edge1" class="edge">
<title>Node1&#45;&gt;Node2</title>
<path fill="none" stroke="#63b8ff" d="M152.95,-157.64C141.25,-148.39 126.93,-137.05 117.2,-129.36"/>
<polygon fill="#63b8ff" stroke="#63b8ff" points="150.43,-160.11 160.45,-163.57 154.78,-154.62 150.43,-160.11"/>
</g>
<!-- Node4 -->
<g id="node4" class="node">
<title>Node4</title>
<g id="a_node4"><a xlink:href="_rcv_s_d_k_8h.html" target="_top" xlink:title=" ">
<polygon fill="white" stroke="#666666" points="274,-19 130,-19 130,0 274,0 274,-19"/>
<text text-anchor="middle" x="202" y="-7" font-family="Helvetica,sans-Serif" font-size="10.00">rcvsdk/ios/rcvsdk/RcvSDK.h</text>
</a>
</g>
</g>
<!-- Node1&#45;&gt;Node4 -->
<g id="edge5" class="edge">
<title>Node1&#45;&gt;Node4</title>
<path fill="none" stroke="#63b8ff" d="M196.9,-157.97C206.26,-150.46 215.95,-140.56 221,-129 237.76,-90.62 216.49,-39.46 206.57,-19.24"/>
<polygon fill="#63b8ff" stroke="#63b8ff" points="195.02,-155 189.05,-163.75 199.17,-160.64 195.02,-155"/>
</g>
<!-- Node3 -->
<g id="node3" class="node">
<title>Node3</title>
<g id="a_node3"><a xlink:href="_rcv_engine_8h.html" target="_top" xlink:title=" ">
<polygon fill="white" stroke="#666666" points="173.5,-74 20.5,-74 20.5,-55 173.5,-55 173.5,-74"/>
<text text-anchor="middle" x="97" y="-62" font-family="Helvetica,sans-Serif" font-size="10.00">rcvsdk/ios/rcvsdk/RcvEngine.h</text>
</a>
</g>
</g>
<!-- Node2&#45;&gt;Node3 -->
<g id="edge2" class="edge">
<title>Node2&#45;&gt;Node3</title>
<path fill="none" stroke="#63b8ff" d="M102.63,-98.64C101.21,-90.31 99.64,-81.05 98.52,-74.44"/>
<polygon fill="#63b8ff" stroke="#63b8ff" points="99.14,-98.98 104.26,-108.26 106.04,-97.81 99.14,-98.98"/>
</g>
<!-- Node2&#45;&gt;Node4 -->
<g id="edge4" class="edge">
<title>Node2&#45;&gt;Node4</title>
<path fill="none" stroke="#63b8ff" d="M141.01,-104.78C155.48,-97.55 171.34,-87.37 182,-74 195.11,-57.55 199.69,-32.4 201.24,-19.23"/>
<polygon fill="#63b8ff" stroke="#63b8ff" points="139.78,-101.5 132.18,-108.89 142.73,-107.84 139.78,-101.5"/>
</g>
<!-- Node3&#45;&gt;Node4 -->
<g id="edge3" class="edge">
<title>Node3&#45;&gt;Node4</title>
<path fill="none" stroke="#63b8ff" d="M124.93,-49.4C143.84,-39.86 168.22,-27.55 184.45,-19.36"/>
<polygon fill="#63b8ff" stroke="#63b8ff" points="123.51,-46.2 116.16,-53.83 126.67,-52.45 123.51,-46.2"/>
</g>
</g>
</svg>
