<?xml version="1.0" encoding="UTF-8" standalone="no"?>
<!DOCTYPE svg PUBLIC "-//W3C//DTD SVG 1.1//EN"
 "http://www.w3.org/Graphics/SVG/1.1/DTD/svg11.dtd">
<!-- Generated by graphviz version 6.0.1 (20220911.1526)
 -->
<!-- Title: rcvsdk/ios/rcvsdk/RcvBaseVideoView.h Pages: 1 -->
<svg width="902pt" height="137pt"
 viewBox="0.00 0.00 902.00 137.00" xmlns="http://www.w3.org/2000/svg" xmlns:xlink="http://www.w3.org/1999/xlink">
<g id="graph0" class="graph" transform="scale(1 1) rotate(0) translate(4 133)">
<title>rcvsdk/ios/rcvsdk/RcvBaseVideoView.h</title>
<!-- Node1 -->
<g id="node1" class="node">
<title>Node1</title>
<g id="a_node1"><a xlink:title=" ">
<polygon fill="#999999" stroke="#666666" points="427,-129 236,-129 236,-110 427,-110 427,-129"/>
<text text-anchor="middle" x="331.5" y="-117" font-family="Helvetica,sans-Serif" font-size="10.00">rcvsdk/ios/rcvsdk/RcvBaseVideoView.h</text>
</a>
</g>
</g>
<!-- Node2 -->
<g id="node2" class="node">
<title>Node2</title>
<g id="a_node2"><a xlink:href="_r_c_video_canvas_8h.html" target="_top" xlink:title=" ">
<polygon fill="white" stroke="#666666" points="179,-74 0,-74 0,-55 179,-55 179,-74"/>
<text text-anchor="middle" x="89.5" y="-62" font-family="Helvetica,sans-Serif" font-size="10.00">rcvsdk/ios/rcvsdk/RCVideoCanvas.h</text>
</a>
</g>
</g>
<!-- Node1&#45;&gt;Node2 -->
<g id="edge1" class="edge">
<title>Node1&#45;&gt;Node2</title>
<path fill="none" stroke="#63b8ff" d="M282.71,-107.82C237.36,-97.88 170.67,-83.28 128.69,-74.08"/>
<polygon fill="#63b8ff" stroke="#63b8ff" points="282.1,-111.26 292.62,-109.98 283.6,-104.43 282.1,-111.26"/>
</g>
<!-- Node3 -->
<g id="node3" class="node">
<title>Node3</title>
<g id="a_node3"><a xlink:href="_rcv_s_d_k_8h.html" target="_top" xlink:title=" ">
<polygon fill="white" stroke="#666666" points="403.5,-19 259.5,-19 259.5,0 403.5,0 403.5,-19"/>
<text text-anchor="middle" x="331.5" y="-7" font-family="Helvetica,sans-Serif" font-size="10.00">rcvsdk/ios/rcvsdk/RcvSDK.h</text>
</a>
</g>
</g>
<!-- Node1&#45;&gt;Node3 -->
<g id="edge7" class="edge">
<title>Node1&#45;&gt;Node3</title>
<path fill="none" stroke="#63b8ff" d="M272.12,-106.69C254.45,-100.11 237.02,-89.88 226.5,-74 207.97,-46.03 251.99,-28.44 288.6,-19.04"/>
<polygon fill="#63b8ff" stroke="#63b8ff" points="271.33,-110.11 281.92,-109.98 273.56,-103.48 271.33,-110.11"/>
</g>
<!-- Node4 -->
<g id="node4" class="node">
<title>Node4</title>
<g id="a_node4"><a xlink:href="_rcv_metal_video_view_8h.html" target="_top" xlink:title=" ">
<polygon fill="white" stroke="#666666" points="427.5,-74 235.5,-74 235.5,-55 427.5,-55 427.5,-74"/>
<text text-anchor="middle" x="331.5" y="-62" font-family="Helvetica,sans-Serif" font-size="10.00">rcvsdk/ios/rcvsdk/RcvMetalVideoView.h</text>
</a>
</g>
</g>
<!-- Node1&#45;&gt;Node4 -->
<g id="edge3" class="edge">
<title>Node1&#45;&gt;Node4</title>
<path fill="none" stroke="#63b8ff" d="M331.5,-99.66C331.5,-90.93 331.5,-80.99 331.5,-74.09"/>
<polygon fill="#63b8ff" stroke="#63b8ff" points="328,-99.75 331.5,-109.75 335,-99.75 328,-99.75"/>
</g>
<!-- Node5 -->
<g id="node5" class="node">
<title>Node5</title>
<g id="a_node5"><a xlink:href="_rcv_open_g_l_video_view_8h.html" target="_top" xlink:title=" ">
<polygon fill="white" stroke="#666666" points="649,-74 446,-74 446,-55 649,-55 649,-74"/>
<text text-anchor="middle" x="547.5" y="-62" font-family="Helvetica,sans-Serif" font-size="10.00">rcvsdk/ios/rcvsdk/RcvOpenGLVideoView.h</text>
</a>
</g>
</g>
<!-- Node1&#45;&gt;Node5 -->
<g id="edge5" class="edge">
<title>Node1&#45;&gt;Node5</title>
<path fill="none" stroke="#63b8ff" d="M376.07,-107.56C416.52,-97.64 475.37,-83.2 512.52,-74.08"/>
<polygon fill="#63b8ff" stroke="#63b8ff" points="375.08,-104.2 366.2,-109.98 376.75,-111 375.08,-104.2"/>
</g>
<!-- Node6 -->
<g id="node6" class="node">
<title>Node6</title>
<g id="a_node6"><a xlink:href="_rcv_sample_buffer_video_view_8h.html" target="_top" xlink:title=" ">
<polygon fill="white" stroke="#666666" points="894,-74 667,-74 667,-55 894,-55 894,-74"/>
<text text-anchor="middle" x="780.5" y="-62" font-family="Helvetica,sans-Serif" font-size="10.00">rcvsdk/ios/rcvsdk/RcvSampleBufferVideoView.h</text>
</a>
</g>
</g>
<!-- Node1&#45;&gt;Node6 -->
<g id="edge8" class="edge">
<title>Node1&#45;&gt;Node6</title>
<path fill="none" stroke="#63b8ff" d="M413.68,-108.8C497.93,-98.85 627.69,-83.54 708.17,-74.04"/>
<polygon fill="#63b8ff" stroke="#63b8ff" points="413.16,-105.34 403.64,-109.98 413.98,-112.29 413.16,-105.34"/>
</g>
<!-- Node2&#45;&gt;Node3 -->
<g id="edge2" class="edge">
<title>Node2&#45;&gt;Node3</title>
<path fill="none" stroke="#63b8ff" d="M138.29,-52.82C183.64,-42.88 250.33,-28.28 292.31,-19.08"/>
<polygon fill="#63b8ff" stroke="#63b8ff" points="137.4,-49.43 128.38,-54.98 138.9,-56.26 137.4,-49.43"/>
</g>
<!-- Node4&#45;&gt;Node3 -->
<g id="edge4" class="edge">
<title>Node4&#45;&gt;Node3</title>
<path fill="none" stroke="#63b8ff" d="M331.5,-44.66C331.5,-35.93 331.5,-25.99 331.5,-19.09"/>
<polygon fill="#63b8ff" stroke="#63b8ff" points="328,-44.75 331.5,-54.75 335,-44.75 328,-44.75"/>
</g>
<!-- Node5&#45;&gt;Node3 -->
<g id="edge6" class="edge">
<title>Node5&#45;&gt;Node3</title>
<path fill="none" stroke="#63b8ff" d="M502.93,-52.56C462.48,-42.64 403.63,-28.2 366.48,-19.08"/>
<polygon fill="#63b8ff" stroke="#63b8ff" points="502.25,-56 512.8,-54.98 503.92,-49.2 502.25,-56"/>
</g>
<!-- Node6&#45;&gt;Node3 -->
<g id="edge9" class="edge">
<title>Node6&#45;&gt;Node3</title>
<path fill="none" stroke="#63b8ff" d="M698.32,-53.8C614.07,-43.85 484.31,-28.54 403.83,-19.04"/>
<polygon fill="#63b8ff" stroke="#63b8ff" points="698.02,-57.29 708.36,-54.98 698.84,-50.34 698.02,-57.29"/>
</g>
</g>
</svg>
