<?xml version="1.0" encoding="UTF-8" standalone="no"?>
<!DOCTYPE svg PUBLIC "-//W3C//DTD SVG 1.1//EN"
 "http://www.w3.org/Graphics/SVG/1.1/DTD/svg11.dtd">
<!-- Generated by graphviz version 7.0.0 (20221023.0053)
 -->
<!-- Title: rcvsdk/ios/rcvsdk/RcvClosedCaptionsState.h Pages: 1 -->
<svg width="514pt" height="137pt"
 viewBox="0.00 0.00 514.00 137.00" xmlns="http://www.w3.org/2000/svg" xmlns:xlink="http://www.w3.org/1999/xlink">
<g id="graph0" class="graph" transform="scale(1 1) rotate(0) translate(4 133)">
<title>rcvsdk/ios/rcvsdk/RcvClosedCaptionsState.h</title>
<!-- Node1 -->
<g id="node1" class="node">
<title>Node1</title>
<g id="a_node1"><a xlink:title=" ">
<polygon fill="#999999" stroke="#666666" points="370,-129 154,-129 154,-110 370,-110 370,-129"/>
<text text-anchor="middle" x="262" y="-117" font-family="Helvetica,sans-Serif" font-size="10.00">rcvsdk/ios/rcvsdk/RcvClosedCaptionsState.h</text>
</a>
</g>
</g>
<!-- Node2 -->
<g id="node2" class="node">
<title>Node2</title>
<g id="a_node2"><a xlink:href="_rcv_closed_captions_controller_8h.html" target="_top" xlink:title=" ">
<polygon fill="white" stroke="#666666" points="234,-74 0,-74 0,-55 234,-55 234,-74"/>
<text text-anchor="middle" x="117" y="-62" font-family="Helvetica,sans-Serif" font-size="10.00">rcvsdk/ios/rcvsdk/RcvClosedCaptionsController.h</text>
</a>
</g>
</g>
<!-- Node1&#45;&gt;Node2 -->
<g id="edge1" class="edge">
<title>Node1&#45;&gt;Node2</title>
<path fill="none" stroke="#63b8ff" d="M226.66,-105.58C200.16,-95.9 164.58,-82.89 141.23,-74.36"/>
<polygon fill="#63b8ff" stroke="#63b8ff" points="225.39,-108.84 235.98,-108.99 227.79,-102.27 225.39,-108.84"/>
</g>
<!-- Node3 -->
<g id="node3" class="node">
<title>Node3</title>
<g id="a_node3"><a xlink:href="_rcv_s_d_k_8h.html" target="_top" xlink:title=" ">
<polygon fill="white" stroke="#666666" points="334,-19 190,-19 190,0 334,0 334,-19"/>
<text text-anchor="middle" x="262" y="-7" font-family="Helvetica,sans-Serif" font-size="10.00">rcvsdk/ios/rcvsdk/RcvSDK.h</text>
</a>
</g>
</g>
<!-- Node1&#45;&gt;Node3 -->
<g id="edge5" class="edge">
<title>Node1&#45;&gt;Node3</title>
<path fill="none" stroke="#63b8ff" d="M262,-98.24C262,-74.63 262,-36.65 262,-19.46"/>
<polygon fill="#63b8ff" stroke="#63b8ff" points="258.5,-98.15 262,-108.15 265.5,-98.15 258.5,-98.15"/>
</g>
<!-- Node4 -->
<g id="node4" class="node">
<title>Node4</title>
<g id="a_node4"><a xlink:href="_rcv_meeting_event_handler_8h.html" target="_top" xlink:title=" ">
<polygon fill="white" stroke="#666666" points="506,-74 290,-74 290,-55 506,-55 506,-74"/>
<text text-anchor="middle" x="398" y="-62" font-family="Helvetica,sans-Serif" font-size="10.00">rcvsdk/ios/rcvsdk/RcvMeetingEventHandler.h</text>
</a>
</g>
</g>
<!-- Node1&#45;&gt;Node4 -->
<g id="edge3" class="edge">
<title>Node1&#45;&gt;Node4</title>
<path fill="none" stroke="#63b8ff" d="M295.48,-105.45C320.3,-95.78 353.47,-82.85 375.27,-74.36"/>
<polygon fill="#63b8ff" stroke="#63b8ff" points="294.53,-102.07 286.48,-108.96 297.07,-108.59 294.53,-102.07"/>
</g>
<!-- Node2&#45;&gt;Node3 -->
<g id="edge2" class="edge">
<title>Node2&#45;&gt;Node3</title>
<path fill="none" stroke="#63b8ff" d="M152.34,-50.58C178.84,-40.9 214.42,-27.89 237.77,-19.36"/>
<polygon fill="#63b8ff" stroke="#63b8ff" points="151.21,-47.27 143.02,-53.99 153.61,-53.84 151.21,-47.27"/>
</g>
<!-- Node4&#45;&gt;Node3 -->
<g id="edge4" class="edge">
<title>Node4&#45;&gt;Node3</title>
<path fill="none" stroke="#63b8ff" d="M364.52,-50.45C339.7,-40.78 306.53,-27.85 284.73,-19.36"/>
<polygon fill="#63b8ff" stroke="#63b8ff" points="362.93,-53.59 373.52,-53.96 365.47,-47.07 362.93,-53.59"/>
</g>
</g>
</svg>
