<?xml version="1.0" encoding="UTF-8" standalone="no"?>
<!DOCTYPE svg PUBLIC "-//W3C//DTD SVG 1.1//EN"
 "http://www.w3.org/Graphics/SVG/1.1/DTD/svg11.dtd">
<!-- Generated by graphviz version 6.0.1 (20220911.1526)
 -->
<!-- Title: rcvsdk/ios/rcvsdk/RcvSharingEventHandler.h Pages: 1 -->
<svg width="391pt" height="137pt"
 viewBox="0.00 0.00 390.50 137.00" xmlns="http://www.w3.org/2000/svg" xmlns:xlink="http://www.w3.org/1999/xlink">
<g id="graph0" class="graph" transform="scale(1 1) rotate(0) translate(4 133)">
<title>rcvsdk/ios/rcvsdk/RcvSharingEventHandler.h</title>
<!-- Node1 -->
<g id="node1" class="node">
<title>Node1</title>
<g id="a_node1"><a xlink:title=" ">
<polygon fill="#999999" stroke="#666666" points="286.5,-129 71.5,-129 71.5,-110 286.5,-110 286.5,-129"/>
<text text-anchor="middle" x="179" y="-117" font-family="Helvetica,sans-Serif" font-size="10.00">rcvsdk/ios/rcvsdk/RcvSharingEventHandler.h</text>
</a>
</g>
</g>
<!-- Node2 -->
<g id="node2" class="node">
<title>Node2</title>
<g id="a_node2"><a xlink:href="_rcv_sharing_settings_8h.html" target="_top" xlink:title=" ">
<polygon fill="white" stroke="#666666" points="112,-74 0,-74 0,-55 112,-55 112,-74"/>
<text text-anchor="middle" x="56" y="-62" font-family="Helvetica,sans-Serif" font-size="10.00">RcvSharingSettings.h</text>
</a>
</g>
</g>
<!-- Node1&#45;&gt;Node2 -->
<g id="edge1" class="edge">
<title>Node1&#45;&gt;Node2</title>
<path fill="none" stroke="#63b8ff" d="M159.24,-109.98C139.27,-101.38 108.2,-87.99 85.35,-78.15"/>
<polygon fill="#63b8ff" stroke="#63b8ff" points="86.69,-74.91 76.12,-74.17 83.92,-81.34 86.69,-74.91"/>
</g>
<!-- Node3 -->
<g id="node3" class="node">
<title>Node3</title>
<g id="a_node3"><a xlink:title=" ">
<polygon fill="#e0e0e0" stroke="#999999" points="241,-19 117,-19 117,0 241,0 241,-19"/>
<text text-anchor="middle" x="179" y="-7" font-family="Helvetica,sans-Serif" font-size="10.00">Foundation/Foundation.h</text>
</a>
</g>
</g>
<!-- Node1&#45;&gt;Node3 -->
<g id="edge7" class="edge">
<title>Node1&#45;&gt;Node3</title>
<path fill="none" stroke="#63b8ff" d="M173.11,-109.6C165.79,-97.45 154.74,-74.89 159,-55 160.97,-45.8 165,-36.2 168.93,-28.29"/>
<polygon fill="#63b8ff" stroke="#63b8ff" points="172.09,-29.79 173.68,-19.32 165.91,-26.51 172.09,-29.79"/>
</g>
<!-- Node4 -->
<g id="node4" class="node">
<title>Node4</title>
<g id="a_node4"><a xlink:href="_rcv_sharing_state_8h.html" target="_top" xlink:title=" ">
<polygon fill="white" stroke="#666666" points="267.5,-74 168.5,-74 168.5,-55 267.5,-55 267.5,-74"/>
<text text-anchor="middle" x="218" y="-62" font-family="Helvetica,sans-Serif" font-size="10.00">RcvSharingState.h</text>
</a>
</g>
</g>
<!-- Node1&#45;&gt;Node4 -->
<g id="edge3" class="edge">
<title>Node1&#45;&gt;Node4</title>
<path fill="none" stroke="#63b8ff" d="M185.44,-109.75C190.89,-102.34 198.86,-91.5 205.56,-82.41"/>
<polygon fill="#63b8ff" stroke="#63b8ff" points="208.57,-84.22 211.68,-74.09 202.93,-80.07 208.57,-84.22"/>
</g>
<!-- Node5 -->
<g id="node5" class="node">
<title>Node5</title>
<g id="a_node5"><a xlink:href="_rcv_sharing_type_8h.html" target="_top" xlink:title=" ">
<polygon fill="white" stroke="#666666" points="382.5,-74 285.5,-74 285.5,-55 382.5,-55 382.5,-74"/>
<text text-anchor="middle" x="334" y="-62" font-family="Helvetica,sans-Serif" font-size="10.00">RcvSharingType.h</text>
</a>
</g>
</g>
<!-- Node1&#45;&gt;Node5 -->
<g id="edge5" class="edge">
<title>Node1&#45;&gt;Node5</title>
<path fill="none" stroke="#63b8ff" d="M203.9,-109.98C229.7,-101.16 270.22,-87.31 299.18,-77.41"/>
<polygon fill="#63b8ff" stroke="#63b8ff" points="300.57,-80.63 308.9,-74.08 298.31,-74.01 300.57,-80.63"/>
</g>
<!-- Node2&#45;&gt;Node3 -->
<g id="edge2" class="edge">
<title>Node2&#45;&gt;Node3</title>
<path fill="none" stroke="#63b8ff" d="M75.76,-54.98C95.73,-46.38 126.8,-32.99 149.65,-23.15"/>
<polygon fill="#63b8ff" stroke="#63b8ff" points="151.08,-26.34 158.88,-19.17 148.31,-19.91 151.08,-26.34"/>
</g>
<!-- Node4&#45;&gt;Node3 -->
<g id="edge4" class="edge">
<title>Node4&#45;&gt;Node3</title>
<path fill="none" stroke="#63b8ff" d="M211.56,-54.75C206.11,-47.34 198.14,-36.5 191.44,-27.41"/>
<polygon fill="#63b8ff" stroke="#63b8ff" points="194.07,-25.07 185.32,-19.09 188.43,-29.22 194.07,-25.07"/>
</g>
<!-- Node5&#45;&gt;Node3 -->
<g id="edge6" class="edge">
<title>Node5&#45;&gt;Node3</title>
<path fill="none" stroke="#63b8ff" d="M309.1,-54.98C283.3,-46.16 242.78,-32.31 213.82,-22.41"/>
<polygon fill="#63b8ff" stroke="#63b8ff" points="214.69,-19.01 204.1,-19.08 212.43,-25.63 214.69,-19.01"/>
</g>
</g>
</svg>
