<?xml version="1.0" encoding="UTF-8" standalone="no"?>
<!DOCTYPE svg PUBLIC "-//W3C//DTD SVG 1.1//EN"
 "http://www.w3.org/Graphics/SVG/1.1/DTD/svg11.dtd">
<!-- Generated by graphviz version 7.0.0 (20221023.0053)
 -->
<!-- Title: rcvsdk/ios/rcvsdk/RcvAudioEventHandler.h Pages: 1 -->
<svg width="456pt" height="137pt"
 viewBox="0.00 0.00 455.50 137.00" xmlns="http://www.w3.org/2000/svg" xmlns:xlink="http://www.w3.org/1999/xlink">
<g id="graph0" class="graph" transform="scale(1 1) rotate(0) translate(4 133)">
<title>rcvsdk/ios/rcvsdk/RcvAudioEventHandler.h</title>
<!-- Node1 -->
<g id="node1" class="node">
<title>Node1</title>
<g id="a_node1"><a xlink:title=" ">
<polygon fill="#999999" stroke="#666666" points="288.5,-129 82.5,-129 82.5,-110 288.5,-110 288.5,-129"/>
<text text-anchor="middle" x="185.5" y="-117" font-family="Helvetica,sans-Serif" font-size="10.00">rcvsdk/ios/rcvsdk/RcvAudioEventHandler.h</text>
</a>
</g>
</g>
<!-- Node2 -->
<g id="node2" class="node">
<title>Node2</title>
<g id="a_node2"><a xlink:href="_rcv_audio_route_type_8h.html" target="_top" xlink:title=" ">
<polygon fill="white" stroke="#666666" points="115,-74 0,-74 0,-55 115,-55 115,-74"/>
<text text-anchor="middle" x="57.5" y="-62" font-family="Helvetica,sans-Serif" font-size="10.00">RcvAudioRouteType.h</text>
</a>
</g>
</g>
<!-- Node1&#45;&gt;Node2 -->
<g id="edge1" class="edge">
<title>Node1&#45;&gt;Node2</title>
<path fill="none" stroke="#63b8ff" d="M163.79,-109.51C143.34,-101.04 112.48,-88.27 89.27,-78.66"/>
<polygon fill="#63b8ff" stroke="#63b8ff" points="90.87,-75.53 80.29,-74.94 88.19,-82 90.87,-75.53"/>
</g>
<!-- Node3 -->
<g id="node3" class="node">
<title>Node3</title>
<g id="a_node3"><a xlink:title=" ">
<polygon fill="#e0e0e0" stroke="#999999" points="247.5,-19 123.5,-19 123.5,0 247.5,0 247.5,-19"/>
<text text-anchor="middle" x="185.5" y="-7" font-family="Helvetica,sans-Serif" font-size="10.00">Foundation/Foundation.h</text>
</a>
</g>
</g>
<!-- Node1&#45;&gt;Node3 -->
<g id="edge7" class="edge">
<title>Node1&#45;&gt;Node3</title>
<path fill="none" stroke="#63b8ff" d="M179.4,-109.8C173.75,-101.17 165.75,-87.35 162.5,-74 158.73,-58.49 165.47,-41.52 172.61,-29.03"/>
<polygon fill="#63b8ff" stroke="#63b8ff" points="175.54,-30.95 177.93,-20.63 169.62,-27.21 175.54,-30.95"/>
</g>
<!-- Node4 -->
<g id="node4" class="node">
<title>Node4</title>
<g id="a_node4"><a xlink:href="_rcv_local_audio_error_8h.html" target="_top" xlink:title=" ">
<polygon fill="white" stroke="#666666" points="283,-74 172,-74 172,-55 283,-55 283,-74"/>
<text text-anchor="middle" x="227.5" y="-62" font-family="Helvetica,sans-Serif" font-size="10.00">RcvLocalAudioError.h</text>
</a>
</g>
</g>
<!-- Node1&#45;&gt;Node4 -->
<g id="edge3" class="edge">
<title>Node1&#45;&gt;Node4</title>
<path fill="none" stroke="#63b8ff" d="M192.44,-109.75C198.12,-102.58 206.34,-92.2 213.39,-83.3"/>
<polygon fill="#63b8ff" stroke="#63b8ff" points="216.01,-85.64 219.47,-75.63 210.52,-81.29 216.01,-85.64"/>
</g>
<!-- Node5 -->
<g id="node5" class="node">
<title>Node5</title>
<g id="a_node5"><a xlink:href="_rcv_local_audio_stream_state_8h.html" target="_top" xlink:title=" ">
<polygon fill="white" stroke="#666666" points="447.5,-74 301.5,-74 301.5,-55 447.5,-55 447.5,-74"/>
<text text-anchor="middle" x="374.5" y="-62" font-family="Helvetica,sans-Serif" font-size="10.00">RcvLocalAudioStreamState.h</text>
</a>
</g>
</g>
<!-- Node1&#45;&gt;Node5 -->
<g id="edge5" class="edge">
<title>Node1&#45;&gt;Node5</title>
<path fill="none" stroke="#63b8ff" d="M217.56,-109.51C249.02,-100.69 297.18,-87.18 331.85,-77.46"/>
<polygon fill="#63b8ff" stroke="#63b8ff" points="332.46,-80.93 341.14,-74.85 330.57,-74.19 332.46,-80.93"/>
</g>
<!-- Node2&#45;&gt;Node3 -->
<g id="edge2" class="edge">
<title>Node2&#45;&gt;Node3</title>
<path fill="none" stroke="#63b8ff" d="M79.21,-54.51C99.66,-46.04 130.52,-33.27 153.73,-23.66"/>
<polygon fill="#63b8ff" stroke="#63b8ff" points="154.81,-27 162.71,-19.94 152.13,-20.53 154.81,-27"/>
</g>
<!-- Node4&#45;&gt;Node3 -->
<g id="edge4" class="edge">
<title>Node4&#45;&gt;Node3</title>
<path fill="none" stroke="#63b8ff" d="M220.56,-54.75C214.88,-47.58 206.66,-37.2 199.61,-28.3"/>
<polygon fill="#63b8ff" stroke="#63b8ff" points="202.48,-26.29 193.53,-20.63 196.99,-30.64 202.48,-26.29"/>
</g>
<!-- Node5&#45;&gt;Node3 -->
<g id="edge6" class="edge">
<title>Node5&#45;&gt;Node3</title>
<path fill="none" stroke="#63b8ff" d="M342.44,-54.51C310.98,-45.69 262.82,-32.18 228.15,-22.46"/>
<polygon fill="#63b8ff" stroke="#63b8ff" points="229.43,-19.19 218.86,-19.85 227.54,-25.93 229.43,-19.19"/>
</g>
</g>
</svg>
