<?xml version="1.0" encoding="UTF-8" standalone="no"?>
<!DOCTYPE svg PUBLIC "-//W3C//DTD SVG 1.1//EN"
 "http://www.w3.org/Graphics/SVG/1.1/DTD/svg11.dtd">
<!-- Generated by graphviz version 6.0.1 (20220911.1526)
 -->
<!-- Title: rcvsdk/ios/rcvsdk/RcvIParticipant.h Pages: 1 -->
<svg width="549pt" height="137pt"
 viewBox="0.00 0.00 549.00 137.00" xmlns="http://www.w3.org/2000/svg" xmlns:xlink="http://www.w3.org/1999/xlink">
<g id="graph0" class="graph" transform="scale(1 1) rotate(0) translate(4 133)">
<title>rcvsdk/ios/rcvsdk/RcvIParticipant.h</title>
<!-- Node1 -->
<g id="node1" class="node">
<title>Node1</title>
<g id="a_node1"><a xlink:title=" ">
<polygon fill="#999999" stroke="#666666" points="299,-129 126,-129 126,-110 299,-110 299,-129"/>
<text text-anchor="middle" x="212.5" y="-117" font-family="Helvetica,sans-Serif" font-size="10.00">rcvsdk/ios/rcvsdk/RcvIParticipant.h</text>
</a>
</g>
</g>
<!-- Node2 -->
<g id="node2" class="node">
<title>Node2</title>
<g id="a_node2"><a xlink:href="_rcv_e_nqi_status_8h.html" target="_top" xlink:title=" ">
<polygon fill="white" stroke="#666666" points="93,-74 0,-74 0,-55 93,-55 93,-74"/>
<text text-anchor="middle" x="46.5" y="-62" font-family="Helvetica,sans-Serif" font-size="10.00">RcvENqiStatus.h</text>
</a>
</g>
</g>
<!-- Node1&#45;&gt;Node2 -->
<g id="edge1" class="edge">
<title>Node1&#45;&gt;Node2</title>
<path fill="none" stroke="#63b8ff" d="M185.83,-109.98C157.96,-101.09 114.05,-87.07 82.98,-77.15"/>
<polygon fill="#63b8ff" stroke="#63b8ff" points="83.97,-73.79 73.38,-74.08 81.84,-80.46 83.97,-73.79"/>
</g>
<!-- Node3 -->
<g id="node3" class="node">
<title>Node3</title>
<g id="a_node3"><a xlink:title=" ">
<polygon fill="#e0e0e0" stroke="#999999" points="274.5,-19 150.5,-19 150.5,0 274.5,0 274.5,-19"/>
<text text-anchor="middle" x="212.5" y="-7" font-family="Helvetica,sans-Serif" font-size="10.00">Foundation/Foundation.h</text>
</a>
</g>
</g>
<!-- Node1&#45;&gt;Node3 -->
<g id="edge9" class="edge">
<title>Node1&#45;&gt;Node3</title>
<path fill="none" stroke="#63b8ff" d="M186.65,-109.99C170.23,-103.09 150.3,-91.58 140.5,-74 128.46,-52.41 154.54,-34.52 178.61,-23.29"/>
<polygon fill="#63b8ff" stroke="#63b8ff" points="180.24,-26.4 187.99,-19.18 177.43,-19.99 180.24,-26.4"/>
</g>
<!-- Node4 -->
<g id="node4" class="node">
<title>Node4</title>
<g id="a_node4"><a xlink:href="_rcv_e_participant_status_8h.html" target="_top" xlink:title=" ">
<polygon fill="white" stroke="#666666" points="275,-74 150,-74 150,-55 275,-55 275,-74"/>
<text text-anchor="middle" x="212.5" y="-62" font-family="Helvetica,sans-Serif" font-size="10.00">RcvEParticipantStatus.h</text>
</a>
</g>
</g>
<!-- Node1&#45;&gt;Node4 -->
<g id="edge3" class="edge">
<title>Node1&#45;&gt;Node4</title>
<path fill="none" stroke="#63b8ff" d="M212.5,-109.75C212.5,-102.8 212.5,-92.85 212.5,-84.13"/>
<polygon fill="#63b8ff" stroke="#63b8ff" points="216,-84.09 212.5,-74.09 209,-84.09 216,-84.09"/>
</g>
<!-- Node5 -->
<g id="node5" class="node">
<title>Node5</title>
<g id="a_node5"><a xlink:href="_rcv_e_reaction_action_8h.html" target="_top" xlink:title=" ">
<polygon fill="white" stroke="#666666" points="409.5,-74 293.5,-74 293.5,-55 409.5,-55 409.5,-74"/>
<text text-anchor="middle" x="351.5" y="-62" font-family="Helvetica,sans-Serif" font-size="10.00">RcvEReactionAction.h</text>
</a>
</g>
</g>
<!-- Node1&#45;&gt;Node5 -->
<g id="edge5" class="edge">
<title>Node1&#45;&gt;Node5</title>
<path fill="none" stroke="#63b8ff" d="M234.83,-109.98C257.7,-101.27 293.46,-87.63 319.36,-77.75"/>
<polygon fill="#63b8ff" stroke="#63b8ff" points="320.66,-81 328.76,-74.17 318.17,-74.46 320.66,-81"/>
</g>
<!-- Node6 -->
<g id="node6" class="node">
<title>Node6</title>
<g id="a_node6"><a xlink:href="_rcv_e_stream_activity_8h.html" target="_top" xlink:title=" ">
<polygon fill="white" stroke="#666666" points="541,-74 428,-74 428,-55 541,-55 541,-74"/>
<text text-anchor="middle" x="484.5" y="-62" font-family="Helvetica,sans-Serif" font-size="10.00">RcvEStreamActivity.h</text>
</a>
</g>
</g>
<!-- Node1&#45;&gt;Node6 -->
<g id="edge7" class="edge">
<title>Node1&#45;&gt;Node6</title>
<path fill="none" stroke="#63b8ff" d="M256.2,-109.98C303.65,-100.74 379.47,-85.97 430.58,-76.01"/>
<polygon fill="#63b8ff" stroke="#63b8ff" points="431.31,-79.43 440.46,-74.08 429.97,-72.56 431.31,-79.43"/>
</g>
<!-- Node2&#45;&gt;Node3 -->
<g id="edge2" class="edge">
<title>Node2&#45;&gt;Node3</title>
<path fill="none" stroke="#63b8ff" d="M73.17,-54.98C101.04,-46.09 144.95,-32.07 176.02,-22.15"/>
<polygon fill="#63b8ff" stroke="#63b8ff" points="177.16,-25.46 185.62,-19.08 175.03,-18.79 177.16,-25.46"/>
</g>
<!-- Node4&#45;&gt;Node3 -->
<g id="edge4" class="edge">
<title>Node4&#45;&gt;Node3</title>
<path fill="none" stroke="#63b8ff" d="M212.5,-54.75C212.5,-47.8 212.5,-37.85 212.5,-29.13"/>
<polygon fill="#63b8ff" stroke="#63b8ff" points="216,-29.09 212.5,-19.09 209,-29.09 216,-29.09"/>
</g>
<!-- Node5&#45;&gt;Node3 -->
<g id="edge6" class="edge">
<title>Node5&#45;&gt;Node3</title>
<path fill="none" stroke="#63b8ff" d="M329.17,-54.98C306.3,-46.27 270.54,-32.63 244.64,-22.75"/>
<polygon fill="#63b8ff" stroke="#63b8ff" points="245.83,-19.46 235.24,-19.17 243.34,-26 245.83,-19.46"/>
</g>
<!-- Node6&#45;&gt;Node3 -->
<g id="edge8" class="edge">
<title>Node6&#45;&gt;Node3</title>
<path fill="none" stroke="#63b8ff" d="M440.8,-54.98C393.35,-45.74 317.53,-30.97 266.42,-21.01"/>
<polygon fill="#63b8ff" stroke="#63b8ff" points="267.03,-17.56 256.54,-19.08 265.69,-24.43 267.03,-17.56"/>
</g>
</g>
</svg>
