<?xml version="1.0" encoding="UTF-8" standalone="no"?>
<!DOCTYPE svg PUBLIC "-//W3C//DTD SVG 1.1//EN"
 "http://www.w3.org/Graphics/SVG/1.1/DTD/svg11.dtd">
<!-- Generated by graphviz version 7.0.0 (20221023.0053)
 -->
<!-- Title: rcvsdk/ios/rcvsdk/RcvEReactionAction.h Pages: 1 -->
<svg width="244pt" height="192pt"
 viewBox="0.00 0.00 244.00 192.00" xmlns="http://www.w3.org/2000/svg" xmlns:xlink="http://www.w3.org/1999/xlink">
<g id="graph0" class="graph" transform="scale(1 1) rotate(0) translate(4 188)">
<title>rcvsdk/ios/rcvsdk/RcvEReactionAction.h</title>
<!-- Node1 -->
<g id="node1" class="node">
<title>Node1</title>
<g id="a_node1"><a xlink:title=" ">
<polygon fill="#999999" stroke="#666666" points="236,-184 39,-184 39,-165 236,-165 236,-184"/>
<text text-anchor="middle" x="137.5" y="-172" font-family="Helvetica,sans-Serif" font-size="10.00">rcvsdk/ios/rcvsdk/RcvEReactionAction.h</text>
</a>
</g>
</g>
<!-- Node2 -->
<g id="node2" class="node">
<title>Node2</title>
<g id="a_node2"><a xlink:href="_rcv_i_participant_8h.html" target="_top" xlink:title=" ">
<polygon fill="white" stroke="#666666" points="224,-129 51,-129 51,-110 224,-110 224,-129"/>
<text text-anchor="middle" x="137.5" y="-117" font-family="Helvetica,sans-Serif" font-size="10.00">rcvsdk/ios/rcvsdk/RcvIParticipant.h</text>
</a>
</g>
</g>
<!-- Node1&#45;&gt;Node2 -->
<g id="edge1" class="edge">
<title>Node1&#45;&gt;Node2</title>
<path fill="none" stroke="#63b8ff" d="M137.5,-153.35C137.5,-145.1 137.5,-135.97 137.5,-129.44"/>
<polygon fill="#63b8ff" stroke="#63b8ff" points="134,-153.23 137.5,-163.23 141,-153.23 134,-153.23"/>
</g>
<!-- Node3 -->
<g id="node3" class="node">
<title>Node3</title>
<g id="a_node3"><a xlink:href="_r_c_video_view_8h.html" target="_top" xlink:title=" ">
<polygon fill="white" stroke="#666666" points="165,-74 0,-74 0,-55 165,-55 165,-74"/>
<text text-anchor="middle" x="82.5" y="-62" font-family="Helvetica,sans-Serif" font-size="10.00">rcvsdk/ios/rcvsdk/RCVideoView.h</text>
</a>
</g>
</g>
<!-- Node2&#45;&gt;Node3 -->
<g id="edge2" class="edge">
<title>Node2&#45;&gt;Node3</title>
<path fill="none" stroke="#63b8ff" d="M120.15,-101.78C110.75,-92.72 99.52,-81.9 91.78,-74.44"/>
<polygon fill="#63b8ff" stroke="#63b8ff" points="117.7,-104.28 127.33,-108.7 122.56,-99.24 117.7,-104.28"/>
</g>
<!-- Node4 -->
<g id="node4" class="node">
<title>Node4</title>
<g id="a_node4"><a xlink:href="_rcv_s_d_k_8h.html" target="_top" xlink:title=" ">
<polygon fill="white" stroke="#666666" points="209.5,-19 65.5,-19 65.5,0 209.5,0 209.5,-19"/>
<text text-anchor="middle" x="137.5" y="-7" font-family="Helvetica,sans-Serif" font-size="10.00">rcvsdk/ios/rcvsdk/RcvSDK.h</text>
</a>
</g>
</g>
<!-- Node2&#45;&gt;Node4 -->
<g id="edge4" class="edge">
<title>Node2&#45;&gt;Node4</title>
<path fill="none" stroke="#63b8ff" d="M156.36,-101.57C163.48,-93.94 170.77,-84.32 174.5,-74 182.05,-53.12 162.24,-31.29 148.78,-19.44"/>
<polygon fill="#63b8ff" stroke="#63b8ff" points="154.02,-98.96 149.36,-108.48 158.94,-103.94 154.02,-98.96"/>
</g>
<!-- Node3&#45;&gt;Node4 -->
<g id="edge3" class="edge">
<title>Node3&#45;&gt;Node4</title>
<path fill="none" stroke="#63b8ff" d="M99.85,-46.78C109.25,-37.72 120.48,-26.9 128.22,-19.44"/>
<polygon fill="#63b8ff" stroke="#63b8ff" points="97.44,-44.24 92.67,-53.7 102.3,-49.28 97.44,-44.24"/>
</g>
</g>
</svg>
