<?xml version="1.0" encoding="UTF-8" standalone="no"?>
<!DOCTYPE svg PUBLIC "-//W3C//DTD SVG 1.1//EN"
 "http://www.w3.org/Graphics/SVG/1.1/DTD/svg11.dtd">
<!-- Generated by graphviz version 7.0.0 (20221023.0053)
 -->
<!-- Title: rcvsdk/ios/rcvsdk/RcvBaseVideoView.h Pages: 1 -->
<svg width="902pt" height="137pt"
 viewBox="0.00 0.00 902.00 137.00" xmlns="http://www.w3.org/2000/svg" xmlns:xlink="http://www.w3.org/1999/xlink">
<g id="graph0" class="graph" transform="scale(1 1) rotate(0) translate(4 133)">
<title>rcvsdk/ios/rcvsdk/RcvBaseVideoView.h</title>
<!-- Node1 -->
<g id="node1" class="node">
<title>Node1</title>
<g id="a_node1"><a xlink:title=" ">
<polygon fill="#999999" stroke="#666666" points="427,-129 236,-129 236,-110 427,-110 427,-129"/>
<text text-anchor="middle" x="331.5" y="-117" font-family="Helvetica,sans-Serif" font-size="10.00">rcvsdk/ios/rcvsdk/RcvBaseVideoView.h</text>
</a>
</g>
</g>
<!-- Node2 -->
<g id="node2" class="node">
<title>Node2</title>
<g id="a_node2"><a xlink:href="_r_c_video_canvas_8h.html" target="_top" xlink:title=" ">
<polygon fill="white" stroke="#666666" points="179,-74 0,-74 0,-55 179,-55 179,-74"/>
<text text-anchor="middle" x="89.5" y="-62" font-family="Helvetica,sans-Serif" font-size="10.00">rcvsdk/ios/rcvsdk/RCVideoCanvas.h</text>
</a>
</g>
</g>
<!-- Node1&#45;&gt;Node2 -->
<g id="edge1" class="edge">
<title>Node1&#45;&gt;Node2</title>
<path fill="none" stroke="#63b8ff" d="M279.25,-107.06C234.63,-97.28 171.34,-83.42 130.35,-74.45"/>
<polygon fill="#63b8ff" stroke="#63b8ff" points="278.45,-110.46 288.97,-109.19 279.95,-103.63 278.45,-110.46"/>
</g>
<!-- Node3 -->
<g id="node3" class="node">
<title>Node3</title>
<g id="a_node3"><a xlink:href="_rcv_s_d_k_8h.html" target="_top" xlink:title=" ">
<polygon fill="white" stroke="#666666" points="403.5,-19 259.5,-19 259.5,0 403.5,0 403.5,-19"/>
<text text-anchor="middle" x="331.5" y="-7" font-family="Helvetica,sans-Serif" font-size="10.00">rcvsdk/ios/rcvsdk/RcvSDK.h</text>
</a>
</g>
</g>
<!-- Node1&#45;&gt;Node3 -->
<g id="edge7" class="edge">
<title>Node1&#45;&gt;Node3</title>
<path fill="none" stroke="#63b8ff" d="M270,-105.88C253.07,-99.28 236.59,-89.24 226.5,-74 208.27,-46.47 250.61,-29 286.85,-19.5"/>
<polygon fill="#63b8ff" stroke="#63b8ff" points="268.53,-109.07 279.13,-109.06 270.84,-102.46 268.53,-109.07"/>
</g>
<!-- Node4 -->
<g id="node4" class="node">
<title>Node4</title>
<g id="a_node4"><a xlink:href="_rcv_metal_video_view_8h.html" target="_top" xlink:title=" ">
<polygon fill="white" stroke="#666666" points="427.5,-74 235.5,-74 235.5,-55 427.5,-55 427.5,-74"/>
<text text-anchor="middle" x="331.5" y="-62" font-family="Helvetica,sans-Serif" font-size="10.00">rcvsdk/ios/rcvsdk/RcvMetalVideoView.h</text>
</a>
</g>
</g>
<!-- Node1&#45;&gt;Node4 -->
<g id="edge3" class="edge">
<title>Node1&#45;&gt;Node4</title>
<path fill="none" stroke="#63b8ff" d="M331.5,-98.35C331.5,-90.1 331.5,-80.97 331.5,-74.44"/>
<polygon fill="#63b8ff" stroke="#63b8ff" points="328,-98.23 331.5,-108.23 335,-98.23 328,-98.23"/>
</g>
<!-- Node5 -->
<g id="node5" class="node">
<title>Node5</title>
<g id="a_node5"><a xlink:href="_rcv_open_g_l_video_view_8h.html" target="_top" xlink:title=" ">
<polygon fill="white" stroke="#666666" points="649,-74 446,-74 446,-55 649,-55 649,-74"/>
<text text-anchor="middle" x="547.5" y="-62" font-family="Helvetica,sans-Serif" font-size="10.00">rcvsdk/ios/rcvsdk/RcvOpenGLVideoView.h</text>
</a>
</g>
</g>
<!-- Node1&#45;&gt;Node5 -->
<g id="edge5" class="edge">
<title>Node1&#45;&gt;Node5</title>
<path fill="none" stroke="#63b8ff" d="M379.16,-106.81C418.92,-97.05 474.77,-83.35 511.04,-74.45"/>
<polygon fill="#63b8ff" stroke="#63b8ff" points="378.49,-103.37 369.61,-109.15 380.16,-110.16 378.49,-103.37"/>
</g>
<!-- Node6 -->
<g id="node6" class="node">
<title>Node6</title>
<g id="a_node6"><a xlink:href="_rcv_sample_buffer_video_view_8h.html" target="_top" xlink:title=" ">
<polygon fill="white" stroke="#666666" points="894,-74 667,-74 667,-55 894,-55 894,-74"/>
<text text-anchor="middle" x="780.5" y="-62" font-family="Helvetica,sans-Serif" font-size="10.00">rcvsdk/ios/rcvsdk/RcvSampleBufferVideoView.h</text>
</a>
</g>
</g>
<!-- Node1&#45;&gt;Node6 -->
<g id="edge8" class="edge">
<title>Node1&#45;&gt;Node6</title>
<path fill="none" stroke="#63b8ff" d="M419.1,-108.16C502.05,-98.37 625.36,-83.81 704.34,-74.49"/>
<polygon fill="#63b8ff" stroke="#63b8ff" points="418.69,-104.68 409.17,-109.33 419.51,-111.64 418.69,-104.68"/>
</g>
<!-- Node2&#45;&gt;Node3 -->
<g id="edge2" class="edge">
<title>Node2&#45;&gt;Node3</title>
<path fill="none" stroke="#63b8ff" d="M141.75,-52.06C186.37,-42.28 249.66,-28.42 290.65,-19.45"/>
<polygon fill="#63b8ff" stroke="#63b8ff" points="141.05,-48.63 132.03,-54.19 142.55,-55.46 141.05,-48.63"/>
</g>
<!-- Node4&#45;&gt;Node3 -->
<g id="edge4" class="edge">
<title>Node4&#45;&gt;Node3</title>
<path fill="none" stroke="#63b8ff" d="M331.5,-43.35C331.5,-35.1 331.5,-25.97 331.5,-19.44"/>
<polygon fill="#63b8ff" stroke="#63b8ff" points="328,-43.23 331.5,-53.23 335,-43.23 328,-43.23"/>
</g>
<!-- Node5&#45;&gt;Node3 -->
<g id="edge6" class="edge">
<title>Node5&#45;&gt;Node3</title>
<path fill="none" stroke="#63b8ff" d="M499.84,-51.81C460.08,-42.05 404.23,-28.35 367.96,-19.45"/>
<polygon fill="#63b8ff" stroke="#63b8ff" points="498.84,-55.16 509.39,-54.15 500.51,-48.37 498.84,-55.16"/>
</g>
<!-- Node6&#45;&gt;Node3 -->
<g id="edge9" class="edge">
<title>Node6&#45;&gt;Node3</title>
<path fill="none" stroke="#63b8ff" d="M692.99,-53.17C608.71,-43.22 482.75,-28.35 403.95,-19.05"/>
<polygon fill="#63b8ff" stroke="#63b8ff" points="692.49,-56.64 702.83,-54.33 693.31,-49.68 692.49,-56.64"/>
</g>
</g>
</svg>
