<?xml version="1.0" encoding="UTF-8" standalone="no"?>
<!DOCTYPE svg PUBLIC "-//W3C//DTD SVG 1.1//EN"
 "http://www.w3.org/Graphics/SVG/1.1/DTD/svg11.dtd">
<!-- Generated by graphviz version 7.0.0 (20221023.0053)
 -->
<!-- Title: rcvsdk/ios/rcvsdk/RcvSharingEventHandler.h Pages: 1 -->
<svg width="391pt" height="137pt"
 viewBox="0.00 0.00 390.50 137.00" xmlns="http://www.w3.org/2000/svg" xmlns:xlink="http://www.w3.org/1999/xlink">
<g id="graph0" class="graph" transform="scale(1 1) rotate(0) translate(4 133)">
<title>rcvsdk/ios/rcvsdk/RcvSharingEventHandler.h</title>
<!-- Node1 -->
<g id="node1" class="node">
<title>Node1</title>
<g id="a_node1"><a xlink:title=" ">
<polygon fill="#999999" stroke="#666666" points="286.5,-129 71.5,-129 71.5,-110 286.5,-110 286.5,-129"/>
<text text-anchor="middle" x="179" y="-117" font-family="Helvetica,sans-Serif" font-size="10.00">rcvsdk/ios/rcvsdk/RcvSharingEventHandler.h</text>
</a>
</g>
</g>
<!-- Node2 -->
<g id="node2" class="node">
<title>Node2</title>
<g id="a_node2"><a xlink:href="_rcv_sharing_settings_8h.html" target="_top" xlink:title=" ">
<polygon fill="white" stroke="#666666" points="112,-74 0,-74 0,-55 112,-55 112,-74"/>
<text text-anchor="middle" x="56" y="-62" font-family="Helvetica,sans-Serif" font-size="10.00">RcvSharingSettings.h</text>
</a>
</g>
</g>
<!-- Node1&#45;&gt;Node2 -->
<g id="edge1" class="edge">
<title>Node1&#45;&gt;Node2</title>
<path fill="none" stroke="#63b8ff" d="M158.13,-109.51C138.58,-101.08 109.1,-88.38 86.83,-78.79"/>
<polygon fill="#63b8ff" stroke="#63b8ff" points="88.52,-75.7 77.95,-74.96 85.75,-82.13 88.52,-75.7"/>
</g>
<!-- Node3 -->
<g id="node3" class="node">
<title>Node3</title>
<g id="a_node3"><a xlink:title=" ">
<polygon fill="#e0e0e0" stroke="#999999" points="241,-19 117,-19 117,0 241,0 241,-19"/>
<text text-anchor="middle" x="179" y="-7" font-family="Helvetica,sans-Serif" font-size="10.00">Foundation/Foundation.h</text>
</a>
</g>
</g>
<!-- Node1&#45;&gt;Node3 -->
<g id="edge7" class="edge">
<title>Node1&#45;&gt;Node3</title>
<path fill="none" stroke="#63b8ff" d="M173.11,-109.6C165.79,-97.45 154.74,-74.89 159,-55 160.88,-46.21 164.65,-37.06 168.4,-29.35"/>
<polygon fill="#63b8ff" stroke="#63b8ff" points="171.42,-31.14 172.98,-20.66 165.22,-27.88 171.42,-31.14"/>
</g>
<!-- Node4 -->
<g id="node4" class="node">
<title>Node4</title>
<g id="a_node4"><a xlink:href="_rcv_sharing_state_8h.html" target="_top" xlink:title=" ">
<polygon fill="white" stroke="#666666" points="267.5,-74 168.5,-74 168.5,-55 267.5,-55 267.5,-74"/>
<text text-anchor="middle" x="218" y="-62" font-family="Helvetica,sans-Serif" font-size="10.00">RcvSharingState.h</text>
</a>
</g>
</g>
<!-- Node1&#45;&gt;Node4 -->
<g id="edge3" class="edge">
<title>Node1&#45;&gt;Node4</title>
<path fill="none" stroke="#63b8ff" d="M185.44,-109.75C190.66,-102.66 198.19,-92.42 204.69,-83.59"/>
<polygon fill="#63b8ff" stroke="#63b8ff" points="207.42,-85.79 210.52,-75.66 201.78,-81.64 207.42,-85.79"/>
</g>
<!-- Node5 -->
<g id="node5" class="node">
<title>Node5</title>
<g id="a_node5"><a xlink:href="_rcv_sharing_type_8h.html" target="_top" xlink:title=" ">
<polygon fill="white" stroke="#666666" points="382.5,-74 285.5,-74 285.5,-55 382.5,-55 382.5,-74"/>
<text text-anchor="middle" x="334" y="-62" font-family="Helvetica,sans-Serif" font-size="10.00">RcvSharingType.h</text>
</a>
</g>
</g>
<!-- Node1&#45;&gt;Node5 -->
<g id="edge5" class="edge">
<title>Node1&#45;&gt;Node5</title>
<path fill="none" stroke="#63b8ff" d="M205.29,-109.51C230.53,-100.88 268.89,-87.76 297.16,-78.1"/>
<polygon fill="#63b8ff" stroke="#63b8ff" points="298.07,-81.48 306.4,-74.94 295.81,-74.86 298.07,-81.48"/>
</g>
<!-- Node2&#45;&gt;Node3 -->
<g id="edge2" class="edge">
<title>Node2&#45;&gt;Node3</title>
<path fill="none" stroke="#63b8ff" d="M76.87,-54.51C96.42,-46.08 125.9,-33.38 148.17,-23.79"/>
<polygon fill="#63b8ff" stroke="#63b8ff" points="149.25,-27.13 157.05,-19.96 146.48,-20.7 149.25,-27.13"/>
</g>
<!-- Node4&#45;&gt;Node3 -->
<g id="edge4" class="edge">
<title>Node4&#45;&gt;Node3</title>
<path fill="none" stroke="#63b8ff" d="M211.56,-54.75C206.34,-47.66 198.81,-37.42 192.31,-28.59"/>
<polygon fill="#63b8ff" stroke="#63b8ff" points="195.22,-26.64 186.48,-20.66 189.58,-30.79 195.22,-26.64"/>
</g>
<!-- Node5&#45;&gt;Node3 -->
<g id="edge6" class="edge">
<title>Node5&#45;&gt;Node3</title>
<path fill="none" stroke="#63b8ff" d="M307.71,-54.51C282.47,-45.88 244.11,-32.76 215.84,-23.1"/>
<polygon fill="#63b8ff" stroke="#63b8ff" points="217.19,-19.86 206.6,-19.94 214.93,-26.48 217.19,-19.86"/>
</g>
</g>
</svg>
