<?xml version="1.0" encoding="UTF-8" standalone="no"?>
<!DOCTYPE svg PUBLIC "-//W3C//DTD SVG 1.1//EN"
 "http://www.w3.org/Graphics/SVG/1.1/DTD/svg11.dtd">
<!-- Generated by graphviz version 7.0.0 (20221023.0053)
 -->
<!-- Title: rcvsdk/ios/rcvsdk/RcvOpenGLVideoView.h Pages: 1 -->
<svg width="273pt" height="192pt"
 viewBox="0.00 0.00 272.50 192.00" xmlns="http://www.w3.org/2000/svg" xmlns:xlink="http://www.w3.org/1999/xlink">
<g id="graph0" class="graph" transform="scale(1 1) rotate(0) translate(4 188)">
<title>rcvsdk/ios/rcvsdk/RcvOpenGLVideoView.h</title>
<!-- Node1 -->
<g id="node1" class="node">
<title>Node1</title>
<g id="a_node1"><a xlink:title=" ">
<polygon fill="#999999" stroke="#666666" points="203,-184 0,-184 0,-165 203,-165 203,-184"/>
<text text-anchor="middle" x="101.5" y="-172" font-family="Helvetica,sans-Serif" font-size="10.00">rcvsdk/ios/rcvsdk/RcvOpenGLVideoView.h</text>
</a>
</g>
</g>
<!-- Node2 -->
<g id="node2" class="node">
<title>Node2</title>
<g id="a_node2"><a xlink:title=" ">
<polygon fill="#e0e0e0" stroke="#999999" points="106,-74 33,-74 33,-55 106,-55 106,-74"/>
<text text-anchor="middle" x="69.5" y="-62" font-family="Helvetica,sans-Serif" font-size="10.00">UIKit/UIKit.h</text>
</a>
</g>
</g>
<!-- Node1&#45;&gt;Node2 -->
<g id="edge1" class="edge">
<title>Node1&#45;&gt;Node2</title>
<path fill="none" stroke="#63b8ff" d="M96.11,-164.63C91.04,-155.89 83.62,-141.98 79.5,-129 74.99,-114.8 72.46,-98.14 71.08,-85.45"/>
<polygon fill="#63b8ff" stroke="#63b8ff" points="74.59,-85.46 70.18,-75.83 67.62,-86.11 74.59,-85.46"/>
</g>
<!-- Node3 -->
<g id="node3" class="node">
<title>Node3</title>
<g id="a_node3"><a xlink:href="_rcv_base_video_view_8h.html" target="_top" xlink:title=" ">
<polygon fill="white" stroke="#666666" points="198.5,-129 88.5,-129 88.5,-110 198.5,-110 198.5,-129"/>
<text text-anchor="middle" x="143.5" y="-117" font-family="Helvetica,sans-Serif" font-size="10.00">RcvBaseVideoView.h</text>
</a>
</g>
</g>
<!-- Node1&#45;&gt;Node3 -->
<g id="edge2" class="edge">
<title>Node1&#45;&gt;Node3</title>
<path fill="none" stroke="#63b8ff" d="M108.44,-164.75C114.12,-157.58 122.34,-147.2 129.39,-138.3"/>
<polygon fill="#63b8ff" stroke="#63b8ff" points="132.01,-140.64 135.47,-130.63 126.52,-136.29 132.01,-140.64"/>
</g>
<!-- Node3&#45;&gt;Node2 -->
<g id="edge4" class="edge">
<title>Node3&#45;&gt;Node2</title>
<path fill="none" stroke="#63b8ff" d="M130.95,-109.51C120.04,-101.7 104,-90.21 91.04,-80.93"/>
<polygon fill="#63b8ff" stroke="#63b8ff" points="93.27,-78.22 83.1,-75.24 89.19,-83.91 93.27,-78.22"/>
</g>
<!-- Node4 -->
<g id="node4" class="node">
<title>Node4</title>
<g id="a_node4"><a xlink:title=" ">
<polygon fill="#e0e0e0" stroke="#999999" points="238.5,-19 114.5,-19 114.5,0 238.5,0 238.5,-19"/>
<text text-anchor="middle" x="176.5" y="-7" font-family="Helvetica,sans-Serif" font-size="10.00">Foundation/Foundation.h</text>
</a>
</g>
</g>
<!-- Node3&#45;&gt;Node4 -->
<g id="edge3" class="edge">
<title>Node3&#45;&gt;Node4</title>
<path fill="none" stroke="#63b8ff" d="M144.9,-109.74C146.99,-97.36 151.36,-74.14 157.5,-55 160.26,-46.4 164.05,-37.18 167.52,-29.37"/>
<polygon fill="#63b8ff" stroke="#63b8ff" points="170.58,-31.1 171.59,-20.55 164.22,-28.17 170.58,-31.1"/>
</g>
<!-- Node5 -->
<g id="node5" class="node">
<title>Node5</title>
<g id="a_node5"><a xlink:href="_rcv_render_mode_8h.html" target="_top" xlink:title=" ">
<polygon fill="white" stroke="#666666" points="264.5,-74 166.5,-74 166.5,-55 264.5,-55 264.5,-74"/>
<text text-anchor="middle" x="215.5" y="-62" font-family="Helvetica,sans-Serif" font-size="10.00">RcvRenderMode.h</text>
</a>
</g>
</g>
<!-- Node3&#45;&gt;Node5 -->
<g id="edge5" class="edge">
<title>Node3&#45;&gt;Node5</title>
<path fill="none" stroke="#63b8ff" d="M155.71,-109.51C166.33,-101.7 181.94,-90.21 194.54,-80.93"/>
<polygon fill="#63b8ff" stroke="#63b8ff" points="196.27,-84 202.25,-75.26 192.12,-78.36 196.27,-84"/>
</g>
<!-- Node5&#45;&gt;Node4 -->
<g id="edge6" class="edge">
<title>Node5&#45;&gt;Node4</title>
<path fill="none" stroke="#63b8ff" d="M209.06,-54.75C203.84,-47.66 196.31,-37.42 189.81,-28.59"/>
<polygon fill="#63b8ff" stroke="#63b8ff" points="192.72,-26.64 183.98,-20.66 187.08,-30.79 192.72,-26.64"/>
</g>
</g>
</svg>
