<?xml version="1.0" encoding="UTF-8" standalone="no"?>
<!DOCTYPE svg PUBLIC "-//W3C//DTD SVG 1.1//EN"
 "http://www.w3.org/Graphics/SVG/1.1/DTD/svg11.dtd">
<!-- Generated by graphviz version 7.0.0 (20221023.0053)
 -->
<!-- Title: rcvsdk/ios/rcvsdk/RcvMeetingEventHandler.h Pages: 1 -->
<svg width="780pt" height="137pt"
 viewBox="0.00 0.00 780.00 137.00" xmlns="http://www.w3.org/2000/svg" xmlns:xlink="http://www.w3.org/1999/xlink">
<g id="graph0" class="graph" transform="scale(1 1) rotate(0) translate(4 133)">
<title>rcvsdk/ios/rcvsdk/RcvMeetingEventHandler.h</title>
<!-- Node1 -->
<g id="node1" class="node">
<title>Node1</title>
<g id="a_node1"><a xlink:title=" ">
<polygon fill="#999999" stroke="#666666" points="466,-129 250,-129 250,-110 466,-110 466,-129"/>
<text text-anchor="middle" x="358" y="-117" font-family="Helvetica,sans-Serif" font-size="10.00">rcvsdk/ios/rcvsdk/RcvMeetingEventHandler.h</text>
</a>
</g>
</g>
<!-- Node2 -->
<g id="node2" class="node">
<title>Node2</title>
<g id="a_node2"><a xlink:href="_rcv_closed_captions_state_8h.html" target="_top" xlink:title=" ">
<polygon fill="white" stroke="#666666" points="136,-74 0,-74 0,-55 136,-55 136,-74"/>
<text text-anchor="middle" x="68" y="-62" font-family="Helvetica,sans-Serif" font-size="10.00">RcvClosedCaptionsState.h</text>
</a>
</g>
</g>
<!-- Node1&#45;&gt;Node2 -->
<g id="edge1" class="edge">
<title>Node1&#45;&gt;Node2</title>
<path fill="none" stroke="#63b8ff" d="M308.81,-109.51C258.87,-100.38 181.49,-86.24 127.99,-76.46"/>
<polygon fill="#63b8ff" stroke="#63b8ff" points="128.91,-73.07 118.44,-74.72 127.65,-79.96 128.91,-73.07"/>
</g>
<!-- Node3 -->
<g id="node3" class="node">
<title>Node3</title>
<g id="a_node3"><a xlink:title=" ">
<polygon fill="#e0e0e0" stroke="#999999" points="420,-19 296,-19 296,0 420,0 420,-19"/>
<text text-anchor="middle" x="358" y="-7" font-family="Helvetica,sans-Serif" font-size="10.00">Foundation/Foundation.h</text>
</a>
</g>
</g>
<!-- Node1&#45;&gt;Node3 -->
<g id="edge11" class="edge">
<title>Node1&#45;&gt;Node3</title>
<path fill="none" stroke="#63b8ff" d="M287.79,-109.5C245.01,-102.42 196.13,-90.89 183,-74 152.09,-34.25 223.62,-19.36 284.36,-13.8"/>
<polygon fill="#63b8ff" stroke="#63b8ff" points="284.36,-17.31 294.03,-12.99 283.78,-10.33 284.36,-17.31"/>
</g>
<!-- Node4 -->
<g id="node4" class="node">
<title>Node4</title>
<g id="a_node4"><a xlink:href="_rcv_end_to_end_encryption_state_8h.html" target="_top" xlink:title=" ">
<polygon fill="white" stroke="#666666" points="350,-74 192,-74 192,-55 350,-55 350,-74"/>
<text text-anchor="middle" x="271" y="-62" font-family="Helvetica,sans-Serif" font-size="10.00">RcvEndToEndEncryptionState.h</text>
</a>
</g>
</g>
<!-- Node1&#45;&gt;Node4 -->
<g id="edge3" class="edge">
<title>Node1&#45;&gt;Node4</title>
<path fill="none" stroke="#63b8ff" d="M343.24,-109.51C330.04,-101.47 310.44,-89.53 294.99,-80.11"/>
<polygon fill="#63b8ff" stroke="#63b8ff" points="297.19,-77.36 286.83,-75.15 293.55,-83.34 297.19,-77.36"/>
</g>
<!-- Node5 -->
<g id="node5" class="node">
<title>Node5</title>
<g id="a_node5"><a xlink:href="_rcv_meeting_api_execute_result_8h.html" target="_top" xlink:title=" ">
<polygon fill="white" stroke="#666666" points="524,-74 368,-74 368,-55 524,-55 524,-74"/>
<text text-anchor="middle" x="446" y="-62" font-family="Helvetica,sans-Serif" font-size="10.00">RcvMeetingApiExecuteResult.h</text>
</a>
</g>
</g>
<!-- Node1&#45;&gt;Node5 -->
<g id="edge5" class="edge">
<title>Node1&#45;&gt;Node5</title>
<path fill="none" stroke="#63b8ff" d="M372.93,-109.51C386.28,-101.47 406.11,-89.53 421.74,-80.11"/>
<polygon fill="#63b8ff" stroke="#63b8ff" points="423.24,-83.3 430,-75.14 419.62,-77.3 423.24,-83.3"/>
</g>
<!-- Node6 -->
<g id="node6" class="node">
<title>Node6</title>
<g id="a_node6"><a xlink:href="_rcv_meeting_state_8h.html" target="_top" xlink:title=" ">
<polygon fill="white" stroke="#666666" points="643.5,-74 542.5,-74 542.5,-55 643.5,-55 643.5,-74"/>
<text text-anchor="middle" x="593" y="-62" font-family="Helvetica,sans-Serif" font-size="10.00">RcvMeetingState.h</text>
</a>
</g>
</g>
<!-- Node1&#45;&gt;Node6 -->
<g id="edge7" class="edge">
<title>Node1&#45;&gt;Node6</title>
<path fill="none" stroke="#63b8ff" d="M397.86,-109.51C437.65,-100.54 498.94,-86.71 542.2,-76.96"/>
<polygon fill="#63b8ff" stroke="#63b8ff" points="542.87,-80.39 551.86,-74.78 541.33,-73.57 542.87,-80.39"/>
</g>
<!-- Node7 -->
<g id="node7" class="node">
<title>Node7</title>
<g id="a_node7"><a xlink:href="_rcv_recording_state_8h.html" target="_top" xlink:title=" ">
<polygon fill="white" stroke="#666666" points="772,-74 662,-74 662,-55 772,-55 772,-74"/>
<text text-anchor="middle" x="717" y="-62" font-family="Helvetica,sans-Serif" font-size="10.00">RcvRecordingState.h</text>
</a>
</g>
</g>
<!-- Node1&#45;&gt;Node7 -->
<g id="edge9" class="edge">
<title>Node1&#45;&gt;Node7</title>
<path fill="none" stroke="#63b8ff" d="M418.9,-109.51C483.2,-100.02 584.24,-85.1 650.56,-75.31"/>
<polygon fill="#63b8ff" stroke="#63b8ff" points="650.83,-78.81 660.21,-73.88 649.8,-71.88 650.83,-78.81"/>
</g>
<!-- Node2&#45;&gt;Node3 -->
<g id="edge2" class="edge">
<title>Node2&#45;&gt;Node3</title>
<path fill="none" stroke="#63b8ff" d="M117.19,-54.51C167.13,-45.38 244.51,-31.24 298.01,-21.46"/>
<polygon fill="#63b8ff" stroke="#63b8ff" points="298.35,-24.96 307.56,-19.72 297.09,-18.07 298.35,-24.96"/>
</g>
<!-- Node4&#45;&gt;Node3 -->
<g id="edge4" class="edge">
<title>Node4&#45;&gt;Node3</title>
<path fill="none" stroke="#63b8ff" d="M285.76,-54.51C298.96,-46.47 318.56,-34.53 334.01,-25.11"/>
<polygon fill="#63b8ff" stroke="#63b8ff" points="335.45,-28.34 342.17,-20.15 331.81,-22.36 335.45,-28.34"/>
</g>
<!-- Node5&#45;&gt;Node3 -->
<g id="edge6" class="edge">
<title>Node5&#45;&gt;Node3</title>
<path fill="none" stroke="#63b8ff" d="M431.07,-54.51C417.72,-46.47 397.89,-34.53 382.26,-25.11"/>
<polygon fill="#63b8ff" stroke="#63b8ff" points="384.38,-22.3 374,-20.14 380.76,-28.3 384.38,-22.3"/>
</g>
<!-- Node6&#45;&gt;Node3 -->
<g id="edge8" class="edge">
<title>Node6&#45;&gt;Node3</title>
<path fill="none" stroke="#63b8ff" d="M553.14,-54.51C513.35,-45.54 452.06,-31.71 408.8,-21.96"/>
<polygon fill="#63b8ff" stroke="#63b8ff" points="409.67,-18.57 399.14,-19.78 408.13,-25.39 409.67,-18.57"/>
</g>
<!-- Node7&#45;&gt;Node3 -->
<g id="edge10" class="edge">
<title>Node7&#45;&gt;Node3</title>
<path fill="none" stroke="#63b8ff" d="M661.69,-55.33C599.46,-46.15 498.18,-31.19 429.87,-21.11"/>
<polygon fill="#63b8ff" stroke="#63b8ff" points="430.68,-17.69 420.27,-19.69 429.65,-24.62 430.68,-17.69"/>
</g>
</g>
</svg>
