<?xml version="1.0" encoding="UTF-8" standalone="no"?>
<!DOCTYPE svg PUBLIC "-//W3C//DTD SVG 1.1//EN"
 "http://www.w3.org/Graphics/SVG/1.1/DTD/svg11.dtd">
<!-- Generated by graphviz version 7.0.0 (20221023.0053)
 -->
<!-- Title: rcvsdk/ios/rcvsdk/RcvMeetingController.h Pages: 1 -->
<svg width="324pt" height="137pt"
 viewBox="0.00 0.00 323.50 137.00" xmlns="http://www.w3.org/2000/svg" xmlns:xlink="http://www.w3.org/1999/xlink">
<g id="graph0" class="graph" transform="scale(1 1) rotate(0) translate(4 133)">
<title>rcvsdk/ios/rcvsdk/RcvMeetingController.h</title>
<!-- Node1 -->
<g id="node1" class="node">
<title>Node1</title>
<g id="a_node1"><a xlink:title=" ">
<polygon fill="#999999" stroke="#666666" points="285.5,-129 86.5,-129 86.5,-110 285.5,-110 285.5,-129"/>
<text text-anchor="middle" x="186" y="-117" font-family="Helvetica,sans-Serif" font-size="10.00">rcvsdk/ios/rcvsdk/RcvMeetingController.h</text>
</a>
</g>
</g>
<!-- Node2 -->
<g id="node2" class="node">
<title>Node2</title>
<g id="a_node2"><a xlink:href="_rcv_end_to_end_encryption_state_8h.html" target="_top" xlink:title=" ">
<polygon fill="white" stroke="#666666" points="158,-74 0,-74 0,-55 158,-55 158,-74"/>
<text text-anchor="middle" x="79" y="-62" font-family="Helvetica,sans-Serif" font-size="10.00">RcvEndToEndEncryptionState.h</text>
</a>
</g>
</g>
<!-- Node1&#45;&gt;Node2 -->
<g id="edge1" class="edge">
<title>Node1&#45;&gt;Node2</title>
<path fill="none" stroke="#63b8ff" d="M167.85,-109.51C151.22,-101.27 126.36,-88.96 107.15,-79.45"/>
<polygon fill="#63b8ff" stroke="#63b8ff" points="108.75,-76.33 98.24,-75.03 105.65,-82.6 108.75,-76.33"/>
</g>
<!-- Node3 -->
<g id="node3" class="node">
<title>Node3</title>
<g id="a_node3"><a xlink:title=" ">
<polygon fill="#e0e0e0" stroke="#999999" points="248,-19 124,-19 124,0 248,0 248,-19"/>
<text text-anchor="middle" x="186" y="-7" font-family="Helvetica,sans-Serif" font-size="10.00">Foundation/Foundation.h</text>
</a>
</g>
</g>
<!-- Node1&#45;&gt;Node3 -->
<g id="edge5" class="edge">
<title>Node1&#45;&gt;Node3</title>
<path fill="none" stroke="#63b8ff" d="M186,-109.66C186,-92.57 186,-54.61 186,-30.92"/>
<polygon fill="#63b8ff" stroke="#63b8ff" points="189.5,-30.97 186,-20.97 182.5,-30.97 189.5,-30.97"/>
</g>
<!-- Node4 -->
<g id="node4" class="node">
<title>Node4</title>
<g id="a_node4"><a xlink:href="_rcv_meeting_state_8h.html" target="_top" xlink:title=" ">
<polygon fill="white" stroke="#666666" points="315.5,-74 214.5,-74 214.5,-55 315.5,-55 315.5,-74"/>
<text text-anchor="middle" x="265" y="-62" font-family="Helvetica,sans-Serif" font-size="10.00">RcvMeetingState.h</text>
</a>
</g>
</g>
<!-- Node1&#45;&gt;Node4 -->
<g id="edge3" class="edge">
<title>Node1&#45;&gt;Node4</title>
<path fill="none" stroke="#63b8ff" d="M199.4,-109.51C211.16,-101.62 228.51,-89.98 242.41,-80.65"/>
<polygon fill="#63b8ff" stroke="#63b8ff" points="244.19,-83.68 250.54,-75.2 240.29,-77.87 244.19,-83.68"/>
</g>
<!-- Node2&#45;&gt;Node3 -->
<g id="edge2" class="edge">
<title>Node2&#45;&gt;Node3</title>
<path fill="none" stroke="#63b8ff" d="M97.15,-54.51C113.78,-46.27 138.64,-33.96 157.85,-24.45"/>
<polygon fill="#63b8ff" stroke="#63b8ff" points="159.35,-27.6 166.76,-20.03 156.25,-21.33 159.35,-27.6"/>
</g>
<!-- Node4&#45;&gt;Node3 -->
<g id="edge4" class="edge">
<title>Node4&#45;&gt;Node3</title>
<path fill="none" stroke="#63b8ff" d="M251.6,-54.51C239.84,-46.62 222.49,-34.98 208.59,-25.65"/>
<polygon fill="#63b8ff" stroke="#63b8ff" points="210.71,-22.87 200.46,-20.2 206.81,-28.68 210.71,-22.87"/>
</g>
</g>
</svg>
