<?xml version="1.0" encoding="UTF-8" standalone="no"?>
<!DOCTYPE svg PUBLIC "-//W3C//DTD SVG 1.1//EN"
 "http://www.w3.org/Graphics/SVG/1.1/DTD/svg11.dtd">
<!-- Generated by graphviz version 6.0.1 (20220911.1526)
 -->
<!-- Title: rcvsdk/ios/rcvsdk/RcvMetalVideoView.h Pages: 1 -->
<svg width="313pt" height="192pt"
 viewBox="0.00 0.00 313.00 192.00" xmlns="http://www.w3.org/2000/svg" xmlns:xlink="http://www.w3.org/1999/xlink">
<g id="graph0" class="graph" transform="scale(1 1) rotate(0) translate(4 188)">
<title>rcvsdk/ios/rcvsdk/RcvMetalVideoView.h</title>
<!-- Node1 -->
<g id="node1" class="node">
<title>Node1</title>
<g id="a_node1"><a xlink:title=" ">
<polygon fill="#999999" stroke="#666666" points="192,-184 0,-184 0,-165 192,-165 192,-184"/>
<text text-anchor="middle" x="96" y="-172" font-family="Helvetica,sans-Serif" font-size="10.00">rcvsdk/ios/rcvsdk/RcvMetalVideoView.h</text>
</a>
</g>
</g>
<!-- Node2 -->
<g id="node2" class="node">
<title>Node2</title>
<g id="a_node2"><a xlink:title=" ">
<polygon fill="#e0e0e0" stroke="#999999" points="241,-19 117,-19 117,0 241,0 241,-19"/>
<text text-anchor="middle" x="179" y="-7" font-family="Helvetica,sans-Serif" font-size="10.00">Foundation/Foundation.h</text>
</a>
</g>
</g>
<!-- Node1&#45;&gt;Node2 -->
<g id="edge1" class="edge">
<title>Node1&#45;&gt;Node2</title>
<path fill="none" stroke="#63b8ff" d="M89.8,-164.94C75.65,-144.23 43.96,-90.54 68,-55 78.75,-39.11 96.2,-28.9 114.11,-22.33"/>
<polygon fill="#63b8ff" stroke="#63b8ff" points="115.67,-25.5 124.07,-19.04 113.47,-18.85 115.67,-25.5"/>
</g>
<!-- Node3 -->
<g id="node3" class="node">
<title>Node3</title>
<g id="a_node3"><a xlink:title=" ">
<polygon fill="#e0e0e0" stroke="#999999" points="150.5,-74 77.5,-74 77.5,-55 150.5,-55 150.5,-74"/>
<text text-anchor="middle" x="114" y="-62" font-family="Helvetica,sans-Serif" font-size="10.00">UIKit/UIKit.h</text>
</a>
</g>
</g>
<!-- Node1&#45;&gt;Node3 -->
<g id="edge2" class="edge">
<title>Node1&#45;&gt;Node3</title>
<path fill="none" stroke="#63b8ff" d="M97.47,-164.66C100.39,-147.17 106.95,-107.8 110.87,-84.27"/>
<polygon fill="#63b8ff" stroke="#63b8ff" points="114.37,-84.6 112.56,-74.16 107.46,-83.45 114.37,-84.6"/>
</g>
<!-- Node4 -->
<g id="node4" class="node">
<title>Node4</title>
<g id="a_node4"><a xlink:href="_rcv_base_video_view_8h.html" target="_top" xlink:title=" ">
<polygon fill="white" stroke="#666666" points="234,-129 124,-129 124,-110 234,-110 234,-129"/>
<text text-anchor="middle" x="179" y="-117" font-family="Helvetica,sans-Serif" font-size="10.00">RcvBaseVideoView.h</text>
</a>
</g>
</g>
<!-- Node1&#45;&gt;Node4 -->
<g id="edge3" class="edge">
<title>Node1&#45;&gt;Node4</title>
<path fill="none" stroke="#63b8ff" d="M109.34,-164.98C122.09,-156.84 141.55,-144.41 156.67,-134.76"/>
<polygon fill="#63b8ff" stroke="#63b8ff" points="158.88,-137.5 165.42,-129.17 155.11,-131.6 158.88,-137.5"/>
</g>
<!-- Node4&#45;&gt;Node2 -->
<g id="edge4" class="edge">
<title>Node4&#45;&gt;Node2</title>
<path fill="none" stroke="#63b8ff" d="M179,-109.66C179,-92.17 179,-52.8 179,-29.27"/>
<polygon fill="#63b8ff" stroke="#63b8ff" points="182.5,-29.16 179,-19.16 175.5,-29.16 182.5,-29.16"/>
</g>
<!-- Node4&#45;&gt;Node3 -->
<g id="edge5" class="edge">
<title>Node4&#45;&gt;Node3</title>
<path fill="none" stroke="#63b8ff" d="M168.56,-109.98C158.85,-102.07 144.18,-90.11 132.5,-80.58"/>
<polygon fill="#63b8ff" stroke="#63b8ff" points="134.6,-77.78 124.63,-74.17 130.17,-83.2 134.6,-77.78"/>
</g>
<!-- Node5 -->
<g id="node5" class="node">
<title>Node5</title>
<g id="a_node5"><a xlink:href="_rcv_render_mode_8h.html" target="_top" xlink:title=" ">
<polygon fill="white" stroke="#666666" points="305,-74 207,-74 207,-55 305,-55 305,-74"/>
<text text-anchor="middle" x="256" y="-62" font-family="Helvetica,sans-Serif" font-size="10.00">RcvRenderMode.h</text>
</a>
</g>
</g>
<!-- Node4&#45;&gt;Node5 -->
<g id="edge6" class="edge">
<title>Node4&#45;&gt;Node5</title>
<path fill="none" stroke="#63b8ff" d="M191.37,-109.98C203.09,-101.92 220.92,-89.65 234.89,-80.03"/>
<polygon fill="#63b8ff" stroke="#63b8ff" points="237.15,-82.72 243.4,-74.17 233.18,-76.96 237.15,-82.72"/>
</g>
<!-- Node5&#45;&gt;Node2 -->
<g id="edge7" class="edge">
<title>Node5&#45;&gt;Node2</title>
<path fill="none" stroke="#63b8ff" d="M243.63,-54.98C231.91,-46.92 214.08,-34.65 200.11,-25.03"/>
<polygon fill="#63b8ff" stroke="#63b8ff" points="201.82,-21.96 191.6,-19.17 197.85,-27.72 201.82,-21.96"/>
</g>
</g>
</svg>
