<?xml version="1.0" encoding="UTF-8" standalone="no"?>
<!DOCTYPE svg PUBLIC "-//W3C//DTD SVG 1.1//EN"
 "http://www.w3.org/Graphics/SVG/1.1/DTD/svg11.dtd">
<!-- Generated by graphviz version 6.0.1 (20220911.1526)
 -->
<!-- Title: rcvsdk/ios/rcvsdk/RcvInstantMeetingSettings.h Pages: 1 -->
<svg width="232pt" height="137pt"
 viewBox="0.00 0.00 232.00 137.00" xmlns="http://www.w3.org/2000/svg" xmlns:xlink="http://www.w3.org/1999/xlink">
<g id="graph0" class="graph" transform="scale(1 1) rotate(0) translate(4 133)">
<title>rcvsdk/ios/rcvsdk/RcvInstantMeetingSettings.h</title>
<!-- Node1 -->
<g id="node1" class="node">
<title>Node1</title>
<g id="a_node1"><a xlink:title=" ">
<polygon fill="#999999" stroke="#666666" points="224,-129 0,-129 0,-110 224,-110 224,-129"/>
<text text-anchor="middle" x="112" y="-117" font-family="Helvetica,sans-Serif" font-size="10.00">rcvsdk/ios/rcvsdk/RcvInstantMeetingSettings.h</text>
</a>
</g>
</g>
<!-- Node2 -->
<g id="node2" class="node">
<title>Node2</title>
<g id="a_node2"><a xlink:href="_rcv_waiting_room_mode_8h.html" target="_top" xlink:title=" ">
<polygon fill="white" stroke="#666666" points="129.5,-74 4.5,-74 4.5,-55 129.5,-55 129.5,-74"/>
<text text-anchor="middle" x="67" y="-62" font-family="Helvetica,sans-Serif" font-size="10.00">RcvWaitingRoomMode.h</text>
</a>
</g>
</g>
<!-- Node1&#45;&gt;Node2 -->
<g id="edge1" class="edge">
<title>Node1&#45;&gt;Node2</title>
<path fill="none" stroke="#63b8ff" d="M104.57,-109.75C98.15,-102.18 88.69,-91.05 80.88,-81.84"/>
<polygon fill="#63b8ff" stroke="#63b8ff" points="83.43,-79.45 74.29,-74.09 78.1,-83.98 83.43,-79.45"/>
</g>
<!-- Node3 -->
<g id="node3" class="node">
<title>Node3</title>
<g id="a_node3"><a xlink:title=" ">
<polygon fill="#e0e0e0" stroke="#999999" points="174,-19 50,-19 50,0 174,0 174,-19"/>
<text text-anchor="middle" x="112" y="-7" font-family="Helvetica,sans-Serif" font-size="10.00">Foundation/Foundation.h</text>
</a>
</g>
</g>
<!-- Node1&#45;&gt;Node3 -->
<g id="edge3" class="edge">
<title>Node1&#45;&gt;Node3</title>
<path fill="none" stroke="#63b8ff" d="M119.15,-109.97C125.77,-101.48 135.15,-87.75 139,-74 143.57,-57.66 134.82,-39.97 126.09,-27.42"/>
<polygon fill="#63b8ff" stroke="#63b8ff" points="128.75,-25.14 119.93,-19.28 123.17,-29.36 128.75,-25.14"/>
</g>
<!-- Node2&#45;&gt;Node3 -->
<g id="edge2" class="edge">
<title>Node2&#45;&gt;Node3</title>
<path fill="none" stroke="#63b8ff" d="M74.43,-54.75C80.85,-47.18 90.31,-36.05 98.12,-26.84"/>
<polygon fill="#63b8ff" stroke="#63b8ff" points="100.9,-28.98 104.71,-19.09 95.57,-24.45 100.9,-28.98"/>
</g>
</g>
</svg>
