<?xml version="1.0" encoding="UTF-8" standalone="no"?>
<!DOCTYPE svg PUBLIC "-//W3C//DTD SVG 1.1//EN"
 "http://www.w3.org/Graphics/SVG/1.1/DTD/svg11.dtd">
<!-- Generated by graphviz version 6.0.1 (20220911.1526)
 -->
<!-- Title: rcvsdk/ios/rcvsdk/RcvMeetingEventHandler.h Pages: 1 -->
<svg width="430pt" height="137pt"
 viewBox="0.00 0.00 430.00 137.00" xmlns="http://www.w3.org/2000/svg" xmlns:xlink="http://www.w3.org/1999/xlink">
<g id="graph0" class="graph" transform="scale(1 1) rotate(0) translate(4 133)">
<title>rcvsdk/ios/rcvsdk/RcvMeetingEventHandler.h</title>
<!-- Node1 -->
<g id="node1" class="node">
<title>Node1</title>
<g id="a_node1"><a xlink:title=" ">
<polygon fill="#999999" stroke="#666666" points="326,-129 110,-129 110,-110 326,-110 326,-129"/>
<text text-anchor="middle" x="218" y="-117" font-family="Helvetica,sans-Serif" font-size="10.00">rcvsdk/ios/rcvsdk/RcvMeetingEventHandler.h</text>
</a>
</g>
</g>
<!-- Node2 -->
<g id="node2" class="node">
<title>Node2</title>
<g id="a_node2"><a xlink:href="_rcv_meeting_api_execute_result_8h.html" target="_top" xlink:title=" ">
<polygon fill="white" stroke="#666666" points="156,-74 0,-74 0,-55 156,-55 156,-74"/>
<text text-anchor="middle" x="78" y="-62" font-family="Helvetica,sans-Serif" font-size="10.00">RcvMeetingApiExecuteResult.h</text>
</a>
</g>
</g>
<!-- Node1&#45;&gt;Node2 -->
<g id="edge1" class="edge">
<title>Node1&#45;&gt;Node2</title>
<path fill="none" stroke="#63b8ff" d="M195.51,-109.98C172.48,-101.27 136.46,-87.63 110.37,-77.75"/>
<polygon fill="#63b8ff" stroke="#63b8ff" points="111.49,-74.44 100.9,-74.17 109.02,-80.98 111.49,-74.44"/>
</g>
<!-- Node3 -->
<g id="node3" class="node">
<title>Node3</title>
<g id="a_node3"><a xlink:title=" ">
<polygon fill="#e0e0e0" stroke="#999999" points="280,-19 156,-19 156,0 280,0 280,-19"/>
<text text-anchor="middle" x="218" y="-7" font-family="Helvetica,sans-Serif" font-size="10.00">Foundation/Foundation.h</text>
</a>
</g>
</g>
<!-- Node1&#45;&gt;Node3 -->
<g id="edge7" class="edge">
<title>Node1&#45;&gt;Node3</title>
<path fill="none" stroke="#63b8ff" d="M214.14,-109.85C210.44,-101.04 205.11,-86.87 203,-74 200.45,-58.46 205.1,-41.06 209.87,-28.41"/>
<polygon fill="#63b8ff" stroke="#63b8ff" points="213.16,-29.63 213.76,-19.05 206.69,-26.94 213.16,-29.63"/>
</g>
<!-- Node4 -->
<g id="node4" class="node">
<title>Node4</title>
<g id="a_node4"><a xlink:href="_rcv_nqi_state_8h.html" target="_top" xlink:title=" ">
<polygon fill="white" stroke="#666666" points="293.5,-74 212.5,-74 212.5,-55 293.5,-55 293.5,-74"/>
<text text-anchor="middle" x="253" y="-62" font-family="Helvetica,sans-Serif" font-size="10.00">RcvNqiState.h</text>
</a>
</g>
</g>
<!-- Node1&#45;&gt;Node4 -->
<g id="edge3" class="edge">
<title>Node1&#45;&gt;Node4</title>
<path fill="none" stroke="#63b8ff" d="M223.78,-109.75C228.62,-102.42 235.68,-91.73 241.64,-82.7"/>
<polygon fill="#63b8ff" stroke="#63b8ff" points="244.74,-84.36 247.33,-74.09 238.9,-80.5 244.74,-84.36"/>
</g>
<!-- Node5 -->
<g id="node5" class="node">
<title>Node5</title>
<g id="a_node5"><a xlink:href="_rcv_recording_state_8h.html" target="_top" xlink:title=" ">
<polygon fill="white" stroke="#666666" points="422,-74 312,-74 312,-55 422,-55 422,-74"/>
<text text-anchor="middle" x="367" y="-62" font-family="Helvetica,sans-Serif" font-size="10.00">RcvRecordingState.h</text>
</a>
</g>
</g>
<!-- Node1&#45;&gt;Node5 -->
<g id="edge5" class="edge">
<title>Node1&#45;&gt;Node5</title>
<path fill="none" stroke="#63b8ff" d="M241.94,-109.98C266.56,-101.23 305.12,-87.51 332.92,-77.62"/>
<polygon fill="#63b8ff" stroke="#63b8ff" points="334.38,-80.82 342.62,-74.17 332.03,-74.22 334.38,-80.82"/>
</g>
<!-- Node2&#45;&gt;Node3 -->
<g id="edge2" class="edge">
<title>Node2&#45;&gt;Node3</title>
<path fill="none" stroke="#63b8ff" d="M100.49,-54.98C123.52,-46.27 159.54,-32.63 185.63,-22.75"/>
<polygon fill="#63b8ff" stroke="#63b8ff" points="186.98,-25.98 195.1,-19.17 184.51,-19.44 186.98,-25.98"/>
</g>
<!-- Node4&#45;&gt;Node3 -->
<g id="edge4" class="edge">
<title>Node4&#45;&gt;Node3</title>
<path fill="none" stroke="#63b8ff" d="M247.22,-54.75C242.38,-47.42 235.32,-36.73 229.36,-27.7"/>
<polygon fill="#63b8ff" stroke="#63b8ff" points="232.1,-25.5 223.67,-19.09 226.26,-29.36 232.1,-25.5"/>
</g>
<!-- Node5&#45;&gt;Node3 -->
<g id="edge6" class="edge">
<title>Node5&#45;&gt;Node3</title>
<path fill="none" stroke="#63b8ff" d="M343.06,-54.98C318.44,-46.23 279.88,-32.51 252.08,-22.62"/>
<polygon fill="#63b8ff" stroke="#63b8ff" points="252.97,-19.22 242.38,-19.17 250.62,-25.82 252.97,-19.22"/>
</g>
</g>
</svg>
