<?xml version="1.0" encoding="UTF-8" standalone="no"?>
<!DOCTYPE svg PUBLIC "-//W3C//DTD SVG 1.1//EN"
 "http://www.w3.org/Graphics/SVG/1.1/DTD/svg11.dtd">
<!-- Generated by graphviz version 7.0.0 (20221023.0053)
 -->
<!-- Title: rcvsdk/ios/rcvsdk/RcvLocalAudioStreamState.h Pages: 1 -->
<svg width="460pt" height="137pt"
 viewBox="0.00 0.00 459.50 137.00" xmlns="http://www.w3.org/2000/svg" xmlns:xlink="http://www.w3.org/1999/xlink">
<g id="graph0" class="graph" transform="scale(1 1) rotate(0) translate(4 133)">
<title>rcvsdk/ios/rcvsdk/RcvLocalAudioStreamState.h</title>
<!-- Node1 -->
<g id="node1" class="node">
<title>Node1</title>
<g id="a_node1"><a xlink:title=" ">
<polygon fill="#999999" stroke="#666666" points="330.5,-129 104.5,-129 104.5,-110 330.5,-110 330.5,-129"/>
<text text-anchor="middle" x="217.5" y="-117" font-family="Helvetica,sans-Serif" font-size="10.00">rcvsdk/ios/rcvsdk/RcvLocalAudioStreamState.h</text>
</a>
</g>
</g>
<!-- Node2 -->
<g id="node2" class="node">
<title>Node2</title>
<g id="a_node2"><a xlink:href="_rcv_audio_controller_8h.html" target="_top" xlink:title=" ">
<polygon fill="white" stroke="#666666" points="189,-74 0,-74 0,-55 189,-55 189,-74"/>
<text text-anchor="middle" x="94.5" y="-62" font-family="Helvetica,sans-Serif" font-size="10.00">rcvsdk/ios/rcvsdk/RcvAudioController.h</text>
</a>
</g>
</g>
<!-- Node1&#45;&gt;Node2 -->
<g id="edge1" class="edge">
<title>Node1&#45;&gt;Node2</title>
<path fill="none" stroke="#63b8ff" d="M186.31,-105.06C163.97,-95.43 134.51,-82.74 115.06,-74.36"/>
<polygon fill="#63b8ff" stroke="#63b8ff" points="184.68,-108.17 195.24,-108.91 187.45,-101.74 184.68,-108.17"/>
</g>
<!-- Node3 -->
<g id="node3" class="node">
<title>Node3</title>
<g id="a_node3"><a xlink:href="_rcv_s_d_k_8h.html" target="_top" xlink:title=" ">
<polygon fill="white" stroke="#666666" points="289.5,-19 145.5,-19 145.5,0 289.5,0 289.5,-19"/>
<text text-anchor="middle" x="217.5" y="-7" font-family="Helvetica,sans-Serif" font-size="10.00">rcvsdk/ios/rcvsdk/RcvSDK.h</text>
</a>
</g>
</g>
<!-- Node1&#45;&gt;Node3 -->
<g id="edge5" class="edge">
<title>Node1&#45;&gt;Node3</title>
<path fill="none" stroke="#63b8ff" d="M217.5,-98.24C217.5,-74.63 217.5,-36.65 217.5,-19.46"/>
<polygon fill="#63b8ff" stroke="#63b8ff" points="214,-98.15 217.5,-108.15 221,-98.15 214,-98.15"/>
</g>
<!-- Node4 -->
<g id="node4" class="node">
<title>Node4</title>
<g id="a_node4"><a xlink:href="_rcv_audio_event_handler_8h.html" target="_top" xlink:title=" ">
<polygon fill="white" stroke="#666666" points="451.5,-74 245.5,-74 245.5,-55 451.5,-55 451.5,-74"/>
<text text-anchor="middle" x="348.5" y="-62" font-family="Helvetica,sans-Serif" font-size="10.00">rcvsdk/ios/rcvsdk/RcvAudioEventHandler.h</text>
</a>
</g>
</g>
<!-- Node1&#45;&gt;Node4 -->
<g id="edge3" class="edge">
<title>Node1&#45;&gt;Node4</title>
<path fill="none" stroke="#63b8ff" d="M250.39,-105.19C274.23,-95.55 305.8,-82.78 326.61,-74.36"/>
<polygon fill="#63b8ff" stroke="#63b8ff" points="249.08,-101.95 241.13,-108.94 251.71,-108.44 249.08,-101.95"/>
</g>
<!-- Node2&#45;&gt;Node3 -->
<g id="edge2" class="edge">
<title>Node2&#45;&gt;Node3</title>
<path fill="none" stroke="#63b8ff" d="M125.69,-50.06C148.03,-40.43 177.49,-27.74 196.94,-19.36"/>
<polygon fill="#63b8ff" stroke="#63b8ff" points="124.55,-46.74 116.76,-53.91 127.32,-53.17 124.55,-46.74"/>
</g>
<!-- Node4&#45;&gt;Node3 -->
<g id="edge4" class="edge">
<title>Node4&#45;&gt;Node3</title>
<path fill="none" stroke="#63b8ff" d="M315.61,-50.19C291.77,-40.55 260.2,-27.78 239.39,-19.36"/>
<polygon fill="#63b8ff" stroke="#63b8ff" points="314.29,-53.44 324.87,-53.94 316.92,-46.95 314.29,-53.44"/>
</g>
</g>
</svg>
