<?xml version="1.0" encoding="UTF-8" standalone="no"?>
<!DOCTYPE svg PUBLIC "-//W3C//DTD SVG 1.1//EN"
 "http://www.w3.org/Graphics/SVG/1.1/DTD/svg11.dtd">
<!-- Generated by graphviz version 7.0.0 (20221023.0053)
 -->
<!-- Title: rcvsdk/ios/rcvsdk/RcvVideoCanvas.h Pages: 1 -->
<svg width="190pt" height="137pt"
 viewBox="0.00 0.00 190.00 137.00" xmlns="http://www.w3.org/2000/svg" xmlns:xlink="http://www.w3.org/1999/xlink">
<g id="graph0" class="graph" transform="scale(1 1) rotate(0) translate(4 133)">
<title>rcvsdk/ios/rcvsdk/RcvVideoCanvas.h</title>
<!-- Node1 -->
<g id="node1" class="node">
<title>Node1</title>
<g id="a_node1"><a xlink:title=" ">
<polygon fill="#999999" stroke="#666666" points="182,-129 0,-129 0,-110 182,-110 182,-129"/>
<text text-anchor="middle" x="91" y="-117" font-family="Helvetica,sans-Serif" font-size="10.00">rcvsdk/ios/rcvsdk/RcvVideoCanvas.h</text>
</a>
</g>
</g>
<!-- Node2 -->
<g id="node2" class="node">
<title>Node2</title>
<g id="a_node2"><a xlink:href="_rcv_render_mode_8h.html" target="_top" xlink:title=" ">
<polygon fill="white" stroke="#666666" points="102,-74 4,-74 4,-55 102,-55 102,-74"/>
<text text-anchor="middle" x="53" y="-62" font-family="Helvetica,sans-Serif" font-size="10.00">RcvRenderMode.h</text>
</a>
</g>
</g>
<!-- Node1&#45;&gt;Node2 -->
<g id="edge1" class="edge">
<title>Node1&#45;&gt;Node2</title>
<path fill="none" stroke="#63b8ff" d="M84.73,-109.75C79.64,-102.66 72.3,-92.42 65.97,-83.59"/>
<polygon fill="#63b8ff" stroke="#63b8ff" points="68.96,-81.76 60.29,-75.67 63.28,-85.84 68.96,-81.76"/>
</g>
<!-- Node3 -->
<g id="node3" class="node">
<title>Node3</title>
<g id="a_node3"><a xlink:title=" ">
<polygon fill="#e0e0e0" stroke="#999999" points="153,-19 29,-19 29,0 153,0 153,-19"/>
<text text-anchor="middle" x="91" y="-7" font-family="Helvetica,sans-Serif" font-size="10.00">Foundation/Foundation.h</text>
</a>
</g>
</g>
<!-- Node1&#45;&gt;Node3 -->
<g id="edge3" class="edge">
<title>Node1&#45;&gt;Node3</title>
<path fill="none" stroke="#63b8ff" d="M96.89,-109.6C104.21,-97.45 115.26,-74.89 111,-55 109.12,-46.21 105.35,-37.06 101.6,-29.35"/>
<polygon fill="#63b8ff" stroke="#63b8ff" points="104.78,-27.88 97.02,-20.66 98.58,-31.14 104.78,-27.88"/>
</g>
<!-- Node2&#45;&gt;Node3 -->
<g id="edge2" class="edge">
<title>Node2&#45;&gt;Node3</title>
<path fill="none" stroke="#63b8ff" d="M59.27,-54.75C64.36,-47.66 71.7,-37.42 78.03,-28.59"/>
<polygon fill="#63b8ff" stroke="#63b8ff" points="80.72,-30.84 83.71,-20.67 75.04,-26.76 80.72,-30.84"/>
</g>
</g>
</svg>
