<?xml version="1.0" encoding="UTF-8" standalone="no"?>
<!DOCTYPE svg PUBLIC "-//W3C//DTD SVG 1.1//EN"
 "http://www.w3.org/Graphics/SVG/1.1/DTD/svg11.dtd">
<!-- Generated by graphviz version 6.0.1 (20220911.1526)
 -->
<!-- Title: rcvsdk/ios/rcvsdk/RcvAudioEventHandler.h Pages: 1 -->
<svg width="456pt" height="137pt"
 viewBox="0.00 0.00 455.50 137.00" xmlns="http://www.w3.org/2000/svg" xmlns:xlink="http://www.w3.org/1999/xlink">
<g id="graph0" class="graph" transform="scale(1 1) rotate(0) translate(4 133)">
<title>rcvsdk/ios/rcvsdk/RcvAudioEventHandler.h</title>
<!-- Node1 -->
<g id="node1" class="node">
<title>Node1</title>
<g id="a_node1"><a xlink:title=" ">
<polygon fill="#999999" stroke="#666666" points="288.5,-129 82.5,-129 82.5,-110 288.5,-110 288.5,-129"/>
<text text-anchor="middle" x="185.5" y="-117" font-family="Helvetica,sans-Serif" font-size="10.00">rcvsdk/ios/rcvsdk/RcvAudioEventHandler.h</text>
</a>
</g>
</g>
<!-- Node2 -->
<g id="node2" class="node">
<title>Node2</title>
<g id="a_node2"><a xlink:href="_rcv_audio_route_type_8h.html" target="_top" xlink:title=" ">
<polygon fill="white" stroke="#666666" points="115,-74 0,-74 0,-55 115,-55 115,-74"/>
<text text-anchor="middle" x="57.5" y="-62" font-family="Helvetica,sans-Serif" font-size="10.00">RcvAudioRouteType.h</text>
</a>
</g>
</g>
<!-- Node1&#45;&gt;Node2 -->
<g id="edge1" class="edge">
<title>Node1&#45;&gt;Node2</title>
<path fill="none" stroke="#63b8ff" d="M164.93,-109.98C144.07,-101.34 111.53,-87.87 87.73,-78.02"/>
<polygon fill="#63b8ff" stroke="#63b8ff" points="89.02,-74.76 78.44,-74.17 86.34,-81.23 89.02,-74.76"/>
</g>
<!-- Node3 -->
<g id="node3" class="node">
<title>Node3</title>
<g id="a_node3"><a xlink:title=" ">
<polygon fill="#e0e0e0" stroke="#999999" points="247.5,-19 123.5,-19 123.5,0 247.5,0 247.5,-19"/>
<text text-anchor="middle" x="185.5" y="-7" font-family="Helvetica,sans-Serif" font-size="10.00">Foundation/Foundation.h</text>
</a>
</g>
</g>
<!-- Node1&#45;&gt;Node3 -->
<g id="edge7" class="edge">
<title>Node1&#45;&gt;Node3</title>
<path fill="none" stroke="#63b8ff" d="M179.4,-109.8C173.75,-101.17 165.75,-87.35 162.5,-74 158.61,-58.02 165.89,-40.49 173.26,-27.91"/>
<polygon fill="#63b8ff" stroke="#63b8ff" points="176.29,-29.66 178.74,-19.35 170.4,-25.89 176.29,-29.66"/>
</g>
<!-- Node4 -->
<g id="node4" class="node">
<title>Node4</title>
<g id="a_node4"><a xlink:href="_rcv_local_audio_error_8h.html" target="_top" xlink:title=" ">
<polygon fill="white" stroke="#666666" points="283,-74 172,-74 172,-55 283,-55 283,-74"/>
<text text-anchor="middle" x="227.5" y="-62" font-family="Helvetica,sans-Serif" font-size="10.00">RcvLocalAudioError.h</text>
</a>
</g>
</g>
<!-- Node1&#45;&gt;Node4 -->
<g id="edge3" class="edge">
<title>Node1&#45;&gt;Node4</title>
<path fill="none" stroke="#63b8ff" d="M192.44,-109.75C198.37,-102.26 207.07,-91.28 214.32,-82.13"/>
<polygon fill="#63b8ff" stroke="#63b8ff" points="217.23,-84.1 220.69,-74.09 211.74,-79.75 217.23,-84.1"/>
</g>
<!-- Node5 -->
<g id="node5" class="node">
<title>Node5</title>
<g id="a_node5"><a xlink:href="_rcv_local_audio_stream_state_8h.html" target="_top" xlink:title=" ">
<polygon fill="white" stroke="#666666" points="447.5,-74 301.5,-74 301.5,-55 447.5,-55 447.5,-74"/>
<text text-anchor="middle" x="374.5" y="-62" font-family="Helvetica,sans-Serif" font-size="10.00">RcvLocalAudioStreamState.h</text>
</a>
</g>
</g>
<!-- Node1&#45;&gt;Node5 -->
<g id="edge5" class="edge">
<title>Node1&#45;&gt;Node5</title>
<path fill="none" stroke="#63b8ff" d="M215.87,-109.98C247.87,-101.01 298.46,-86.82 333.88,-76.89"/>
<polygon fill="#63b8ff" stroke="#63b8ff" points="335.21,-80.15 343.9,-74.08 333.32,-73.41 335.21,-80.15"/>
</g>
<!-- Node2&#45;&gt;Node3 -->
<g id="edge2" class="edge">
<title>Node2&#45;&gt;Node3</title>
<path fill="none" stroke="#63b8ff" d="M78.07,-54.98C98.93,-46.34 131.47,-32.87 155.27,-23.02"/>
<polygon fill="#63b8ff" stroke="#63b8ff" points="156.66,-26.23 164.56,-19.17 153.98,-19.76 156.66,-26.23"/>
</g>
<!-- Node4&#45;&gt;Node3 -->
<g id="edge4" class="edge">
<title>Node4&#45;&gt;Node3</title>
<path fill="none" stroke="#63b8ff" d="M220.56,-54.75C214.63,-47.26 205.93,-36.28 198.68,-27.13"/>
<polygon fill="#63b8ff" stroke="#63b8ff" points="201.26,-24.75 192.31,-19.09 195.77,-29.1 201.26,-24.75"/>
</g>
<!-- Node5&#45;&gt;Node3 -->
<g id="edge6" class="edge">
<title>Node5&#45;&gt;Node3</title>
<path fill="none" stroke="#63b8ff" d="M344.13,-54.98C312.13,-46.01 261.54,-31.82 226.12,-21.89"/>
<polygon fill="#63b8ff" stroke="#63b8ff" points="226.68,-18.41 216.1,-19.08 224.79,-25.15 226.68,-18.41"/>
</g>
</g>
</svg>
