<?xml version="1.0" encoding="UTF-8" standalone="no"?>
<!DOCTYPE svg PUBLIC "-//W3C//DTD SVG 1.1//EN"
 "http://www.w3.org/Graphics/SVG/1.1/DTD/svg11.dtd">
<!-- Generated by graphviz version 7.0.0 (20221023.0053)
 -->
<!-- Title: rcvsdk/ios/rcvsdk/RcvPlayTonesMode.h Pages: 1 -->
<svg width="270pt" height="137pt"
 viewBox="0.00 0.00 269.50 137.00" xmlns="http://www.w3.org/2000/svg" xmlns:xlink="http://www.w3.org/1999/xlink">
<g id="graph0" class="graph" transform="scale(1 1) rotate(0) translate(4 133)">
<title>rcvsdk/ios/rcvsdk/RcvPlayTonesMode.h</title>
<!-- Node1 -->
<g id="node1" class="node">
<title>Node1</title>
<g id="a_node1"><a xlink:title=" ">
<polygon fill="#999999" stroke="#666666" points="261.5,-129 68.5,-129 68.5,-110 261.5,-110 261.5,-129"/>
<text text-anchor="middle" x="165" y="-117" font-family="Helvetica,sans-Serif" font-size="10.00">rcvsdk/ios/rcvsdk/RcvPlayTonesMode.h</text>
</a>
</g>
</g>
<!-- Node2 -->
<g id="node2" class="node">
<title>Node2</title>
<g id="a_node2"><a xlink:href="_rcv_meeting_bridge_info_8h.html" target="_top" xlink:title=" ">
<polygon fill="white" stroke="#666666" points="202,-74 0,-74 0,-55 202,-55 202,-74"/>
<text text-anchor="middle" x="101" y="-62" font-family="Helvetica,sans-Serif" font-size="10.00">rcvsdk/ios/rcvsdk/RcvMeetingBridgeInfo.h</text>
</a>
</g>
</g>
<!-- Node1&#45;&gt;Node2 -->
<g id="edge1" class="edge">
<title>Node1&#45;&gt;Node2</title>
<path fill="none" stroke="#63b8ff" d="M145.52,-102.37C134.4,-93.16 120.9,-81.98 111.7,-74.36"/>
<polygon fill="#63b8ff" stroke="#63b8ff" points="143.04,-104.86 152.98,-108.54 147.51,-99.47 143.04,-104.86"/>
</g>
<!-- Node3 -->
<g id="node3" class="node">
<title>Node3</title>
<g id="a_node3"><a xlink:href="_rcv_s_d_k_8h.html" target="_top" xlink:title=" ">
<polygon fill="white" stroke="#666666" points="237,-19 93,-19 93,0 237,0 237,-19"/>
<text text-anchor="middle" x="165" y="-7" font-family="Helvetica,sans-Serif" font-size="10.00">rcvsdk/ios/rcvsdk/RcvSDK.h</text>
</a>
</g>
</g>
<!-- Node1&#45;&gt;Node3 -->
<g id="edge3" class="edge">
<title>Node1&#45;&gt;Node3</title>
<path fill="none" stroke="#63b8ff" d="M188.2,-102.54C197.09,-95.02 206.24,-85.24 211,-74 220.19,-52.32 195.95,-30.94 179.27,-19.36"/>
<polygon fill="#63b8ff" stroke="#63b8ff" points="186.17,-99.68 180.42,-108.58 190.47,-105.21 186.17,-99.68"/>
</g>
<!-- Node2&#45;&gt;Node3 -->
<g id="edge2" class="edge">
<title>Node2&#45;&gt;Node3</title>
<path fill="none" stroke="#63b8ff" d="M120.48,-47.37C131.6,-38.16 145.1,-26.98 154.3,-19.36"/>
<polygon fill="#63b8ff" stroke="#63b8ff" points="118.49,-44.47 113.02,-53.54 122.96,-49.86 118.49,-44.47"/>
</g>
</g>
</svg>
