<?xml version="1.0" encoding="UTF-8" standalone="no"?>
<!DOCTYPE svg PUBLIC "-//W3C//DTD SVG 1.1//EN"
 "http://www.w3.org/Graphics/SVG/1.1/DTD/svg11.dtd">
<!-- Generated by graphviz version 7.0.0 (20221023.0053)
 -->
<!-- Title: rcvsdk/ios/rcvsdk/RcvClosedCaptionsController.h Pages: 1 -->
<svg width="242pt" height="137pt"
 viewBox="0.00 0.00 242.00 137.00" xmlns="http://www.w3.org/2000/svg" xmlns:xlink="http://www.w3.org/1999/xlink">
<g id="graph0" class="graph" transform="scale(1 1) rotate(0) translate(4 133)">
<title>rcvsdk/ios/rcvsdk/RcvClosedCaptionsController.h</title>
<!-- Node1 -->
<g id="node1" class="node">
<title>Node1</title>
<g id="a_node1"><a xlink:title=" ">
<polygon fill="#999999" stroke="#666666" points="234,-129 0,-129 0,-110 234,-110 234,-129"/>
<text text-anchor="middle" x="117" y="-117" font-family="Helvetica,sans-Serif" font-size="10.00">rcvsdk/ios/rcvsdk/RcvClosedCaptionsController.h</text>
</a>
</g>
</g>
<!-- Node2 -->
<g id="node2" class="node">
<title>Node2</title>
<g id="a_node2"><a xlink:href="_rcv_closed_captions_state_8h.html" target="_top" xlink:title=" ">
<polygon fill="white" stroke="#666666" points="137,-74 1,-74 1,-55 137,-55 137,-74"/>
<text text-anchor="middle" x="69" y="-62" font-family="Helvetica,sans-Serif" font-size="10.00">RcvClosedCaptionsState.h</text>
</a>
</g>
</g>
<!-- Node1&#45;&gt;Node2 -->
<g id="edge1" class="edge">
<title>Node1&#45;&gt;Node2</title>
<path fill="none" stroke="#63b8ff" d="M109.07,-109.75C102.44,-102.43 92.78,-91.76 84.61,-82.74"/>
<polygon fill="#63b8ff" stroke="#63b8ff" points="87.42,-80.63 78.11,-75.56 82.23,-85.33 87.42,-80.63"/>
</g>
<!-- Node3 -->
<g id="node3" class="node">
<title>Node3</title>
<g id="a_node3"><a xlink:title=" ">
<polygon fill="#e0e0e0" stroke="#999999" points="179,-19 55,-19 55,0 179,0 179,-19"/>
<text text-anchor="middle" x="117" y="-7" font-family="Helvetica,sans-Serif" font-size="10.00">Foundation/Foundation.h</text>
</a>
</g>
</g>
<!-- Node1&#45;&gt;Node3 -->
<g id="edge3" class="edge">
<title>Node1&#45;&gt;Node3</title>
<path fill="none" stroke="#63b8ff" d="M125.51,-109.76C136.09,-97.79 152.07,-75.45 146,-55 143.15,-45.41 137.51,-35.96 131.95,-28.25"/>
<polygon fill="#63b8ff" stroke="#63b8ff" points="134.78,-26.18 125.87,-20.45 129.26,-30.49 134.78,-26.18"/>
</g>
<!-- Node2&#45;&gt;Node3 -->
<g id="edge2" class="edge">
<title>Node2&#45;&gt;Node3</title>
<path fill="none" stroke="#63b8ff" d="M76.93,-54.75C83.56,-47.43 93.22,-36.76 101.39,-27.74"/>
<polygon fill="#63b8ff" stroke="#63b8ff" points="103.77,-30.33 107.89,-20.56 98.58,-25.63 103.77,-30.33"/>
</g>
</g>
</svg>
