<?xml version="1.0" encoding="UTF-8" standalone="no"?>
<!DOCTYPE svg PUBLIC "-//W3C//DTD SVG 1.1//EN"
 "http://www.w3.org/Graphics/SVG/1.1/DTD/svg11.dtd">
<!-- Generated by graphviz version 7.0.0 (20221023.0053)
 -->
<!-- Title: rcvsdk/ios/rcvsdk/RcvBaseVideoView.h Pages: 1 -->
<svg width="257pt" height="137pt"
 viewBox="0.00 0.00 256.50 137.00" xmlns="http://www.w3.org/2000/svg" xmlns:xlink="http://www.w3.org/1999/xlink">
<g id="graph0" class="graph" transform="scale(1 1) rotate(0) translate(4 133)">
<title>rcvsdk/ios/rcvsdk/RcvBaseVideoView.h</title>
<!-- Node1 -->
<g id="node1" class="node">
<title>Node1</title>
<g id="a_node1"><a xlink:title=" ">
<polygon fill="#999999" stroke="#666666" points="191,-129 0,-129 0,-110 191,-110 191,-129"/>
<text text-anchor="middle" x="95.5" y="-117" font-family="Helvetica,sans-Serif" font-size="10.00">rcvsdk/ios/rcvsdk/RcvBaseVideoView.h</text>
</a>
</g>
</g>
<!-- Node2 -->
<g id="node2" class="node">
<title>Node2</title>
<g id="a_node2"><a xlink:title=" ">
<polygon fill="#e0e0e0" stroke="#999999" points="176.5,-19 52.5,-19 52.5,0 176.5,0 176.5,-19"/>
<text text-anchor="middle" x="114.5" y="-7" font-family="Helvetica,sans-Serif" font-size="10.00">Foundation/Foundation.h</text>
</a>
</g>
</g>
<!-- Node1&#45;&gt;Node2 -->
<g id="edge1" class="edge">
<title>Node1&#45;&gt;Node2</title>
<path fill="none" stroke="#63b8ff" d="M80.96,-109.58C63.67,-97.76 38.45,-75.95 49.5,-55 56.43,-41.86 69.17,-31.86 81.56,-24.7"/>
<polygon fill="#63b8ff" stroke="#63b8ff" points="83.17,-27.81 90.4,-20.06 79.92,-21.61 83.17,-27.81"/>
</g>
<!-- Node3 -->
<g id="node3" class="node">
<title>Node3</title>
<g id="a_node3"><a xlink:title=" ">
<polygon fill="#e0e0e0" stroke="#999999" points="132,-74 59,-74 59,-55 132,-55 132,-74"/>
<text text-anchor="middle" x="95.5" y="-62" font-family="Helvetica,sans-Serif" font-size="10.00">UIKit/UIKit.h</text>
</a>
</g>
</g>
<!-- Node1&#45;&gt;Node3 -->
<g id="edge2" class="edge">
<title>Node1&#45;&gt;Node3</title>
<path fill="none" stroke="#63b8ff" d="M95.5,-109.75C95.5,-103.27 95.5,-94.16 95.5,-85.9"/>
<polygon fill="#63b8ff" stroke="#63b8ff" points="99,-85.96 95.5,-75.96 92,-85.96 99,-85.96"/>
</g>
<!-- Node4 -->
<g id="node4" class="node">
<title>Node4</title>
<g id="a_node4"><a xlink:href="_rcv_render_mode_8h.html" target="_top" xlink:title=" ">
<polygon fill="white" stroke="#666666" points="248.5,-74 150.5,-74 150.5,-55 248.5,-55 248.5,-74"/>
<text text-anchor="middle" x="199.5" y="-62" font-family="Helvetica,sans-Serif" font-size="10.00">RcvRenderMode.h</text>
</a>
</g>
</g>
<!-- Node1&#45;&gt;Node4 -->
<g id="edge3" class="edge">
<title>Node1&#45;&gt;Node4</title>
<path fill="none" stroke="#63b8ff" d="M113.14,-109.51C129.23,-101.31 153.25,-89.07 171.87,-79.58"/>
<polygon fill="#63b8ff" stroke="#63b8ff" points="173.45,-82.7 180.77,-75.05 170.27,-76.47 173.45,-82.7"/>
</g>
<!-- Node4&#45;&gt;Node2 -->
<g id="edge4" class="edge">
<title>Node4&#45;&gt;Node2</title>
<path fill="none" stroke="#63b8ff" d="M185.08,-54.51C172.3,-46.54 153.4,-34.75 138.37,-25.38"/>
<polygon fill="#63b8ff" stroke="#63b8ff" points="140.33,-22.48 129.99,-20.16 136.62,-28.42 140.33,-22.48"/>
</g>
</g>
</svg>
