<?xml version="1.0" encoding="UTF-8" standalone="no"?>
<!DOCTYPE svg PUBLIC "-//W3C//DTD SVG 1.1//EN"
 "http://www.w3.org/Graphics/SVG/1.1/DTD/svg11.dtd">
<!-- Generated by graphviz version 6.0.1 (20220911.1526)
 -->
<!-- Title: rcvsdk/ios/rcvsdk/RcvMeetingChatMessage.h Pages: 1 -->
<svg width="226pt" height="137pt"
 viewBox="0.00 0.00 226.00 137.00" xmlns="http://www.w3.org/2000/svg" xmlns:xlink="http://www.w3.org/1999/xlink">
<g id="graph0" class="graph" transform="scale(1 1) rotate(0) translate(4 133)">
<title>rcvsdk/ios/rcvsdk/RcvMeetingChatMessage.h</title>
<!-- Node1 -->
<g id="node1" class="node">
<title>Node1</title>
<g id="a_node1"><a xlink:title=" ">
<polygon fill="#999999" stroke="#666666" points="218,-129 0,-129 0,-110 218,-110 218,-129"/>
<text text-anchor="middle" x="109" y="-117" font-family="Helvetica,sans-Serif" font-size="10.00">rcvsdk/ios/rcvsdk/RcvMeetingChatMessage.h</text>
</a>
</g>
</g>
<!-- Node2 -->
<g id="node2" class="node">
<title>Node2</title>
<g id="a_node2"><a xlink:href="_rcv_chat_type_8h.html" target="_top" xlink:title=" ">
<polygon fill="white" stroke="#666666" points="116.5,-74 31.5,-74 31.5,-55 116.5,-55 116.5,-74"/>
<text text-anchor="middle" x="74" y="-62" font-family="Helvetica,sans-Serif" font-size="10.00">RcvChatType.h</text>
</a>
</g>
</g>
<!-- Node1&#45;&gt;Node2 -->
<g id="edge1" class="edge">
<title>Node1&#45;&gt;Node2</title>
<path fill="none" stroke="#63b8ff" d="M103.22,-109.75C98.38,-102.42 91.32,-91.73 85.36,-82.7"/>
<polygon fill="#63b8ff" stroke="#63b8ff" points="88.1,-80.5 79.67,-74.09 82.26,-84.36 88.1,-80.5"/>
</g>
<!-- Node3 -->
<g id="node3" class="node">
<title>Node3</title>
<g id="a_node3"><a xlink:title=" ">
<polygon fill="#e0e0e0" stroke="#999999" points="171,-19 47,-19 47,0 171,0 171,-19"/>
<text text-anchor="middle" x="109" y="-7" font-family="Helvetica,sans-Serif" font-size="10.00">Foundation/Foundation.h</text>
</a>
</g>
</g>
<!-- Node1&#45;&gt;Node3 -->
<g id="edge3" class="edge">
<title>Node1&#45;&gt;Node3</title>
<path fill="none" stroke="#63b8ff" d="M113.37,-109.91C117.56,-101.14 123.6,-87.01 126,-74 128.88,-58.39 123.61,-41 118.2,-28.37"/>
<polygon fill="#63b8ff" stroke="#63b8ff" points="121.23,-26.58 113.8,-19.03 114.9,-29.57 121.23,-26.58"/>
</g>
<!-- Node2&#45;&gt;Node3 -->
<g id="edge2" class="edge">
<title>Node2&#45;&gt;Node3</title>
<path fill="none" stroke="#63b8ff" d="M79.78,-54.75C84.62,-47.42 91.68,-36.73 97.64,-27.7"/>
<polygon fill="#63b8ff" stroke="#63b8ff" points="100.74,-29.36 103.33,-19.09 94.9,-25.5 100.74,-29.36"/>
</g>
</g>
</svg>
