<?xml version="1.0" encoding="UTF-8" standalone="no"?>
<!DOCTYPE svg PUBLIC "-//W3C//DTD SVG 1.1//EN"
 "http://www.w3.org/Graphics/SVG/1.1/DTD/svg11.dtd">
<!-- Generated by graphviz version 7.0.0 (20221023.0053)
 -->
<!-- Title: rcvsdk/ios/rcvsdk/RcvRecordingState.h Pages: 1 -->
<svg width="490pt" height="137pt"
 viewBox="0.00 0.00 489.50 137.00" xmlns="http://www.w3.org/2000/svg" xmlns:xlink="http://www.w3.org/1999/xlink">
<g id="graph0" class="graph" transform="scale(1 1) rotate(0) translate(4 133)">
<title>rcvsdk/ios/rcvsdk/RcvRecordingState.h</title>
<!-- Node1 -->
<g id="node1" class="node">
<title>Node1</title>
<g id="a_node1"><a xlink:title=" ">
<polygon fill="#999999" stroke="#666666" points="339.5,-129 148.5,-129 148.5,-110 339.5,-110 339.5,-129"/>
<text text-anchor="middle" x="244" y="-117" font-family="Helvetica,sans-Serif" font-size="10.00">rcvsdk/ios/rcvsdk/RcvRecordingState.h</text>
</a>
</g>
</g>
<!-- Node2 -->
<g id="node2" class="node">
<title>Node2</title>
<g id="a_node2"><a xlink:href="_rcv_meeting_event_handler_8h.html" target="_top" xlink:title=" ">
<polygon fill="white" stroke="#666666" points="216,-74 0,-74 0,-55 216,-55 216,-74"/>
<text text-anchor="middle" x="108" y="-62" font-family="Helvetica,sans-Serif" font-size="10.00">rcvsdk/ios/rcvsdk/RcvMeetingEventHandler.h</text>
</a>
</g>
</g>
<!-- Node1&#45;&gt;Node2 -->
<g id="edge1" class="edge">
<title>Node1&#45;&gt;Node2</title>
<path fill="none" stroke="#63b8ff" d="M210.52,-105.45C185.7,-95.78 152.53,-82.85 130.73,-74.36"/>
<polygon fill="#63b8ff" stroke="#63b8ff" points="208.93,-108.59 219.52,-108.96 211.47,-102.07 208.93,-108.59"/>
</g>
<!-- Node3 -->
<g id="node3" class="node">
<title>Node3</title>
<g id="a_node3"><a xlink:href="_rcv_s_d_k_8h.html" target="_top" xlink:title=" ">
<polygon fill="white" stroke="#666666" points="316,-19 172,-19 172,0 316,0 316,-19"/>
<text text-anchor="middle" x="244" y="-7" font-family="Helvetica,sans-Serif" font-size="10.00">rcvsdk/ios/rcvsdk/RcvSDK.h</text>
</a>
</g>
</g>
<!-- Node1&#45;&gt;Node3 -->
<g id="edge5" class="edge">
<title>Node1&#45;&gt;Node3</title>
<path fill="none" stroke="#63b8ff" d="M244,-98.24C244,-74.63 244,-36.65 244,-19.46"/>
<polygon fill="#63b8ff" stroke="#63b8ff" points="240.5,-98.15 244,-108.15 247.5,-98.15 240.5,-98.15"/>
</g>
<!-- Node4 -->
<g id="node4" class="node">
<title>Node4</title>
<g id="a_node4"><a xlink:href="_rcv_recording_controller_8h.html" target="_top" xlink:title=" ">
<polygon fill="white" stroke="#666666" points="481.5,-74 272.5,-74 272.5,-55 481.5,-55 481.5,-74"/>
<text text-anchor="middle" x="377" y="-62" font-family="Helvetica,sans-Serif" font-size="10.00">rcvsdk/ios/rcvsdk/RcvRecordingController.h</text>
</a>
</g>
</g>
<!-- Node1&#45;&gt;Node4 -->
<g id="edge3" class="edge">
<title>Node1&#45;&gt;Node4</title>
<path fill="none" stroke="#63b8ff" d="M277.07,-105.32C301.3,-95.67 333.55,-82.82 354.77,-74.36"/>
<polygon fill="#63b8ff" stroke="#63b8ff" points="275.96,-102 267.97,-108.95 278.55,-108.5 275.96,-102"/>
</g>
<!-- Node2&#45;&gt;Node3 -->
<g id="edge2" class="edge">
<title>Node2&#45;&gt;Node3</title>
<path fill="none" stroke="#63b8ff" d="M141.48,-50.45C166.3,-40.78 199.47,-27.85 221.27,-19.36"/>
<polygon fill="#63b8ff" stroke="#63b8ff" points="140.53,-47.07 132.48,-53.96 143.07,-53.59 140.53,-47.07"/>
</g>
<!-- Node4&#45;&gt;Node3 -->
<g id="edge4" class="edge">
<title>Node4&#45;&gt;Node3</title>
<path fill="none" stroke="#63b8ff" d="M343.93,-50.32C319.7,-40.67 287.45,-27.82 266.23,-19.36"/>
<polygon fill="#63b8ff" stroke="#63b8ff" points="342.45,-53.5 353.03,-53.95 345.04,-47 342.45,-53.5"/>
</g>
</g>
</svg>
