<?xml version="1.0" encoding="UTF-8" standalone="no"?>
<!DOCTYPE svg PUBLIC "-//W3C//DTD SVG 1.1//EN"
 "http://www.w3.org/Graphics/SVG/1.1/DTD/svg11.dtd">
<!-- Generated by graphviz version 6.0.1 (20220911.1526)
 -->
<!-- Title: rcvsdk/ios/rcvsdk/RcvSampleBufferVideoView.h Pages: 1 -->
<svg width="285pt" height="192pt"
 viewBox="0.00 0.00 284.50 192.00" xmlns="http://www.w3.org/2000/svg" xmlns:xlink="http://www.w3.org/1999/xlink">
<g id="graph0" class="graph" transform="scale(1 1) rotate(0) translate(4 188)">
<title>rcvsdk/ios/rcvsdk/RcvSampleBufferVideoView.h</title>
<!-- Node1 -->
<g id="node1" class="node">
<title>Node1</title>
<g id="a_node1"><a xlink:title=" ">
<polygon fill="#999999" stroke="#666666" points="227,-184 0,-184 0,-165 227,-165 227,-184"/>
<text text-anchor="middle" x="113.5" y="-172" font-family="Helvetica,sans-Serif" font-size="10.00">rcvsdk/ios/rcvsdk/RcvSampleBufferVideoView.h</text>
</a>
</g>
</g>
<!-- Node2 -->
<g id="node2" class="node">
<title>Node2</title>
<g id="a_node2"><a xlink:title=" ">
<polygon fill="#e0e0e0" stroke="#999999" points="118,-74 45,-74 45,-55 118,-55 118,-74"/>
<text text-anchor="middle" x="81.5" y="-62" font-family="Helvetica,sans-Serif" font-size="10.00">UIKit/UIKit.h</text>
</a>
</g>
</g>
<!-- Node1&#45;&gt;Node2 -->
<g id="edge1" class="edge">
<title>Node1&#45;&gt;Node2</title>
<path fill="none" stroke="#63b8ff" d="M108.3,-164.96C103.23,-156.24 95.68,-142.14 91.5,-129 86.89,-114.5 84.36,-97.45 82.99,-84.66"/>
<polygon fill="#63b8ff" stroke="#63b8ff" points="86.44,-83.96 82.04,-74.32 79.47,-84.6 86.44,-83.96"/>
</g>
<!-- Node3 -->
<g id="node3" class="node">
<title>Node3</title>
<g id="a_node3"><a xlink:href="_rcv_base_video_view_8h.html" target="_top" xlink:title=" ">
<polygon fill="white" stroke="#666666" points="210.5,-129 100.5,-129 100.5,-110 210.5,-110 210.5,-129"/>
<text text-anchor="middle" x="155.5" y="-117" font-family="Helvetica,sans-Serif" font-size="10.00">RcvBaseVideoView.h</text>
</a>
</g>
</g>
<!-- Node1&#45;&gt;Node3 -->
<g id="edge2" class="edge">
<title>Node1&#45;&gt;Node3</title>
<path fill="none" stroke="#63b8ff" d="M120.44,-164.75C126.37,-157.26 135.07,-146.28 142.32,-137.13"/>
<polygon fill="#63b8ff" stroke="#63b8ff" points="145.23,-139.1 148.69,-129.09 139.74,-134.75 145.23,-139.1"/>
</g>
<!-- Node3&#45;&gt;Node2 -->
<g id="edge4" class="edge">
<title>Node3&#45;&gt;Node2</title>
<path fill="none" stroke="#63b8ff" d="M143.61,-109.98C132.35,-101.92 115.21,-89.65 101.79,-80.03"/>
<polygon fill="#63b8ff" stroke="#63b8ff" points="103.77,-77.15 93.61,-74.17 99.7,-82.84 103.77,-77.15"/>
</g>
<!-- Node4 -->
<g id="node4" class="node">
<title>Node4</title>
<g id="a_node4"><a xlink:title=" ">
<polygon fill="#e0e0e0" stroke="#999999" points="250.5,-19 126.5,-19 126.5,0 250.5,0 250.5,-19"/>
<text text-anchor="middle" x="188.5" y="-7" font-family="Helvetica,sans-Serif" font-size="10.00">Foundation/Foundation.h</text>
</a>
</g>
</g>
<!-- Node3&#45;&gt;Node4 -->
<g id="edge3" class="edge">
<title>Node3&#45;&gt;Node4</title>
<path fill="none" stroke="#63b8ff" d="M156.9,-109.74C158.99,-97.36 163.36,-74.14 169.5,-55 172.39,-46 176.4,-36.32 180,-28.29"/>
<polygon fill="#63b8ff" stroke="#63b8ff" points="183.19,-29.73 184.22,-19.18 176.84,-26.78 183.19,-29.73"/>
</g>
<!-- Node5 -->
<g id="node5" class="node">
<title>Node5</title>
<g id="a_node5"><a xlink:href="_rcv_render_mode_8h.html" target="_top" xlink:title=" ">
<polygon fill="white" stroke="#666666" points="276.5,-74 178.5,-74 178.5,-55 276.5,-55 276.5,-74"/>
<text text-anchor="middle" x="227.5" y="-62" font-family="Helvetica,sans-Serif" font-size="10.00">RcvRenderMode.h</text>
</a>
</g>
</g>
<!-- Node3&#45;&gt;Node5 -->
<g id="edge5" class="edge">
<title>Node3&#45;&gt;Node5</title>
<path fill="none" stroke="#63b8ff" d="M167.07,-109.98C177.92,-102 194.38,-89.88 207.38,-80.31"/>
<polygon fill="#63b8ff" stroke="#63b8ff" points="209.74,-82.92 215.72,-74.17 205.59,-77.28 209.74,-82.92"/>
</g>
<!-- Node5&#45;&gt;Node4 -->
<g id="edge6" class="edge">
<title>Node5&#45;&gt;Node4</title>
<path fill="none" stroke="#63b8ff" d="M221.06,-54.75C215.61,-47.34 207.64,-36.5 200.94,-27.41"/>
<polygon fill="#63b8ff" stroke="#63b8ff" points="203.57,-25.07 194.82,-19.09 197.93,-29.22 203.57,-25.07"/>
</g>
</g>
</svg>
