<?xml version="1.0" encoding="UTF-8" standalone="no"?>
<!DOCTYPE svg PUBLIC "-//W3C//DTD SVG 1.1//EN"
 "http://www.w3.org/Graphics/SVG/1.1/DTD/svg11.dtd">
<!-- Generated by graphviz version 6.0.1 (20220911.1526)
 -->
<!-- Title: rcvsdk/ios/rcvsdk/RcvOpenGLVideoView.h Pages: 1 -->
<svg width="273pt" height="192pt"
 viewBox="0.00 0.00 272.50 192.00" xmlns="http://www.w3.org/2000/svg" xmlns:xlink="http://www.w3.org/1999/xlink">
<g id="graph0" class="graph" transform="scale(1 1) rotate(0) translate(4 188)">
<title>rcvsdk/ios/rcvsdk/RcvOpenGLVideoView.h</title>
<!-- Node1 -->
<g id="node1" class="node">
<title>Node1</title>
<g id="a_node1"><a xlink:title=" ">
<polygon fill="#999999" stroke="#666666" points="203,-184 0,-184 0,-165 203,-165 203,-184"/>
<text text-anchor="middle" x="101.5" y="-172" font-family="Helvetica,sans-Serif" font-size="10.00">rcvsdk/ios/rcvsdk/RcvOpenGLVideoView.h</text>
</a>
</g>
</g>
<!-- Node2 -->
<g id="node2" class="node">
<title>Node2</title>
<g id="a_node2"><a xlink:title=" ">
<polygon fill="#e0e0e0" stroke="#999999" points="106,-74 33,-74 33,-55 106,-55 106,-74"/>
<text text-anchor="middle" x="69.5" y="-62" font-family="Helvetica,sans-Serif" font-size="10.00">UIKit/UIKit.h</text>
</a>
</g>
</g>
<!-- Node1&#45;&gt;Node2 -->
<g id="edge1" class="edge">
<title>Node1&#45;&gt;Node2</title>
<path fill="none" stroke="#63b8ff" d="M96.3,-164.96C91.23,-156.24 83.68,-142.14 79.5,-129 74.89,-114.5 72.36,-97.45 70.99,-84.66"/>
<polygon fill="#63b8ff" stroke="#63b8ff" points="74.44,-83.96 70.04,-74.32 67.47,-84.6 74.44,-83.96"/>
</g>
<!-- Node3 -->
<g id="node3" class="node">
<title>Node3</title>
<g id="a_node3"><a xlink:href="_rcv_base_video_view_8h.html" target="_top" xlink:title=" ">
<polygon fill="white" stroke="#666666" points="198.5,-129 88.5,-129 88.5,-110 198.5,-110 198.5,-129"/>
<text text-anchor="middle" x="143.5" y="-117" font-family="Helvetica,sans-Serif" font-size="10.00">RcvBaseVideoView.h</text>
</a>
</g>
</g>
<!-- Node1&#45;&gt;Node3 -->
<g id="edge2" class="edge">
<title>Node1&#45;&gt;Node3</title>
<path fill="none" stroke="#63b8ff" d="M108.44,-164.75C114.37,-157.26 123.07,-146.28 130.32,-137.13"/>
<polygon fill="#63b8ff" stroke="#63b8ff" points="133.23,-139.1 136.69,-129.09 127.74,-134.75 133.23,-139.1"/>
</g>
<!-- Node3&#45;&gt;Node2 -->
<g id="edge4" class="edge">
<title>Node3&#45;&gt;Node2</title>
<path fill="none" stroke="#63b8ff" d="M131.61,-109.98C120.35,-101.92 103.21,-89.65 89.79,-80.03"/>
<polygon fill="#63b8ff" stroke="#63b8ff" points="91.77,-77.15 81.61,-74.17 87.7,-82.84 91.77,-77.15"/>
</g>
<!-- Node4 -->
<g id="node4" class="node">
<title>Node4</title>
<g id="a_node4"><a xlink:title=" ">
<polygon fill="#e0e0e0" stroke="#999999" points="238.5,-19 114.5,-19 114.5,0 238.5,0 238.5,-19"/>
<text text-anchor="middle" x="176.5" y="-7" font-family="Helvetica,sans-Serif" font-size="10.00">Foundation/Foundation.h</text>
</a>
</g>
</g>
<!-- Node3&#45;&gt;Node4 -->
<g id="edge3" class="edge">
<title>Node3&#45;&gt;Node4</title>
<path fill="none" stroke="#63b8ff" d="M144.9,-109.74C146.99,-97.36 151.36,-74.14 157.5,-55 160.39,-46 164.4,-36.32 168,-28.29"/>
<polygon fill="#63b8ff" stroke="#63b8ff" points="171.19,-29.73 172.22,-19.18 164.84,-26.78 171.19,-29.73"/>
</g>
<!-- Node5 -->
<g id="node5" class="node">
<title>Node5</title>
<g id="a_node5"><a xlink:href="_rcv_render_mode_8h.html" target="_top" xlink:title=" ">
<polygon fill="white" stroke="#666666" points="264.5,-74 166.5,-74 166.5,-55 264.5,-55 264.5,-74"/>
<text text-anchor="middle" x="215.5" y="-62" font-family="Helvetica,sans-Serif" font-size="10.00">RcvRenderMode.h</text>
</a>
</g>
</g>
<!-- Node3&#45;&gt;Node5 -->
<g id="edge5" class="edge">
<title>Node3&#45;&gt;Node5</title>
<path fill="none" stroke="#63b8ff" d="M155.07,-109.98C165.92,-102 182.38,-89.88 195.38,-80.31"/>
<polygon fill="#63b8ff" stroke="#63b8ff" points="197.74,-82.92 203.72,-74.17 193.59,-77.28 197.74,-82.92"/>
</g>
<!-- Node5&#45;&gt;Node4 -->
<g id="edge6" class="edge">
<title>Node5&#45;&gt;Node4</title>
<path fill="none" stroke="#63b8ff" d="M209.06,-54.75C203.61,-47.34 195.64,-36.5 188.94,-27.41"/>
<polygon fill="#63b8ff" stroke="#63b8ff" points="191.57,-25.07 182.82,-19.09 185.93,-29.22 191.57,-25.07"/>
</g>
</g>
</svg>
