<?xml version="1.0" encoding="UTF-8" standalone="no"?>
<!DOCTYPE svg PUBLIC "-//W3C//DTD SVG 1.1//EN"
 "http://www.w3.org/Graphics/SVG/1.1/DTD/svg11.dtd">
<!-- Generated by graphviz version 6.0.1 (20220911.1526)
 -->
<!-- Title: rcvsdk/ios/rcvsdk/RcvEngineEventHandler.h Pages: 1 -->
<svg width="269pt" height="137pt"
 viewBox="0.00 0.00 269.00 137.00" xmlns="http://www.w3.org/2000/svg" xmlns:xlink="http://www.w3.org/1999/xlink">
<g id="graph0" class="graph" transform="scale(1 1) rotate(0) translate(4 133)">
<title>rcvsdk/ios/rcvsdk/RcvEngineEventHandler.h</title>
<!-- Node1 -->
<g id="node1" class="node">
<title>Node1</title>
<g id="a_node1"><a xlink:title=" ">
<polygon fill="#999999" stroke="#666666" points="237.5,-129 25.5,-129 25.5,-110 237.5,-110 237.5,-129"/>
<text text-anchor="middle" x="131.5" y="-117" font-family="Helvetica,sans-Serif" font-size="10.00">rcvsdk/ios/rcvsdk/RcvEngineEventHandler.h</text>
</a>
</g>
</g>
<!-- Node2 -->
<g id="node2" class="node">
<title>Node2</title>
<g id="a_node2"><a xlink:href="_rcv_leave_reason_8h.html" target="_top" xlink:title=" ">
<polygon fill="white" stroke="#666666" points="103,-74 0,-74 0,-55 103,-55 103,-74"/>
<text text-anchor="middle" x="51.5" y="-62" font-family="Helvetica,sans-Serif" font-size="10.00">RcvLeaveReason.h</text>
</a>
</g>
</g>
<!-- Node1&#45;&gt;Node2 -->
<g id="edge1" class="edge">
<title>Node1&#45;&gt;Node2</title>
<path fill="none" stroke="#63b8ff" d="M118.65,-109.98C106.36,-101.84 87.59,-89.41 73.02,-79.76"/>
<polygon fill="#63b8ff" stroke="#63b8ff" points="74.86,-76.78 64.59,-74.17 70.99,-82.61 74.86,-76.78"/>
</g>
<!-- Node3 -->
<g id="node3" class="node">
<title>Node3</title>
<g id="a_node3"><a xlink:title=" ">
<polygon fill="#e0e0e0" stroke="#999999" points="193.5,-19 69.5,-19 69.5,0 193.5,0 193.5,-19"/>
<text text-anchor="middle" x="131.5" y="-7" font-family="Helvetica,sans-Serif" font-size="10.00">Foundation/Foundation.h</text>
</a>
</g>
</g>
<!-- Node1&#45;&gt;Node3 -->
<g id="edge5" class="edge">
<title>Node1&#45;&gt;Node3</title>
<path fill="none" stroke="#63b8ff" d="M131.5,-109.66C131.5,-92.17 131.5,-52.8 131.5,-29.27"/>
<polygon fill="#63b8ff" stroke="#63b8ff" points="135,-29.16 131.5,-19.16 128,-29.16 135,-29.16"/>
</g>
<!-- Node4 -->
<g id="node4" class="node">
<title>Node4</title>
<g id="a_node4"><a xlink:href="_rcv_meeting_state_8h.html" target="_top" xlink:title=" ">
<polygon fill="white" stroke="#666666" points="261,-74 160,-74 160,-55 261,-55 261,-74"/>
<text text-anchor="middle" x="210.5" y="-62" font-family="Helvetica,sans-Serif" font-size="10.00">RcvMeetingState.h</text>
</a>
</g>
</g>
<!-- Node1&#45;&gt;Node4 -->
<g id="edge3" class="edge">
<title>Node1&#45;&gt;Node4</title>
<path fill="none" stroke="#63b8ff" d="M144.19,-109.98C156.33,-101.84 174.86,-89.41 189.25,-79.76"/>
<polygon fill="#63b8ff" stroke="#63b8ff" points="191.22,-82.65 197.58,-74.17 187.32,-76.84 191.22,-82.65"/>
</g>
<!-- Node2&#45;&gt;Node3 -->
<g id="edge2" class="edge">
<title>Node2&#45;&gt;Node3</title>
<path fill="none" stroke="#63b8ff" d="M64.35,-54.98C76.64,-46.84 95.41,-34.41 109.98,-24.76"/>
<polygon fill="#63b8ff" stroke="#63b8ff" points="112.01,-27.61 118.41,-19.17 108.14,-21.78 112.01,-27.61"/>
</g>
<!-- Node4&#45;&gt;Node3 -->
<g id="edge4" class="edge">
<title>Node4&#45;&gt;Node3</title>
<path fill="none" stroke="#63b8ff" d="M197.81,-54.98C185.67,-46.84 167.14,-34.41 152.75,-24.76"/>
<polygon fill="#63b8ff" stroke="#63b8ff" points="154.68,-21.84 144.42,-19.17 150.78,-27.65 154.68,-21.84"/>
</g>
</g>
</svg>
