<?xml version="1.0" encoding="UTF-8" standalone="no"?>
<!DOCTYPE svg PUBLIC "-//W3C//DTD SVG 1.1//EN"
 "http://www.w3.org/Graphics/SVG/1.1/DTD/svg11.dtd">
<!-- Generated by graphviz version 7.0.0 (20221023.0053)
 -->
<!-- Title: rcvsdk/ios/rcvsdk/RcvOauthOptions.h Pages: 1 -->
<svg width="191pt" height="137pt"
 viewBox="0.00 0.00 191.00 137.00" xmlns="http://www.w3.org/2000/svg" xmlns:xlink="http://www.w3.org/1999/xlink">
<g id="graph0" class="graph" transform="scale(1 1) rotate(0) translate(4 133)">
<title>rcvsdk/ios/rcvsdk/RcvOauthOptions.h</title>
<!-- Node1 -->
<g id="node1" class="node">
<title>Node1</title>
<g id="a_node1"><a xlink:title=" ">
<polygon fill="#999999" stroke="#666666" points="183,-129 0,-129 0,-110 183,-110 183,-129"/>
<text text-anchor="middle" x="91.5" y="-117" font-family="Helvetica,sans-Serif" font-size="10.00">rcvsdk/ios/rcvsdk/RcvOauthOptions.h</text>
</a>
</g>
</g>
<!-- Node2 -->
<g id="node2" class="node">
<title>Node2</title>
<g id="a_node2"><a xlink:href="_rcv_grant_type_8h.html" target="_top" xlink:title=" ">
<polygon fill="white" stroke="#666666" points="99.5,-74 11.5,-74 11.5,-55 99.5,-55 99.5,-74"/>
<text text-anchor="middle" x="55.5" y="-62" font-family="Helvetica,sans-Serif" font-size="10.00">RcvGrantType.h</text>
</a>
</g>
</g>
<!-- Node1&#45;&gt;Node2 -->
<g id="edge1" class="edge">
<title>Node1&#45;&gt;Node2</title>
<path fill="none" stroke="#63b8ff" d="M85.56,-109.75C80.79,-102.73 73.94,-92.64 67.98,-83.87"/>
<polygon fill="#63b8ff" stroke="#63b8ff" points="70.94,-82 62.42,-75.69 65.15,-85.93 70.94,-82"/>
</g>
<!-- Node3 -->
<g id="node3" class="node">
<title>Node3</title>
<g id="a_node3"><a xlink:title=" ">
<polygon fill="#e0e0e0" stroke="#999999" points="153.5,-19 29.5,-19 29.5,0 153.5,0 153.5,-19"/>
<text text-anchor="middle" x="91.5" y="-7" font-family="Helvetica,sans-Serif" font-size="10.00">Foundation/Foundation.h</text>
</a>
</g>
</g>
<!-- Node1&#45;&gt;Node3 -->
<g id="edge3" class="edge">
<title>Node1&#45;&gt;Node3</title>
<path fill="none" stroke="#63b8ff" d="M96.02,-109.58C100.21,-100.79 106.13,-86.85 108.5,-74 111.29,-58.88 106.43,-42.08 101.21,-29.56"/>
<polygon fill="#63b8ff" stroke="#63b8ff" points="104.53,-28.41 97.15,-20.81 98.18,-31.36 104.53,-28.41"/>
</g>
<!-- Node2&#45;&gt;Node3 -->
<g id="edge2" class="edge">
<title>Node2&#45;&gt;Node3</title>
<path fill="none" stroke="#63b8ff" d="M61.44,-54.75C66.21,-47.73 73.06,-37.64 79.02,-28.87"/>
<polygon fill="#63b8ff" stroke="#63b8ff" points="81.85,-30.93 84.58,-20.69 76.06,-27 81.85,-30.93"/>
</g>
</g>
</svg>
