<?xml version="1.0" encoding="UTF-8" standalone="no"?>
<!DOCTYPE svg PUBLIC "-//W3C//DTD SVG 1.1//EN"
 "http://www.w3.org/Graphics/SVG/1.1/DTD/svg11.dtd">
<!-- Generated by graphviz version 7.0.0 (20221023.0053)
 -->
<!-- Title: rcvsdk/ios/rcvsdk/RcvWaitingRoomMode.h Pages: 1 -->
<svg width="954pt" height="137pt"
 viewBox="0.00 0.00 954.00 137.00" xmlns="http://www.w3.org/2000/svg" xmlns:xlink="http://www.w3.org/1999/xlink">
<g id="graph0" class="graph" transform="scale(1 1) rotate(0) translate(4 133)">
<title>rcvsdk/ios/rcvsdk/RcvWaitingRoomMode.h</title>
<!-- Node1 -->
<g id="node1" class="node">
<title>Node1</title>
<g id="a_node1"><a xlink:title=" ">
<polygon fill="#999999" stroke="#666666" points="563,-129 357,-129 357,-110 563,-110 563,-129"/>
<text text-anchor="middle" x="460" y="-117" font-family="Helvetica,sans-Serif" font-size="10.00">rcvsdk/ios/rcvsdk/RcvWaitingRoomMode.h</text>
</a>
</g>
</g>
<!-- Node2 -->
<g id="node2" class="node">
<title>Node2</title>
<g id="a_node2"><a xlink:href="_rcv_instant_meeting_settings_8h.html" target="_top" xlink:title=" ">
<polygon fill="white" stroke="#666666" points="224,-74 0,-74 0,-55 224,-55 224,-74"/>
<text text-anchor="middle" x="112" y="-62" font-family="Helvetica,sans-Serif" font-size="10.00">rcvsdk/ios/rcvsdk/RcvInstantMeetingSettings.h</text>
</a>
</g>
</g>
<!-- Node1&#45;&gt;Node2 -->
<g id="edge1" class="edge">
<title>Node1&#45;&gt;Node2</title>
<path fill="none" stroke="#63b8ff" d="M389.73,-107.8C325.47,-98.01 231.49,-83.7 171.03,-74.49"/>
<polygon fill="#63b8ff" stroke="#63b8ff" points="389.06,-111.24 399.47,-109.28 390.11,-104.32 389.06,-111.24"/>
</g>
<!-- Node4 -->
<g id="node4" class="node">
<title>Node4</title>
<g id="a_node4"><a xlink:href="_rcv_meeting_bridge_info_8h.html" target="_top" xlink:title=" ">
<polygon fill="white" stroke="#666666" points="444,-74 242,-74 242,-55 444,-55 444,-74"/>
<text text-anchor="middle" x="343" y="-62" font-family="Helvetica,sans-Serif" font-size="10.00">rcvsdk/ios/rcvsdk/RcvMeetingBridgeInfo.h</text>
</a>
</g>
</g>
<!-- Node1&#45;&gt;Node4 -->
<g id="edge3" class="edge">
<title>Node1&#45;&gt;Node4</title>
<path fill="none" stroke="#63b8ff" d="M429.75,-104.8C408.57,-95.2 380.89,-82.66 362.55,-74.36"/>
<polygon fill="#63b8ff" stroke="#63b8ff" points="428.22,-107.95 438.77,-108.88 431.11,-101.57 428.22,-107.95"/>
</g>
<!-- Node5 -->
<g id="node5" class="node">
<title>Node5</title>
<g id="a_node5"><a xlink:href="_rcv_personal_meeting_settings_8h.html" target="_top" xlink:title=" ">
<polygon fill="white" stroke="#666666" points="694,-74 462,-74 462,-55 694,-55 694,-74"/>
<text text-anchor="middle" x="578" y="-62" font-family="Helvetica,sans-Serif" font-size="10.00">rcvsdk/ios/rcvsdk/RcvPersonalMeetingSettings.h</text>
</a>
</g>
</g>
<!-- Node1&#45;&gt;Node5 -->
<g id="edge5" class="edge">
<title>Node1&#45;&gt;Node5</title>
<path fill="none" stroke="#63b8ff" d="M490.51,-104.8C511.87,-95.2 539.79,-82.66 558.28,-74.36"/>
<polygon fill="#63b8ff" stroke="#63b8ff" points="489.09,-101.6 481.4,-108.89 491.95,-107.98 489.09,-101.6"/>
</g>
<!-- Node6 -->
<g id="node6" class="node">
<title>Node6</title>
<g id="a_node6"><a xlink:href="_rcv_schedule_meeting_settings_8h.html" target="_top" xlink:title=" ">
<polygon fill="white" stroke="#666666" points="946,-74 712,-74 712,-55 946,-55 946,-74"/>
<text text-anchor="middle" x="829" y="-62" font-family="Helvetica,sans-Serif" font-size="10.00">rcvsdk/ios/rcvsdk/RcvScheduleMeetingSettings.h</text>
</a>
</g>
</g>
<!-- Node1&#45;&gt;Node6 -->
<g id="edge7" class="edge">
<title>Node1&#45;&gt;Node6</title>
<path fill="none" stroke="#63b8ff" d="M533.67,-107.92C601.82,-98.13 702.03,-83.74 766.41,-74.49"/>
<polygon fill="#63b8ff" stroke="#63b8ff" points="533.49,-104.41 524.09,-109.29 534.49,-111.34 533.49,-104.41"/>
</g>
<!-- Node3 -->
<g id="node3" class="node">
<title>Node3</title>
<g id="a_node3"><a xlink:href="_rcv_s_d_k_8h.html" target="_top" xlink:title=" ">
<polygon fill="white" stroke="#666666" points="532,-19 388,-19 388,0 532,0 532,-19"/>
<text text-anchor="middle" x="460" y="-7" font-family="Helvetica,sans-Serif" font-size="10.00">rcvsdk/ios/rcvsdk/RcvSDK.h</text>
</a>
</g>
</g>
<!-- Node2&#45;&gt;Node3 -->
<g id="edge2" class="edge">
<title>Node2&#45;&gt;Node3</title>
<path fill="none" stroke="#63b8ff" d="M182.27,-52.8C246.53,-43.01 340.51,-28.7 400.97,-19.49"/>
<polygon fill="#63b8ff" stroke="#63b8ff" points="181.89,-49.32 172.53,-54.28 182.94,-56.24 181.89,-49.32"/>
</g>
<!-- Node4&#45;&gt;Node3 -->
<g id="edge4" class="edge">
<title>Node4&#45;&gt;Node3</title>
<path fill="none" stroke="#63b8ff" d="M373.25,-49.8C394.43,-40.2 422.11,-27.66 440.45,-19.36"/>
<polygon fill="#63b8ff" stroke="#63b8ff" points="371.89,-46.57 364.23,-53.88 374.78,-52.95 371.89,-46.57"/>
</g>
<!-- Node5&#45;&gt;Node3 -->
<g id="edge6" class="edge">
<title>Node5&#45;&gt;Node3</title>
<path fill="none" stroke="#63b8ff" d="M547.49,-49.8C526.13,-40.2 498.21,-27.66 479.72,-19.36"/>
<polygon fill="#63b8ff" stroke="#63b8ff" points="546.05,-52.98 556.6,-53.89 548.91,-46.6 546.05,-52.98"/>
</g>
<!-- Node6&#45;&gt;Node3 -->
<g id="edge8" class="edge">
<title>Node6&#45;&gt;Node3</title>
<path fill="none" stroke="#63b8ff" d="M755.33,-52.92C687.18,-43.13 586.97,-28.74 522.59,-19.49"/>
<polygon fill="#63b8ff" stroke="#63b8ff" points="754.51,-56.34 764.91,-54.29 755.51,-49.41 754.51,-56.34"/>
</g>
</g>
</svg>
