<?xml version="1.0" encoding="UTF-8" standalone="no"?>
<!DOCTYPE svg PUBLIC "-//W3C//DTD SVG 1.1//EN"
 "http://www.w3.org/Graphics/SVG/1.1/DTD/svg11.dtd">
<!-- Generated by graphviz version 7.0.0 (20221023.0053)
 -->
<!-- Title: Graphical Class Hierarchy Pages: 1 -->
<svg width="295pt" height="841pt"
 viewBox="0.00 0.00 295.00 841.00" xmlns="http://www.w3.org/2000/svg" xmlns:xlink="http://www.w3.org/1999/xlink">
<g id="graph0" class="graph" transform="scale(1 1) rotate(0) translate(4 837)">
<title>Graphical Class Hierarchy</title>
<!-- Node0 -->
<g id="node1" class="node">
<title>Node0</title>
<g id="a_node1"><a xlink:title=" ">
<polygon fill="#e0e0e0" stroke="#999999" points="82,-426 23,-426 23,-407 82,-407 82,-426"/>
<text text-anchor="middle" x="52.5" y="-414" font-family="Helvetica,sans-Serif" font-size="10.00">NSObject</text>
</a>
</g>
</g>
<!-- Node1 -->
<g id="node2" class="node">
<title>Node1</title>
<g id="a_node2"><a xlink:href="interface_r_c_video_canvas.html" target="_top" xlink:title=" ">
<polygon fill="white" stroke="#666666" points="259,-833 169,-833 169,-814 259,-814 259,-833"/>
<text text-anchor="middle" x="214" y="-821" font-family="Helvetica,sans-Serif" font-size="10.00">RCVideoCanvas</text>
</a>
</g>
</g>
<!-- Node0&#45;&gt;Node1 -->
<g id="edge1" class="edge">
<title>Node0&#45;&gt;Node1</title>
<path fill="none" stroke="#63b8ff" d="M55.37,-437.6C62.26,-510.74 88.65,-751.89 141,-805.5 148.38,-813.06 158.42,-817.62 168.66,-820.33"/>
<polygon fill="#63b8ff" stroke="#63b8ff" points="58.87,-437.46 54.47,-427.82 51.9,-438.1 58.87,-437.46"/>
</g>
<!-- Node3 -->
<g id="node3" class="node">
<title>Node3</title>
<g id="a_node3"><a xlink:href="interface_rcv_audio_controller.html" target="_top" xlink:title=" ">
<polygon fill="white" stroke="#666666" points="264.5,-796 163.5,-796 163.5,-777 264.5,-777 264.5,-796"/>
<text text-anchor="middle" x="214" y="-784" font-family="Helvetica,sans-Serif" font-size="10.00">RcvAudioController</text>
</a>
</g>
</g>
<!-- Node0&#45;&gt;Node3 -->
<g id="edge2" class="edge">
<title>Node0&#45;&gt;Node3</title>
<path fill="none" stroke="#63b8ff" d="M55.96,-437.69C64.32,-506.14 93.77,-719.62 141,-767.5 147.08,-773.67 154.91,-777.91 163.16,-780.81"/>
<polygon fill="#63b8ff" stroke="#63b8ff" points="59.45,-437.37 54.79,-427.85 52.49,-438.2 59.45,-437.37"/>
</g>
<!-- Node4 -->
<g id="node4" class="node">
<title>Node4</title>
<g id="a_node4"><a xlink:href="interface_rcv_audio_device_manager.html" target="_top" xlink:title=" ">
<polygon fill="white" stroke="#666666" points="278,-759 150,-759 150,-740 278,-740 278,-759"/>
<text text-anchor="middle" x="214" y="-747" font-family="Helvetica,sans-Serif" font-size="10.00">RcvAudioDeviceManager</text>
</a>
</g>
</g>
<!-- Node0&#45;&gt;Node4 -->
<g id="edge3" class="edge">
<title>Node0&#45;&gt;Node4</title>
<path fill="none" stroke="#63b8ff" d="M52.72,-437.66C51.87,-493.88 57.65,-648.28 141,-730.5 144.68,-734.13 148.97,-737.09 153.59,-739.5"/>
<polygon fill="#63b8ff" stroke="#63b8ff" points="56.21,-437.99 52.97,-427.9 49.22,-437.81 56.21,-437.99"/>
</g>
<!-- Node5 -->
<g id="node5" class="node">
<title>Node5</title>
<g id="a_node5"><a xlink:href="interface_rcv_closed_captions_controller.html" target="_top" xlink:title=" ">
<polygon fill="white" stroke="#666666" points="287,-722 141,-722 141,-703 287,-703 287,-722"/>
<text text-anchor="middle" x="214" y="-710" font-family="Helvetica,sans-Serif" font-size="10.00">RcvClosedCaptionsController</text>
</a>
</g>
</g>
<!-- Node0&#45;&gt;Node5 -->
<g id="edge4" class="edge">
<title>Node0&#45;&gt;Node5</title>
<path fill="none" stroke="#63b8ff" d="M53.65,-437.56C55.21,-489.11 66.62,-622.61 141,-693.5 144.84,-697.16 149.29,-700.13 154.07,-702.54"/>
<polygon fill="#63b8ff" stroke="#63b8ff" points="57.16,-437.75 53.46,-427.82 50.16,-437.88 57.16,-437.75"/>
</g>
<!-- Node6 -->
<g id="node6" class="node">
<title>Node6</title>
<g id="a_node6"><a xlink:href="interface_rcv_closed_captions_data.html" target="_top" xlink:title=" ">
<polygon fill="white" stroke="#666666" points="276.5,-685 151.5,-685 151.5,-666 276.5,-666 276.5,-685"/>
<text text-anchor="middle" x="214" y="-673" font-family="Helvetica,sans-Serif" font-size="10.00">RcvClosedCaptionsData</text>
</a>
</g>
</g>
<!-- Node0&#45;&gt;Node6 -->
<g id="edge5" class="edge">
<title>Node0&#45;&gt;Node6</title>
<path fill="none" stroke="#63b8ff" d="M54.87,-437.86C59.05,-484.69 75.72,-596.94 141,-656.5 145.01,-660.16 149.64,-663.13 154.59,-665.54"/>
<polygon fill="#63b8ff" stroke="#63b8ff" points="58.37,-437.7 54.11,-428 51.39,-438.24 58.37,-437.7"/>
</g>
<!-- Node7 -->
<g id="node7" class="node">
<title>Node7</title>
<g id="a_node7"><a xlink:href="interface_rcv_engine.html" target="_top" xlink:title=" ">
<polygon fill="white" stroke="#666666" points="246.5,-648 181.5,-648 181.5,-629 246.5,-629 246.5,-648"/>
<text text-anchor="middle" x="214" y="-636" font-family="Helvetica,sans-Serif" font-size="10.00">RcvEngine</text>
</a>
</g>
</g>
<!-- Node0&#45;&gt;Node7 -->
<g id="edge6" class="edge">
<title>Node0&#45;&gt;Node7</title>
<path fill="none" stroke="#63b8ff" d="M56.44,-437.63C63.33,-478.99 84.46,-570.81 141,-619.5 152.07,-629.03 167.4,-633.85 181.06,-636.26"/>
<polygon fill="#63b8ff" stroke="#63b8ff" points="59.91,-437.16 54.93,-427.81 52.99,-438.22 59.91,-437.16"/>
</g>
<!-- Node8 -->
<g id="node8" class="node">
<title>Node8</title>
<g id="a_node8"><a xlink:href="interface_rcv_i_participant.html" target="_top" xlink:title=" ">
<polygon fill="white" stroke="#666666" points="256,-611 172,-611 172,-592 256,-592 256,-611"/>
<text text-anchor="middle" x="214" y="-599" font-family="Helvetica,sans-Serif" font-size="10.00">RcvIParticipant</text>
</a>
</g>
</g>
<!-- Node0&#45;&gt;Node8 -->
<g id="edge7" class="edge">
<title>Node0&#45;&gt;Node8</title>
<path fill="none" stroke="#63b8ff" d="M58.48,-436.93C68.15,-472.15 92.87,-544.23 141,-582.5 149.8,-589.5 160.94,-593.94 171.8,-596.74"/>
<polygon fill="#63b8ff" stroke="#63b8ff" points="61.95,-436.38 56.05,-427.58 55.18,-438.14 61.95,-436.38"/>
</g>
<!-- Node9 -->
<g id="node9" class="node">
<title>Node9</title>
<g id="a_node9"><a xlink:href="interface_rcv_instant_meeting_settings.html" target="_top" xlink:title=" ">
<polygon fill="white" stroke="#666666" points="281.5,-574 146.5,-574 146.5,-555 281.5,-555 281.5,-574"/>
<text text-anchor="middle" x="214" y="-562" font-family="Helvetica,sans-Serif" font-size="10.00">RcvInstantMeetingSettings</text>
</a>
</g>
</g>
<!-- Node0&#45;&gt;Node9 -->
<g id="edge8" class="edge">
<title>Node0&#45;&gt;Node9</title>
<path fill="none" stroke="#63b8ff" d="M61.7,-436.75C74.35,-465.41 101.41,-517.45 141,-545.5 146.17,-549.16 152,-552.12 158.04,-554.5"/>
<polygon fill="#63b8ff" stroke="#63b8ff" points="65.01,-435.59 57.88,-427.75 58.56,-438.32 65.01,-435.59"/>
</g>
<!-- Node10 -->
<g id="node10" class="node">
<title>Node10</title>
<g id="a_node10"><a xlink:href="interface_rcv_meeting_bridge_info.html" target="_top" xlink:title=" ">
<polygon fill="white" stroke="#666666" points="270.5,-537 157.5,-537 157.5,-518 270.5,-518 270.5,-537"/>
<text text-anchor="middle" x="214" y="-525" font-family="Helvetica,sans-Serif" font-size="10.00">RcvMeetingBridgeInfo</text>
</a>
</g>
</g>
<!-- Node0&#45;&gt;Node10 -->
<g id="edge9" class="edge">
<title>Node0&#45;&gt;Node10</title>
<path fill="none" stroke="#63b8ff" d="M66.46,-435.44C81.83,-456.43 109.37,-489.79 141,-508.5 147.23,-512.19 154.18,-515.17 161.24,-517.58"/>
<polygon fill="#63b8ff" stroke="#63b8ff" points="69.45,-433.6 60.81,-427.48 63.75,-437.66 69.45,-433.6"/>
</g>
<!-- Node11 -->
<g id="node11" class="node">
<title>Node11</title>
<g id="a_node11"><a xlink:href="interface_rcv_meeting_chat_controller.html" target="_top" xlink:title=" ">
<polygon fill="white" stroke="#666666" points="280,-500 148,-500 148,-481 280,-481 280,-500"/>
<text text-anchor="middle" x="214" y="-488" font-family="Helvetica,sans-Serif" font-size="10.00">RcvMeetingChatController</text>
</a>
</g>
</g>
<!-- Node0&#45;&gt;Node11 -->
<g id="edge10" class="edge">
<title>Node0&#45;&gt;Node11</title>
<path fill="none" stroke="#63b8ff" d="M75.56,-433.02C92.65,-445.14 117.34,-461.23 141,-471.5 149.18,-475.05 158.18,-478.07 166.97,-480.58"/>
<polygon fill="#63b8ff" stroke="#63b8ff" points="77.81,-430.33 67.66,-427.3 73.71,-436 77.81,-430.33"/>
</g>
<!-- Node12 -->
<g id="node12" class="node">
<title>Node12</title>
<g id="a_node12"><a xlink:href="interface_rcv_meeting_chat_message.html" target="_top" xlink:title=" ">
<polygon fill="white" stroke="#666666" points="279,-463 149,-463 149,-444 279,-444 279,-463"/>
<text text-anchor="middle" x="214" y="-451" font-family="Helvetica,sans-Serif" font-size="10.00">RcvMeetingChatMessage</text>
</a>
</g>
</g>
<!-- Node0&#45;&gt;Node12 -->
<g id="edge11" class="edge">
<title>Node0&#45;&gt;Node12</title>
<path fill="none" stroke="#63b8ff" d="M93.28,-425.73C116.59,-431.14 146.04,-437.97 169.9,-443.5"/>
<polygon fill="#63b8ff" stroke="#63b8ff" points="94.39,-422.39 83.86,-423.54 92.81,-429.21 94.39,-422.39"/>
</g>
<!-- Node13 -->
<g id="node13" class="node">
<title>Node13</title>
<g id="a_node13"><a xlink:href="interface_rcv_meeting_context_controller.html" target="_top" xlink:title=" ">
<polygon fill="white" stroke="#666666" points="287,-426 141,-426 141,-407 287,-407 287,-426"/>
<text text-anchor="middle" x="214" y="-414" font-family="Helvetica,sans-Serif" font-size="10.00">RcvMeetingContextController</text>
</a>
</g>
</g>
<!-- Node0&#45;&gt;Node13 -->
<g id="edge12" class="edge">
<title>Node0&#45;&gt;Node13</title>
<path fill="none" stroke="#63b8ff" d="M93.75,-416.5C107.98,-416.5 124.45,-416.5 140.53,-416.5"/>
<polygon fill="#63b8ff" stroke="#63b8ff" points="93.9,-413 83.9,-416.5 93.9,-420 93.9,-413"/>
</g>
<!-- Node14 -->
<g id="node14" class="node">
<title>Node14</title>
<g id="a_node14"><a xlink:href="interface_rcv_meeting_controller.html" target="_top" xlink:title=" ">
<polygon fill="white" stroke="#666666" points="269.5,-389 158.5,-389 158.5,-370 269.5,-370 269.5,-389"/>
<text text-anchor="middle" x="214" y="-377" font-family="Helvetica,sans-Serif" font-size="10.00">RcvMeetingController</text>
</a>
</g>
</g>
<!-- Node0&#45;&gt;Node14 -->
<g id="edge13" class="edge">
<title>Node0&#45;&gt;Node14</title>
<path fill="none" stroke="#63b8ff" d="M93.28,-407.27C116.59,-401.86 146.04,-395.03 169.9,-389.5"/>
<polygon fill="#63b8ff" stroke="#63b8ff" points="92.81,-403.79 83.86,-409.46 94.39,-410.61 92.81,-403.79"/>
</g>
<!-- Node15 -->
<g id="node15" class="node">
<title>Node15</title>
<g id="a_node15"><a xlink:href="interface_rcv_meeting_options.html" target="_top" xlink:title=" ">
<polygon fill="white" stroke="#666666" points="265.5,-352 162.5,-352 162.5,-333 265.5,-333 265.5,-352"/>
<text text-anchor="middle" x="214" y="-340" font-family="Helvetica,sans-Serif" font-size="10.00">RcvMeetingOptions</text>
</a>
</g>
</g>
<!-- Node0&#45;&gt;Node15 -->
<g id="edge14" class="edge">
<title>Node0&#45;&gt;Node15</title>
<path fill="none" stroke="#63b8ff" d="M75.18,-399.79C92.24,-387.36 117.05,-370.83 141,-360.5 148.34,-357.34 156.34,-354.65 164.26,-352.39"/>
<polygon fill="#63b8ff" stroke="#63b8ff" points="73.24,-396.87 67.31,-405.65 77.42,-402.48 73.24,-396.87"/>
</g>
<!-- Node16 -->
<g id="node16" class="node">
<title>Node16</title>
<g id="a_node16"><a xlink:href="interface_rcv_meeting_user_controller.html" target="_top" xlink:title=" ">
<polygon fill="white" stroke="#666666" points="280,-315 148,-315 148,-296 280,-296 280,-315"/>
<text text-anchor="middle" x="214" y="-303" font-family="Helvetica,sans-Serif" font-size="10.00">RcvMeetingUserController</text>
</a>
</g>
</g>
<!-- Node0&#45;&gt;Node16 -->
<g id="edge15" class="edge">
<title>Node0&#45;&gt;Node16</title>
<path fill="none" stroke="#63b8ff" d="M66.37,-397.28C81.65,-375.98 109.12,-342.2 141,-323.5 146.56,-320.24 152.69,-317.57 158.96,-315.38"/>
<polygon fill="#63b8ff" stroke="#63b8ff" points="63.58,-395.16 60.75,-405.36 69.33,-399.15 63.58,-395.16"/>
</g>
<!-- Node17 -->
<g id="node17" class="node">
<title>Node17</title>
<g id="a_node17"><a xlink:href="interface_rcv_oauth_options.html" target="_top" xlink:title=" ">
<polygon fill="white" stroke="#666666" points="261.5,-278 166.5,-278 166.5,-259 261.5,-259 261.5,-278"/>
<text text-anchor="middle" x="214" y="-266" font-family="Helvetica,sans-Serif" font-size="10.00">RcvOauthOptions</text>
</a>
</g>
</g>
<!-- Node0&#45;&gt;Node17 -->
<g id="edge16" class="edge">
<title>Node0&#45;&gt;Node17</title>
<path fill="none" stroke="#63b8ff" d="M61.6,-396.03C74.15,-367.05 101.07,-314.51 141,-286.5 148.49,-281.25 157.36,-277.52 166.28,-274.88"/>
<polygon fill="#63b8ff" stroke="#63b8ff" points="58.42,-394.56 57.82,-405.13 64.89,-397.24 58.42,-394.56"/>
</g>
<!-- Node18 -->
<g id="node18" class="node">
<title>Node18</title>
<g id="a_node18"><a xlink:href="interface_rcv_personal_meeting_settings.html" target="_top" xlink:title=" ">
<polygon fill="white" stroke="#666666" points="285.5,-241 142.5,-241 142.5,-222 285.5,-222 285.5,-241"/>
<text text-anchor="middle" x="214" y="-229" font-family="Helvetica,sans-Serif" font-size="10.00">RcvPersonalMeetingSettings</text>
</a>
</g>
</g>
<!-- Node0&#45;&gt;Node18 -->
<g id="edge17" class="edge">
<title>Node0&#45;&gt;Node18</title>
<path fill="none" stroke="#63b8ff" d="M58.39,-395.89C67.92,-360.35 92.44,-287.7 141,-249.5 145.15,-246.23 149.82,-243.55 154.73,-241.35"/>
<polygon fill="#63b8ff" stroke="#63b8ff" points="55.06,-394.77 56,-405.32 61.85,-396.49 55.06,-394.77"/>
</g>
<!-- Node19 -->
<g id="node19" class="node">
<title>Node19</title>
<g id="a_node19"><a xlink:href="interface_rcv_recording_controller.html" target="_top" xlink:title=" ">
<polygon fill="white" stroke="#666666" points="274.5,-204 153.5,-204 153.5,-185 274.5,-185 274.5,-204"/>
<text text-anchor="middle" x="214" y="-192" font-family="Helvetica,sans-Serif" font-size="10.00">RcvRecordingController</text>
</a>
</g>
</g>
<!-- Node0&#45;&gt;Node19 -->
<g id="edge18" class="edge">
<title>Node0&#45;&gt;Node19</title>
<path fill="none" stroke="#63b8ff" d="M56.31,-395.47C63,-353.93 83.83,-261.18 141,-212.5 144.83,-209.24 149.16,-206.56 153.75,-204.35"/>
<polygon fill="#63b8ff" stroke="#63b8ff" points="52.88,-394.71 54.88,-405.11 59.81,-395.73 52.88,-394.71"/>
</g>
<!-- Node20 -->
<g id="node20" class="node">
<title>Node20</title>
<g id="a_node20"><a xlink:href="interface_rcv_schedule_meeting_settings.html" target="_top" xlink:title=" ">
<polygon fill="white" stroke="#666666" points="287,-167 141,-167 141,-148 287,-148 287,-167"/>
<text text-anchor="middle" x="214" y="-155" font-family="Helvetica,sans-Serif" font-size="10.00">RcvScheduleMeetingSettings</text>
</a>
</g>
</g>
<!-- Node0&#45;&gt;Node20 -->
<g id="edge19" class="edge">
<title>Node0&#45;&gt;Node20</title>
<path fill="none" stroke="#63b8ff" d="M54.75,-395.31C58.71,-348.36 74.98,-235.03 141,-175.5 144.54,-172.31 148.56,-169.66 152.85,-167.47"/>
<polygon fill="#63b8ff" stroke="#63b8ff" points="51.27,-394.96 54.04,-405.18 58.25,-395.46 51.27,-394.96"/>
</g>
<!-- Node21 -->
<g id="node21" class="node">
<title>Node21</title>
<g id="a_node21"><a xlink:href="interface_rcv_screen_share_service.html" target="_top" xlink:title=" ">
<polygon fill="white" stroke="#666666" points="276,-130 152,-130 152,-111 276,-111 276,-130"/>
<text text-anchor="middle" x="214" y="-118" font-family="Helvetica,sans-Serif" font-size="10.00">RcvScreenShareService</text>
</a>
</g>
</g>
<!-- Node0&#45;&gt;Node21 -->
<g id="edge20" class="edge">
<title>Node0&#45;&gt;Node21</title>
<path fill="none" stroke="#63b8ff" d="M53.57,-395.31C54.94,-343.43 65.96,-209.18 141,-138.5 144.38,-135.32 148.23,-132.68 152.35,-130.49"/>
<polygon fill="#63b8ff" stroke="#63b8ff" points="50.07,-395.06 53.42,-405.12 57.07,-395.17 50.07,-395.06"/>
</g>
<!-- Node22 -->
<g id="node22" class="node">
<title>Node22</title>
<g id="a_node22"><a xlink:href="interface_rcv_sharing_controller.html" target="_top" xlink:title=" ">
<polygon fill="white" stroke="#666666" points="269,-93 159,-93 159,-74 269,-74 269,-93"/>
<text text-anchor="middle" x="214" y="-81" font-family="Helvetica,sans-Serif" font-size="10.00">RcvSharingController</text>
</a>
</g>
</g>
<!-- Node0&#45;&gt;Node22 -->
<g id="edge21" class="edge">
<title>Node0&#45;&gt;Node22</title>
<path fill="none" stroke="#63b8ff" d="M52.64,-395.21C51.58,-338.67 56.9,-183.45 141,-101.5 145.98,-96.64 152.07,-93.04 158.57,-90.37"/>
<polygon fill="#63b8ff" stroke="#63b8ff" points="49.14,-395.14 52.92,-405.04 56.13,-394.94 49.14,-395.14"/>
</g>
<!-- Node23 -->
<g id="node23" class="node">
<title>Node23</title>
<g id="a_node23"><a xlink:href="interface_rcv_video_controller.html" target="_top" xlink:title=" ">
<polygon fill="white" stroke="#666666" points="264.5,-56 163.5,-56 163.5,-37 264.5,-37 264.5,-56"/>
<text text-anchor="middle" x="214" y="-44" font-family="Helvetica,sans-Serif" font-size="10.00">RcvVideoController</text>
</a>
</g>
</g>
<!-- Node0&#45;&gt;Node23 -->
<g id="edge22" class="edge">
<title>Node0&#45;&gt;Node23</title>
<path fill="none" stroke="#63b8ff" d="M55.93,-395.22C64.18,-326.51 93.34,-112.22 141,-64.5 147.1,-58.39 154.94,-54.25 163.19,-51.46"/>
<polygon fill="#63b8ff" stroke="#63b8ff" points="52.45,-394.77 54.77,-405.11 59.41,-395.58 52.45,-394.77"/>
</g>
<!-- Node24 -->
<g id="node24" class="node">
<title>Node24</title>
<g id="a_node24"><a xlink:href="interface_rcv_video_device_manager.html" target="_top" xlink:title=" ">
<polygon fill="white" stroke="#666666" points="278,-19 150,-19 150,0 278,0 278,-19"/>
<text text-anchor="middle" x="214" y="-7" font-family="Helvetica,sans-Serif" font-size="10.00">RcvVideoDeviceManager</text>
</a>
</g>
</g>
<!-- Node0&#45;&gt;Node24 -->
<g id="edge23" class="edge">
<title>Node0&#45;&gt;Node24</title>
<path fill="none" stroke="#63b8ff" d="M55.37,-395.4C62.26,-322.26 88.65,-81.11 141,-27.5 144.15,-24.27 147.79,-21.59 151.71,-19.37"/>
<polygon fill="#63b8ff" stroke="#63b8ff" points="51.9,-394.9 54.47,-405.18 58.87,-395.54 51.9,-394.9"/>
</g>
<!-- Node2 -->
<g id="node25" class="node">
<title>Node2</title>
<g id="a_node25"><a xlink:href="protocol_rcv_video_canvas-p.html" target="_top" xlink:title=" ">
<polygon fill="white" stroke="#666666" points="105,-833 0,-833 0,-814 105,-814 105,-833"/>
<text text-anchor="middle" x="52.5" y="-821" font-family="Helvetica,sans-Serif" font-size="10.00">&lt;RcvVideoCanvas&gt;</text>
</a>
</g>
</g>
<!-- Node2&#45;&gt;Node1 -->
<g id="edge24" class="edge">
<title>Node2&#45;&gt;Node1</title>
<path fill="none" stroke="#63b8ff" d="M116.55,-823.5C134,-823.5 152.57,-823.5 168.7,-823.5"/>
<polygon fill="#63b8ff" stroke="#63b8ff" points="116.8,-820 106.8,-823.5 116.8,-827 116.8,-820"/>
</g>
</g>
</svg>
