<?xml version="1.0" encoding="UTF-8" standalone="no"?>
<!DOCTYPE svg PUBLIC "-//W3C//DTD SVG 1.1//EN"
 "http://www.w3.org/Graphics/SVG/1.1/DTD/svg11.dtd">
<!-- Generated by graphviz version 7.0.0 (20221023.0053)
 -->
<!-- Title: Graphical Class Hierarchy Pages: 1 -->
<svg width="459pt" height="101pt"
 viewBox="0.00 0.00 459.00 101.00" xmlns="http://www.w3.org/2000/svg" xmlns:xlink="http://www.w3.org/1999/xlink">
<g id="graph0" class="graph" transform="scale(1 1) rotate(0) translate(4 97)">
<title>Graphical Class Hierarchy</title>
<!-- Node0 -->
<g id="node1" class="node">
<title>Node0</title>
<g id="a_node1"><a xlink:title=" ">
<polygon fill="#e0e0e0" stroke="#999999" points="135,-56 0,-56 0,-37 135,-37 135,-56"/>
<text text-anchor="middle" x="67.5" y="-44" font-family="Helvetica,sans-Serif" font-size="10.00">&lt;RTCVideoViewDelegate&gt;</text>
</a>
</g>
</g>
<!-- Node1 -->
<g id="node2" class="node">
<title>Node1</title>
<g id="a_node2"><a xlink:href="interface_rcv_base_video_view.html" target="_top" xlink:title=" ">
<polygon fill="white" stroke="#666666" points="275,-56 171,-56 171,-37 275,-37 275,-56"/>
<text text-anchor="middle" x="223" y="-44" font-family="Helvetica,sans-Serif" font-size="10.00">RcvBaseVideoView</text>
</a>
</g>
</g>
<!-- Node0&#45;&gt;Node1 -->
<g id="edge1" class="edge">
<title>Node0&#45;&gt;Node1</title>
<path fill="none" stroke="#63b8ff" d="M146.78,-46.5C154.85,-46.5 162.9,-46.5 170.58,-46.5"/>
<polygon fill="#63b8ff" stroke="#63b8ff" points="146.89,-43 136.89,-46.5 146.89,-50 146.89,-43"/>
</g>
<!-- Node2 -->
<g id="node3" class="node">
<title>Node2</title>
<g id="a_node3"><a xlink:href="interface_rcv_metal_video_view.html" target="_top" xlink:title=" ">
<polygon fill="white" stroke="#666666" points="433.5,-93 328.5,-93 328.5,-74 433.5,-74 433.5,-93"/>
<text text-anchor="middle" x="381" y="-81" font-family="Helvetica,sans-Serif" font-size="10.00">RcvMetalVideoView</text>
</a>
</g>
</g>
<!-- Node1&#45;&gt;Node2 -->
<g id="edge2" class="edge">
<title>Node1&#45;&gt;Node2</title>
<path fill="none" stroke="#63b8ff" d="M276.91,-59.05C296.86,-63.78 319.27,-69.1 338.08,-73.56"/>
<polygon fill="#63b8ff" stroke="#63b8ff" points="277.82,-55.67 267.28,-56.76 276.2,-62.48 277.82,-55.67"/>
</g>
<!-- Node3 -->
<g id="node4" class="node">
<title>Node3</title>
<g id="a_node4"><a xlink:href="interface_rcv_open_g_l_video_view.html" target="_top" xlink:title=" ">
<polygon fill="white" stroke="#666666" points="439,-56 323,-56 323,-37 439,-37 439,-56"/>
<text text-anchor="middle" x="381" y="-44" font-family="Helvetica,sans-Serif" font-size="10.00">RcvOpenGLVideoView</text>
</a>
</g>
</g>
<!-- Node1&#45;&gt;Node3 -->
<g id="edge3" class="edge">
<title>Node1&#45;&gt;Node3</title>
<path fill="none" stroke="#63b8ff" d="M286.35,-46.5C298.32,-46.5 310.79,-46.5 322.59,-46.5"/>
<polygon fill="#63b8ff" stroke="#63b8ff" points="286.59,-43 276.59,-46.5 286.59,-50 286.59,-43"/>
</g>
<!-- Node4 -->
<g id="node5" class="node">
<title>Node4</title>
<g id="a_node5"><a xlink:href="interface_rcv_sample_buffer_video_view.html" target="_top" xlink:title=" ">
<polygon fill="white" stroke="#666666" points="451,-19 311,-19 311,0 451,0 451,-19"/>
<text text-anchor="middle" x="381" y="-7" font-family="Helvetica,sans-Serif" font-size="10.00">RcvSampleBufferVideoView</text>
</a>
</g>
</g>
<!-- Node1&#45;&gt;Node4 -->
<g id="edge4" class="edge">
<title>Node1&#45;&gt;Node4</title>
<path fill="none" stroke="#63b8ff" d="M276.91,-33.95C296.86,-29.22 319.27,-23.9 338.08,-19.44"/>
<polygon fill="#63b8ff" stroke="#63b8ff" points="276.2,-30.52 267.28,-36.24 277.82,-37.33 276.2,-30.52"/>
</g>
<!-- Node5 -->
<g id="node6" class="node">
<title>Node5</title>
<g id="a_node6"><a xlink:title=" ">
<polygon fill="#e0e0e0" stroke="#999999" points="92,-19 43,-19 43,0 92,0 92,-19"/>
<text text-anchor="middle" x="67.5" y="-7" font-family="Helvetica,sans-Serif" font-size="10.00">UIView</text>
</a>
</g>
</g>
<!-- Node5&#45;&gt;Node1 -->
<g id="edge6" class="edge">
<title>Node5&#45;&gt;Node1</title>
<path fill="none" stroke="#63b8ff" d="M103.42,-17.92C126.35,-23.44 156.43,-30.7 180.56,-36.51"/>
<polygon fill="#63b8ff" stroke="#63b8ff" points="104.5,-14.58 93.96,-15.64 102.86,-21.38 104.5,-14.58"/>
</g>
<!-- Node6 -->
<g id="node7" class="node">
<title>Node6</title>
<g id="a_node7"><a xlink:href="interface_r_c_video_view.html" target="_top" xlink:title=" ">
<polygon fill="white" stroke="#666666" points="262,-19 184,-19 184,0 262,0 262,-19"/>
<text text-anchor="middle" x="223" y="-7" font-family="Helvetica,sans-Serif" font-size="10.00">RCVideoView</text>
</a>
</g>
</g>
<!-- Node5&#45;&gt;Node6 -->
<g id="edge5" class="edge">
<title>Node5&#45;&gt;Node6</title>
<path fill="none" stroke="#63b8ff" d="M103.84,-9.5C127.67,-9.5 159.11,-9.5 183.56,-9.5"/>
<polygon fill="#63b8ff" stroke="#63b8ff" points="104,-6 94,-9.5 104,-13 104,-6"/>
</g>
</g>
</svg>
