<?xml version="1.0" encoding="UTF-8" standalone="no"?>
<!DOCTYPE svg PUBLIC "-//W3C//DTD SVG 1.1//EN"
 "http://www.w3.org/Graphics/SVG/1.1/DTD/svg11.dtd">
<!-- Generated by graphviz version 6.0.1 (20220911.1526)
 -->
<!-- Title: Graphical Class Hierarchy Pages: 1 -->
<svg width="459pt" height="101pt"
 viewBox="0.00 0.00 459.00 101.00" xmlns="http://www.w3.org/2000/svg" xmlns:xlink="http://www.w3.org/1999/xlink">
<g id="graph0" class="graph" transform="scale(1 1) rotate(0) translate(4 97)">
<title>Graphical Class Hierarchy</title>
<!-- Node0 -->
<g id="node1" class="node">
<title>Node0</title>
<g id="a_node1"><a xlink:title=" ">
<polygon fill="#e0e0e0" stroke="#999999" points="135,-56 0,-56 0,-37 135,-37 135,-56"/>
<text text-anchor="middle" x="67.5" y="-44" font-family="Helvetica,sans-Serif" font-size="10.00">&lt;RTCVideoViewDelegate&gt;</text>
</a>
</g>
</g>
<!-- Node1 -->
<g id="node2" class="node">
<title>Node1</title>
<g id="a_node2"><a xlink:href="interface_rcv_base_video_view.html" target="_top" xlink:title=" ">
<polygon fill="white" stroke="#666666" points="275,-56 171,-56 171,-37 275,-37 275,-56"/>
<text text-anchor="middle" x="223" y="-44" font-family="Helvetica,sans-Serif" font-size="10.00">RcvBaseVideoView</text>
</a>
</g>
</g>
<!-- Node0&#45;&gt;Node1 -->
<g id="edge1" class="edge">
<title>Node0&#45;&gt;Node1</title>
<path fill="none" stroke="#63b8ff" d="M145.38,-46.5C153.92,-46.5 162.46,-46.5 170.58,-46.5"/>
<polygon fill="#63b8ff" stroke="#63b8ff" points="145.38,-43 135.38,-46.5 145.38,-50 145.38,-43"/>
</g>
<!-- Node2 -->
<g id="node3" class="node">
<title>Node2</title>
<g id="a_node3"><a xlink:href="interface_rcv_metal_video_view.html" target="_top" xlink:title=" ">
<polygon fill="white" stroke="#666666" points="433.5,-93 328.5,-93 328.5,-74 433.5,-74 433.5,-93"/>
<text text-anchor="middle" x="381" y="-81" font-family="Helvetica,sans-Serif" font-size="10.00">RcvMetalVideoView</text>
</a>
</g>
</g>
<!-- Node1&#45;&gt;Node2 -->
<g id="edge2" class="edge">
<title>Node1&#45;&gt;Node2</title>
<path fill="none" stroke="#63b8ff" d="M273.99,-58.36C295.22,-63.39 319.64,-69.18 339.69,-73.94"/>
<polygon fill="#63b8ff" stroke="#63b8ff" points="274.71,-54.93 264.17,-56.03 273.1,-61.74 274.71,-54.93"/>
</g>
<!-- Node3 -->
<g id="node4" class="node">
<title>Node3</title>
<g id="a_node4"><a xlink:href="interface_rcv_open_g_l_video_view.html" target="_top" xlink:title=" ">
<polygon fill="white" stroke="#666666" points="439,-56 323,-56 323,-37 439,-37 439,-56"/>
<text text-anchor="middle" x="381" y="-44" font-family="Helvetica,sans-Serif" font-size="10.00">RcvOpenGLVideoView</text>
</a>
</g>
</g>
<!-- Node1&#45;&gt;Node3 -->
<g id="edge3" class="edge">
<title>Node1&#45;&gt;Node3</title>
<path fill="none" stroke="#63b8ff" d="M285.31,-46.5C297.68,-46.5 310.64,-46.5 322.87,-46.5"/>
<polygon fill="#63b8ff" stroke="#63b8ff" points="285.08,-43 275.08,-46.5 285.08,-50 285.08,-43"/>
</g>
<!-- Node4 -->
<g id="node5" class="node">
<title>Node4</title>
<g id="a_node5"><a xlink:href="interface_rcv_sample_buffer_video_view.html" target="_top" xlink:title=" ">
<polygon fill="white" stroke="#666666" points="451,-19 311,-19 311,0 451,0 451,-19"/>
<text text-anchor="middle" x="381" y="-7" font-family="Helvetica,sans-Serif" font-size="10.00">RcvSampleBufferVideoView</text>
</a>
</g>
</g>
<!-- Node1&#45;&gt;Node4 -->
<g id="edge4" class="edge">
<title>Node1&#45;&gt;Node4</title>
<path fill="none" stroke="#63b8ff" d="M273.99,-34.64C295.22,-29.61 319.64,-23.82 339.69,-19.06"/>
<polygon fill="#63b8ff" stroke="#63b8ff" points="273.1,-31.26 264.17,-36.97 274.71,-38.07 273.1,-31.26"/>
</g>
<!-- Node5 -->
<g id="node6" class="node">
<title>Node5</title>
<g id="a_node6"><a xlink:title=" ">
<polygon fill="#e0e0e0" stroke="#999999" points="92,-19 43,-19 43,0 92,0 92,-19"/>
<text text-anchor="middle" x="67.5" y="-7" font-family="Helvetica,sans-Serif" font-size="10.00">UIView</text>
</a>
</g>
</g>
<!-- Node5&#45;&gt;Node1 -->
<g id="edge6" class="edge">
<title>Node5&#45;&gt;Node1</title>
<path fill="none" stroke="#63b8ff" d="M102.08,-17.59C125.77,-23.3 157.58,-30.97 182.49,-36.98"/>
<polygon fill="#63b8ff" stroke="#63b8ff" points="102.69,-14.14 92.15,-15.2 101.05,-20.95 102.69,-14.14"/>
</g>
<!-- Node6 -->
<g id="node7" class="node">
<title>Node6</title>
<g id="a_node7"><a xlink:href="interface_r_c_video_view.html" target="_top" xlink:title=" ">
<polygon fill="white" stroke="#666666" points="262,-19 184,-19 184,0 262,0 262,-19"/>
<text text-anchor="middle" x="223" y="-7" font-family="Helvetica,sans-Serif" font-size="10.00">RCVideoView</text>
</a>
</g>
</g>
<!-- Node5&#45;&gt;Node6 -->
<g id="edge5" class="edge">
<title>Node5&#45;&gt;Node6</title>
<path fill="none" stroke="#63b8ff" d="M102.26,-9.5C126.41,-9.5 158.93,-9.5 183.98,-9.5"/>
<polygon fill="#63b8ff" stroke="#63b8ff" points="102.15,-6 92.15,-9.5 102.15,-13 102.15,-6"/>
</g>
</g>
</svg>
