<?xml version="1.0" encoding="UTF-8" standalone="no"?>
<!DOCTYPE svg PUBLIC "-//W3C//DTD SVG 1.1//EN"
 "http://www.w3.org/Graphics/SVG/1.1/DTD/svg11.dtd">
<!-- Generated by graphviz version 6.0.1 (20220911.1526)
 -->
<!-- Title: Graphical Class Hierarchy Pages: 1 -->
<svg width="295pt" height="693pt"
 viewBox="0.00 0.00 295.00 693.00" xmlns="http://www.w3.org/2000/svg" xmlns:xlink="http://www.w3.org/1999/xlink">
<g id="graph0" class="graph" transform="scale(1 1) rotate(0) translate(4 689)">
<title>Graphical Class Hierarchy</title>
<!-- Node0 -->
<g id="node1" class="node">
<title>Node0</title>
<g id="a_node1"><a xlink:title=" ">
<polygon fill="#e0e0e0" stroke="#999999" points="82,-352 23,-352 23,-333 82,-333 82,-352"/>
<text text-anchor="middle" x="52.5" y="-340" font-family="Helvetica,sans-Serif" font-size="10.00">NSObject</text>
</a>
</g>
</g>
<!-- Node1 -->
<g id="node2" class="node">
<title>Node1</title>
<g id="a_node2"><a xlink:href="interface_r_c_video_canvas.html" target="_top" xlink:title=" ">
<polygon fill="white" stroke="#666666" points="259,-685 169,-685 169,-666 259,-666 259,-685"/>
<text text-anchor="middle" x="214" y="-673" font-family="Helvetica,sans-Serif" font-size="10.00">RCVideoCanvas</text>
</a>
</g>
</g>
<!-- Node0&#45;&gt;Node1 -->
<g id="edge1" class="edge">
<title>Node0&#45;&gt;Node1</title>
<path fill="none" stroke="#63b8ff" d="M52.67,-362.35C51.5,-417.66 56.18,-574.85 141,-657.5 148.57,-664.87 158.67,-669.37 168.92,-672.08"/>
<polygon fill="#63b8ff" stroke="#63b8ff" points="56.17,-362.26 52.98,-352.16 49.18,-362.05 56.17,-362.26"/>
</g>
<!-- Node3 -->
<g id="node3" class="node">
<title>Node3</title>
<g id="a_node3"><a xlink:href="interface_rcv_audio_controller.html" target="_top" xlink:title=" ">
<polygon fill="white" stroke="#666666" points="264.5,-648 163.5,-648 163.5,-629 264.5,-629 264.5,-648"/>
<text text-anchor="middle" x="214" y="-636" font-family="Helvetica,sans-Serif" font-size="10.00">RcvAudioController</text>
</a>
</g>
</g>
<!-- Node0&#45;&gt;Node3 -->
<g id="edge2" class="edge">
<title>Node0&#45;&gt;Node3</title>
<path fill="none" stroke="#63b8ff" d="M53.61,-362.24C55.02,-412.8 65.98,-548 141,-619.5 147.27,-625.48 155.19,-629.63 163.47,-632.5"/>
<polygon fill="#63b8ff" stroke="#63b8ff" points="57.11,-361.97 53.43,-352.04 50.11,-362.1 57.11,-361.97"/>
</g>
<!-- Node4 -->
<g id="node4" class="node">
<title>Node4</title>
<g id="a_node4"><a xlink:href="interface_rcv_audio_device_manager.html" target="_top" xlink:title=" ">
<polygon fill="white" stroke="#666666" points="278,-611 150,-611 150,-592 278,-592 278,-611"/>
<text text-anchor="middle" x="214" y="-599" font-family="Helvetica,sans-Serif" font-size="10.00">RcvAudioDeviceManager</text>
</a>
</g>
</g>
<!-- Node0&#45;&gt;Node4 -->
<g id="edge3" class="edge">
<title>Node0&#45;&gt;Node4</title>
<path fill="none" stroke="#63b8ff" d="M54.76,-362.68C58.77,-408.77 75.16,-522.43 141,-582.5 145.2,-586.33 150.09,-589.41 155.3,-591.88"/>
<polygon fill="#63b8ff" stroke="#63b8ff" points="58.24,-362.19 53.99,-352.49 51.26,-362.72 58.24,-362.19"/>
</g>
<!-- Node5 -->
<g id="node5" class="node">
<title>Node5</title>
<g id="a_node5"><a xlink:href="interface_rcv_engine.html" target="_top" xlink:title=" ">
<polygon fill="white" stroke="#666666" points="246.5,-574 181.5,-574 181.5,-555 246.5,-555 246.5,-574"/>
<text text-anchor="middle" x="214" y="-562" font-family="Helvetica,sans-Serif" font-size="10.00">RcvEngine</text>
</a>
</g>
</g>
<!-- Node0&#45;&gt;Node5 -->
<g id="edge4" class="edge">
<title>Node0&#45;&gt;Node5</title>
<path fill="none" stroke="#63b8ff" d="M56.22,-362.31C62.88,-403 83.85,-496.29 141,-545.5 152.17,-555.12 167.67,-559.94 181.43,-562.32"/>
<polygon fill="#63b8ff" stroke="#63b8ff" points="59.66,-361.67 54.7,-352.31 52.74,-362.72 59.66,-361.67"/>
</g>
<!-- Node6 -->
<g id="node6" class="node">
<title>Node6</title>
<g id="a_node6"><a xlink:href="interface_rcv_i_participant.html" target="_top" xlink:title=" ">
<polygon fill="white" stroke="#666666" points="256,-537 172,-537 172,-518 256,-518 256,-537"/>
<text text-anchor="middle" x="214" y="-525" font-family="Helvetica,sans-Serif" font-size="10.00">RcvIParticipant</text>
</a>
</g>
</g>
<!-- Node0&#45;&gt;Node6 -->
<g id="edge5" class="edge">
<title>Node0&#45;&gt;Node6</title>
<path fill="none" stroke="#63b8ff" d="M58.23,-362.01C67.72,-396.89 92.45,-469.89 141,-508.5 149.8,-515.5 160.94,-519.94 171.8,-522.74"/>
<polygon fill="#63b8ff" stroke="#63b8ff" points="61.56,-360.92 55.67,-352.12 54.79,-362.68 61.56,-360.92"/>
</g>
<!-- Node7 -->
<g id="node7" class="node">
<title>Node7</title>
<g id="a_node7"><a xlink:href="interface_rcv_instant_meeting_settings.html" target="_top" xlink:title=" ">
<polygon fill="white" stroke="#666666" points="281.5,-500 146.5,-500 146.5,-481 281.5,-481 281.5,-500"/>
<text text-anchor="middle" x="214" y="-488" font-family="Helvetica,sans-Serif" font-size="10.00">RcvInstantMeetingSettings</text>
</a>
</g>
</g>
<!-- Node0&#45;&gt;Node7 -->
<g id="edge6" class="edge">
<title>Node0&#45;&gt;Node7</title>
<path fill="none" stroke="#63b8ff" d="M61.18,-361.57C73.61,-389.97 100.86,-443.06 141,-471.5 146.49,-475.39 152.71,-478.48 159.16,-480.94"/>
<polygon fill="#63b8ff" stroke="#63b8ff" points="64.25,-359.86 57.14,-352 57.8,-362.58 64.25,-359.86"/>
</g>
<!-- Node8 -->
<g id="node8" class="node">
<title>Node8</title>
<g id="a_node8"><a xlink:href="interface_rcv_meeting_chat_controller.html" target="_top" xlink:title=" ">
<polygon fill="white" stroke="#666666" points="280,-463 148,-463 148,-444 280,-444 280,-463"/>
<text text-anchor="middle" x="214" y="-451" font-family="Helvetica,sans-Serif" font-size="10.00">RcvMeetingChatController</text>
</a>
</g>
</g>
<!-- Node0&#45;&gt;Node8 -->
<g id="edge7" class="edge">
<title>Node0&#45;&gt;Node8</title>
<path fill="none" stroke="#63b8ff" d="M65.84,-360.59C81.08,-381.52 108.94,-415.53 141,-434.5 147.56,-438.38 154.93,-441.49 162.37,-443.96"/>
<polygon fill="#63b8ff" stroke="#63b8ff" points="68.57,-358.38 59.93,-352.24 62.86,-362.43 68.57,-358.38"/>
</g>
<!-- Node9 -->
<g id="node9" class="node">
<title>Node9</title>
<g id="a_node9"><a xlink:href="interface_rcv_meeting_chat_message.html" target="_top" xlink:title=" ">
<polygon fill="white" stroke="#666666" points="279,-426 149,-426 149,-407 279,-407 279,-426"/>
<text text-anchor="middle" x="214" y="-414" font-family="Helvetica,sans-Serif" font-size="10.00">RcvMeetingChatMessage</text>
</a>
</g>
</g>
<!-- Node0&#45;&gt;Node9 -->
<g id="edge8" class="edge">
<title>Node0&#45;&gt;Node9</title>
<path fill="none" stroke="#63b8ff" d="M74.31,-358.13C91.44,-370.35 116.75,-386.97 141,-397.5 149.54,-401.21 158.97,-404.33 168.11,-406.91"/>
<polygon fill="#63b8ff" stroke="#63b8ff" points="76.3,-355.25 66.15,-352.2 72.18,-360.91 76.3,-355.25"/>
</g>
<!-- Node10 -->
<g id="node10" class="node">
<title>Node10</title>
<g id="a_node10"><a xlink:href="interface_rcv_meeting_context_controller.html" target="_top" xlink:title=" ">
<polygon fill="white" stroke="#666666" points="287,-389 141,-389 141,-370 287,-370 287,-389"/>
<text text-anchor="middle" x="214" y="-377" font-family="Helvetica,sans-Serif" font-size="10.00">RcvMeetingContextController</text>
</a>
</g>
</g>
<!-- Node0&#45;&gt;Node10 -->
<g id="edge9" class="edge">
<title>Node0&#45;&gt;Node10</title>
<path fill="none" stroke="#63b8ff" d="M91.9,-351.41C116.05,-357.01 147.19,-364.23 171.84,-369.95"/>
<polygon fill="#63b8ff" stroke="#63b8ff" points="92.55,-347.97 82.02,-349.11 90.97,-354.78 92.55,-347.97"/>
</g>
<!-- Node11 -->
<g id="node11" class="node">
<title>Node11</title>
<g id="a_node11"><a xlink:href="interface_rcv_meeting_controller.html" target="_top" xlink:title=" ">
<polygon fill="white" stroke="#666666" points="269.5,-352 158.5,-352 158.5,-333 269.5,-333 269.5,-352"/>
<text text-anchor="middle" x="214" y="-340" font-family="Helvetica,sans-Serif" font-size="10.00">RcvMeetingController</text>
</a>
</g>
</g>
<!-- Node0&#45;&gt;Node11 -->
<g id="edge10" class="edge">
<title>Node0&#45;&gt;Node11</title>
<path fill="none" stroke="#63b8ff" d="M92.22,-342.5C112.06,-342.5 136.55,-342.5 158.28,-342.5"/>
<polygon fill="#63b8ff" stroke="#63b8ff" points="92.02,-339 82.02,-342.5 92.02,-346 92.02,-339"/>
</g>
<!-- Node12 -->
<g id="node12" class="node">
<title>Node12</title>
<g id="a_node12"><a xlink:href="interface_rcv_meeting_options.html" target="_top" xlink:title=" ">
<polygon fill="white" stroke="#666666" points="265.5,-315 162.5,-315 162.5,-296 265.5,-296 265.5,-315"/>
<text text-anchor="middle" x="214" y="-303" font-family="Helvetica,sans-Serif" font-size="10.00">RcvMeetingOptions</text>
</a>
</g>
</g>
<!-- Node0&#45;&gt;Node12 -->
<g id="edge11" class="edge">
<title>Node0&#45;&gt;Node12</title>
<path fill="none" stroke="#63b8ff" d="M91.9,-333.59C116.05,-327.99 147.19,-320.77 171.84,-315.05"/>
<polygon fill="#63b8ff" stroke="#63b8ff" points="90.97,-330.22 82.02,-335.89 92.55,-337.03 90.97,-330.22"/>
</g>
<!-- Node13 -->
<g id="node13" class="node">
<title>Node13</title>
<g id="a_node13"><a xlink:href="interface_rcv_meeting_user_controller.html" target="_top" xlink:title=" ">
<polygon fill="white" stroke="#666666" points="280,-278 148,-278 148,-259 280,-259 280,-278"/>
<text text-anchor="middle" x="214" y="-266" font-family="Helvetica,sans-Serif" font-size="10.00">RcvMeetingUserController</text>
</a>
</g>
</g>
<!-- Node0&#45;&gt;Node13 -->
<g id="edge12" class="edge">
<title>Node0&#45;&gt;Node13</title>
<path fill="none" stroke="#63b8ff" d="M73.64,-326.91C90.72,-314.37 116.32,-297.14 141,-286.5 148.69,-283.18 157.12,-280.39 165.41,-278.07"/>
<polygon fill="#63b8ff" stroke="#63b8ff" points="71.44,-324.19 65.53,-332.98 75.63,-329.79 71.44,-324.19"/>
</g>
<!-- Node14 -->
<g id="node14" class="node">
<title>Node14</title>
<g id="a_node14"><a xlink:href="interface_rcv_personal_meeting_settings.html" target="_top" xlink:title=" ">
<polygon fill="white" stroke="#666666" points="285.5,-241 142.5,-241 142.5,-222 285.5,-222 285.5,-241"/>
<text text-anchor="middle" x="214" y="-229" font-family="Helvetica,sans-Serif" font-size="10.00">RcvPersonalMeetingSettings</text>
</a>
</g>
</g>
<!-- Node0&#45;&gt;Node14 -->
<g id="edge13" class="edge">
<title>Node0&#45;&gt;Node14</title>
<path fill="none" stroke="#63b8ff" d="M65.52,-324.47C80.62,-303.26 108.52,-268.55 141,-249.5 146.78,-246.11 153.18,-243.36 159.72,-241.12"/>
<polygon fill="#63b8ff" stroke="#63b8ff" points="62.5,-322.69 59.69,-332.9 68.25,-326.67 62.5,-322.69"/>
</g>
<!-- Node15 -->
<g id="node15" class="node">
<title>Node15</title>
<g id="a_node15"><a xlink:href="interface_rcv_recording_controller.html" target="_top" xlink:title=" ">
<polygon fill="white" stroke="#666666" points="274.5,-204 153.5,-204 153.5,-185 274.5,-185 274.5,-204"/>
<text text-anchor="middle" x="214" y="-192" font-family="Helvetica,sans-Serif" font-size="10.00">RcvRecordingController</text>
</a>
</g>
</g>
<!-- Node0&#45;&gt;Node15 -->
<g id="edge14" class="edge">
<title>Node0&#45;&gt;Node15</title>
<path fill="none" stroke="#63b8ff" d="M60.93,-323.59C73.17,-294.99 100.33,-241.02 141,-212.5 145.85,-209.1 151.29,-206.33 156.93,-204.09"/>
<polygon fill="#63b8ff" stroke="#63b8ff" points="57.67,-322.31 57.1,-332.89 64.14,-324.98 57.67,-322.31"/>
</g>
<!-- Node16 -->
<g id="node16" class="node">
<title>Node16</title>
<g id="a_node16"><a xlink:href="interface_rcv_schedule_meeting_settings.html" target="_top" xlink:title=" ">
<polygon fill="white" stroke="#666666" points="287,-167 141,-167 141,-148 287,-148 287,-167"/>
<text text-anchor="middle" x="214" y="-155" font-family="Helvetica,sans-Serif" font-size="10.00">RcvScheduleMeetingSettings</text>
</a>
</g>
</g>
<!-- Node0&#45;&gt;Node16 -->
<g id="edge15" class="edge">
<title>Node0&#45;&gt;Node16</title>
<path fill="none" stroke="#63b8ff" d="M58.14,-322.81C67.5,-287.62 92.02,-214.03 141,-175.5 145.35,-172.07 150.28,-169.29 155.46,-167.03"/>
<polygon fill="#63b8ff" stroke="#63b8ff" points="54.68,-322.24 55.63,-332.79 61.47,-323.95 54.68,-322.24"/>
</g>
<!-- Node17 -->
<g id="node17" class="node">
<title>Node17</title>
<g id="a_node17"><a xlink:href="interface_rcv_screen_share_service.html" target="_top" xlink:title=" ">
<polygon fill="white" stroke="#666666" points="276,-130 152,-130 152,-111 276,-111 276,-130"/>
<text text-anchor="middle" x="214" y="-118" font-family="Helvetica,sans-Serif" font-size="10.00">RcvScreenShareService</text>
</a>
</g>
</g>
<!-- Node0&#45;&gt;Node17 -->
<g id="edge16" class="edge">
<title>Node0&#45;&gt;Node17</title>
<path fill="none" stroke="#63b8ff" d="M56.14,-322.53C62.64,-281.53 83.33,-187.6 141,-138.5 145.02,-135.08 149.6,-132.29 154.46,-130.02"/>
<polygon fill="#63b8ff" stroke="#63b8ff" points="52.65,-322.21 54.66,-332.61 59.57,-323.22 52.65,-322.21"/>
</g>
<!-- Node18 -->
<g id="node18" class="node">
<title>Node18</title>
<g id="a_node18"><a xlink:href="interface_rcv_sharing_controller.html" target="_top" xlink:title=" ">
<polygon fill="white" stroke="#666666" points="269,-93 159,-93 159,-74 269,-74 269,-93"/>
<text text-anchor="middle" x="214" y="-81" font-family="Helvetica,sans-Serif" font-size="10.00">RcvSharingController</text>
</a>
</g>
</g>
<!-- Node0&#45;&gt;Node18 -->
<g id="edge17" class="edge">
<title>Node0&#45;&gt;Node18</title>
<path fill="none" stroke="#63b8ff" d="M54.63,-322.82C58.37,-276.83 74.26,-161.68 141,-101.5 146.17,-96.84 152.36,-93.35 158.91,-90.73"/>
<polygon fill="#63b8ff" stroke="#63b8ff" points="51.13,-322.72 53.92,-332.94 58.11,-323.21 51.13,-322.72"/>
</g>
<!-- Node19 -->
<g id="node19" class="node">
<title>Node19</title>
<g id="a_node19"><a xlink:href="interface_rcv_video_controller.html" target="_top" xlink:title=" ">
<polygon fill="white" stroke="#666666" points="264.5,-56 163.5,-56 163.5,-37 264.5,-37 264.5,-56"/>
<text text-anchor="middle" x="214" y="-44" font-family="Helvetica,sans-Serif" font-size="10.00">RcvVideoController</text>
</a>
</g>
</g>
<!-- Node0&#45;&gt;Node19 -->
<g id="edge18" class="edge">
<title>Node0&#45;&gt;Node19</title>
<path fill="none" stroke="#63b8ff" d="M53.53,-322.63C54.75,-271.75 65.31,-135.79 141,-64.5 147.28,-58.58 155.21,-54.53 163.49,-51.77"/>
<polygon fill="#63b8ff" stroke="#63b8ff" points="50.03,-322.85 53.39,-332.9 57.03,-322.95 50.03,-322.85"/>
</g>
<!-- Node20 -->
<g id="node20" class="node">
<title>Node20</title>
<g id="a_node20"><a xlink:href="interface_rcv_video_device_manager.html" target="_top" xlink:title=" ">
<polygon fill="white" stroke="#666666" points="278,-19 150,-19 150,0 278,0 278,-19"/>
<text text-anchor="middle" x="214" y="-7" font-family="Helvetica,sans-Serif" font-size="10.00">RcvVideoDeviceManager</text>
</a>
</g>
</g>
<!-- Node0&#45;&gt;Node20 -->
<g id="edge19" class="edge">
<title>Node0&#45;&gt;Node20</title>
<path fill="none" stroke="#63b8ff" d="M52.67,-322.65C51.5,-267.34 56.18,-110.15 141,-27.5 144.41,-24.17 148.35,-21.43 152.57,-19.18"/>
<polygon fill="#63b8ff" stroke="#63b8ff" points="49.18,-322.95 52.98,-332.84 56.17,-322.74 49.18,-322.95"/>
</g>
<!-- Node2 -->
<g id="node21" class="node">
<title>Node2</title>
<g id="a_node21"><a xlink:href="protocol_rcv_video_canvas-p.html" target="_top" xlink:title=" ">
<polygon fill="white" stroke="#666666" points="105,-685 0,-685 0,-666 105,-666 105,-685"/>
<text text-anchor="middle" x="52.5" y="-673" font-family="Helvetica,sans-Serif" font-size="10.00">&lt;RcvVideoCanvas&gt;</text>
</a>
</g>
</g>
<!-- Node2&#45;&gt;Node1 -->
<g id="edge20" class="edge">
<title>Node2&#45;&gt;Node1</title>
<path fill="none" stroke="#63b8ff" d="M115.6,-675.5C133.42,-675.5 152.47,-675.5 168.96,-675.5"/>
<polygon fill="#63b8ff" stroke="#63b8ff" points="115.29,-672 105.29,-675.5 115.29,-679 115.29,-672"/>
</g>
</g>
</svg>
