<?xml version="1.0" encoding="UTF-8" standalone="no"?>
<!DOCTYPE svg PUBLIC "-//W3C//DTD SVG 1.1//EN"
 "http://www.w3.org/Graphics/SVG/1.1/DTD/svg11.dtd">
<!-- Generated by graphviz version 6.0.1 (20220911.1526)
 -->
<!-- Title: Graphical Class Hierarchy Pages: 1 -->
<svg width="290pt" height="64pt"
 viewBox="0.00 0.00 290.00 64.00" xmlns="http://www.w3.org/2000/svg" xmlns:xlink="http://www.w3.org/1999/xlink">
<g id="graph0" class="graph" transform="scale(1 1) rotate(0) translate(4 60)">
<title>Graphical Class Hierarchy</title>
<!-- Node0 -->
<g id="node1" class="node">
<title>Node0</title>
<g id="a_node1"><a xlink:title=" ">
<polygon fill="#e0e0e0" stroke="#999999" points="71,-37 0,-37 0,-18 71,-18 71,-37"/>
<text text-anchor="middle" x="35.5" y="-25" font-family="Helvetica,sans-Serif" font-size="10.00">&lt;NSObject&gt;</text>
</a>
</g>
</g>
<!-- Node1 -->
<g id="node2" class="node">
<title>Node1</title>
<g id="a_node2"><a xlink:href="protocol_rcv_custom_video_view_delegate-p.html" target="_top" xlink:title=" ">
<polygon fill="white" stroke="#666666" points="278,-56 111,-56 111,-37 278,-37 278,-56"/>
<text text-anchor="middle" x="194.5" y="-44" font-family="Helvetica,sans-Serif" font-size="10.00">&lt;RcvCustomVideoViewDelegate&gt;</text>
</a>
</g>
</g>
<!-- Node0&#45;&gt;Node1 -->
<g id="edge1" class="edge">
<title>Node0&#45;&gt;Node1</title>
<path fill="none" stroke="#63b8ff" d="M81.43,-32.94C91.88,-34.2 103.3,-35.58 114.74,-36.97"/>
<polygon fill="#63b8ff" stroke="#63b8ff" points="81.69,-29.44 71.34,-31.72 80.85,-36.39 81.69,-29.44"/>
</g>
<!-- Node2 -->
<g id="node3" class="node">
<title>Node2</title>
<g id="a_node3"><a xlink:href="protocol_rcv_screen_share_service_delegate-p.html" target="_top" xlink:title=" ">
<polygon fill="white" stroke="#666666" points="282,-19 107,-19 107,0 282,0 282,-19"/>
<text text-anchor="middle" x="194.5" y="-7" font-family="Helvetica,sans-Serif" font-size="10.00">&lt;RcvScreenShareServiceDelegate&gt;</text>
</a>
</g>
</g>
<!-- Node0&#45;&gt;Node2 -->
<g id="edge2" class="edge">
<title>Node0&#45;&gt;Node2</title>
<path fill="none" stroke="#63b8ff" d="M81.37,-22.36C90.57,-21.3 100.53,-20.16 110.58,-19.01"/>
<polygon fill="#63b8ff" stroke="#63b8ff" points="80.88,-18.89 71.34,-23.51 81.68,-25.84 80.88,-18.89"/>
</g>
</g>
</svg>
