<?xml version="1.0" encoding="UTF-8" standalone="no"?>
<!DOCTYPE svg PUBLIC "-//W3C//DTD SVG 1.1//EN"
 "http://www.w3.org/Graphics/SVG/1.1/DTD/svg11.dtd">
<!-- Generated by graphviz version 7.0.0 (20221023.0053)
 -->
<!-- Title: RcvOpenGLVideoView Pages: 1 -->
<svg width="216pt" height="269pt"
 viewBox="0.00 0.00 216.00 269.00" xmlns="http://www.w3.org/2000/svg" xmlns:xlink="http://www.w3.org/1999/xlink">
<g id="graph0" class="graph" transform="scale(1 1) rotate(0) translate(4 265)">
<title>RcvOpenGLVideoView</title>
<!-- Node1 -->
<g id="node1" class="node">
<title>Node1</title>
<g id="a_node1"><a xlink:title=" ">
<polygon fill="#999999" stroke="#666666" points="141.5,-30 22.5,-30 22.5,0 141.5,0 141.5,-30"/>
<text text-anchor="middle" x="82" y="-18" font-family="Helvetica,sans-Serif" font-size="10.00">{RcvOpenGLVideoView</text>
<text text-anchor="middle" x="82" y="-7" font-family="Helvetica,sans-Serif" font-size="10.00">||}</text>
</a>
</g>
</g>
<!-- Node2 -->
<g id="node2" class="node">
<title>Node2</title>
<g id="a_node2"><a xlink:href="interface_rcv_base_video_view.html" target="_top" xlink:title=" ">
<polygon fill="white" stroke="#666666" points="135.5,-195 28.5,-195 28.5,-66 135.5,-66 135.5,-195"/>
<text text-anchor="middle" x="82" y="-183" font-family="Helvetica,sans-Serif" font-size="10.00">{RcvBaseVideoView</text>
<text text-anchor="start" x="36.5" y="-172" font-family="Helvetica,sans-Serif" font-size="10.00">|+ delegate</text>
<text text-anchor="start" x="36.5" y="-161" font-family="Helvetica,sans-Serif" font-size="10.00">+ renderMode</text>
<text text-anchor="start" x="36.5" y="-150" font-family="Helvetica,sans-Serif" font-size="10.00">+ mirrorMode</text>
<text text-anchor="start" x="36.5" y="-139" font-family="Helvetica,sans-Serif" font-size="10.00">|+ getRenderer</text>
<text text-anchor="start" x="36.5" y="-128" font-family="Helvetica,sans-Serif" font-size="10.00">+ showRenderer</text>
<text text-anchor="start" x="36.5" y="-117" font-family="Helvetica,sans-Serif" font-size="10.00">+ hideRenderer</text>
<text text-anchor="start" x="36.5" y="-106" font-family="Helvetica,sans-Serif" font-size="10.00">+ updateRenderer</text>
<text text-anchor="start" x="36.5" y="-95" font-family="Helvetica,sans-Serif" font-size="10.00">+ getVideoSize</text>
<text text-anchor="start" x="36.5" y="-84" font-family="Helvetica,sans-Serif" font-size="10.00">+ restoreVideoSize:</text>
<text text-anchor="middle" x="82" y="-73" font-family="Helvetica,sans-Serif" font-size="10.00">}</text>
</a>
</g>
</g>
<!-- Node2&#45;&gt;Node1 -->
<g id="edge1" class="edge">
<title>Node2&#45;&gt;Node1</title>
<path fill="none" stroke="#63b8ff" d="M82,-54.42C82,-45.33 82,-36.94 82,-30.34"/>
<polygon fill="none" stroke="#63b8ff" points="78.5,-54.27 82,-64.27 85.5,-54.27 78.5,-54.27"/>
</g>
<!-- Node3 -->
<g id="node3" class="node">
<title>Node3</title>
<g id="a_node3"><a xlink:title=" ">
<polygon fill="white" stroke="#666666" points="52,-261 0,-261 0,-231 52,-231 52,-261"/>
<text text-anchor="middle" x="26" y="-249" font-family="Helvetica,sans-Serif" font-size="10.00">{UIView</text>
<text text-anchor="middle" x="26" y="-238" font-family="Helvetica,sans-Serif" font-size="10.00">||}</text>
</a>
</g>
</g>
<!-- Node3&#45;&gt;Node2 -->
<g id="edge2" class="edge">
<title>Node3&#45;&gt;Node2</title>
<path fill="none" stroke="#63b8ff" d="M38.09,-220.5C41.8,-212.97 46.08,-204.3 50.48,-195.39"/>
<polygon fill="none" stroke="#63b8ff" points="35.05,-218.75 33.76,-229.27 41.33,-221.85 35.05,-218.75"/>
</g>
<!-- Node4 -->
<g id="node4" class="node">
<title>Node4</title>
<g id="a_node4"><a xlink:title=" ">
<polygon fill="white" stroke="#666666" points="208,-261 70,-261 70,-231 208,-231 208,-261"/>
<text text-anchor="middle" x="139" y="-249" font-family="Helvetica,sans-Serif" font-size="10.00">{&lt;RTCVideoViewDelegate&gt;</text>
<text text-anchor="middle" x="139" y="-238" font-family="Helvetica,sans-Serif" font-size="10.00">||}</text>
</a>
</g>
</g>
<!-- Node4&#45;&gt;Node2 -->
<g id="edge3" class="edge">
<title>Node4&#45;&gt;Node2</title>
<path fill="none" stroke="#63b8ff" d="M126.7,-220.5C122.91,-212.97 118.56,-204.3 114.08,-195.39"/>
<polygon fill="none" stroke="#63b8ff" points="123.49,-221.91 131.1,-229.27 129.74,-218.77 123.49,-221.91"/>
</g>
</g>
</svg>
