<?xml version="1.0" encoding="UTF-8" standalone="no"?>
<!DOCTYPE svg PUBLIC "-//W3C//DTD SVG 1.1//EN"
 "http://www.w3.org/Graphics/SVG/1.1/DTD/svg11.dtd">
<!-- Generated by graphviz version 7.0.0 (20221023.0053)
 -->
<!-- Title: RcvBaseVideoView Pages: 1 -->
<svg width="216pt" height="203pt"
 viewBox="0.00 0.00 216.00 203.00" xmlns="http://www.w3.org/2000/svg" xmlns:xlink="http://www.w3.org/1999/xlink">
<g id="graph0" class="graph" transform="scale(1 1) rotate(0) translate(4 199)">
<title>RcvBaseVideoView</title>
<!-- Node1 -->
<g id="node1" class="node">
<title>Node1</title>
<g id="a_node1"><a xlink:title=" ">
<polygon fill="#999999" stroke="#666666" points="135.5,-129 28.5,-129 28.5,0 135.5,0 135.5,-129"/>
<text text-anchor="middle" x="82" y="-117" font-family="Helvetica,sans-Serif" font-size="10.00">{RcvBaseVideoView</text>
<text text-anchor="start" x="36.5" y="-106" font-family="Helvetica,sans-Serif" font-size="10.00">|+ delegate</text>
<text text-anchor="start" x="36.5" y="-95" font-family="Helvetica,sans-Serif" font-size="10.00">+ renderMode</text>
<text text-anchor="start" x="36.5" y="-84" font-family="Helvetica,sans-Serif" font-size="10.00">+ mirrorMode</text>
<text text-anchor="start" x="36.5" y="-73" font-family="Helvetica,sans-Serif" font-size="10.00">|+ getRenderer</text>
<text text-anchor="start" x="36.5" y="-62" font-family="Helvetica,sans-Serif" font-size="10.00">+ showRenderer</text>
<text text-anchor="start" x="36.5" y="-51" font-family="Helvetica,sans-Serif" font-size="10.00">+ hideRenderer</text>
<text text-anchor="start" x="36.5" y="-40" font-family="Helvetica,sans-Serif" font-size="10.00">+ updateRenderer</text>
<text text-anchor="start" x="36.5" y="-29" font-family="Helvetica,sans-Serif" font-size="10.00">+ getVideoSize</text>
<text text-anchor="start" x="36.5" y="-18" font-family="Helvetica,sans-Serif" font-size="10.00">+ restoreVideoSize:</text>
<text text-anchor="middle" x="82" y="-7" font-family="Helvetica,sans-Serif" font-size="10.00">}</text>
</a>
</g>
</g>
<!-- Node2 -->
<g id="node2" class="node">
<title>Node2</title>
<g id="a_node2"><a xlink:title=" ">
<polygon fill="white" stroke="#666666" points="52,-195 0,-195 0,-165 52,-165 52,-195"/>
<text text-anchor="middle" x="26" y="-183" font-family="Helvetica,sans-Serif" font-size="10.00">{UIView</text>
<text text-anchor="middle" x="26" y="-172" font-family="Helvetica,sans-Serif" font-size="10.00">||}</text>
</a>
</g>
</g>
<!-- Node2&#45;&gt;Node1 -->
<g id="edge1" class="edge">
<title>Node2&#45;&gt;Node1</title>
<path fill="none" stroke="#63b8ff" d="M38.09,-154.5C41.8,-146.97 46.08,-138.3 50.48,-129.39"/>
<polygon fill="none" stroke="#63b8ff" points="35.05,-152.75 33.76,-163.27 41.33,-155.85 35.05,-152.75"/>
</g>
<!-- Node3 -->
<g id="node3" class="node">
<title>Node3</title>
<g id="a_node3"><a xlink:title=" ">
<polygon fill="white" stroke="#666666" points="208,-195 70,-195 70,-165 208,-165 208,-195"/>
<text text-anchor="middle" x="139" y="-183" font-family="Helvetica,sans-Serif" font-size="10.00">{&lt;RTCVideoViewDelegate&gt;</text>
<text text-anchor="middle" x="139" y="-172" font-family="Helvetica,sans-Serif" font-size="10.00">||}</text>
</a>
</g>
</g>
<!-- Node3&#45;&gt;Node1 -->
<g id="edge2" class="edge">
<title>Node3&#45;&gt;Node1</title>
<path fill="none" stroke="#63b8ff" d="M126.7,-154.5C122.91,-146.97 118.56,-138.3 114.08,-129.39"/>
<polygon fill="none" stroke="#63b8ff" points="123.49,-155.91 131.1,-163.27 129.74,-152.77 123.49,-155.91"/>
</g>
</g>
</svg>
