<?xml version="1.0" encoding="UTF-8" standalone="no"?>
<!DOCTYPE svg PUBLIC "-//W3C//DTD SVG 1.1//EN"
 "http://www.w3.org/Graphics/SVG/1.1/DTD/svg11.dtd">
<!-- Generated by graphviz version 6.0.1 (20220911.1526)
 -->
<!-- Title: RcvBaseVideoView Pages: 1 -->
<svg width="216pt" height="214pt"
 viewBox="0.00 0.00 216.00 214.00" xmlns="http://www.w3.org/2000/svg" xmlns:xlink="http://www.w3.org/1999/xlink">
<g id="graph0" class="graph" transform="scale(1 1) rotate(0) translate(4 210)">
<title>RcvBaseVideoView</title>
<!-- Node1 -->
<g id="node1" class="node">
<title>Node1</title>
<g id="a_node1"><a xlink:title=" ">
<polygon fill="#999999" stroke="#666666" points="135.5,-140 28.5,-140 28.5,0 135.5,0 135.5,-140"/>
<text text-anchor="middle" x="82" y="-128" font-family="Helvetica,sans-Serif" font-size="10.00">{RcvBaseVideoView</text>
<text text-anchor="start" x="36.5" y="-117" font-family="Helvetica,sans-Serif" font-size="10.00">|+ delegate</text>
<text text-anchor="start" x="36.5" y="-106" font-family="Helvetica,sans-Serif" font-size="10.00">+ viewportDelegate</text>
<text text-anchor="start" x="36.5" y="-95" font-family="Helvetica,sans-Serif" font-size="10.00">+ renderMode</text>
<text text-anchor="start" x="36.5" y="-84" font-family="Helvetica,sans-Serif" font-size="10.00">+ mirrorMode</text>
<text text-anchor="start" x="36.5" y="-73" font-family="Helvetica,sans-Serif" font-size="10.00">|+ getRenderer</text>
<text text-anchor="start" x="36.5" y="-62" font-family="Helvetica,sans-Serif" font-size="10.00">+ showRenderer</text>
<text text-anchor="start" x="36.5" y="-51" font-family="Helvetica,sans-Serif" font-size="10.00">+ hideRenderer</text>
<text text-anchor="start" x="36.5" y="-40" font-family="Helvetica,sans-Serif" font-size="10.00">+ updateRenderer</text>
<text text-anchor="start" x="36.5" y="-29" font-family="Helvetica,sans-Serif" font-size="10.00">+ getVideoSize</text>
<text text-anchor="start" x="36.5" y="-18" font-family="Helvetica,sans-Serif" font-size="10.00">+ restoreVideoSize:</text>
<text text-anchor="middle" x="82" y="-7" font-family="Helvetica,sans-Serif" font-size="10.00">}</text>
</a>
</g>
</g>
<!-- Node2 -->
<g id="node2" class="node">
<title>Node2</title>
<g id="a_node2"><a xlink:title=" ">
<polygon fill="white" stroke="#666666" points="52,-206 0,-206 0,-176 52,-176 52,-206"/>
<text text-anchor="middle" x="26" y="-194" font-family="Helvetica,sans-Serif" font-size="10.00">{UIView</text>
<text text-anchor="middle" x="26" y="-183" font-family="Helvetica,sans-Serif" font-size="10.00">||}</text>
</a>
</g>
</g>
<!-- Node2&#45;&gt;Node1 -->
<g id="edge1" class="edge">
<title>Node2&#45;&gt;Node1</title>
<path fill="none" stroke="#63b8ff" d="M36.96,-166.72C40.66,-158.84 45.01,-149.61 49.52,-140.03"/>
<polygon fill="none" stroke="#63b8ff" points="33.74,-165.34 32.64,-175.88 40.07,-168.32 33.74,-165.34"/>
</g>
<!-- Node3 -->
<g id="node3" class="node">
<title>Node3</title>
<g id="a_node3"><a xlink:title=" ">
<polygon fill="white" stroke="#666666" points="208,-206 70,-206 70,-176 208,-176 208,-206"/>
<text text-anchor="middle" x="139" y="-194" font-family="Helvetica,sans-Serif" font-size="10.00">{&lt;RTCVideoViewDelegate&gt;</text>
<text text-anchor="middle" x="139" y="-183" font-family="Helvetica,sans-Serif" font-size="10.00">||}</text>
</a>
</g>
</g>
<!-- Node3&#45;&gt;Node1 -->
<g id="edge2" class="edge">
<title>Node3&#45;&gt;Node1</title>
<path fill="none" stroke="#63b8ff" d="M127.85,-166.72C124.08,-158.84 119.65,-149.61 115.06,-140.03"/>
<polygon fill="none" stroke="#63b8ff" points="124.76,-168.38 132.24,-175.88 131.07,-165.35 124.76,-168.38"/>
</g>
</g>
</svg>
