<?xml version="1.0" encoding="UTF-8" standalone="no"?>
<!DOCTYPE svg PUBLIC "-//W3C//DTD SVG 1.1//EN"
 "http://www.w3.org/Graphics/SVG/1.1/DTD/svg11.dtd">
<!-- Generated by graphviz version 6.0.1 (20220911.1526)
 -->
<!-- Title: RcvBaseVideoView Pages: 1 -->
<svg width="415pt" height="280pt"
 viewBox="0.00 0.00 414.50 280.00" xmlns="http://www.w3.org/2000/svg" xmlns:xlink="http://www.w3.org/1999/xlink">
<g id="graph0" class="graph" transform="scale(1 1) rotate(0) translate(4 276)">
<title>RcvBaseVideoView</title>
<!-- Node1 -->
<g id="node1" class="node">
<title>Node1</title>
<g id="a_node1"><a xlink:title=" ">
<polygon fill="#999999" stroke="#666666" points="239.5,-206 132.5,-206 132.5,-66 239.5,-66 239.5,-206"/>
<text text-anchor="middle" x="186" y="-194" font-family="Helvetica,sans-Serif" font-size="10.00">{RcvBaseVideoView</text>
<text text-anchor="start" x="140.5" y="-183" font-family="Helvetica,sans-Serif" font-size="10.00">|+ delegate</text>
<text text-anchor="start" x="140.5" y="-172" font-family="Helvetica,sans-Serif" font-size="10.00">+ viewportDelegate</text>
<text text-anchor="start" x="140.5" y="-161" font-family="Helvetica,sans-Serif" font-size="10.00">+ renderMode</text>
<text text-anchor="start" x="140.5" y="-150" font-family="Helvetica,sans-Serif" font-size="10.00">+ mirrorMode</text>
<text text-anchor="start" x="140.5" y="-139" font-family="Helvetica,sans-Serif" font-size="10.00">|+ getRenderer</text>
<text text-anchor="start" x="140.5" y="-128" font-family="Helvetica,sans-Serif" font-size="10.00">+ showRenderer</text>
<text text-anchor="start" x="140.5" y="-117" font-family="Helvetica,sans-Serif" font-size="10.00">+ hideRenderer</text>
<text text-anchor="start" x="140.5" y="-106" font-family="Helvetica,sans-Serif" font-size="10.00">+ updateRenderer</text>
<text text-anchor="start" x="140.5" y="-95" font-family="Helvetica,sans-Serif" font-size="10.00">+ getVideoSize</text>
<text text-anchor="start" x="140.5" y="-84" font-family="Helvetica,sans-Serif" font-size="10.00">+ restoreVideoSize:</text>
<text text-anchor="middle" x="186" y="-73" font-family="Helvetica,sans-Serif" font-size="10.00">}</text>
</a>
</g>
</g>
<!-- Node4 -->
<g id="node4" class="node">
<title>Node4</title>
<g id="a_node4"><a xlink:href="interface_rcv_metal_video_view.html" target="_top" xlink:title=" ">
<polygon fill="white" stroke="#666666" points="108,-30 0,-30 0,0 108,0 108,-30"/>
<text text-anchor="middle" x="54" y="-18" font-family="Helvetica,sans-Serif" font-size="10.00">{RcvMetalVideoView</text>
<text text-anchor="middle" x="54" y="-7" font-family="Helvetica,sans-Serif" font-size="10.00">||}</text>
</a>
</g>
</g>
<!-- Node1&#45;&gt;Node4 -->
<g id="edge3" class="edge">
<title>Node1&#45;&gt;Node4</title>
<path fill="none" stroke="#63b8ff" d="M124.85,-79.87C104.49,-61.52 83.52,-42.61 69.73,-30.18"/>
<polygon fill="none" stroke="#63b8ff" points="122.54,-82.5 132.31,-86.6 127.23,-77.3 122.54,-82.5"/>
</g>
<!-- Node5 -->
<g id="node5" class="node">
<title>Node5</title>
<g id="a_node5"><a xlink:href="interface_rcv_open_g_l_video_view.html" target="_top" xlink:title=" ">
<polygon fill="white" stroke="#666666" points="245.5,-30 126.5,-30 126.5,0 245.5,0 245.5,-30"/>
<text text-anchor="middle" x="186" y="-18" font-family="Helvetica,sans-Serif" font-size="10.00">{RcvOpenGLVideoView</text>
<text text-anchor="middle" x="186" y="-7" font-family="Helvetica,sans-Serif" font-size="10.00">||}</text>
</a>
</g>
</g>
<!-- Node1&#45;&gt;Node5 -->
<g id="edge4" class="edge">
<title>Node1&#45;&gt;Node5</title>
<path fill="none" stroke="#63b8ff" d="M186,-55.52C186,-45.91 186,-37.08 186,-30.22"/>
<polygon fill="none" stroke="#63b8ff" points="182.5,-55.78 186,-65.78 189.5,-55.78 182.5,-55.78"/>
</g>
<!-- Node6 -->
<g id="node6" class="node">
<title>Node6</title>
<g id="a_node6"><a xlink:href="interface_rcv_sample_buffer_video_view.html" target="_top" xlink:title=" ">
<polygon fill="white" stroke="#666666" points="406.5,-30 263.5,-30 263.5,0 406.5,0 406.5,-30"/>
<text text-anchor="middle" x="335" y="-18" font-family="Helvetica,sans-Serif" font-size="10.00">{RcvSampleBufferVideoView</text>
<text text-anchor="middle" x="335" y="-7" font-family="Helvetica,sans-Serif" font-size="10.00">||}</text>
</a>
</g>
</g>
<!-- Node1&#45;&gt;Node6 -->
<g id="edge5" class="edge">
<title>Node1&#45;&gt;Node6</title>
<path fill="none" stroke="#63b8ff" d="M247.85,-85.6C272.94,-65.57 300,-43.96 317.19,-30.22"/>
<polygon fill="none" stroke="#63b8ff" points="245.42,-83.06 239.79,-92.04 249.79,-88.53 245.42,-83.06"/>
</g>
<!-- Node2 -->
<g id="node2" class="node">
<title>Node2</title>
<g id="a_node2"><a xlink:title=" ">
<polygon fill="white" stroke="#666666" points="156,-272 104,-272 104,-242 156,-242 156,-272"/>
<text text-anchor="middle" x="130" y="-260" font-family="Helvetica,sans-Serif" font-size="10.00">{UIView</text>
<text text-anchor="middle" x="130" y="-249" font-family="Helvetica,sans-Serif" font-size="10.00">||}</text>
</a>
</g>
</g>
<!-- Node2&#45;&gt;Node1 -->
<g id="edge1" class="edge">
<title>Node2&#45;&gt;Node1</title>
<path fill="none" stroke="#63b8ff" d="M140.96,-232.72C144.66,-224.84 149.01,-215.61 153.52,-206.03"/>
<polygon fill="none" stroke="#63b8ff" points="137.74,-231.34 136.64,-241.88 144.07,-234.32 137.74,-231.34"/>
</g>
<!-- Node3 -->
<g id="node3" class="node">
<title>Node3</title>
<g id="a_node3"><a xlink:title=" ">
<polygon fill="white" stroke="#666666" points="312,-272 174,-272 174,-242 312,-242 312,-272"/>
<text text-anchor="middle" x="243" y="-260" font-family="Helvetica,sans-Serif" font-size="10.00">{&lt;RTCVideoViewDelegate&gt;</text>
<text text-anchor="middle" x="243" y="-249" font-family="Helvetica,sans-Serif" font-size="10.00">||}</text>
</a>
</g>
</g>
<!-- Node3&#45;&gt;Node1 -->
<g id="edge2" class="edge">
<title>Node3&#45;&gt;Node1</title>
<path fill="none" stroke="#63b8ff" d="M231.85,-232.72C228.08,-224.84 223.65,-215.61 219.06,-206.03"/>
<polygon fill="none" stroke="#63b8ff" points="228.76,-234.38 236.24,-241.88 235.07,-231.35 228.76,-234.38"/>
</g>
</g>
</svg>
