<?xml version="1.0" encoding="UTF-8" standalone="no"?>
<!DOCTYPE svg PUBLIC "-//W3C//DTD SVG 1.1//EN"
 "http://www.w3.org/Graphics/SVG/1.1/DTD/svg11.dtd">
<!-- Generated by graphviz version 6.0.1 (20220911.1526)
 -->
<!-- Title: RcvOpenGLVideoView Pages: 1 -->
<svg width="216pt" height="280pt"
 viewBox="0.00 0.00 216.00 280.00" xmlns="http://www.w3.org/2000/svg" xmlns:xlink="http://www.w3.org/1999/xlink">
<g id="graph0" class="graph" transform="scale(1 1) rotate(0) translate(4 276)">
<title>RcvOpenGLVideoView</title>
<!-- Node1 -->
<g id="node1" class="node">
<title>Node1</title>
<g id="a_node1"><a xlink:title=" ">
<polygon fill="#999999" stroke="#666666" points="141.5,-30 22.5,-30 22.5,0 141.5,0 141.5,-30"/>
<text text-anchor="middle" x="82" y="-18" font-family="Helvetica,sans-Serif" font-size="10.00">{RcvOpenGLVideoView</text>
<text text-anchor="middle" x="82" y="-7" font-family="Helvetica,sans-Serif" font-size="10.00">||}</text>
</a>
</g>
</g>
<!-- Node2 -->
<g id="node2" class="node">
<title>Node2</title>
<g id="a_node2"><a xlink:href="interface_rcv_base_video_view.html" target="_top" xlink:title=" ">
<polygon fill="white" stroke="#666666" points="135.5,-206 28.5,-206 28.5,-66 135.5,-66 135.5,-206"/>
<text text-anchor="middle" x="82" y="-194" font-family="Helvetica,sans-Serif" font-size="10.00">{RcvBaseVideoView</text>
<text text-anchor="start" x="36.5" y="-183" font-family="Helvetica,sans-Serif" font-size="10.00">|+ delegate</text>
<text text-anchor="start" x="36.5" y="-172" font-family="Helvetica,sans-Serif" font-size="10.00">+ viewportDelegate</text>
<text text-anchor="start" x="36.5" y="-161" font-family="Helvetica,sans-Serif" font-size="10.00">+ renderMode</text>
<text text-anchor="start" x="36.5" y="-150" font-family="Helvetica,sans-Serif" font-size="10.00">+ mirrorMode</text>
<text text-anchor="start" x="36.5" y="-139" font-family="Helvetica,sans-Serif" font-size="10.00">|+ getRenderer</text>
<text text-anchor="start" x="36.5" y="-128" font-family="Helvetica,sans-Serif" font-size="10.00">+ showRenderer</text>
<text text-anchor="start" x="36.5" y="-117" font-family="Helvetica,sans-Serif" font-size="10.00">+ hideRenderer</text>
<text text-anchor="start" x="36.5" y="-106" font-family="Helvetica,sans-Serif" font-size="10.00">+ updateRenderer</text>
<text text-anchor="start" x="36.5" y="-95" font-family="Helvetica,sans-Serif" font-size="10.00">+ getVideoSize</text>
<text text-anchor="start" x="36.5" y="-84" font-family="Helvetica,sans-Serif" font-size="10.00">+ restoreVideoSize:</text>
<text text-anchor="middle" x="82" y="-73" font-family="Helvetica,sans-Serif" font-size="10.00">}</text>
</a>
</g>
</g>
<!-- Node2&#45;&gt;Node1 -->
<g id="edge1" class="edge">
<title>Node2&#45;&gt;Node1</title>
<path fill="none" stroke="#63b8ff" d="M82,-55.52C82,-45.91 82,-37.08 82,-30.22"/>
<polygon fill="none" stroke="#63b8ff" points="78.5,-55.78 82,-65.78 85.5,-55.78 78.5,-55.78"/>
</g>
<!-- Node3 -->
<g id="node3" class="node">
<title>Node3</title>
<g id="a_node3"><a xlink:title=" ">
<polygon fill="white" stroke="#666666" points="52,-272 0,-272 0,-242 52,-242 52,-272"/>
<text text-anchor="middle" x="26" y="-260" font-family="Helvetica,sans-Serif" font-size="10.00">{UIView</text>
<text text-anchor="middle" x="26" y="-249" font-family="Helvetica,sans-Serif" font-size="10.00">||}</text>
</a>
</g>
</g>
<!-- Node3&#45;&gt;Node2 -->
<g id="edge2" class="edge">
<title>Node3&#45;&gt;Node2</title>
<path fill="none" stroke="#63b8ff" d="M36.96,-232.72C40.66,-224.84 45.01,-215.61 49.52,-206.03"/>
<polygon fill="none" stroke="#63b8ff" points="33.74,-231.34 32.64,-241.88 40.07,-234.32 33.74,-231.34"/>
</g>
<!-- Node4 -->
<g id="node4" class="node">
<title>Node4</title>
<g id="a_node4"><a xlink:title=" ">
<polygon fill="white" stroke="#666666" points="208,-272 70,-272 70,-242 208,-242 208,-272"/>
<text text-anchor="middle" x="139" y="-260" font-family="Helvetica,sans-Serif" font-size="10.00">{&lt;RTCVideoViewDelegate&gt;</text>
<text text-anchor="middle" x="139" y="-249" font-family="Helvetica,sans-Serif" font-size="10.00">||}</text>
</a>
</g>
</g>
<!-- Node4&#45;&gt;Node2 -->
<g id="edge3" class="edge">
<title>Node4&#45;&gt;Node2</title>
<path fill="none" stroke="#63b8ff" d="M127.85,-232.72C124.08,-224.84 119.65,-215.61 115.06,-206.03"/>
<polygon fill="none" stroke="#63b8ff" points="124.76,-234.38 132.24,-241.88 131.07,-231.35 124.76,-234.38"/>
</g>
</g>
</svg>
