<?xml version="1.0" encoding="UTF-8" standalone="no"?>
<!DOCTYPE svg PUBLIC "-//W3C//DTD SVG 1.1//EN"
 "http://www.w3.org/Graphics/SVG/1.1/DTD/svg11.dtd">
<!-- Generated by graphviz version 6.0.1 (20220911.1526)
 -->
<!-- Title: RCVideoCanvas Pages: 1 -->
<svg width="196pt" height="269pt"
 viewBox="0.00 0.00 196.00 269.00" xmlns="http://www.w3.org/2000/svg" xmlns:xlink="http://www.w3.org/1999/xlink">
<g id="graph0" class="graph" transform="scale(1 1) rotate(0) translate(4 265)">
<title>RCVideoCanvas</title>
<!-- Node1 -->
<g id="node1" class="node">
<title>Node1</title>
<g id="a_node1"><a xlink:title=" ">
<polygon fill="#999999" stroke="#666666" points="128.5,-107 35.5,-107 35.5,0 128.5,0 128.5,-107"/>
<text text-anchor="middle" x="82" y="-95" font-family="Helvetica,sans-Serif" font-size="10.00">{RCVideoCanvas</text>
<text text-anchor="start" x="43.5" y="-84" font-family="Helvetica,sans-Serif" font-size="10.00">|+ uid</text>
<text text-anchor="start" x="43.5" y="-73" font-family="Helvetica,sans-Serif" font-size="10.00">+ renderMode</text>
<text text-anchor="start" x="43.5" y="-62" font-family="Helvetica,sans-Serif" font-size="10.00">+ mirrorMode</text>
<text text-anchor="start" x="43.5" y="-51" font-family="Helvetica,sans-Serif" font-size="10.00">|+ init</text>
<text text-anchor="start" x="43.5" y="-40" font-family="Helvetica,sans-Serif" font-size="10.00">+ initWithUid:</text>
<text text-anchor="start" x="43.5" y="-29" font-family="Helvetica,sans-Serif" font-size="10.00">+ attachView:</text>
<text text-anchor="start" x="43.5" y="-18" font-family="Helvetica,sans-Serif" font-size="10.00">+ detachView</text>
<text text-anchor="middle" x="82" y="-7" font-family="Helvetica,sans-Serif" font-size="10.00">}</text>
</a>
</g>
</g>
<!-- Node2 -->
<g id="node2" class="node">
<title>Node2</title>
<g id="a_node2"><a xlink:title=" ">
<polygon fill="white" stroke="#666666" points="62,-217 0,-217 0,-187 62,-187 62,-217"/>
<text text-anchor="middle" x="31" y="-205" font-family="Helvetica,sans-Serif" font-size="10.00">{NSObject</text>
<text text-anchor="middle" x="31" y="-194" font-family="Helvetica,sans-Serif" font-size="10.00">||}</text>
</a>
</g>
</g>
<!-- Node2&#45;&gt;Node1 -->
<g id="edge1" class="edge">
<title>Node2&#45;&gt;Node1</title>
<path fill="none" stroke="#63b8ff" d="M39.22,-177.39C45.79,-158.51 55.26,-131.32 63.62,-107.31"/>
<polygon fill="none" stroke="#63b8ff" points="35.87,-176.36 35.89,-186.95 42.48,-178.66 35.87,-176.36"/>
</g>
<!-- Node3 -->
<g id="node3" class="node">
<title>Node3</title>
<g id="a_node3"><a xlink:href="protocol_rcv_video_canvas-p.html" target="_top" xlink:title=" ">
<polygon fill="white" stroke="#666666" points="188,-261 80,-261 80,-143 188,-143 188,-261"/>
<text text-anchor="middle" x="134" y="-249" font-family="Helvetica,sans-Serif" font-size="10.00">{&lt;RcvVideoCanvas&gt;</text>
<text text-anchor="start" x="88" y="-238" font-family="Helvetica,sans-Serif" font-size="10.00">||+ setUid:</text>
<text text-anchor="start" x="88" y="-227" font-family="Helvetica,sans-Serif" font-size="10.00">+ getUid</text>
<text text-anchor="start" x="88" y="-216" font-family="Helvetica,sans-Serif" font-size="10.00">+ setRenderMode:</text>
<text text-anchor="start" x="88" y="-205" font-family="Helvetica,sans-Serif" font-size="10.00">+ getRenderMode</text>
<text text-anchor="start" x="88" y="-194" font-family="Helvetica,sans-Serif" font-size="10.00">+ setMirrorMode:</text>
<text text-anchor="start" x="88" y="-183" font-family="Helvetica,sans-Serif" font-size="10.00">+ isMirrorMode</text>
<text text-anchor="start" x="88" y="-172" font-family="Helvetica,sans-Serif" font-size="10.00">+ attachTrack:type:</text>
<text text-anchor="start" x="88" y="-161" font-family="Helvetica,sans-Serif" font-size="10.00">+ detachTrack:type:</text>
<text text-anchor="middle" x="134" y="-150" font-family="Helvetica,sans-Serif" font-size="10.00">}</text>
</a>
</g>
</g>
<!-- Node3&#45;&gt;Node1 -->
<g id="edge2" class="edge">
<title>Node3&#45;&gt;Node1</title>
<path fill="none" stroke="#63b8ff" d="M109.87,-133.03C106.82,-124.42 103.73,-115.72 100.78,-107.4"/>
<polygon fill="none" stroke="#63b8ff" points="106.66,-134.43 113.3,-142.68 113.25,-132.08 106.66,-134.43"/>
</g>
</g>
</svg>
