<?xml version="1.0" encoding="UTF-8"?>
<svg width="154px" height="40px" viewBox="0 0 154 40" version="1.1" xmlns="http://www.w3.org/2000/svg" xmlns:xlink="http://www.w3.org/1999/xlink">
    <!-- Generator: Sketch 63.1 (92452) - https://sketch.com -->
    <title>img_avaya_headerlogo copy</title>
    <desc>Created with Sketch.</desc>
    <g id="img_avaya_headerlogo-copy" stroke="none" stroke-width="1" fill="none" fill-rule="evenodd">
        <g id="Group-3" fill="#5514B4" fill-rule="nonzero">
            <g id="BT-Cloud-Work">
                <path d="M16.08,17.2 C16.08,16.4 15.44,15.92 14.48,15.92 L12.88,15.92 L12.88,18.48 L14.48,18.48 C14.96,18.56 16.08,18.4 16.08,17.2 L16.08,17.2 Z M16.08,22.48 C16.08,21.68 15.44,21.2 14.48,21.2 L12.88,21.2 L12.88,23.76 L14.48,23.76 C14.96,23.76 16.08,23.68 16.08,22.48 L16.08,22.48 Z M19.6,22.72 C19.6,25.04 17.84,26.72 15.28,26.72 L9.84,26.72 L9.84,13.28 L14.96,13.28 C17.52,13.28 19.28,14.8 19.28,17.04 C19.28,18.08 18.8,19.12 18,19.68 C18.88,20.24 19.6,21.28 19.6,22.72 L19.6,22.72 Z M36.8,20 C36.8,10.48 29.12,2.8 19.6,2.8 C10.08,2.8 2.4,10.48 2.4,20 C2.4,29.52 10.08,37.2 19.6,37.2 C29.12,37.2 36.8,29.52 36.8,20 L36.8,20 Z M39.2,20 C39.2,30.88 30.4,39.6 19.6,39.6 C8.72,39.6 0,30.8 0,20 C0,9.12 8.8,0.4 19.6,0.4 C30.48,0.4 39.2,9.12 39.2,20 L39.2,20 Z M20.64,13.28 L30,13.28 L30,16.4 L26.88,16.4 L26.88,26.64 L23.6,26.64 L23.6,16.4 L20.56,16.4 L20.56,13.28 L20.64,13.28 Z" id="Shape"></path>
                <g id="Group" transform="translate(53.600000, 12.000000)">
                    <path d="M9.712,2.856 C9.288,2.664 8.84,2.488 8.368,2.344 C7.896,2.192 7.344,2.12 6.712,2.12 C5.856,2.12 5.16,2.32 4.624,2.728 C4.088,3.128 3.672,3.648 3.376,4.272 C3.072,4.896 2.872,5.6 2.768,6.368 C2.664,7.136 2.608,7.888 2.608,8.616 C2.608,9.32 2.656,10.064 2.744,10.848 C2.832,11.632 3.024,12.352 3.32,13 C3.616,13.648 4.04,14.184 4.592,14.616 C5.144,15.04 5.888,15.256 6.824,15.256 C7.32,15.256 7.808,15.184 8.28,15.032 C8.752,14.88 9.232,14.704 9.712,14.496 L9.712,16.336 C8.768,16.768 7.72,16.984 6.552,16.984 C5.36,16.984 4.376,16.752 3.608,16.288 C2.84,15.824 2.232,15.216 1.784,14.448 C1.336,13.688 1.024,12.808 0.856,11.808 C0.688,10.808 0.6,9.768 0.6,8.696 C0.6,7.744 0.696,6.768 0.88,5.784 C1.064,4.8 1.384,3.904 1.84,3.104 C2.296,2.304 2.912,1.656 3.696,1.152 C4.48,0.648 5.472,0.4 6.664,0.4 C7.248,0.4 7.8,0.456 8.336,0.56 C8.864,0.664 9.328,0.8 9.712,0.96 L9.712,2.856 L9.712,2.856 Z" id="Path"></path>
                    <polygon id="Path" points="13.832 16.72 11.976 16.72 11.976 0.568 13.832 0.568"></polygon>
                    <path d="M25.816,11.184 C25.816,11.976 25.728,12.72 25.544,13.416 C25.368,14.112 25.08,14.72 24.696,15.256 C24.304,15.784 23.816,16.208 23.216,16.512 C22.616,16.816 21.896,16.968 21.04,16.968 C20.2,16.968 19.48,16.816 18.88,16.512 C18.272,16.208 17.776,15.784 17.392,15.256 C17,14.728 16.72,14.112 16.544,13.416 C16.368,12.72 16.272,11.976 16.272,11.184 C16.272,10.424 16.36,9.688 16.544,8.992 C16.72,8.288 17,7.672 17.384,7.136 C17.768,6.6 18.256,6.176 18.864,5.856 C19.472,5.544 20.2,5.384 21.048,5.384 C21.896,5.384 22.624,5.544 23.232,5.856 C23.84,6.168 24.328,6.592 24.712,7.136 C25.096,7.672 25.376,8.296 25.552,8.992 C25.728,9.696 25.816,10.424 25.816,11.184 Z M23.888,11.144 C23.888,10.632 23.856,10.128 23.784,9.624 C23.712,9.12 23.576,8.672 23.368,8.288 C23.16,7.896 22.864,7.576 22.496,7.328 C22.12,7.08 21.64,6.96 21.04,6.96 C20.424,6.96 19.936,7.088 19.576,7.328 C19.216,7.568 18.92,7.896 18.712,8.288 C18.504,8.68 18.368,9.128 18.296,9.624 C18.224,10.12 18.192,10.632 18.192,11.144 C18.192,11.688 18.232,12.208 18.304,12.72 C18.376,13.232 18.52,13.688 18.728,14.08 C18.936,14.48 19.224,14.8 19.592,15.04 C19.96,15.28 20.44,15.4 21.04,15.4 C21.64,15.4 22.12,15.28 22.496,15.04 C22.872,14.8 23.16,14.48 23.36,14.08 C23.56,13.68 23.696,13.232 23.776,12.72 C23.848,12.208 23.888,11.68 23.888,11.144 Z" id="Shape"></path>
                    <path d="M28.168,5.656 L30.024,5.656 L30.024,13.128 C30.024,13.832 30.168,14.392 30.448,14.792 C30.728,15.2 31.232,15.4 31.952,15.4 C32.488,15.4 33,15.24 33.472,14.92 C33.952,14.6 34.36,14.248 34.704,13.856 L34.704,5.656 L36.56,5.656 L36.56,16.72 L34.968,16.72 L34.744,15.352 C34.552,15.544 34.344,15.744 34.128,15.936 C33.912,16.128 33.672,16.304 33.4,16.448 C33.128,16.6 32.832,16.72 32.504,16.816 C32.176,16.912 31.808,16.96 31.408,16.96 C30.376,16.96 29.576,16.68 29.008,16.112 C28.44,15.544 28.16,14.736 28.16,13.696 L28.16,5.656 L28.168,5.656 Z" id="Path"></path>
                    <path d="M48.032,16.72 L46.464,16.72 L46.24,15.736 C45.944,16.032 45.56,16.312 45.088,16.576 C44.616,16.84 44.04,16.968 43.36,16.968 C42.584,16.968 41.92,16.824 41.376,16.544 C40.832,16.264 40.368,15.864 40.016,15.36 C39.656,14.856 39.4,14.256 39.232,13.568 C39.072,12.88 38.984,12.144 38.984,11.352 C38.984,10.528 39.072,9.76 39.248,9.032 C39.424,8.304 39.704,7.68 40.072,7.136 C40.44,6.6 40.92,6.176 41.504,5.856 C42.088,5.544 42.776,5.384 43.584,5.384 C44.152,5.384 44.648,5.488 45.088,5.688 C45.528,5.888 45.88,6.096 46.152,6.304 L46.152,0.568 L48.032,0.568 L48.032,16.72 L48.032,16.72 Z M46.176,7.784 C45.848,7.544 45.504,7.344 45.136,7.192 C44.768,7.032 44.36,6.96 43.896,6.96 C43.304,6.96 42.808,7.072 42.424,7.296 C42.04,7.52 41.736,7.832 41.512,8.216 C41.288,8.6 41.136,9.048 41.04,9.56 C40.952,10.072 40.904,10.624 40.904,11.216 C40.904,11.776 40.952,12.304 41.048,12.816 C41.144,13.32 41.304,13.768 41.536,14.152 C41.768,14.536 42.064,14.84 42.44,15.072 C42.808,15.296 43.272,15.408 43.824,15.408 C44.656,15.408 45.44,15.104 46.168,14.488 L46.168,7.784 L46.176,7.784 Z" id="Shape"></path>
                    <polygon id="Path" points="59.448 13.632 62.128 3.328 64.008 3.328 66.912 13.832 69.88 0.568 71.832 0.568 67.936 16.72 65.984 16.72 63.072 5.904 60.224 16.72 58.272 16.72 54.416 0.568 56.368 0.568"></polygon>
                    <path d="M81.744,11.184 C81.744,11.976 81.656,12.72 81.472,13.416 C81.296,14.112 81.008,14.72 80.624,15.256 C80.232,15.784 79.744,16.208 79.144,16.512 C78.544,16.816 77.824,16.968 76.968,16.968 C76.128,16.968 75.408,16.816 74.808,16.512 C74.2,16.208 73.704,15.784 73.32,15.256 C72.928,14.728 72.648,14.112 72.472,13.416 C72.296,12.72 72.2,11.976 72.2,11.184 C72.2,10.424 72.288,9.688 72.472,8.992 C72.648,8.288 72.928,7.672 73.312,7.136 C73.696,6.6 74.184,6.176 74.792,5.856 C75.4,5.536 76.128,5.384 76.976,5.384 C77.824,5.384 78.552,5.544 79.16,5.856 C79.768,6.168 80.256,6.592 80.64,7.136 C81.024,7.672 81.304,8.296 81.48,8.992 C81.656,9.696 81.744,10.424 81.744,11.184 Z M79.824,11.144 C79.824,10.632 79.792,10.128 79.72,9.624 C79.648,9.12 79.512,8.672 79.304,8.288 C79.096,7.896 78.8,7.576 78.432,7.328 C78.064,7.08 77.576,6.96 76.976,6.96 C76.36,6.96 75.872,7.088 75.512,7.328 C75.144,7.576 74.856,7.896 74.648,8.288 C74.44,8.68 74.304,9.128 74.232,9.624 C74.16,10.12 74.128,10.632 74.128,11.144 C74.128,11.688 74.168,12.208 74.24,12.72 C74.312,13.232 74.456,13.688 74.664,14.08 C74.872,14.48 75.16,14.8 75.528,15.04 C75.896,15.28 76.376,15.4 76.976,15.4 C77.576,15.4 78.056,15.28 78.432,15.04 C78.808,14.8 79.096,14.48 79.296,14.08 C79.496,13.68 79.632,13.232 79.712,12.72 C79.784,12.208 79.824,11.68 79.824,11.144 Z" id="Shape"></path>
                    <path d="M86,7.448 C86.296,6.896 86.72,6.416 87.264,6 C87.808,5.592 88.408,5.384 89.064,5.384 C89.272,5.384 89.504,5.4 89.76,5.432 L89.76,6.952 C89.64,6.936 89.536,6.928 89.448,6.928 C89.36,6.928 89.256,6.928 89.136,6.928 C88.616,6.928 88.08,7.064 87.536,7.328 C86.992,7.592 86.488,7.968 86.024,8.448 L86.024,16.72 L84.168,16.72 L84.168,5.656 L85.784,5.656 L86,7.448 Z" id="Path"></path>
                    <polygon id="Path" points="95.544 10.216 100 16.72 97.696 16.72 93.6 10.728 93.44 10.728 93.44 16.72 91.584 16.72 91.584 0.568 93.44 0.568 93.44 9.944 93.576 9.944 97.384 5.656 99.848 5.656"></polygon>
                </g>
            </g>
        </g>
    </g>
</svg>