<?xml version="1.0" encoding="UTF-8"?>
<svg width="354px" height="56px" viewBox="0 0 354 56" version="1.1" xmlns="http://www.w3.org/2000/svg" xmlns:xlink="http://www.w3.org/1999/xlink">
    <!-- Generator: Sketch 50.2 (55047) - http://www.bohemiancoding.com/sketch -->
    <title>ATT logo</title>
    <desc>Created with Sketch.</desc>
    <defs>
        <polygon id="path-1" points="0 0.508253165 55.6547533 0.508253165 55.6547533 55.2911392 0 55.2911392"></polygon>
        <polygon id="path-3" points="0 55.4917468 353.646 55.4917468 353.646 0.708860759 0 0.708860759"></polygon>
    </defs>
    <g id="Page-1" stroke="none" stroke-width="1" fill="none" fill-rule="evenodd">
        <g id="Phone-System-Copy" transform="translate(-121.000000, -20.000000)">
            <g id="Group">
                <g id="ATT-logo" transform="translate(121.000000, 20.000000)">
                    <g>
                        <g id="Group-3" transform="translate(0.000000, 0.200608)">
                            <mask id="mask-2" fill="white">
                                <use xlink:href="#path-1"></use>
                            </mask>
                            <g id="Clip-2"></g>
                            <path d="M10.7634084,49.534481 C15.4819147,53.1305316 21.4030929,55.2911392 27.8276647,55.2911392 C34.8571733,55.2911392 41.267342,52.721519 46.1601277,48.500962 C46.2184608,48.4506329 46.1896543,48.414481 46.1313212,48.4506329 C43.9362651,49.8931646 37.6794911,53.0440506 27.8276647,53.0440506 C19.26637,53.0440506 13.8550671,51.1641519 10.8001367,49.4848608 C10.7418035,49.4557975 10.7194785,49.4983291 10.7634084,49.534481 M29.7159315,50.934481 C36.563959,50.934481 44.0896598,49.0971139 48.5885165,45.4571139 C49.8214351,44.4668354 50.9953004,43.145519 52.0452976,41.3726582 C52.6509545,40.3540253 53.241488,39.1404557 53.7225567,37.9488608 C53.7441616,37.8921519 53.7081534,37.8630886 53.6642235,37.9275949 C49.4786376,43.9933165 37.3582986,47.7757975 24.8447506,47.7757975 C15.9997118,47.7757975 6.48276103,44.9906835 2.75663897,39.6713924 C2.71991067,39.6217722 2.68318237,39.643038 2.70550741,39.7004557 C6.17669186,46.9648608 16.7069116,50.934481 29.7159315,50.934481 M22.2341607,38.8824304 C7.99222215,38.8824304 1.27598436,32.3502785 0.0581891501,27.8922532 C0.0437858951,27.8277468 -0.00014403255,27.8419241 -0.00014403255,27.8993418 C-0.00014403255,29.4 0.153250633,31.3380253 0.415389873,32.6231899 C0.539978029,33.2469873 1.05705488,34.2308861 1.81610642,35.0134684 C5.26496582,38.5521013 13.8629889,43.512 28.753794,43.512 C49.0407787,43.512 53.6786268,36.8579241 54.6270811,34.6682532 C55.3047542,33.1037975 55.6547533,30.275443 55.6547533,27.8993418 C55.6547533,27.3251646 55.6403501,26.8658228 55.6187452,26.4135696 C55.6187452,26.3419747 55.5748153,26.3348861 55.560412,26.4071899 C54.5464229,31.7619241 37.2128257,38.8824304 22.2341607,38.8824304 M2.68318237,16.1492658 C1.86651781,17.7427848 0.962713562,20.4343291 0.692652532,21.8272405 C0.575986166,22.4226835 0.627117722,22.7097722 0.83884557,23.1549367 C2.54491112,26.7226329 11.1789423,32.428962 31.3204541,32.428962 C43.6078709,32.428962 53.1536281,29.4574177 54.6998175,24.0303797 C54.9842818,23.0330127 54.9986851,21.977519 54.6342827,20.556962 C54.2259505,18.9705316 53.4604175,17.1182785 52.8108307,15.8189367 C52.7892258,15.7756962 52.7524975,15.7834937 52.7596991,15.8338228 C53.0002335,22.9472405 32.8515201,27.5335696 22.6864229,27.5335696 C11.6751344,27.5335696 2.48657794,23.2123544 2.48657794,17.756962 C2.48657794,17.2331139 2.59604268,16.7092658 2.73503409,16.163443 C2.74943734,16.1131139 2.70550741,16.1060253 2.68318237,16.1492658 M46.2040576,7.41326582 C46.320724,7.59331646 46.3797773,7.78683544 46.3797773,8.04556962 C46.3797773,11.0887089 36.9211598,16.4717975 21.8625567,16.4717975 C10.8001367,16.4717975 8.72894864,12.4312911 8.72894864,9.86096203 C8.72894864,8.94227848 9.08614937,8.00232911 9.87400741,7.04749367 C9.91793734,6.99007595 9.88120904,6.96881013 9.83007749,7.01134177 C8.3933528,8.21073418 7.07329448,9.5596962 5.91383246,11.0171139 C5.36002731,11.7061266 5.01722984,12.3164557 5.01722984,12.6822278 C5.01722984,18.0086076 18.580775,21.870481 31.2621209,21.870481 C44.7752547,21.870481 50.8058976,17.528 50.8058976,13.7086582 C50.8058976,12.3448101 50.2664957,11.5480506 48.887384,10.0048608 C47.9907814,8.9996962 47.1453103,8.18167089 46.2479875,7.37782278 C46.2040576,7.34237975 46.1752511,7.37073418 46.2040576,7.41326582 M42.0616815,4.37012658 C37.8904988,1.9075443 33.0488447,0.508253165 27.8276647,0.508253165 C22.5697565,0.508253165 17.5819093,1.95787342 13.3963234,4.48496203 C12.1417999,5.24556962 11.4346001,5.85589873 11.4346001,6.63848101 C11.4346001,8.95007595 16.9179193,11.4332152 26.6458777,11.4332152 C36.271573,11.4332152 43.7396607,8.71260759 43.7396607,6.09265823 C43.7396607,5.4681519 43.1851354,5.03007595 42.0616815,4.37012658" id="Fill-1" fill="#009FDB" mask="url(#mask-2)"></path>
                        </g>
                        <path d="M104.10219,30.8153114 L110.978304,30.8153114 L107.524403,20.9905013 L104.10219,30.8153114 Z M105.749922,17.3100962 L109.425633,17.3100962 L117.791043,39.1430076 L113.893523,39.1430076 L112.055667,33.9342987 L102.993139,33.9342987 L101.186971,39.1430076 L97.3845118,39.1430076 L105.749922,17.3100962 Z" id="Fill-4" fill="#000000"></path>
                        <polygon id="Fill-6" fill="#000000" points="121.847144 20.5848911 114.844282 20.5848911 114.844282 17.3099544 132.49403 17.3099544 132.49403 20.5848911 125.491168 20.5848911 125.491168 39.1428658 121.847144 39.1428658"></polygon>
                        <path d="M137.437155,22.0822177 C137.437155,22.6436354 137.579027,23.1689013 137.864932,23.6573063 C138.149396,24.1464203 138.756493,24.8786734 139.686224,25.8561924 C140.91122,25.1494582 141.79414,24.4944709 142.332822,23.8912304 C142.871503,23.2886987 143.140844,22.6641924 143.140844,22.019838 C143.140844,21.3131038 142.891668,20.7410532 142.396196,20.3043949 C141.899284,19.8677367 141.238894,19.6494076 140.415748,19.6494076 C139.527788,19.6494076 138.809785,19.8726987 138.261021,20.3199899 C137.711537,20.767281 137.437155,21.3549266 137.437155,22.0822177 M139.275011,36.6790785 C140.986117,36.6790785 142.463891,35.9099646 143.711213,34.370319 L138.672955,29.1935089 C137.573986,29.8591291 136.765964,30.5297114 136.248887,31.2052557 C135.73109,31.8815089 135.471831,32.6144709 135.471831,33.4041418 C135.471831,34.3816608 135.815349,35.1713316 136.501664,35.7745722 C137.187979,36.3778127 138.111948,36.6790785 139.275011,36.6790785 M138.862357,39.4861671 C136.791889,39.4861671 135.134075,38.9559392 133.887473,37.8954835 C132.641592,36.8350278 132.018651,35.4314835 132.018651,33.6848506 C132.018651,32.4372557 132.430584,31.2782684 133.25373,30.2064709 C134.078316,29.1368 135.302593,28.1848 136.930161,27.3533063 C135.894567,26.2722937 135.181606,25.3571544 134.790557,24.6085975 C134.399509,23.8600405 134.205065,23.0491038 134.205065,22.1757873 C134.205065,20.6368506 134.780475,19.3842937 135.931295,18.4174076 C137.082835,17.4505215 138.56637,16.9670785 140.384061,16.9670785 C142.200312,16.9670785 143.65288,17.4143696 144.741046,18.308243 C145.828492,19.2028253 146.372214,20.3873316 146.372214,21.8638886 C146.372214,23.964243 144.724482,25.8873823 141.429738,27.6340152 L145.549068,31.9070278 C145.971084,31.3037873 146.393819,30.618319 146.815835,29.8484962 L148.115008,27.4468759 L151.410473,27.4468759 L149.541651,30.8153823 C149.055541,31.7099646 148.421077,32.7285975 147.640421,33.8719899 L152.868803,39.1430785 L148.622003,39.1430785 L145.738471,36.2424203 C144.788577,37.3446987 143.752983,38.1605975 142.63385,38.6908253 C141.513276,39.2210532 140.256592,39.4861671 138.862357,39.4861671" id="Fill-8" fill="#000000"></path>
                        <polygon id="Fill-10" fill="#000000" points="157.209296 20.5848911 150.206433 20.5848911 150.206433 17.3099544 167.856902 17.3099544 167.856902 20.5848911 160.854039 20.5848911 160.854039 39.1428658 157.209296 39.1428658"></polygon>
                        <path d="M187.882323,18.5265013 C186.213706,18.5265013 184.745294,18.9475646 183.477808,19.7896911 C182.210321,20.6318177 181.233061,21.785843 180.546746,23.2517671 C179.85971,24.7176911 179.516913,26.3764253 179.516913,28.2265519 C179.516913,30.1603241 179.881315,31.8651342 180.61012,33.3416911 C181.338925,34.8182481 182.33707,35.9517165 183.604557,36.7413873 C184.872043,37.5324759 186.297965,37.9266025 187.882323,37.9266025 C189.55022,37.9266025 191.019352,37.5055392 192.286839,36.6634127 C193.554325,35.8212861 194.530866,34.6672608 195.217901,33.2013367 C195.904216,31.7354127 196.247734,30.0773873 196.247734,28.2265519 C196.247734,26.2927797 195.883331,24.5879696 195.154527,23.1114127 C194.425722,21.6355646 193.427576,20.5020962 192.16009,19.7117165 C190.892604,18.9220456 189.466681,18.5265013 187.882323,18.5265013 M187.882323,16.9981975 C189.867812,16.9981975 191.626449,17.4972354 193.158236,18.4953114 C194.689302,19.4933873 195.872529,20.8402228 196.707198,22.5344 C197.541146,24.2292861 197.95884,26.1269063 197.95884,28.2265519 C197.95884,30.4311089 197.509459,32.3904 196.612136,34.105843 C195.714093,35.8212861 194.50494,37.1418937 192.983956,38.066957 C191.462972,38.9920203 189.761948,39.4549063 187.882323,39.4549063 C185.896114,39.4549063 184.138197,38.9558684 182.606411,37.9577924 C181.074625,36.9597165 179.891397,35.6135899 179.057449,33.9187038 C178.22278,32.2238177 177.805806,30.3269063 177.805806,28.2265519 C177.805806,26.0227038 178.254467,24.0627038 179.15251,22.3472608 C180.049833,20.6318177 181.259707,19.3112101 182.78069,18.3861468 C184.301674,17.4610835 186.001978,16.9981975 187.882323,16.9981975" id="Fill-12" fill="#000000"></path>
                        <mask id="mask-4" fill="white">
                            <use xlink:href="#path-3"></use>
                        </mask>
                        <g id="Clip-15"></g>
                        <path d="M222.551174,39.1425823 L224.135532,39.1425823 L224.135532,23.0486076 L222.551174,23.0486076 L222.551174,39.1425823 Z M222.139241,17.9029873 C222.139241,17.5698228 222.250146,17.2997468 222.471956,17.0920506 C222.693766,16.8843544 222.983992,16.7801519 223.343353,16.7801519 C223.702714,16.7801519 223.99294,16.8843544 224.21475,17.0920506 C224.43656,17.2997468 224.547465,17.5698228 224.547465,17.9029873 C224.547465,18.235443 224.43656,18.5062278 224.21475,18.7139241 C223.99294,18.9216203 223.702714,19.0258228 223.343353,19.0258228 C222.983992,19.0258228 222.693766,18.9216203 222.471956,18.7139241 C222.250146,18.5062278 222.139241,18.235443 222.139241,17.9029873 Z M214.122389,23.0486076 L223.15323,23.0486076 L223.15323,24.3592911 L214.122389,24.3592911 L214.122389,39.1432911 L212.538031,39.1432911 L212.538031,24.3592911 L209.401002,24.3592911 L209.401002,23.0486076 L212.538031,23.0486076 L212.538031,21.3338734 C212.538031,19.483038 212.981651,18.0383797 213.868892,16.9977722 C214.756132,15.9585823 216.002734,15.4389873 217.607977,15.4389873 C218.516102,15.4389873 219.329886,15.6055696 220.047888,15.9380253 L219.69933,17.1856203 C218.959722,16.9566582 218.28421,16.8425316 217.671351,16.8425316 C216.551498,16.8425316 215.680101,17.227443 215.05716,17.996557 C214.43422,18.7656709 214.122389,19.8573165 214.122389,21.2714937 L214.122389,23.0486076 Z M204.109246,23.0486076 L213.140087,23.0486076 L213.140087,24.3592911 L204.109246,24.3592911 L204.109246,39.1432911 L202.524888,39.1432911 L202.524888,24.3592911 L199.387859,24.3592911 L199.387859,23.0486076 L202.524888,23.0486076 L202.524888,21.3338734 C202.524888,19.483038 202.968509,18.0383797 203.855749,16.9977722 C204.74299,15.9585823 205.988871,15.4389873 207.594834,15.4389873 C208.502959,15.4389873 209.316023,15.6055696 210.034745,15.9380253 L209.686187,17.1856203 C208.94658,16.9566582 208.270347,16.8425316 207.658208,16.8425316 C206.538355,16.8425316 205.666958,17.227443 205.044018,17.996557 C204.421077,18.7656709 204.109246,19.8573165 204.109246,21.2714937 L204.109246,23.0486076 Z" id="Fill-14" fill="#000000" mask="url(#mask-4)"></path>
                        <path d="M234.9693,39.4551899 C233.364058,39.4551899 231.95902,39.0908354 230.754908,38.3635443 C229.550796,37.6362532 228.621066,36.6374684 227.966438,35.3686076 C227.31109,34.1004557 226.984136,32.6763544 226.984136,31.0963038 C226.984136,29.4326076 227.332695,27.9666835 228.029812,26.6978228 C228.72693,25.4303797 229.677545,24.4521519 230.881657,23.7666835 C232.085769,23.0797975 233.448317,22.7374177 234.9693,22.7374177 C235.856541,22.7374177 236.664564,22.8416203 237.393368,23.0486076 C238.122173,23.2570127 238.877624,23.6100253 239.659,24.1097722 L239.120318,25.2942785 C238.380711,24.8788861 237.705199,24.5825823 237.09234,24.4060759 C236.479482,24.2295696 235.771562,24.140962 234.9693,24.140962 C233.701814,24.140962 232.587002,24.4478987 231.626305,25.0603544 C230.664167,25.6742278 229.920239,26.5064304 229.39236,27.5555443 C228.863761,28.6060759 228.600181,29.7856203 228.600181,31.0963038 C228.600181,32.4686582 228.880324,33.6843544 229.439891,34.7448101 C229.999457,35.8059747 230.759949,36.6218734 231.721366,37.1939241 C232.682064,37.7652658 233.765188,38.0516456 234.9693,38.0516456 C235.793167,38.0516456 236.5587,37.9580759 237.26662,37.7709367 C237.97454,37.5830886 238.676698,37.2924557 239.373816,36.8976203 L239.912498,38.0821266 C238.539147,38.9972658 236.891415,39.4551899 234.9693,39.4551899" id="Fill-16" fill="#000000" mask="url(#mask-4)"></path>
                        <path d="M248.024339,24.1406076 C246.989465,24.1406076 246.054694,24.4057215 245.220025,24.9359494 C244.385356,25.4661772 243.714885,26.1941772 243.20789,27.1192405 C242.700896,28.0450127 242.394826,29.0792405 242.288963,30.2226329 L253.189346,30.2226329 L253.189346,29.9738228 C253.189346,28.8509873 252.967536,27.8316456 252.523916,26.9165063 C252.080295,26.0013671 251.472478,25.3102278 250.701904,24.8423797 C249.929889,24.3745316 249.038328,24.1406076 248.024339,24.1406076 M248.626395,39.4548354 C246.999547,39.4548354 245.584427,39.0911899 244.380315,38.3631899 C243.176203,37.6358987 242.251514,36.6427848 241.607689,35.384557 C240.963143,34.127038 240.64123,32.6972658 240.64123,31.0966582 C240.64123,29.453519 240.978987,27.992557 241.655219,26.7137722 C242.331452,25.4349873 243.228775,24.4525063 244.348628,23.7663291 C245.467761,23.0801519 246.693478,22.7370633 248.024339,22.7370633 C249.396969,22.7370633 250.59604,23.0595949 251.620831,23.7039494 C252.644903,24.3483038 253.432041,25.2322532 253.980805,26.3550886 C254.530289,27.4779241 254.805391,28.7467848 254.805391,30.1602532 C254.805391,30.6181772 254.784506,31.0753924 254.742017,31.5326076 L242.257275,31.5326076 C242.32065,32.8425823 242.637521,33.9916456 243.20789,34.9790886 C243.778259,35.9672405 244.53299,36.7257215 245.473522,37.2559494 C246.413335,37.7861772 247.464772,38.0512911 248.626395,38.0512911 C249.703758,38.0512911 250.622686,37.9527595 251.383178,37.7549873 C252.14367,37.5579241 252.945931,37.2197975 253.791402,36.7413165 L254.361771,37.9265316 C253.495415,38.4673924 252.613216,38.8572658 251.715893,39.0961519 C250.81785,39.335038 249.788017,39.4548354 248.626395,39.4548354" id="Fill-17" fill="#000000" mask="url(#mask-4)"></path>
                        <path d="M268.823287,37.5210633 C269.584499,37.5210633 270.407645,37.3027342 271.295606,36.8660759 C272.182126,36.4294177 272.99519,35.8261772 273.734797,35.0570633 L275.668434,28.1952911 C275.224814,27.7798987 274.680371,27.4516962 274.035825,27.2128101 C273.392,26.9739241 272.741693,26.8541266 272.087065,26.8541266 C270.904557,26.8541266 269.831515,27.1816203 268.870818,27.8366076 C267.9094,28.4915949 267.159711,29.3493165 266.621029,30.4097722 C266.082348,31.4702278 265.813007,32.6242532 265.813007,33.872557 C265.813007,35.0159494 266.077306,35.9105316 266.605186,36.5541772 C267.133065,37.1992405 267.873392,37.5210633 268.823287,37.5210633 M277.188698,39.9226835 C276.069565,39.9226835 275.193127,39.6419747 274.559383,39.080557 C273.92492,38.5191392 273.597246,37.7393924 273.577081,36.7413165 C272.879964,37.4069367 272.081303,37.9322025 271.183981,38.3164051 C270.285938,38.7013165 269.393656,38.8941266 268.507136,38.8941266 C267.176275,38.8941266 266.130599,38.4567595 265.369386,37.583443 C264.608895,36.7101266 264.228649,35.5355443 264.228649,34.0589873 C264.228649,32.4796456 264.598092,31.0179747 265.337699,29.677519 C266.077306,28.3356456 267.048806,27.3014177 268.252918,26.5734177 C269.45775,25.8461266 270.788611,25.4817722 272.2455,25.4817722 C272.985108,25.4817722 273.698069,25.6122025 274.385104,25.8716456 C275.070699,26.1317975 275.646829,26.490481 276.111334,26.9476962 L276.554954,25.762481 L277.885815,25.762481 L275.350842,34.8075443 C275.181604,35.3491139 275.098065,35.888557 275.098065,36.4294177 C275.098065,37.1368608 275.266583,37.6614177 275.604339,38.0045063 C275.942816,38.3475949 276.470695,38.5191392 277.188698,38.5191392 C278.329435,38.5191392 279.359988,38.1398987 280.278196,37.3807089 C281.197844,36.621519 281.910805,35.6142278 282.417079,34.3552911 C282.924074,33.0977722 283.178291,31.7098228 283.178291,30.191443 C283.178291,28.1123544 282.72891,26.3083038 281.830867,24.78 C280.932824,23.2516962 279.686942,22.0771139 278.091782,21.2555443 C276.496621,20.4346835 274.654445,20.0235443 272.562372,20.0235443 C269.879766,20.0235443 267.460739,20.6629367 265.306012,21.9417215 C263.151285,23.2205063 261.482668,24.8997975 260.299441,26.9788861 C259.116213,29.0586835 258.52496,31.3249114 258.52496,33.7782785 C258.52496,36.0657722 259.000267,38.0364051 259.951602,39.6887595 C260.901497,41.3418228 262.24316,42.6050127 263.975872,43.4783291 C265.707143,44.3516456 267.746644,44.7883038 270.091494,44.7883038 C271.168857,44.7883038 272.277908,44.6741772 273.418646,44.4459241 C274.559383,44.2162532 275.636027,43.8937215 276.650016,43.4783291 L276.999295,44.7883038 C274.970596,45.724 272.647351,46.1918481 270.028119,46.1918481 C267.303023,46.1918481 264.952412,45.6821772 262.977726,44.6635443 C261.00232,43.6449114 259.496459,42.2045063 258.461585,40.3437468 C257.426712,38.4829873 256.908915,36.3046582 256.908915,33.8094684 C256.908915,30.8776203 257.626917,28.2527089 259.063641,25.9340253 C260.499646,23.6160506 262.407357,21.816962 264.783894,20.5381772 C267.159711,19.2593924 269.76382,18.62 272.594059,18.62 C275.065658,18.62 277.225426,19.1140759 279.074084,20.101519 C280.922741,21.0896709 282.338581,22.4563544 283.320883,24.2029873 C284.302465,25.9496203 284.794336,27.9457722 284.794336,30.191443 C284.794336,32.1046582 284.450099,33.7995443 283.763783,35.2753924 C283.077468,36.7519494 282.158541,37.8953418 281.007,38.7062785 C279.85546,39.5172152 278.583653,39.9226835 277.188698,39.9226835" id="Fill-18" fill="#000000" mask="url(#mask-4)"></path>
                        <polygon id="Fill-19" fill="#000000" mask="url(#mask-4)" points="288.165706 17.310238 289.813439 17.310238 289.813439 27.3533772 302.868549 27.3533772 302.868549 17.310238 304.516281 17.310238 304.516281 39.1431494 302.868549 39.1431494 302.868549 28.8504911 289.813439 28.8504911 289.813439 39.1431494 288.165706 39.1431494"></polygon>
                        <path d="M312.842515,38.051362 C313.814735,38.051362 314.81216,37.8330329 315.836952,37.3963747 C316.861743,36.9597165 317.764827,36.3784506 318.546924,35.6497418 L318.546924,31.3455392 L313.445291,31.3455392 C310.613611,31.3455392 309.198491,32.5109063 309.198491,34.8388051 C309.198491,35.7950582 309.536248,36.569843 310.213201,37.1624506 C310.888713,37.7550582 311.765872,38.051362 312.842515,38.051362 M312.684079,39.4549063 C311.099721,39.4549063 309.853839,39.0444759 308.945714,38.2229063 C308.036869,37.4020456 307.582446,36.2841722 307.582446,34.8699949 C307.582446,33.2899443 308.057754,32.0891342 309.009089,31.2675646 C309.958983,30.4459949 311.364021,30.0355646 313.222761,30.0355646 L318.546924,30.0355646 L318.546924,29.2558177 C318.546924,25.8461975 317.057627,24.1406785 314.079034,24.1406785 C313.191074,24.1406785 312.341282,24.2555139 311.528218,24.4837671 C310.714434,24.7127291 309.853839,25.0763747 308.945714,25.5754127 L308.375345,24.3901975 C309.409499,23.8082228 310.38748,23.3871595 311.305688,23.1270076 C312.225335,22.8675646 313.222761,22.7371342 314.300124,22.7371342 C318.186843,22.7371342 320.130562,24.8580456 320.130562,29.0998684 L320.130562,39.1430076 L318.831388,39.1430076 L318.610298,37.1468557 C317.785712,37.8542987 316.8459,38.4157165 315.790141,38.8311089 C314.732942,39.2472101 313.698068,39.4549063 312.684079,39.4549063" id="Fill-20" fill="#000000" mask="url(#mask-4)"></path>
                        <path d="M323.740594,39.1430076 L323.740594,23.0490329 L325.040487,23.0490329 L325.261577,25.0451848 C327.226902,23.5062481 329.244077,22.7371342 331.314545,22.7371342 C333.130796,22.7371342 334.509187,23.2723241 335.44972,24.3434127 C336.388812,25.4145013 336.859799,27.0002228 336.859799,29.0998684 L336.859799,39.1430076 L335.27544,39.1430076 L335.27544,29.2558177 C335.27544,25.8873114 333.827913,24.2030582 330.933579,24.2030582 C328.969695,24.2030582 327.099433,24.9622481 325.324952,26.479919 L325.324952,39.1430076 L323.740594,39.1430076 Z" id="Fill-21" fill="#000000" mask="url(#mask-4)"></path>
                        <path d="M346.674681,38.051362 C347.6469,38.051362 348.554305,37.8748557 349.399776,37.5211342 C350.244527,37.1681215 351.131768,36.5960709 352.061498,35.8056911 L352.061498,26.1992101 C351.365101,25.5342987 350.583004,25.0246278 349.717368,24.6709063 C348.850292,24.3171848 347.963052,24.1406785 347.054926,24.1406785 C345.30205,24.1406785 343.891972,24.7800709 342.824691,26.0588557 C341.758129,27.3376405 341.225209,29.0169316 341.225209,31.0960203 C341.225209,33.1545519 341.726442,34.8281722 342.729629,36.1175899 C343.732816,37.4070076 345.047833,38.051362 346.674681,38.051362 Z M353.646576,15.7506025 L353.646576,39.1430076 L352.346682,39.1430076 L352.124872,37.2716152 C351.153373,38.0627038 350.224363,38.6241215 349.336402,38.9558684 C348.449882,39.2883241 347.477662,39.4549063 346.421183,39.4549063 C345.047833,39.4549063 343.843721,39.0912608 342.809567,38.3632608 C341.773973,37.6359696 340.981794,36.6428557 340.43231,35.3846278 C339.882826,34.1271089 339.608444,32.6973367 339.608444,31.0960203 C339.608444,29.4117671 339.925315,27.9352101 340.559779,26.6670582 C341.193522,25.3989063 342.059158,24.4270582 343.157406,23.7508051 C344.256374,23.0752608 345.502256,22.7371342 346.897211,22.7371342 C347.783731,22.7371342 348.670972,22.8930835 349.558212,23.2049823 C350.445453,23.516881 351.280121,23.9748051 352.061498,24.5773367 L352.061498,15.7506025 L353.646576,15.7506025 Z" id="Fill-22" fill="#000000" mask="url(#mask-4)"></path>
                    </g>
                </g>
            </g>
        </g>
    </g>
</svg>