<svg id="Layer_1" data-name="Layer 1" xmlns="http://www.w3.org/2000/svg" viewBox="0 0 175.75 31.26"><defs><style>.cls-1{fill:#49166d;}.cls-1,.cls-2{fill-rule:evenodd;}.cls-2{fill:#6c0;}</style></defs><title>TELUS</title><polygon class="cls-1" points="97.51 8.66 97.51 5.29 85.5 5.29 85.5 22.61 97.51 22.61 97.51 19.09 90.36 19.09 90.36 15.26 96.31 15.26 96.31 11.89 90.36 11.89 90.36 8.66 97.51 8.66 97.51 8.66"/><polygon class="cls-1" points="118.69 19.19 111.18 19.19 111.18 5.29 106.26 5.29 106.26 22.61 118.69 22.61 118.69 19.19 118.69 19.19"/><path class="cls-1" d="M158.32,11.89c-3.32-.75-4.48-.83-4.48-2.16s1.64-1.61,2.59-1.61a11.39,11.39,0,0,1,5.18,1.3l1.34-3.19a14.2,14.2,0,0,0-6.64-1.46c-4.58,0-7.65,1.86-7.78,5.48-.13,3.3,2.55,4.54,5,5s4.79.91,4.84,2.33S157.26,19.5,155,19.5a15.3,15.3,0,0,1-5.9-1.47L148,21.49A17.37,17.37,0,0,0,154.87,23c3.25,0,5.62-.51,7.37-2.15A5,5,0,0,0,163.85,17c0-2.74-1.71-4.28-5.53-5.14Z"/><polygon class="cls-1" points="78.52 8.71 78.52 5.29 63.42 5.29 63.42 8.71 68.52 8.71 68.52 22.61 73.41 22.61 73.41 8.71 78.52 8.71 78.52 8.71"/><path class="cls-1" d="M135.47,5.29v11a9,9,0,0,1-.05,1.43c-.16,1.05-1.17,1.66-2.8,1.68a2.9,2.9,0,0,1-2.49-1,3.63,3.63,0,0,1-.31-1.83V5.29h-5.1V17.22a4.55,4.55,0,0,0,1,3.34c1.23,1.54,3.63,2.35,6.94,2.35h.18c4.43,0,6.71-1.73,7.38-3.34a5.76,5.76,0,0,0,.35-2.74V5.29Z"/><path class="cls-1" d="M65.72.55,37.1,6.25v2l.09,0C56.1,3.62,65.72.86,65.8.84a.15.15,0,0,0,.13-.18.16.16,0,0,0-.21-.11Z"/><path class="cls-2" d="M41.71,2.14c.44-.29.57-.11.44.21C41.93,2.87,41,6,33.76,11.88a41,41,0,0,1-5.92,4A62,62,0,0,1,41.71,2.14ZM42.45,0c-1.39.08-4,2.14-5.38,3.36-5.63,4.87-9.82,9.35-12.86,14A155.67,155.67,0,0,1,1.74,27l-.19.07L0,31.26l.88-.34a213.78,213.78,0,0,0,21.37-9.67,9.19,9.19,0,0,0-.65,3.2,5.43,5.43,0,0,0,.36,2,4.77,4.77,0,0,0,2.77,2.68A12,12,0,0,0,32.5,29c7.87-2.39,17.2-9.71,19.24-11.16l.08-.06a.15.15,0,0,0,.05-.2.16.16,0,0,0-.21,0h0l-.1.06c-2.18,1.31-12.78,7.6-19.67,9.45-3.51.94-6.18.43-7.19-1a3,3,0,0,1-.52-1.8,10.19,10.19,0,0,1,1.91-5.12c1.16-.66,2.24-1.3,3.21-1.92C36,13.46,43.76,6.12,44.09,1.64c0,0,0-.07,0-.1A1.56,1.56,0,0,0,43.63.46,1.49,1.49,0,0,0,42.45,0Zm-1,1.78h0Z"/><polygon class="cls-1" points="37.01 6.27 6.9 12.74 5.74 15.87 37.1 8.24 37.15 8.23 37.15 6.24 37.01 6.27 37.01 6.27"/><path class="cls-1" d="M169.74,8.57a2.67,2.67,0,1,1,5.35,0,2.67,2.67,0,1,1-5.35,0Zm2.68,3.3a3.29,3.29,0,1,0-3.34-3.3,3.29,3.29,0,0,0,3.34,3.3Zm-.7-3h.66l1,1.64H174L173,8.81a1,1,0,0,0,1-1c0-.75-.45-1.08-1.34-1.08h-1.45v3.79h.57V8.84Zm0-.49V7.17h.78c.41,0,.83.09.83.56s-.44.62-.93.62Z"/></svg>