<?xml version="1.0" encoding="UTF-8"?>
<svg width="269px" height="30px" viewBox="0 0 269 30" version="1.1" xmlns="http://www.w3.org/2000/svg" xmlns:xlink="http://www.w3.org/1999/xlink">
    <title>developers_beta-program-logo (1)</title>
    <g id="DPW" stroke="none" stroke-width="1" fill="none" fill-rule="evenodd">
        <g id="Artboard" transform="translate(-314.000000, -43.000000)">
            <g id="developers_beta-program-logo-(1)" transform="translate(314.000000, 43.000000)">
                <path d="M145.179197,24.4080291 C149.987747,24.4080291 153.25346,21.2462138 153.25346,15.2622823 C153.25346,9.30448148 149.987747,6.11653544 145.179197,6.11653544 L138.751544,6.11653544 L138.751544,24.4080291 L145.179197,24.4080291 Z M141.703439,8.52056032 L144.996658,8.52056032 C148.027319,8.52056032 150.170287,10.6110167 150.170287,14.2431848 L150.170287,16.2813798 C150.170287,19.9135478 148.027319,22.0040042 144.996658,22.0040042 L141.703439,22.0040042 L141.703439,8.52056032 Z M162.029126,24.7215975 C164.928509,24.7215975 166.706398,23.3628009 167.464063,21.4552594 L165.138555,20.6713382 C164.693458,21.5597822 163.753253,22.3959648 162.029126,22.3959648 C159.93867,22.3959648 158.4746,21.0371681 158.4746,18.4240976 L158.579623,18.3457055 C159.02347,18.4502283 159.598596,18.5024897 160.224982,18.5024897 L167.802887,18.5024897 L167.802887,17.6401764 C167.802887,13.2240873 165.216072,11.029108 161.897848,11.029108 C158.239549,11.029108 155.626478,13.5637864 155.626478,17.8753528 C155.626478,22.1869191 158.083265,24.7215975 162.029126,24.7215975 Z M158.4746,16.5949482 C158.65714,14.5567532 159.93867,13.250218 161.897848,13.250218 C163.753253,13.250218 164.954765,14.5567532 165.059788,16.5426868 L164.954765,16.6210789 C164.484662,16.5688175 163.83202,16.5426868 163.309406,16.5426868 L160.224982,16.5426868 C159.598596,16.5426868 159.02347,16.5949482 158.579623,16.6472096 L158.4746,16.5949482 Z M176.823606,24.4080291 L181.239571,11.3426765 L178.286426,11.3426765 L175.543327,20.2793777 C175.334531,20.958776 175.176997,21.4813901 175.09823,21.9517428 L174.941946,21.9517428 C174.863178,21.4813901 174.706894,20.958776 174.498099,20.2793777 L171.75375,11.3426765 L168.801855,11.3426765 L173.217819,24.4080291 L176.823606,24.4080291 Z M188.909995,24.7215975 C191.809378,24.7215975 193.587267,23.3628009 194.344932,21.4552594 L192.019424,20.6713382 C191.574327,21.5597822 190.634122,22.3959648 188.909995,22.3959648 C186.819539,22.3959648 185.355469,21.0371681 185.355469,18.4240976 L185.460492,18.3457055 C185.904339,18.4502283 186.479465,18.5024897 187.105851,18.5024897 L194.683756,18.5024897 L194.683756,17.6401764 C194.683756,13.2240873 192.096941,11.029108 188.778717,11.029108 C185.120418,11.029108 182.507347,13.5637864 182.507347,17.8753528 C182.507347,22.1869191 184.964134,24.7215975 188.909995,24.7215975 Z M185.355469,16.5949482 C185.538009,14.5567532 186.819539,13.250218 188.778717,13.250218 C190.634122,13.250218 191.835634,14.5567532 191.940657,16.5426868 L191.835634,16.6210789 C191.365531,16.5688175 190.712889,16.5426868 190.190275,16.5426868 L187.105851,16.5426868 C186.479465,16.5426868 185.904339,16.5949482 185.460492,16.6472096 L185.355469,16.5949482 Z M200.412507,24.4080291 L200.412507,5.07130724 L197.538129,5.07130724 L197.538129,24.4080291 L200.412507,24.4080291 Z M209.868321,24.7215975 C213.605387,24.7215975 216.192202,22.1346577 216.192202,17.8753528 C216.192202,13.6160478 213.605387,11.029108 209.868321,11.029108 C206.157511,11.029108 203.544441,13.6160478 203.544441,17.8753528 C203.544441,22.1346577 206.157511,24.7215975 209.868321,24.7215975 Z M209.868321,22.3959648 C207.804121,22.3959648 206.445074,21.0632988 206.445074,18.5547511 L206.445074,17.1959545 C206.445074,14.7135375 207.804121,13.3547408 209.868321,13.3547408 C211.932522,13.3547408 213.291569,14.7135375 213.291569,17.1959545 L213.291569,18.5547511 C213.291569,21.0632988 211.932522,22.3959648 209.868321,22.3959648 Z M222.163506,30 L222.163506,24.7999897 C222.163506,24.0160685 222.110994,23.4673237 221.95471,22.7617947 L222.084739,22.7095332 C223.024944,24.0683299 224.357735,24.7215975 226.004344,24.7215975 C229.322569,24.7215975 231.439281,22.1869191 231.439281,17.8753528 C231.439281,13.5637864 229.427592,11.029108 226.109367,11.029108 C224.383991,11.029108 223.156222,11.7607678 222.189761,13.250218 L222.058483,13.250218 L221.744664,11.3426765 L219.289128,11.3426765 L219.289128,30 L222.163506,30 Z M225.351702,22.3959648 C223.365018,22.3959648 222.163506,21.0371681 222.163506,18.7376661 L222.163506,17.0130395 C222.163506,14.7135375 223.365018,13.3547408 225.351702,13.3547408 C227.363391,13.3547408 228.512392,14.6874068 228.512392,17.1959545 L228.512392,18.5547511 C228.512392,21.0632988 227.363391,22.3959648 225.351702,22.3959648 Z M240.119926,24.7215975 C243.020559,24.7215975 244.797197,23.3628009 245.554863,21.4552594 L243.229355,20.6713382 C242.785508,21.5597822 241.844053,22.3959648 240.119926,22.3959648 C238.02947,22.3959648 236.5654,21.0371681 236.5654,18.4240976 L236.670423,18.3457055 C237.11427,18.4502283 237.689396,18.5024897 238.317033,18.5024897 L245.894937,18.5024897 L245.894937,17.6401764 C245.894937,13.2240873 243.308122,11.029108 239.988648,11.029108 C236.330349,11.029108 233.717278,13.5637864 233.717278,17.8753528 C233.717278,22.1869191 236.174065,24.7215975 240.119926,24.7215975 Z M236.5654,16.5949482 C236.74919,14.5567532 238.02947,13.250218 239.988648,13.250218 C241.844053,13.250218 243.046815,14.5567532 243.150588,16.5426868 L243.046815,16.6210789 C242.575462,16.5688175 241.92282,16.5426868 241.400206,16.5426868 L238.317033,16.5426868 C237.689396,16.5426868 237.11427,16.5949482 236.670423,16.6472096 L236.5654,16.5949482 Z M251.596182,24.4080291 L251.596182,17.1175623 C251.596182,15.0793673 252.876461,13.7467014 254.966918,13.7467014 C255.384509,13.7467014 255.698327,13.7728321 256.012146,13.8512242 L256.012146,11.1858923 C255.750839,11.1597615 255.61956,11.1597615 255.358253,11.1597615 C253.581615,11.1597615 252.327592,11.8652906 251.569926,13.0934337 L251.438647,13.0934337 L251.17734,11.3426765 L248.721804,11.3426765 L248.721804,24.4080291 L251.596182,24.4080291 Z M262.916153,24.7215975 C266.260634,24.7215975 268.219811,22.996971 268.219811,20.5929461 C268.219811,18.3979669 266.862015,17.2482159 264.510251,16.8039939 L262.053465,16.3859026 C260.74693,16.1507262 260.171804,15.6281121 260.171804,14.7919296 C260.171804,13.7989628 260.92947,13.1456951 262.549823,13.1456951 C264.038898,13.1456951 264.980354,13.7205707 265.55548,14.7135375 L267.854732,14.0080084 C267.148327,12.0743362 265.294173,11.029108 262.549823,11.029108 C259.492906,11.029108 257.479966,12.5969503 257.479966,14.9748445 C257.479966,17.0130395 258.761496,18.1889212 261.164521,18.6592739 L263.595052,19.0773652 C264.954098,19.3386723 265.424201,19.8874171 265.424201,20.7497304 C265.424201,21.8210893 264.587768,22.5004876 262.916153,22.5004876 C261.322055,22.5004876 260.171804,21.6904357 259.596679,20.5929461 L257.167398,21.3246059 C257.820041,23.1537552 259.622934,24.7215975 262.916153,24.7215975 Z" id="Shape" fill="#222222" fill-rule="nonzero"></path>
                <polygon id="Path" fill="#FF7A00" fill-rule="nonzero" points="129.424508 5.05126536 126.386344 5.05126536 126.386344 24.4392859 129.424508 24.4392859"></polygon>
                <path d="M118.76218,11.5517221 C115.957942,11.5517221 113.782968,12.9127693 113.415762,15.6912509 L116.402289,15.6912509 C116.612835,14.6435222 117.385754,14.0143848 118.76218,14.0143848 C120.359403,14.0143848 121.093939,14.931085 121.093939,16.3717745 L121.093939,17.0265425 L118.027769,17.0265425 C115.203028,17.0265425 113.115322,18.2848172 113.115322,20.8527529 C113.115322,23.4206885 114.817819,24.7561051 117.280481,24.7561051 C119.193649,24.7561051 120.451924,23.9420523 121.132447,22.6323914 L121.263351,22.6323914 L121.263351,24.4299089 L124.144605,24.4299089 L124.144605,16.4692958 C124.131727,13.3980002 122.560134,11.5517221 118.76218,11.5517221 Z M118.14592,22.424346 C116.967163,22.424346 116.232752,21.8465948 116.232752,20.8836346 C116.232752,19.7820191 117.018549,19.2067685 118.433483,19.2067685 L121.078435,19.2067685 L121.093939,19.3890583 C121.093939,21.2944743 119.992198,22.424346 118.14592,22.424346 Z" id="Shape" fill="#FF7A00"></path>
                <path d="M107.730146,24.439536 L107.730146,17.9168618 C107.730146,15.9780635 108.937035,14.7455444 110.847577,14.7455444 L112.044338,14.7455444 L112.044338,11.8642904 L110.811694,11.8642904 C109.371004,11.8642904 108.323401,12.4137853 107.668508,13.6464295 L107.563235,13.6464295 L107.563235,11.8642904 L104.707736,11.8642904 L104.707736,24.4471626 L107.730146,24.439536 Z" id="Path" fill="#FF7A00"></path>
                <path d="M102.77894,21.6656803 L102.77894,24.4416614 L100.709113,24.4416614 C97.7996029,24.4416614 96.2023792,23.0934921 96.2023792,20.1839818 L96.2023792,14.3624608 L94.1325523,14.3624608 L94.1325523,11.8664158 L96.2023792,11.8664158 L96.2023792,8.52809947 L99.242793,8.52809947 L99.242793,11.8664158 L102.77894,11.8664158 L102.77894,14.3624608 L99.242793,14.3624608 L99.242793,19.832155 C99.242793,20.9851568 99.9233166,21.6656803 101.076318,21.6656803 L102.77894,21.6656803 Z" id="Path" fill="#FF7A00"></path>
                <path d="M84.1770036,24.4401611 L84.1770036,17.1575711 C84.1770036,15.375432 85.2787442,14.2095524 87.0582577,14.2095524 C88.7608795,14.2095524 89.7828526,15.1930171 89.7828526,17.1190627 L89.7828526,24.4401611 L92.825892,24.4401611 L92.825892,16.6337067 C92.825892,13.4622643 91.2850556,11.5517221 88.1368682,11.5517221 C86.2210749,11.5517221 84.7573804,12.4145355 84.1026124,13.5931678 L83.9947138,13.5931678 L83.9947138,11.8650405 L81.1468421,11.8650405 L81.1468421,24.4479128 L84.1770036,24.4401611 Z" id="Path" fill="#FF7A00"></path>
                <path d="M73.0064397,22.2691871 C71.093272,22.2691871 69.8092417,20.9852818 69.7579805,18.9668411 L79.0590112,18.9668411 L79.0462584,17.9832513 C79.0462584,13.7667057 76.3216636,11.5634747 72.9935619,11.5634747 C69.398402,11.5634747 66.7714534,14.1314104 66.7714534,18.1656662 C66.7714534,22.199922 69.2083605,24.7678576 72.9935619,24.7678576 C76.1623788,24.7678576 78.2322057,23.0909915 78.8355874,20.6283289 L75.8875688,20.6283289 C75.5614976,21.5732852 74.7603227,22.2691871 73.0064397,22.2691871 Z M72.9935619,14.0800241 C74.9837465,14.0800241 76.1623788,15.2073953 76.2420212,16.7789884 L69.7451027,16.7789884 C70.0326655,15.1816397 71.0008769,14.0800241 72.9935619,14.0800241 Z" id="Shape" fill="#FF7A00"></path>
                <path d="M57.6782181,24.7798603 C62.2107077,24.7798603 64.7786433,22.2659364 65.3821501,18.5321212 L62.3006023,18.5321212 C61.8435025,20.2346179 60.6031067,21.806211 57.6782181,21.806211 C54.6660604,21.806211 52.254784,19.7518875 52.254784,15.2554058 C52.254784,10.758924 54.6660604,8.70970162 57.6782181,8.70970162 C60.6905008,8.70970162 61.8973893,10.2813198 62.3006023,11.9581859 L65.3821501,11.9581859 C64.8839163,8.22435815 62.3544891,5.79507776 57.6782181,5.79507776 C52.6476197,5.79507776 49.0063247,9.30545669 49.0063247,15.2964147 C49.0063247,21.2874728 52.6476197,24.7978642 57.6782181,24.7978642 L57.6782181,24.7798603 Z" id="Path" fill="#FF7A00"></path>
                <path d="M44.0687467,11.8692915 L44.0687467,13.5949182 L43.9248403,13.5949182 C43.2444417,12.3905303 41.8295078,11.5534725 39.8161932,11.5534725 C36.8681746,11.5534725 34.2103443,13.8851066 34.2103443,17.9990048 C34.2103443,22.112778 36.8296661,24.4701677 39.8161932,24.4701677 C41.7549915,24.4701677 42.897741,23.6818705 43.7734322,22.346454 L43.9120875,22.346454 L43.9120875,24.9966576 C43.9120875,26.4115915 43.1262909,27.0663595 41.8422606,27.0663595 L35.679165,27.0663595 L35.679165,29.7729504 L41.7832477,29.7729504 C45.1626105,29.7729504 46.9705052,27.8855383 46.9705052,24.7937383 L46.9705052,11.8692915 L44.0687467,11.8692915 Z M40.6507504,21.7199422 C38.6323097,21.7199422 37.3484044,20.464168 37.3484044,18.0015053 C37.3484044,15.5388426 38.6195569,14.2805679 40.6507504,14.2805679 C42.6151793,14.2805679 43.9248403,15.5363421 43.9248403,18.0015053 C43.9248403,20.4667936 42.6280571,21.7199422 40.6507504,21.7199422 Z" id="Shape" fill="#0684BC"></path>
                <path d="M23.7099267,24.4434118 L23.7099267,17.1606968 C23.7099267,15.3785577 24.8115422,14.2126781 26.5936813,14.2126781 C28.296178,14.2126781 29.3182762,15.1962679 29.3182762,17.1221883 L29.3182762,24.4434118 L32.3561894,24.4434118 L32.3561894,16.6368324 C32.3561894,13.4653899 30.815353,11.5548478 27.6670406,11.5548478 C25.753998,11.5548478 24.2748,12.4176612 23.620032,13.5964186 L23.5147591,13.5964186 L23.5147591,11.8681662 L20.6720134,11.8681662 L20.6720134,24.4511635 L23.7099267,24.4434118 Z" id="Path" fill="#0684BC"></path>
                <polygon id="Path" fill="#0684BC" fill-rule="nonzero" points="18.1034526 11.8662908 15.0655393 11.8662908 15.0655393 24.4414114 18.1034526 24.4414114"></polygon>
                <path d="M9.7735964,15.7681427 L9.7735964,15.6448658 C11.6327898,15.1312537 12.8910645,13.8832312 12.8910645,11.0791189 C12.8910645,8.19783986 10.7417203,6.0998318 6.75883818,6.0998318 L0,6.0998318 L0,24.4401611 L3.14316126,24.4401611 L3.14316126,17.157446 L6.96940915,17.157446 C8.75156076,17.157446 9.64263031,18.0485156 9.64263031,19.8306547 L9.64263031,24.4529139 L12.7857916,24.4529139 L12.7857916,19.8306547 C12.7857916,17.2369634 11.684151,16.1892346 9.7735964,15.7681427 Z M6.58935118,14.3275782 L3.14316126,14.3275782 L3.14316126,8.93485078 L6.58935118,8.93485078 C8.2918979,8.93485078 9.60154634,9.64360552 9.60154634,11.63374 C9.60154634,13.6239246 8.27905759,14.3275782 6.58935118,14.3275782 Z" id="Shape" fill="#0684BC"></path>
                <path d="M16.5837458,9.84922541 C16.983208,9.84973803 17.3737933,9.73172476 17.7061158,9.51013888 C18.0384384,9.2885405 18.297495,8.97333418 18.4506534,8.60441613 C18.6036868,8.23549808 18.6439456,7.82944693 18.5660536,7.43768639 C18.4882866,7.04591336 18.2959946,6.68603478 18.013558,6.40359812 C17.7311213,6.12116145 17.3712927,5.92886947 16.9794572,5.85107749 C16.5877467,5.773273 16.181658,5.81346927 15.8127024,5.9665527 C15.4438719,6.11963612 15.1286781,6.37874269 14.9070047,6.71105275 C14.6854563,7.0433753 14.5674306,7.43397308 14.5679307,7.83338529 C14.5645549,8.23321008 14.6810804,8.6248706 14.9027538,8.95769326 C15.1243021,9.29051593 15.4406212,9.54920991 15.810827,9.7002929 C16.0556305,9.80205261 16.3186879,9.85273868 16.5837458,9.84922541 Z" id="Path" fill="#FF7A00"></path>
                <path d="M14.267365,2.23875129 C13.5314544,2.54676854 12.8631835,2.99606664 12.3002981,3.56125254 L13.7254967,4.98646371 C14.0990783,4.61073168 14.5430502,4.31227901 15.032032,4.10814695 C15.5210138,3.90402738 16.0453782,3.79822928 16.5752439,3.79680397 C17.1051096,3.79536615 17.6300992,3.89833864 18.1202062,4.09980762 C18.6103133,4.30128911 19.0557855,4.59734125 19.4314925,4.97104785 L20.8566787,3.54583667 C20.0103689,2.70125227 18.9328837,2.12635175 17.7601276,1.89371346 C16.5873716,1.66108767 15.3719812,1.78115138 14.267365,2.23875129 Z" id="Path" fill="#FF7A00"></path>
                <path d="M252.098792,5.90398904 C253.406577,5.90398904 254.005458,5.21237554 254.005458,4.25086561 C254.005458,3.50022672 253.609121,2.98572688 252.857707,2.79174703 L252.857707,2.74957532 C253.456588,2.5218506 253.760404,2.04109564 253.760404,1.49286344 C253.760404,0.598830745 253.179027,0 251.938757,0 L249.770783,0 L249.770783,5.90398904 L252.098792,5.90398904 Z M250.724742,0.725345867 L251.812479,0.725345867 C252.495128,0.725345867 252.82395,1.037414 252.82395,1.53503515 L252.82395,1.6868558 C252.82395,2.12543905 252.512632,2.49654508 251.854988,2.49654508 L250.724742,2.49654508 L250.724742,0.725345867 Z M250.724742,3.22189095 L251.981266,3.22189095 C252.715176,3.22189095 253.060251,3.58455763 253.060251,4.11592364 L253.060251,4.28461047 C253.060251,4.7990978 252.722678,5.17864317 251.981266,5.17864317 L250.724742,5.17864317 L250.724742,3.22189095 Z M258.616465,5.90398904 L258.616465,5.12803212 L255.89212,5.12803212 L255.89212,3.28092884 L258.422672,3.28092884 L258.422672,2.50497192 L255.89212,2.50497192 L255.89212,0.775944415 L258.565203,0.775944415 L258.565203,0 L254.939412,0 L254.939412,5.90398904 L258.616465,5.90398904 Z M261.579612,5.90398904 L261.579612,0.775944415 L263.224971,0.775944415 L263.224971,0 L258.990296,0 L258.990296,0.775944415 L260.635655,0.775944415 L260.635655,5.90398904 L261.579612,5.90398904 Z M268.368594,5.90398904 L266.326898,0 L265.061622,0 L263.021176,5.90398904 L264.007642,5.90398904 L264.462741,4.52920138 L266.925779,4.52920138 L267.380878,5.90398904 L268.368594,5.90398904 Z M265.525473,1.31573727 C265.60174,1.08801255 265.644249,0.91089888 265.669254,0.750651392 L265.719265,0.750651392 C265.745521,0.91089888 265.78678,1.08801255 265.863047,1.31573727 L266.664472,3.74481762 L264.724048,3.74481762 L265.525473,1.31573727 Z" id="Shape" fill="#222222" fill-rule="nonzero"></path>
            </g>
        </g>
    </g>
</svg>