<svg width="2152" height="261" viewBox="0 0 2152 261" fill="none" xmlns="http://www.w3.org/2000/svg">
<path d="M1161.18 213C1199.64 213 1225.76 187.711 1225.76 139.85C1225.76 92.198 1199.64 66.7 1161.18 66.7H1109.77V213H1161.18ZM1133.38 85.928H1159.72C1183.96 85.928 1201.1 102.648 1201.1 131.699V148.001C1201.1 177.052 1183.96 193.772 1159.72 193.772H1133.38V85.928ZM1295.95 215.508C1319.14 215.508 1333.36 204.64 1339.42 189.383L1320.82 183.113C1317.26 190.219 1309.74 196.907 1295.95 196.907C1279.23 196.907 1267.52 186.039 1267.52 165.139L1268.36 164.512C1271.91 165.348 1276.51 165.766 1281.52 165.766H1342.13V158.869C1342.13 123.548 1321.44 105.992 1294.9 105.992C1265.64 105.992 1244.74 126.265 1244.74 160.75C1244.74 195.235 1264.39 215.508 1295.95 215.508ZM1267.52 150.509C1268.98 134.207 1279.23 123.757 1294.9 123.757C1309.74 123.757 1319.35 134.207 1320.19 150.091L1319.35 150.718C1315.59 150.3 1310.37 150.091 1306.19 150.091H1281.52C1276.51 150.091 1271.91 150.509 1268.36 150.927L1267.52 150.509ZM1414.28 213L1449.6 108.5H1425.98L1404.04 179.978C1402.37 185.412 1401.11 189.592 1400.48 193.354H1399.23C1398.6 189.592 1397.35 185.412 1395.68 179.978L1373.73 108.5H1350.12L1385.44 213H1414.28ZM1510.95 215.508C1534.14 215.508 1548.36 204.64 1554.42 189.383L1535.82 183.113C1532.26 190.219 1524.74 196.907 1510.95 196.907C1494.23 196.907 1482.52 186.039 1482.52 165.139L1483.36 164.512C1486.91 165.348 1491.51 165.766 1496.52 165.766H1557.13V158.869C1557.13 123.548 1536.44 105.992 1509.9 105.992C1480.64 105.992 1459.74 126.265 1459.74 160.75C1459.74 195.235 1479.39 215.508 1510.95 215.508ZM1482.52 150.509C1483.98 134.207 1494.23 123.757 1509.9 123.757C1524.74 123.757 1534.35 134.207 1535.19 150.091L1534.35 150.718C1530.59 150.3 1525.37 150.091 1521.19 150.091H1496.52C1491.51 150.091 1486.91 150.509 1483.36 150.927L1482.52 150.509ZM1602.95 213V58.34H1579.96V213H1602.95ZM1678.58 215.508C1708.47 215.508 1729.16 194.817 1729.16 160.75C1729.16 126.683 1708.47 105.992 1678.58 105.992C1648.9 105.992 1628 126.683 1628 160.75C1628 194.817 1648.9 215.508 1678.58 215.508ZM1678.58 196.907C1662.07 196.907 1651.2 186.248 1651.2 166.184V155.316C1651.2 135.461 1662.07 124.593 1678.58 124.593C1695.09 124.593 1705.96 135.461 1705.96 155.316V166.184C1705.96 186.248 1695.09 196.907 1678.58 196.907ZM1776.92 257.726V216.135C1776.92 209.865 1776.5 205.476 1775.25 199.833L1776.29 199.415C1783.81 210.283 1794.47 215.508 1807.64 215.508C1834.18 215.508 1851.11 195.235 1851.11 160.75C1851.11 126.265 1835.02 105.992 1808.48 105.992C1794.68 105.992 1784.86 111.844 1777.13 123.757H1776.08L1773.57 108.5H1753.93V257.726H1776.92ZM1802.42 196.907C1786.53 196.907 1776.92 186.039 1776.92 167.647V153.853C1776.92 135.461 1786.53 124.593 1802.42 124.593C1818.51 124.593 1827.7 135.252 1827.7 155.316V166.184C1827.7 186.248 1818.51 196.907 1802.42 196.907ZM1920.54 215.508C1943.74 215.508 1957.95 204.64 1964.01 189.383L1945.41 183.113C1941.86 190.219 1934.33 196.907 1920.54 196.907C1903.82 196.907 1892.11 186.039 1892.11 165.139L1892.95 164.512C1896.5 165.348 1901.1 165.766 1906.12 165.766H1966.73V158.869C1966.73 123.548 1946.04 105.992 1919.49 105.992C1890.23 105.992 1869.33 126.265 1869.33 160.75C1869.33 195.235 1888.98 215.508 1920.54 215.508ZM1892.11 150.509C1893.58 134.207 1903.82 123.757 1919.49 123.757C1934.33 123.757 1943.95 134.207 1944.78 150.091L1943.95 150.718C1940.18 150.3 1934.96 150.091 1930.78 150.091H1906.12C1901.1 150.091 1896.5 150.509 1892.95 150.927L1892.11 150.509ZM2012.33 213V154.689C2012.33 138.387 2022.57 127.728 2039.29 127.728C2042.63 127.728 2045.14 127.937 2047.65 128.564V107.246C2045.56 107.037 2044.51 107.037 2042.42 107.037C2028.21 107.037 2018.18 112.68 2012.12 122.503H2011.07L2008.98 108.5H1989.34V213H2012.33ZM2102.87 215.508C2129.62 215.508 2145.29 201.714 2145.29 182.486C2145.29 164.93 2134.43 155.734 2115.62 152.181L2095.97 148.837C2085.52 146.956 2080.92 142.776 2080.92 136.088C2080.92 128.146 2086.98 122.921 2099.94 122.921C2111.85 122.921 2119.38 127.519 2123.98 135.461L2142.37 129.818C2136.72 114.352 2121.89 105.992 2099.94 105.992C2075.49 105.992 2059.39 118.532 2059.39 137.551C2059.39 153.853 2069.64 163.258 2088.86 167.02L2108.3 170.364C2119.17 172.454 2122.93 176.843 2122.93 183.74C2122.93 192.309 2116.24 197.743 2102.87 197.743C2090.12 197.743 2080.92 191.264 2076.32 182.486L2056.89 188.338C2062.11 202.968 2076.53 215.508 2102.87 215.508Z" fill="white"/>
<path d="M1035.17 58.1797H1010.87V213.25H1035.17V58.1797Z" fill="white"/>
<path fill-rule="evenodd" clip-rule="evenodd" d="M949.89 110.172C927.461 110.172 910.065 121.058 907.128 143.281H931.015C932.699 134.901 938.881 129.869 949.89 129.869C962.665 129.869 968.54 137.201 968.54 148.724V153.961H944.016C921.423 153.961 904.725 164.025 904.725 184.564C904.725 205.103 918.342 215.784 938.039 215.784C953.341 215.784 963.405 209.273 968.848 198.798H969.895V213.175H992.94V149.504C992.837 124.939 980.267 110.172 949.89 110.172ZM944.961 197.134C935.533 197.134 929.659 192.513 929.659 184.811C929.659 176 935.944 171.399 947.261 171.399H968.416L968.54 172.857C968.54 188.097 959.728 197.134 944.961 197.134Z" fill="white"/>
<path fill-rule="evenodd" clip-rule="evenodd" d="M861.653 213.252V161.082C861.653 145.575 871.306 135.717 886.587 135.717H896.159V112.672H886.3C874.777 112.672 866.398 117.067 861.16 126.926H860.318V112.672H837.479V213.313L861.653 213.252Z" fill="white"/>
<path fill-rule="evenodd" clip-rule="evenodd" d="M822.052 191.066V213.269H805.497C782.226 213.269 769.451 202.486 769.451 179.215V132.653H752.896V112.689H769.451V85.9883H793.769V112.689H822.052V132.653H793.769V176.401C793.769 185.623 799.212 191.066 808.434 191.066H822.052Z" fill="white"/>
<path fill-rule="evenodd" clip-rule="evenodd" d="M673.269 213.257V155.009C673.269 140.755 682.081 131.43 696.314 131.43C709.932 131.43 718.106 139.296 718.106 154.701V213.257H742.445V150.819C742.445 125.453 730.121 110.172 704.941 110.172C689.618 110.172 677.911 117.073 672.674 126.5H671.811V112.678H649.033V213.319L673.269 213.257Z" fill="white"/>
<path fill-rule="evenodd" clip-rule="evenodd" d="M583.924 195.893C568.622 195.893 558.352 185.624 557.942 169.48H632.334L632.232 161.613C632.232 127.888 610.44 110.266 583.821 110.266C555.066 110.266 534.055 130.805 534.055 163.072C534.055 195.339 553.546 215.878 583.821 215.878C609.166 215.878 625.721 202.466 630.547 182.769H606.968C604.36 190.327 597.952 195.893 583.924 195.893ZM583.821 130.394C599.739 130.394 609.166 139.411 609.803 151.981H557.839C560.139 139.205 567.883 130.394 583.821 130.394Z" fill="white"/>
<path fill-rule="evenodd" clip-rule="evenodd" d="M461.325 215.974C497.577 215.974 518.116 195.867 522.943 166.003H498.296C494.64 179.62 484.719 192.19 461.325 192.19C437.233 192.19 417.947 175.759 417.947 139.795C417.947 103.831 437.233 87.4408 461.325 87.4408C485.418 87.4408 495.071 100.011 498.296 113.423H522.943C518.958 83.5589 498.727 64.1289 461.325 64.1289C421.089 64.1289 391.965 92.2058 391.965 140.123C391.965 188.041 421.089 216.118 461.325 216.118V215.974Z" fill="white"/>
<path fill-rule="evenodd" clip-rule="evenodd" d="M352.473 112.712V126.514H351.322C345.88 116.881 334.563 110.186 318.46 110.186C294.881 110.186 273.623 128.835 273.623 161.739C273.623 194.642 294.573 213.497 318.46 213.497C333.967 213.497 343.107 207.192 350.111 196.511H351.22V217.708C351.22 229.025 344.935 234.262 334.665 234.262H285.371V255.91H334.193C361.222 255.91 375.682 240.814 375.682 216.085V112.712H352.473ZM325.135 191.5C308.991 191.5 298.722 181.456 298.722 161.759C298.722 142.062 308.889 131.998 325.135 131.998C340.847 131.998 351.322 142.042 351.322 161.759C351.322 181.477 340.95 191.5 325.135 191.5Z" fill="white"/>
<path fill-rule="evenodd" clip-rule="evenodd" d="M189.638 213.283V155.034C189.638 140.78 198.449 131.455 212.703 131.455C226.32 131.455 234.495 139.322 234.495 154.726V213.283H258.793V150.844C258.793 125.478 246.469 110.197 221.288 110.197C205.987 110.197 194.156 117.098 188.919 126.526H188.077V112.703H165.34V213.345L189.638 213.283Z" fill="white"/>
<path d="M144.796 112.688H120.498V213.267H144.796V112.688Z" fill="white"/>
<path fill-rule="evenodd" clip-rule="evenodd" d="M78.1717 143.896V142.91C93.042 138.802 103.106 128.82 103.106 106.392C103.106 83.3468 85.915 66.5664 54.0589 66.5664H0V213.257H25.1398V155.008H55.7431C69.9972 155.008 77.1242 162.135 77.1242 176.389V213.359H102.264V176.389C102.264 155.644 93.4528 147.264 78.1717 143.896ZM52.7033 132.374H25.1398V89.2416H52.7033C66.3207 89.2416 76.7956 94.9104 76.7956 110.828C76.7956 126.746 66.218 132.374 52.7033 132.374Z" fill="white"/>
<path fill-rule="evenodd" clip-rule="evenodd" d="M132.641 96.555C135.836 96.5591 138.96 95.6152 141.618 93.8429C144.276 92.0705 146.348 89.5494 147.573 86.5987C148.797 83.648 149.119 80.4003 148.496 77.2669C147.874 74.1334 146.336 71.255 144.077 68.996C141.818 66.737 138.94 65.199 135.806 64.5768C132.673 63.9545 129.425 64.276 126.474 65.5004C123.524 66.7248 121.003 68.7972 119.23 71.4551C117.458 74.1131 116.514 77.2372 116.518 80.4318C116.491 83.6297 117.423 86.7623 119.196 89.4243C120.968 92.0863 123.498 94.1554 126.459 95.3638C128.417 96.1777 130.521 96.5831 132.641 96.555Z" fill="white"/>
<path fill-rule="evenodd" clip-rule="evenodd" d="M114.114 35.6845C108.228 38.1481 102.883 41.7417 98.3809 46.2622L109.78 57.6614C112.768 54.6562 116.319 52.2691 120.23 50.6364C124.141 49.0038 128.335 48.1576 132.573 48.1462C136.811 48.1347 141.01 48.9583 144.93 50.5697C148.85 52.1812 152.413 54.5491 155.418 57.5381L166.817 46.1389C160.048 39.3837 151.43 34.7855 142.05 32.9248C132.67 31.0642 122.949 32.0245 114.114 35.6845Z" fill="white"/>
<path d="M2016.35 65C2026.81 65 2031.6 59.4683 2031.6 51.7779C2031.6 45.7741 2028.43 41.659 2022.42 40.1075V39.7702C2027.21 37.9488 2029.64 34.1036 2029.64 29.7187C2029.64 22.568 2024.99 17.7784 2015.07 17.7784H1997.73V65H2016.35ZM2005.36 23.5799H2014.06C2019.52 23.5799 2022.15 26.0759 2022.15 30.056V31.2703C2022.15 34.7782 2019.66 37.7464 2014.4 37.7464H2005.36V23.5799ZM2005.36 43.5479H2015.41C2021.28 43.5479 2024.04 46.4486 2024.04 50.6986V52.0478C2024.04 56.1628 2021.34 59.1985 2015.41 59.1985H2005.36V43.5479ZM2068.48 65V58.7937H2046.69V44.0201H2066.93V37.8138H2046.69V23.9846H2068.07V17.7784H2039.07V65H2068.48ZM2092.18 65V23.9846H2105.34V17.7784H2071.47V23.9846H2084.63V65H2092.18ZM2146.48 65L2130.15 17.7784H2120.03L2103.71 65H2111.6L2115.24 54.0041H2134.94L2138.58 65H2146.48ZM2123.74 28.302C2124.35 26.4806 2124.69 25.064 2124.89 23.7823H2125.29C2125.5 25.064 2125.83 26.4806 2126.44 28.302L2132.85 47.7304H2117.33L2123.74 28.302Z" fill="white"/>
</svg>
